<svg xmlns="http://www.w3.org/2000/svg" xmlns:xlink="http://www.w3.org/1999/xlink" width="1980" zoomAndPan="magnify" viewBox="0 0 1485 225" height="300" preserveAspectRatio="xMidYMid meet" version="1.0"><defs><clipPath id="id1"><path d="M 1118.914062 34.574219 L 1485 34.574219 L 1485 177 L 1118.914062 177 Z M 1118.914062 34.574219 " clip-rule="nonzero"/></clipPath><clipPath id="id2"><path d="M 1255.640625 22.5 L 1485 22.5 L 1485 165 L 1255.640625 165 Z M 1255.640625 22.5 " clip-rule="nonzero"/></clipPath><clipPath id="id3"><path d="M 1209.273438 85.007812 L 1485 85.007812 L 1485 196 L 1209.273438 196 Z M 1209.273438 85.007812 " clip-rule="nonzero"/></clipPath><clipPath id="id4"><path d="M 865.464844 52.199219 L 1277.214844 52.199219 L 1277.214844 163.199219 L 865.464844 163.199219 Z M 865.464844 52.199219 " clip-rule="nonzero"/></clipPath><clipPath id="id5"><path d="M 1133.328125 70 L 1485 70 L 1485 180.933594 L 1133.328125 180.933594 Z M 1133.328125 70 " clip-rule="nonzero"/></clipPath><clipPath id="id6"><path d="M 371.300781 102.792969 L 783.050781 102.792969 L 783.050781 213.792969 L 371.300781 213.792969 Z M 371.300781 102.792969 " clip-rule="nonzero"/></clipPath><clipPath id="id7"><path d="M 482.933594 78.894531 L 865.433594 78.894531 L 865.433594 182.394531 L 482.933594 182.394531 Z M 482.933594 78.894531 " clip-rule="nonzero"/></clipPath><clipPath id="id8"><path d="M 619.621094 112.5 L 1031.371094 112.5 L 1031.371094 223.5 L 619.621094 223.5 Z M 619.621094 112.5 " clip-rule="nonzero"/></clipPath><clipPath id="id9"><path d="M 922.367188 118.207031 L 1334.117188 118.207031 L 1334.117188 225 L 922.367188 225 Z M 922.367188 118.207031 " clip-rule="nonzero"/></clipPath><clipPath id="id10"><path d="M 917.003906 89.113281 L 1307.753906 89.113281 L 1307.753906 194.863281 L 917.003906 194.863281 Z M 917.003906 89.113281 " clip-rule="nonzero"/></clipPath><clipPath id="id11"><path d="M 1179.640625 93.234375 L 1485 93.234375 L 1485 198.984375 L 1179.640625 198.984375 Z M 1179.640625 93.234375 " clip-rule="nonzero"/></clipPath><clipPath id="id12"><path d="M 1266.878906 123.878906 L 1485 123.878906 L 1485 225 L 1266.878906 225 Z M 1266.878906 123.878906 " clip-rule="nonzero"/></clipPath><clipPath id="id13"><path d="M 444 144.449219 L 821 144.449219 L 821 225 L 444 225 Z M 444 144.449219 " clip-rule="nonzero"/></clipPath><clipPath id="id14"><path d="M 915.855469 129.128906 L 1443.105469 129.128906 L 1443.105469 225 L 915.855469 225 Z M 915.855469 129.128906 " clip-rule="nonzero"/></clipPath><clipPath id="id15"><path d="M 992 145.027344 L 1475.75 145.027344 L 1475.75 225 L 992 225 Z M 992 145.027344 " clip-rule="nonzero"/></clipPath><clipPath id="id16"><path d="M 669.039062 130.117188 L 1179.789062 130.117188 L 1179.789062 225 L 669.039062 225 Z M 669.039062 130.117188 " clip-rule="nonzero"/></clipPath><clipPath id="id17"><path d="M 548.167969 174.183594 L 959.917969 174.183594 L 959.917969 225 L 548.167969 225 Z M 548.167969 174.183594 " clip-rule="nonzero"/></clipPath><clipPath id="id18"><path d="M 973.242188 204.226562 L 1384.992188 204.226562 L 1384.992188 225 L 973.242188 225 Z M 973.242188 204.226562 " clip-rule="nonzero"/></clipPath><clipPath id="id19"><path d="M 341.488281 177.019531 L 753.238281 177.019531 L 753.238281 225 L 341.488281 225 Z M 341.488281 177.019531 " clip-rule="nonzero"/></clipPath><clipPath id="id20"><path d="M 400.667969 189.492188 L 935.417969 189.492188 L 935.417969 225 L 400.667969 225 Z M 400.667969 189.492188 " clip-rule="nonzero"/></clipPath><clipPath id="id21"><path d="M 0 126.613281 L 339 126.613281 L 339 225 L 0 225 Z M 0 126.613281 " clip-rule="nonzero"/></clipPath><clipPath id="id22"><path d="M 87.953125 142 L 470.453125 142 L 470.453125 225 L 87.953125 225 Z M 87.953125 142 " clip-rule="nonzero"/></clipPath><clipPath id="id23"><path d="M 179.125 73.566406 L 590.875 73.566406 L 590.875 184.566406 L 179.125 184.566406 Z M 179.125 73.566406 " clip-rule="nonzero"/></clipPath><clipPath id="id24"><path d="M 179.125 168.8125 L 689.875 168.8125 L 689.875 225 L 179.125 225 Z M 179.125 168.8125 " clip-rule="nonzero"/></clipPath><clipPath id="id25"><path d="M 12 123.847656 L 389 123.847656 L 389 225 L 12 225 Z M 12 123.847656 " clip-rule="nonzero"/></clipPath><clipPath id="id26"><path d="M 115.140625 200.839844 L 526.890625 200.839844 L 526.890625 225 L 115.140625 225 Z M 115.140625 200.839844 " clip-rule="nonzero"/></clipPath><clipPath id="id27"><path d="M 181.761719 173.769531 L 716.511719 173.769531 L 716.511719 225 L 181.761719 225 Z M 181.761719 173.769531 " clip-rule="nonzero"/></clipPath><clipPath id="id28"><path d="M 0 200.839844 L 309.222656 200.839844 L 309.222656 225 L 0 225 Z M 0 200.839844 " clip-rule="nonzero"/></clipPath><clipPath id="id29"><path d="M 547.28125 154.339844 L 1031 154.339844 L 1031 225 L 547.28125 225 Z M 547.28125 154.339844 " clip-rule="nonzero"/></clipPath><clipPath id="id30"><path d="M 153.632812 125.496094 L 565.382812 125.496094 L 565.382812 225 L 153.632812 225 Z M 153.632812 125.496094 " clip-rule="nonzero"/></clipPath><clipPath id="id31"><path d="M 215.546875 100.871094 L 750.296875 100.871094 L 750.296875 225 L 215.546875 225 Z M 215.546875 100.871094 " clip-rule="nonzero"/></clipPath><clipPath id="id32"><path d="M 169.675781 217 L 704.425781 217 L 704.425781 225 L 169.675781 225 Z M 169.675781 217 " clip-rule="nonzero"/></clipPath><clipPath id="id33"><path d="M 1369 112.5 L 1485 112.5 L 1485 225 L 1369 225 Z M 1369 112.5 " clip-rule="nonzero"/></clipPath><clipPath id="id34"><path d="M 1265.558594 213.117188 L 1485 213.117188 L 1485 225 L 1265.558594 225 Z M 1265.558594 213.117188 " clip-rule="nonzero"/></clipPath><clipPath id="id35"><path d="M 0 38.617188 L 320.617188 38.617188 L 320.617188 181 L 0 181 Z M 0 38.617188 " clip-rule="nonzero"/></clipPath><clipPath id="id36"><path d="M 277.898438 153.777344 L 805.148438 153.777344 L 805.148438 225 L 277.898438 225 Z M 277.898438 153.777344 " clip-rule="nonzero"/></clipPath><clipPath id="id37"><path d="M 0 117.535156 L 332.292969 117.535156 L 332.292969 225 L 0 225 Z M 0 117.535156 " clip-rule="nonzero"/></clipPath><clipPath id="id38"><path d="M 0 102.460938 L 256.34375 102.460938 L 256.34375 213.460938 L 0 213.460938 Z M 0 102.460938 " clip-rule="nonzero"/></clipPath><clipPath id="id39"><path d="M 0 76.722656 L 221.074219 76.722656 L 221.074219 182.472656 L 0 182.472656 Z M 0 76.722656 " clip-rule="nonzero"/></clipPath><clipPath id="id40"><path d="M 0 130.117188 L 190.558594 130.117188 L 190.558594 225 L 0 225 Z M 0 130.117188 " clip-rule="nonzero"/></clipPath><clipPath id="id41"><path d="M 132 140.574219 L 509 140.574219 L 509 225 L 132 225 Z M 132 140.574219 " clip-rule="nonzero"/></clipPath><clipPath id="id42"><path d="M 0 163.332031 L 423.421875 163.332031 L 423.421875 225 L 0 225 Z M 0 163.332031 " clip-rule="nonzero"/></clipPath></defs><rect x="-148.5" width="1782" fill="#ffffff" y="-22.5" height="270" fill-opacity="1"/><rect x="-148.5" width="1782" fill="#050511" y="-22.5" height="270" fill-opacity="1"/><g clip-path="url(#id1)"><path fill="#1c1d32" d="M 1621.34375 127.375 C 1617.289062 127.375 1613.460938 128.363281 1610.078125 130.082031 C 1606.25 116.496094 1593.789062 106.535156 1579.003906 106.535156 C 1576.367188 106.535156 1573.804688 106.867188 1571.339844 107.457031 C 1567.441406 88.078125 1550.335938 73.484375 1529.832031 73.484375 C 1511.960938 73.484375 1496.691406 84.574219 1490.46875 100.257812 C 1482.0625 90.886719 1469.859375 84.988281 1456.289062 84.988281 C 1454 84.988281 1451.765625 85.164062 1449.582031 85.476562 C 1446.929688 56.988281 1422.996094 34.691406 1393.859375 34.691406 C 1375.746094 34.691406 1359.644531 43.316406 1349.402344 56.675781 C 1345.292969 55.460938 1340.941406 54.800781 1336.4375 54.800781 C 1316.070312 54.800781 1298.808594 68.074219 1292.792969 86.464844 C 1289.085938 85.492188 1285.183594 84.972656 1281.179688 84.972656 C 1276.050781 84.972656 1271.128906 85.820312 1266.519531 87.382812 C 1258.769531 78.847656 1247.609375 73.484375 1235.179688 73.484375 C 1214.675781 73.484375 1197.570312 88.078125 1193.671875 107.457031 C 1191.207031 106.867188 1188.660156 106.535156 1186.007812 106.535156 C 1171.207031 106.535156 1158.746094 116.496094 1154.933594 130.082031 C 1151.550781 128.34375 1147.722656 127.375 1143.667969 127.375 C 1129.992188 127.375 1118.898438 138.476562 1118.898438 152.167969 C 1118.898438 165.855469 1129.992188 176.957031 1143.667969 176.957031 L 1621.34375 176.957031 C 1635.019531 176.957031 1646.113281 165.855469 1646.113281 152.167969 C 1646.113281 138.476562 1635.019531 127.375 1621.34375 127.375 Z M 1621.34375 127.375 " fill-opacity="1" fill-rule="nonzero"/></g><g clip-path="url(#id2)"><path fill="#1c1d32" d="M 1758.070312 115.296875 C 1754.015625 115.296875 1750.183594 116.285156 1746.804688 118.003906 C 1742.972656 104.421875 1730.511719 94.460938 1715.726562 94.460938 C 1713.09375 94.460938 1710.527344 94.789062 1708.066406 95.382812 C 1704.167969 76 1687.058594 61.410156 1666.554688 61.410156 C 1648.6875 61.410156 1633.417969 72.496094 1627.195312 88.179688 C 1618.789062 78.8125 1606.585938 72.914062 1593.015625 72.914062 C 1590.726562 72.914062 1588.492188 73.085938 1586.308594 73.398438 C 1583.65625 44.910156 1559.71875 22.617188 1530.582031 22.617188 C 1512.472656 22.617188 1496.371094 31.238281 1486.125 44.597656 C 1482.019531 43.382812 1477.667969 42.726562 1473.160156 42.726562 C 1452.796875 42.726562 1435.53125 55.996094 1429.519531 74.386719 C 1425.808594 73.417969 1421.910156 72.894531 1417.90625 72.894531 C 1412.777344 72.894531 1407.851562 73.746094 1403.242188 75.308594 C 1395.496094 66.773438 1384.332031 61.410156 1371.90625 61.410156 C 1351.402344 61.410156 1334.292969 76 1330.394531 95.382812 C 1327.933594 94.789062 1325.386719 94.460938 1322.734375 94.460938 C 1307.933594 94.460938 1295.46875 104.421875 1291.65625 118.003906 C 1288.277344 116.269531 1284.445312 115.296875 1280.390625 115.296875 C 1266.714844 115.296875 1255.625 126.402344 1255.625 140.089844 C 1255.625 153.777344 1266.714844 164.882812 1280.390625 164.882812 L 1758.070312 164.882812 C 1771.746094 164.882812 1782.839844 153.777344 1782.839844 140.089844 C 1782.839844 126.402344 1771.746094 115.296875 1758.070312 115.296875 Z M 1758.070312 115.296875 " fill-opacity="1" fill-rule="nonzero"/></g><g clip-path="url(#id3)"><path fill="#07071c" d="M 1601.640625 157.296875 C 1598.476562 157.296875 1595.484375 158.066406 1592.84375 159.402344 C 1589.851562 148.820312 1580.121094 141.0625 1568.574219 141.0625 C 1566.519531 141.0625 1564.515625 141.320312 1562.59375 141.78125 C 1559.546875 126.683594 1546.1875 115.316406 1530.175781 115.316406 C 1516.21875 115.316406 1504.296875 123.953125 1499.4375 136.171875 C 1492.871094 128.871094 1483.34375 124.277344 1472.742188 124.277344 C 1470.957031 124.277344 1469.210938 124.414062 1467.503906 124.65625 C 1465.433594 102.464844 1446.742188 85.09375 1423.988281 85.09375 C 1409.84375 85.09375 1397.269531 91.8125 1389.269531 102.21875 C 1386.0625 101.273438 1382.664062 100.761719 1379.144531 100.761719 C 1363.242188 100.761719 1349.761719 111.097656 1345.0625 125.425781 C 1342.167969 124.667969 1339.121094 124.261719 1335.996094 124.261719 C 1331.988281 124.261719 1328.144531 124.925781 1324.542969 126.140625 C 1318.492188 119.492188 1309.777344 115.316406 1300.070312 115.316406 C 1284.058594 115.316406 1270.699219 126.683594 1267.652344 141.78125 C 1265.730469 141.320312 1263.742188 141.0625 1261.671875 141.0625 C 1250.113281 141.0625 1240.378906 148.820312 1237.402344 159.402344 C 1234.761719 158.050781 1231.769531 157.296875 1228.605469 157.296875 C 1217.925781 157.296875 1209.261719 165.945312 1209.261719 176.609375 C 1209.261719 187.273438 1217.925781 195.921875 1228.605469 195.921875 L 1601.640625 195.921875 C 1612.320312 195.921875 1620.984375 187.273438 1620.984375 176.609375 C 1620.984375 165.945312 1612.320312 157.296875 1601.640625 157.296875 Z M 1601.640625 157.296875 " fill-opacity="1" fill-rule="nonzero"/></g><g clip-path="url(#id4)"><path fill="#1c1d32" d="M 1257.832031 124.484375 C 1254.664062 124.484375 1251.671875 125.257812 1249.03125 126.59375 C 1246.042969 116.011719 1236.308594 108.253906 1224.765625 108.253906 C 1222.707031 108.253906 1220.703125 108.511719 1218.78125 108.96875 C 1215.734375 93.875 1202.375 82.507812 1186.363281 82.507812 C 1172.410156 82.507812 1160.484375 91.144531 1155.625 103.359375 C 1149.058594 96.0625 1139.53125 91.46875 1128.933594 91.46875 C 1127.144531 91.46875 1125.398438 91.601562 1123.695312 91.847656 C 1121.625 69.652344 1102.929688 52.285156 1080.175781 52.285156 C 1066.03125 52.285156 1053.457031 59.003906 1045.460938 69.410156 C 1042.25 68.464844 1038.855469 67.949219 1035.335938 67.949219 C 1019.429688 67.949219 1005.949219 78.289062 1001.253906 92.617188 C 998.355469 91.859375 995.308594 91.453125 992.183594 91.453125 C 988.175781 91.453125 984.332031 92.117188 980.730469 93.332031 C 974.683594 86.683594 965.964844 82.507812 956.261719 82.507812 C 940.246094 82.507812 926.886719 93.875 923.84375 108.96875 C 921.921875 108.511719 919.929688 108.253906 917.859375 108.253906 C 906.300781 108.253906 896.570312 116.011719 893.589844 126.59375 C 890.953125 125.242188 887.960938 124.484375 884.792969 124.484375 C 874.113281 124.484375 865.449219 133.136719 865.449219 143.800781 C 865.449219 154.464844 874.113281 163.113281 884.792969 163.113281 L 1257.832031 163.113281 C 1268.511719 163.113281 1277.171875 154.464844 1277.171875 143.800781 C 1277.171875 133.136719 1268.511719 124.484375 1257.832031 124.484375 Z M 1257.832031 124.484375 " fill-opacity="1" fill-rule="nonzero"/></g><g clip-path="url(#id5)"><path fill="#1c1d32" d="M 1525.695312 142.21875 C 1522.527344 142.21875 1519.535156 142.988281 1516.898438 144.328125 C 1513.90625 133.742188 1504.171875 125.984375 1492.628906 125.984375 C 1490.570312 125.984375 1488.566406 126.242188 1486.644531 126.703125 C 1483.601562 111.605469 1470.238281 100.238281 1454.226562 100.238281 C 1440.273438 100.238281 1428.347656 108.875 1423.488281 121.09375 C 1416.925781 113.796875 1407.394531 109.199219 1396.796875 109.199219 C 1395.011719 109.199219 1393.265625 109.335938 1391.558594 109.578125 C 1389.488281 87.386719 1370.792969 70.019531 1348.042969 70.019531 C 1333.898438 70.019531 1321.324219 76.734375 1313.324219 87.144531 C 1310.113281 86.195312 1306.71875 85.683594 1303.199219 85.683594 C 1287.292969 85.683594 1273.8125 96.023438 1269.117188 110.347656 C 1266.21875 109.59375 1263.175781 109.1875 1260.046875 109.1875 C 1256.039062 109.1875 1252.195312 109.847656 1248.597656 111.066406 C 1242.546875 104.414062 1233.828125 100.238281 1224.125 100.238281 C 1208.113281 100.238281 1194.753906 111.605469 1191.707031 126.703125 C 1189.785156 126.242188 1187.792969 125.984375 1185.722656 125.984375 C 1174.164062 125.984375 1164.433594 133.742188 1161.453125 144.328125 C 1158.816406 142.976562 1155.824219 142.21875 1152.65625 142.21875 C 1141.976562 142.21875 1133.316406 150.867188 1133.316406 161.53125 C 1133.316406 172.195312 1141.976562 180.84375 1152.65625 180.84375 L 1525.695312 180.84375 C 1536.375 180.84375 1545.039062 172.195312 1545.039062 161.53125 C 1545.039062 150.867188 1536.375 142.21875 1525.695312 142.21875 Z M 1525.695312 142.21875 " fill-opacity="1" fill-rule="nonzero"/></g><g clip-path="url(#id6)"><path fill="#07071c" d="M 763.667969 175.082031 C 760.5 175.082031 757.507812 175.851562 754.871094 177.1875 C 751.878906 166.605469 742.144531 158.847656 730.601562 158.847656 C 728.542969 158.847656 726.539062 159.105469 724.617188 159.566406 C 721.570312 144.46875 708.210938 133.101562 692.199219 133.101562 C 678.246094 133.101562 666.320312 141.738281 661.460938 153.957031 C 654.894531 146.65625 645.367188 142.0625 634.769531 142.0625 C 632.980469 142.0625 631.234375 142.199219 629.53125 142.441406 C 627.460938 120.25 608.765625 102.882812 586.015625 102.882812 C 571.871094 102.882812 559.296875 109.597656 551.296875 120.003906 C 548.085938 119.058594 544.691406 118.546875 541.171875 118.546875 C 525.265625 118.546875 511.785156 128.886719 507.089844 143.210938 C 504.191406 142.453125 501.148438 142.050781 498.019531 142.050781 C 494.011719 142.050781 490.167969 142.710938 486.570312 143.929688 C 480.519531 137.277344 471.800781 133.101562 462.097656 133.101562 C 446.085938 133.101562 432.722656 144.46875 429.679688 159.566406 C 427.757812 159.105469 425.765625 158.847656 423.695312 158.847656 C 412.136719 158.847656 402.40625 166.605469 399.425781 177.1875 C 396.789062 175.839844 393.796875 175.082031 390.628906 175.082031 C 379.949219 175.082031 371.285156 183.730469 371.285156 194.394531 C 371.285156 205.058594 379.949219 213.707031 390.628906 213.707031 L 763.667969 213.707031 C 774.347656 213.707031 783.011719 205.058594 783.011719 194.394531 C 783.011719 183.730469 774.347656 175.082031 763.667969 175.082031 Z M 763.667969 175.082031 " fill-opacity="1" fill-rule="nonzero"/></g><g clip-path="url(#id7)"><path fill="#d9d9d9" d="M 847.425781 146.296875 C 844.484375 146.296875 841.707031 147.015625 839.253906 148.261719 C 836.472656 138.394531 827.433594 131.160156 816.707031 131.160156 C 814.796875 131.160156 812.9375 131.402344 811.152344 131.828125 C 808.320312 117.753906 795.910156 107.15625 781.035156 107.15625 C 768.070312 107.15625 756.996094 115.207031 752.480469 126.601562 C 746.382812 119.792969 737.53125 115.511719 727.683594 115.511719 C 726.023438 115.511719 724.402344 115.636719 722.820312 115.863281 C 720.894531 95.171875 703.53125 78.976562 682.394531 78.976562 C 669.253906 78.976562 657.570312 85.242188 650.140625 94.945312 C 647.160156 94.0625 644.003906 93.582031 640.734375 93.582031 C 625.960938 93.582031 613.4375 103.222656 609.074219 116.582031 C 606.382812 115.875 603.554688 115.496094 600.648438 115.496094 C 596.929688 115.496094 593.355469 116.113281 590.011719 117.25 C 584.390625 111.050781 576.292969 107.15625 567.277344 107.15625 C 552.402344 107.15625 539.992188 117.753906 537.164062 131.828125 C 535.378906 131.402344 533.53125 131.160156 531.605469 131.160156 C 520.867188 131.160156 511.828125 138.394531 509.0625 148.261719 C 506.609375 147.003906 503.832031 146.296875 500.886719 146.296875 C 490.96875 146.296875 482.917969 154.363281 482.917969 164.304688 C 482.917969 174.246094 490.96875 182.3125 500.886719 182.3125 L 847.425781 182.3125 C 857.347656 182.3125 865.394531 174.246094 865.394531 164.304688 C 865.394531 154.363281 857.347656 146.296875 847.425781 146.296875 Z M 847.425781 146.296875 " fill-opacity="1" fill-rule="nonzero"/></g><g clip-path="url(#id8)"><path fill="#1c1d32" d="M 1011.988281 184.785156 C 1008.824219 184.785156 1005.832031 185.554688 1003.191406 186.894531 C 1000.199219 176.3125 990.46875 168.554688 978.921875 168.554688 C 976.867188 168.554688 974.863281 168.808594 972.941406 169.269531 C 969.894531 154.171875 956.535156 142.804688 940.523438 142.804688 C 926.566406 142.804688 914.644531 151.441406 909.785156 163.660156 C 903.21875 156.363281 893.691406 151.765625 883.089844 151.765625 C 881.304688 151.765625 879.558594 151.902344 877.851562 152.144531 C 875.78125 129.953125 857.089844 112.585938 834.335938 112.585938 C 820.191406 112.585938 807.617188 119.304688 799.617188 129.710938 C 796.410156 128.765625 793.011719 128.25 789.492188 128.25 C 773.589844 128.25 760.109375 138.589844 755.410156 152.914062 C 752.515625 152.160156 749.46875 151.753906 746.34375 151.753906 C 742.335938 151.753906 738.492188 152.414062 734.890625 153.632812 C 728.839844 146.984375 720.125 142.804688 710.417969 142.804688 C 694.40625 142.804688 681.046875 154.171875 678 169.269531 C 676.078125 168.808594 674.089844 168.554688 672.019531 168.554688 C 660.460938 168.554688 650.726562 176.3125 647.75 186.894531 C 645.109375 185.542969 642.117188 184.785156 638.953125 184.785156 C 628.273438 184.785156 619.609375 193.433594 619.609375 204.097656 C 619.609375 214.761719 628.273438 223.414062 638.953125 223.414062 L 1011.988281 223.414062 C 1022.667969 223.414062 1031.332031 214.761719 1031.332031 204.097656 C 1031.332031 193.433594 1022.667969 184.785156 1011.988281 184.785156 Z M 1011.988281 184.785156 " fill-opacity="1" fill-rule="nonzero"/></g><g clip-path="url(#id9)"><path fill="#07071c" d="M 1314.734375 190.492188 C 1311.566406 190.492188 1308.578125 191.261719 1305.9375 192.601562 C 1302.945312 182.019531 1293.214844 174.261719 1281.667969 174.261719 C 1279.609375 174.261719 1277.605469 174.515625 1275.683594 174.976562 C 1272.640625 159.878906 1259.28125 148.511719 1243.269531 148.511719 C 1229.3125 148.511719 1217.386719 157.148438 1212.527344 169.367188 C 1205.964844 162.070312 1196.433594 157.472656 1185.835938 157.472656 C 1184.050781 157.472656 1182.304688 157.609375 1180.597656 157.851562 C 1178.527344 135.660156 1159.835938 118.292969 1137.082031 118.292969 C 1122.9375 118.292969 1110.363281 125.007812 1102.363281 135.417969 C 1099.15625 134.46875 1095.757812 133.957031 1092.238281 133.957031 C 1076.335938 133.957031 1062.851562 144.296875 1058.15625 158.621094 C 1055.257812 157.867188 1052.214844 157.460938 1049.085938 157.460938 C 1045.082031 157.460938 1041.238281 158.121094 1037.636719 159.339844 C 1031.585938 152.6875 1022.867188 148.511719 1013.164062 148.511719 C 997.152344 148.511719 983.792969 159.878906 980.746094 174.976562 C 978.824219 174.515625 976.835938 174.261719 974.765625 174.261719 C 963.203125 174.261719 953.472656 182.019531 950.496094 192.601562 C 947.855469 191.25 944.863281 190.492188 941.695312 190.492188 C 931.015625 190.492188 922.355469 199.140625 922.355469 209.804688 C 922.355469 220.46875 931.015625 229.117188 941.695312 229.117188 L 1314.734375 229.117188 C 1325.414062 229.117188 1334.078125 220.46875 1334.078125 209.804688 C 1334.078125 199.140625 1325.414062 190.492188 1314.734375 190.492188 Z M 1314.734375 190.492188 " fill-opacity="1" fill-rule="nonzero"/></g><g clip-path="url(#id10)"><path fill="#07071c" d="M 1289.359375 157.980469 C 1286.355469 157.980469 1283.515625 158.714844 1281.011719 159.988281 C 1278.171875 149.90625 1268.9375 142.515625 1257.980469 142.515625 C 1256.027344 142.515625 1254.125 142.761719 1252.300781 143.199219 C 1249.410156 128.816406 1236.734375 117.988281 1221.535156 117.988281 C 1208.292969 117.988281 1196.976562 126.214844 1192.367188 137.855469 C 1186.136719 130.902344 1177.09375 126.523438 1167.035156 126.523438 C 1165.339844 126.523438 1163.683594 126.652344 1162.0625 126.882812 C 1160.097656 105.742188 1142.359375 89.195312 1120.765625 89.195312 C 1107.34375 89.195312 1095.410156 95.59375 1087.820312 105.507812 C 1084.773438 104.609375 1081.550781 104.117188 1078.210938 104.117188 C 1063.117188 104.117188 1050.324219 113.96875 1045.867188 127.617188 C 1043.117188 126.898438 1040.226562 126.511719 1037.261719 126.511719 C 1033.457031 126.511719 1029.808594 127.140625 1026.394531 128.300781 C 1020.652344 121.964844 1012.378906 117.988281 1003.167969 117.988281 C 987.972656 117.988281 975.296875 128.816406 972.40625 143.199219 C 970.582031 142.761719 968.691406 142.515625 966.726562 142.515625 C 955.757812 142.515625 946.523438 149.90625 943.695312 159.988281 C 941.191406 158.703125 938.351562 157.980469 935.347656 157.980469 C 925.210938 157.980469 916.992188 166.222656 916.992188 176.382812 C 916.992188 186.542969 925.210938 194.78125 935.347656 194.78125 L 1289.359375 194.78125 C 1299.496094 194.78125 1307.714844 186.542969 1307.714844 176.382812 C 1307.714844 166.222656 1299.496094 157.980469 1289.359375 157.980469 Z M 1289.359375 157.980469 " fill-opacity="1" fill-rule="nonzero"/></g><g clip-path="url(#id11)"><path fill="#07071c" d="M 1551.996094 162.101562 C 1548.988281 162.101562 1546.152344 162.835938 1543.644531 164.109375 C 1540.808594 154.027344 1531.570312 146.636719 1520.613281 146.636719 C 1518.660156 146.636719 1516.761719 146.882812 1514.9375 147.320312 C 1512.046875 132.9375 1499.367188 122.105469 1484.171875 122.105469 C 1470.929688 122.105469 1459.613281 130.335938 1455 141.976562 C 1448.769531 135.023438 1439.726562 130.644531 1429.671875 130.644531 C 1427.976562 130.644531 1426.316406 130.773438 1424.699219 131.003906 C 1422.734375 109.863281 1404.996094 93.316406 1383.402344 93.316406 C 1369.980469 93.316406 1358.046875 99.714844 1350.453125 109.628906 C 1347.410156 108.726562 1344.1875 108.238281 1340.847656 108.238281 C 1325.753906 108.238281 1312.960938 118.089844 1308.503906 131.738281 C 1305.753906 131.015625 1302.863281 130.632812 1299.894531 130.632812 C 1296.09375 130.632812 1292.445312 131.261719 1289.027344 132.421875 C 1283.289062 126.085938 1275.015625 122.105469 1265.804688 122.105469 C 1250.609375 122.105469 1237.929688 132.9375 1235.039062 147.320312 C 1233.214844 146.882812 1231.328125 146.636719 1229.363281 146.636719 C 1218.394531 146.636719 1209.15625 154.027344 1206.332031 164.109375 C 1203.828125 162.824219 1200.988281 162.101562 1197.980469 162.101562 C 1187.847656 162.101562 1179.625 170.34375 1179.625 180.5 C 1179.625 190.660156 1187.847656 198.902344 1197.980469 198.902344 L 1551.996094 198.902344 C 1562.128906 198.902344 1570.351562 190.660156 1570.351562 180.5 C 1570.351562 170.34375 1562.128906 162.101562 1551.996094 162.101562 Z M 1551.996094 162.101562 " fill-opacity="1" fill-rule="nonzero"/></g><g clip-path="url(#id12)"><path fill="#07071c" d="M 1639.238281 192.746094 C 1636.230469 192.746094 1633.390625 193.480469 1630.886719 194.753906 C 1628.046875 184.671875 1618.8125 177.28125 1607.855469 177.28125 C 1605.902344 177.28125 1604.003906 177.523438 1602.179688 177.960938 C 1599.289062 163.578125 1586.609375 152.75 1571.414062 152.75 C 1558.171875 152.75 1546.855469 160.976562 1542.242188 172.617188 C 1536.011719 165.664062 1526.96875 161.289062 1516.910156 161.289062 C 1515.214844 161.289062 1513.558594 161.417969 1511.941406 161.648438 C 1509.976562 140.503906 1492.238281 123.957031 1470.644531 123.957031 C 1457.21875 123.957031 1445.289062 130.359375 1437.695312 140.273438 C 1434.652344 139.371094 1431.425781 138.882812 1428.085938 138.882812 C 1412.996094 138.882812 1400.199219 148.734375 1395.742188 162.382812 C 1392.996094 161.660156 1390.105469 161.273438 1387.136719 161.273438 C 1383.335938 161.273438 1379.6875 161.90625 1376.269531 163.0625 C 1370.527344 156.730469 1362.257812 152.75 1353.046875 152.75 C 1337.851562 152.75 1325.171875 163.578125 1322.28125 177.960938 C 1320.457031 177.523438 1318.570312 177.28125 1316.605469 177.28125 C 1305.632812 177.28125 1296.398438 184.671875 1293.574219 194.753906 C 1291.066406 193.464844 1288.230469 192.746094 1285.222656 192.746094 C 1275.089844 192.746094 1266.867188 200.984375 1266.867188 211.144531 C 1266.867188 221.304688 1275.089844 229.546875 1285.222656 229.546875 L 1639.238281 229.546875 C 1649.371094 229.546875 1657.59375 221.304688 1657.59375 211.144531 C 1657.59375 200.984375 1649.371094 192.746094 1639.238281 192.746094 Z M 1639.238281 192.746094 " fill-opacity="1" fill-rule="nonzero"/></g><g clip-path="url(#id13)"><path fill="#1c1d32" d="M 471.75 243.546875 C 476.226562 243.546875 480.457031 244.636719 484.1875 246.527344 C 488.417969 231.554688 502.175781 220.578125 518.5 220.578125 C 521.40625 220.578125 524.242188 220.941406 526.957031 221.59375 C 531.261719 200.230469 550.152344 184.148438 572.789062 184.148438 C 581.058594 184.148438 588.828125 186.289062 595.5625 190.058594 C 606.277344 163.34375 632.4375 144.449219 663.019531 144.449219 C 703.167969 144.449219 735.71875 176.976562 735.71875 217.097656 C 735.71875 217.386719 735.71875 217.671875 735.699219 217.957031 C 738.1875 217.421875 740.769531 217.136719 743.429688 217.136719 C 760.480469 217.136719 774.851562 228.609375 779.273438 244.234375 C 783.179688 242.246094 787.578125 241.117188 792.269531 241.117188 C 808.035156 241.117188 820.820312 253.890625 820.820312 269.648438 C 820.820312 285.40625 808.035156 298.179688 792.269531 298.179688 L 471.75 298.179688 C 456.648438 298.179688 444.402344 285.941406 444.402344 270.851562 C 444.402344 255.765625 456.648438 243.527344 471.75 243.527344 Z M 471.75 243.546875 " fill-opacity="1" fill-rule="nonzero"/></g><g clip-path="url(#id14)"><path fill="#1c1d32" d="M 1418.285156 221.929688 C 1414.230469 221.929688 1410.402344 222.917969 1407.019531 224.632812 C 1403.191406 211.050781 1390.730469 201.089844 1375.945312 201.089844 C 1373.308594 201.089844 1370.746094 201.421875 1368.285156 202.011719 C 1364.382812 182.632812 1347.277344 168.039062 1326.773438 168.039062 C 1308.902344 168.039062 1293.632812 179.125 1287.410156 194.8125 C 1279.003906 185.441406 1266.800781 179.542969 1253.230469 179.542969 C 1250.941406 179.542969 1248.707031 179.714844 1246.523438 180.027344 C 1243.871094 151.539062 1219.9375 129.246094 1190.800781 129.246094 C 1172.6875 129.246094 1156.585938 137.871094 1146.34375 151.230469 C 1142.234375 150.015625 1137.882812 149.355469 1133.378906 149.355469 C 1113.011719 149.355469 1095.75 162.628906 1089.734375 181.019531 C 1086.027344 180.046875 1082.125 179.527344 1078.121094 179.527344 C 1072.992188 179.527344 1068.070312 180.375 1063.460938 181.9375 C 1055.710938 173.402344 1044.550781 168.039062 1032.121094 168.039062 C 1011.617188 168.039062 994.511719 182.632812 990.613281 202.011719 C 988.148438 201.421875 985.601562 201.089844 982.949219 201.089844 C 968.148438 201.089844 955.6875 211.050781 951.875 224.632812 C 948.492188 222.898438 944.664062 221.929688 940.609375 221.929688 C 926.933594 221.929688 915.839844 233.03125 915.839844 246.71875 C 915.839844 260.410156 926.933594 271.511719 940.609375 271.511719 L 1418.285156 271.511719 C 1431.960938 271.511719 1443.054688 260.410156 1443.054688 246.71875 C 1443.054688 233.03125 1431.960938 221.929688 1418.285156 221.929688 Z M 1418.285156 221.929688 " fill-opacity="1" fill-rule="nonzero"/></g><g clip-path="url(#id15)"><path fill="#d9d9d9" d="M 1452.976562 230.011719 C 1449.257812 230.011719 1445.742188 230.917969 1442.640625 232.488281 C 1439.128906 220.046875 1427.695312 210.925781 1414.128906 210.925781 C 1411.710938 210.925781 1409.359375 211.230469 1407.101562 211.769531 C 1403.523438 194.019531 1387.824219 180.660156 1369.011719 180.660156 C 1352.617188 180.660156 1338.609375 190.8125 1332.898438 205.175781 C 1325.1875 196.59375 1313.992188 191.191406 1301.539062 191.191406 C 1299.441406 191.191406 1297.390625 191.351562 1295.386719 191.636719 C 1292.953125 165.546875 1270.992188 145.128906 1244.257812 145.128906 C 1227.640625 145.128906 1212.867188 153.027344 1203.46875 165.261719 C 1199.703125 164.148438 1195.710938 163.546875 1191.574219 163.546875 C 1172.890625 163.546875 1157.050781 175.699219 1151.53125 192.542969 C 1148.128906 191.652344 1144.550781 191.175781 1140.878906 191.175781 C 1136.171875 191.175781 1131.65625 191.957031 1127.425781 193.386719 C 1120.316406 185.570312 1110.074219 180.660156 1098.671875 180.660156 C 1079.859375 180.660156 1064.164062 194.019531 1060.585938 211.769531 C 1058.328125 211.230469 1055.992188 210.925781 1053.558594 210.925781 C 1039.976562 210.925781 1028.542969 220.046875 1025.046875 232.488281 C 1021.945312 230.898438 1018.429688 230.011719 1014.707031 230.011719 C 1002.160156 230.011719 991.984375 240.179688 991.984375 252.714844 C 991.984375 265.253906 1002.160156 275.421875 1014.707031 275.421875 L 1452.976562 275.421875 C 1465.523438 275.421875 1475.703125 265.253906 1475.703125 252.714844 C 1475.703125 240.179688 1465.523438 230.011719 1452.976562 230.011719 Z M 1452.976562 230.011719 " fill-opacity="1" fill-rule="nonzero"/></g><g clip-path="url(#id16)"><path fill="#1c1d32" d="M 1155.746094 219.984375 C 1151.816406 219.984375 1148.105469 220.941406 1144.832031 222.605469 C 1141.121094 209.449219 1129.050781 199.804688 1114.726562 199.804688 C 1112.175781 199.804688 1109.691406 200.125 1107.304688 200.695312 C 1103.527344 181.929688 1086.957031 167.796875 1067.09375 167.796875 C 1049.785156 167.796875 1034.992188 178.535156 1028.964844 193.722656 C 1020.820312 184.648438 1009 178.9375 995.855469 178.9375 C 993.636719 178.9375 991.472656 179.105469 989.355469 179.40625 C 986.789062 151.820312 963.601562 130.226562 935.378906 130.226562 C 917.832031 130.226562 902.234375 138.578125 892.3125 151.515625 C 888.332031 150.339844 884.117188 149.703125 879.753906 149.703125 C 860.023438 149.703125 843.300781 162.554688 837.476562 180.367188 C 833.882812 179.425781 830.105469 178.921875 826.226562 178.921875 C 821.257812 178.921875 816.488281 179.742188 812.023438 181.257812 C 804.515625 172.988281 793.703125 167.796875 781.664062 167.796875 C 761.804688 167.796875 745.230469 181.929688 741.453125 200.695312 C 739.070312 200.125 736.601562 199.804688 734.03125 199.804688 C 719.695312 199.804688 707.621094 209.449219 703.929688 222.605469 C 700.652344 220.925781 696.945312 219.984375 693.015625 219.984375 C 679.765625 219.984375 669.023438 230.738281 669.023438 243.996094 C 669.023438 257.25 679.765625 268.003906 693.015625 268.003906 L 1155.746094 268.003906 C 1168.992188 268.003906 1179.738281 257.25 1179.738281 243.996094 C 1179.738281 230.738281 1168.992188 219.984375 1155.746094 219.984375 Z M 1155.746094 219.984375 " fill-opacity="1" fill-rule="nonzero"/></g><g clip-path="url(#id17)"><path fill="#1c1d32" d="M 940.535156 246.46875 C 937.367188 246.46875 934.378906 247.238281 931.738281 248.578125 C 928.746094 237.996094 919.015625 230.238281 907.46875 230.238281 C 905.410156 230.238281 903.40625 230.492188 901.484375 230.953125 C 898.441406 215.855469 885.082031 204.488281 869.070312 204.488281 C 855.113281 204.488281 843.1875 213.125 838.328125 225.34375 C 831.765625 218.046875 822.234375 213.449219 811.636719 213.449219 C 809.851562 213.449219 808.105469 213.585938 806.398438 213.828125 C 804.328125 191.636719 785.636719 174.269531 762.882812 174.269531 C 748.738281 174.269531 736.164062 180.988281 728.164062 191.394531 C 724.957031 190.445312 721.558594 189.933594 718.039062 189.933594 C 702.136719 189.933594 688.652344 200.273438 683.957031 214.597656 C 681.058594 213.84375 678.015625 213.4375 674.886719 213.4375 C 670.882812 213.4375 667.039062 214.097656 663.4375 215.316406 C 657.386719 208.667969 648.667969 204.488281 638.964844 204.488281 C 622.953125 204.488281 609.59375 215.855469 606.546875 230.953125 C 604.625 230.492188 602.636719 230.238281 600.566406 230.238281 C 589.003906 230.238281 579.273438 237.996094 576.296875 248.578125 C 573.65625 247.226562 570.664062 246.46875 567.496094 246.46875 C 556.816406 246.46875 548.15625 255.117188 548.15625 265.78125 C 548.15625 276.445312 556.816406 285.097656 567.496094 285.097656 L 940.535156 285.097656 C 951.214844 285.097656 959.878906 276.445312 959.878906 265.78125 C 959.878906 255.117188 951.214844 246.46875 940.535156 246.46875 Z M 940.535156 246.46875 " fill-opacity="1" fill-rule="nonzero"/></g><g clip-path="url(#id18)"><path fill="#1c1d32" d="M 1365.609375 276.511719 C 1362.441406 276.511719 1359.449219 277.28125 1356.8125 278.621094 C 1353.820312 268.039062 1344.085938 260.28125 1332.542969 260.28125 C 1330.484375 260.28125 1328.480469 260.535156 1326.558594 260.996094 C 1323.511719 245.898438 1310.152344 234.53125 1294.140625 234.53125 C 1280.1875 234.53125 1268.261719 243.167969 1263.402344 255.386719 C 1256.835938 248.089844 1247.308594 243.492188 1236.710938 243.492188 C 1234.921875 243.492188 1233.175781 243.628906 1231.472656 243.871094 C 1229.402344 221.679688 1210.707031 204.3125 1187.957031 204.3125 C 1173.8125 204.3125 1161.238281 211.03125 1153.238281 221.4375 C 1150.027344 220.492188 1146.632812 219.976562 1143.113281 219.976562 C 1127.207031 219.976562 1113.726562 230.316406 1109.03125 244.644531 C 1106.132812 243.886719 1103.089844 243.480469 1099.960938 243.480469 C 1095.953125 243.480469 1092.109375 244.140625 1088.511719 245.359375 C 1082.460938 238.710938 1073.742188 234.53125 1064.039062 234.53125 C 1048.027344 234.53125 1034.664062 245.898438 1031.621094 260.996094 C 1029.699219 260.535156 1027.707031 260.28125 1025.636719 260.28125 C 1014.078125 260.28125 1004.347656 268.039062 1001.367188 278.621094 C 998.730469 277.269531 995.738281 276.511719 992.570312 276.511719 C 981.890625 276.511719 973.226562 285.160156 973.226562 295.824219 C 973.226562 306.488281 981.890625 315.140625 992.570312 315.140625 L 1365.609375 315.140625 C 1376.289062 315.140625 1384.953125 306.488281 1384.953125 295.824219 C 1384.953125 285.160156 1376.289062 276.511719 1365.609375 276.511719 Z M 1365.609375 276.511719 " fill-opacity="1" fill-rule="nonzero"/></g><g clip-path="url(#id19)"><path fill="#1c1d32" d="M 733.855469 249.304688 C 730.6875 249.304688 727.699219 250.074219 725.058594 251.414062 C 722.066406 240.832031 712.335938 233.074219 700.789062 233.074219 C 698.730469 233.074219 696.730469 233.328125 694.804688 233.789062 C 691.761719 218.691406 678.402344 207.324219 662.390625 207.324219 C 648.433594 207.324219 636.507812 215.960938 631.648438 228.179688 C 625.085938 220.882812 615.554688 216.285156 604.957031 216.285156 C 603.171875 216.285156 601.425781 216.421875 599.71875 216.664062 C 597.648438 194.472656 578.957031 177.105469 556.203125 177.105469 C 542.058594 177.105469 529.484375 183.820312 521.484375 194.230469 C 518.277344 193.28125 514.878906 192.769531 511.359375 192.769531 C 495.457031 192.769531 481.972656 203.109375 477.277344 217.433594 C 474.382812 216.679688 471.335938 216.273438 468.207031 216.273438 C 464.203125 216.273438 460.359375 216.933594 456.757812 218.152344 C 450.707031 211.5 441.992188 207.324219 432.285156 207.324219 C 416.273438 207.324219 402.914062 218.691406 399.867188 233.789062 C 397.945312 233.328125 395.957031 233.074219 393.886719 233.074219 C 382.324219 233.074219 372.59375 240.832031 369.617188 251.414062 C 366.976562 250.0625 363.984375 249.304688 360.816406 249.304688 C 350.136719 249.304688 341.476562 257.953125 341.476562 268.617188 C 341.476562 279.28125 350.136719 287.929688 360.816406 287.929688 L 733.855469 287.929688 C 744.535156 287.929688 753.199219 279.28125 753.199219 268.617188 C 753.199219 257.953125 744.535156 249.304688 733.855469 249.304688 Z M 733.855469 249.304688 " fill-opacity="1" fill-rule="nonzero"/></g><g clip-path="url(#id20)"><path fill="#07071c" d="M 910.242188 283.753906 C 906.128906 283.753906 902.246094 284.757812 898.816406 286.503906 C 894.933594 272.703125 882.292969 262.589844 867.296875 262.589844 C 864.625 262.589844 862.023438 262.921875 859.527344 263.523438 C 855.574219 243.835938 838.222656 229.015625 817.425781 229.015625 C 799.304688 229.015625 783.816406 240.277344 777.503906 256.207031 C 768.980469 246.691406 756.605469 240.699219 742.839844 240.699219 C 740.519531 240.699219 738.253906 240.875 736.035156 241.195312 C 733.347656 212.253906 709.070312 189.609375 679.519531 189.609375 C 661.152344 189.609375 644.820312 198.367188 634.429688 211.9375 C 630.265625 210.703125 625.851562 210.035156 621.28125 210.035156 C 600.625 210.035156 583.117188 223.515625 577.019531 242.199219 C 573.257812 241.210938 569.300781 240.683594 565.242188 240.683594 C 560.039062 240.683594 555.042969 241.546875 550.367188 243.132812 C 542.511719 234.460938 531.191406 229.015625 518.585938 229.015625 C 497.789062 229.015625 480.441406 243.835938 476.484375 263.523438 C 473.988281 262.921875 471.40625 262.589844 468.714844 262.589844 C 453.703125 262.589844 441.0625 272.703125 437.195312 286.503906 C 433.769531 284.742188 429.882812 283.753906 425.769531 283.753906 C 411.898438 283.753906 400.648438 295.03125 400.648438 308.9375 C 400.648438 322.84375 411.898438 334.121094 425.769531 334.121094 L 910.242188 334.121094 C 924.113281 334.121094 935.363281 322.84375 935.363281 308.9375 C 935.363281 295.03125 924.113281 283.753906 910.242188 283.753906 Z M 910.242188 283.753906 " fill-opacity="1" fill-rule="nonzero"/></g><g clip-path="url(#id21)"><path fill="#07071c" d="M 319.648438 198.902344 C 316.480469 198.902344 313.492188 199.671875 310.851562 201.007812 C 307.859375 190.425781 298.128906 182.667969 286.582031 182.667969 C 284.523438 182.667969 282.523438 182.925781 280.601562 183.386719 C 277.554688 168.289062 264.195312 156.921875 248.183594 156.921875 C 234.226562 156.921875 222.300781 165.558594 217.441406 177.777344 C 210.878906 170.476562 201.347656 165.882812 190.75 165.882812 C 188.964844 165.882812 187.21875 166.019531 185.511719 166.261719 C 183.441406 144.070312 164.75 126.703125 141.996094 126.703125 C 127.851562 126.703125 115.277344 133.417969 107.277344 143.824219 C 104.070312 142.878906 100.671875 142.367188 97.152344 142.367188 C 81.25 142.367188 67.765625 152.707031 63.070312 167.03125 C 60.175781 166.273438 57.128906 165.871094 54 165.871094 C 49.996094 165.871094 46.152344 166.53125 42.550781 167.746094 C 36.5 161.097656 27.785156 156.921875 18.078125 156.921875 C 2.066406 156.921875 -11.292969 168.289062 -14.339844 183.386719 C -16.261719 182.925781 -18.25 182.667969 -20.320312 182.667969 C -31.882812 182.667969 -41.613281 190.425781 -44.589844 201.007812 C -47.230469 199.65625 -50.222656 198.902344 -53.390625 198.902344 C -64.070312 198.902344 -72.730469 207.550781 -72.730469 218.214844 C -72.730469 228.878906 -64.070312 237.527344 -53.390625 237.527344 L 319.648438 237.527344 C 330.328125 237.527344 338.992188 228.878906 338.992188 218.214844 C 338.992188 207.550781 330.328125 198.902344 319.648438 198.902344 Z M 319.648438 198.902344 " fill-opacity="1" fill-rule="nonzero"/></g><g clip-path="url(#id22)"><path fill="#d9d9d9" d="M 452.449219 209.378906 C 449.503906 209.378906 446.726562 210.097656 444.273438 211.34375 C 441.496094 201.476562 432.457031 194.246094 421.730469 194.246094 C 419.820312 194.246094 417.957031 194.484375 416.171875 194.914062 C 413.34375 180.835938 400.933594 170.238281 386.058594 170.238281 C 373.09375 170.238281 362.015625 178.289062 357.5 189.683594 C 351.402344 182.878906 342.550781 178.59375 332.707031 178.59375 C 331.046875 178.59375 329.425781 178.71875 327.839844 178.945312 C 325.917969 158.253906 308.550781 142.058594 287.414062 142.058594 C 274.273438 142.058594 262.59375 148.324219 255.164062 158.027344 C 252.183594 157.144531 249.027344 156.664062 245.757812 156.664062 C 230.984375 156.664062 218.460938 166.304688 214.097656 179.664062 C 211.40625 178.957031 208.574219 178.582031 205.671875 178.582031 C 201.949219 178.582031 198.378906 179.199219 195.035156 180.332031 C 189.414062 174.132812 181.316406 170.238281 172.300781 170.238281 C 157.425781 170.238281 145.015625 180.835938 142.183594 194.914062 C 140.398438 194.484375 138.550781 194.246094 136.628906 194.246094 C 125.890625 194.246094 116.847656 201.476562 114.082031 211.34375 C 111.628906 210.085938 108.851562 209.378906 105.910156 209.378906 C 95.988281 209.378906 87.941406 217.445312 87.941406 227.386719 C 87.941406 237.328125 95.988281 245.394531 105.910156 245.394531 L 452.449219 245.394531 C 462.367188 245.394531 470.417969 237.328125 470.417969 227.386719 C 470.417969 217.445312 462.367188 209.378906 452.449219 209.378906 Z M 452.449219 209.378906 " fill-opacity="1" fill-rule="nonzero"/></g><g clip-path="url(#id23)"><path fill="#1c1d32" d="M 571.492188 145.851562 C 568.324219 145.851562 565.332031 146.621094 562.695312 147.960938 C 559.703125 137.378906 549.972656 129.621094 538.425781 129.621094 C 536.367188 129.621094 534.363281 129.878906 532.441406 130.335938 C 529.398438 115.238281 516.039062 103.875 500.023438 103.875 C 486.070312 103.875 474.144531 112.511719 469.285156 124.726562 C 462.722656 117.429688 453.191406 112.835938 442.59375 112.835938 C 440.808594 112.835938 439.0625 112.96875 437.355469 113.210938 C 435.285156 91.019531 416.59375 73.652344 393.839844 73.652344 C 379.695312 73.652344 367.121094 80.371094 359.121094 90.777344 C 355.914062 89.832031 352.515625 89.316406 348.996094 89.316406 C 333.089844 89.316406 319.609375 99.65625 314.914062 113.984375 C 312.015625 113.226562 308.972656 112.820312 305.84375 112.820312 C 301.839844 112.820312 297.992188 113.484375 294.394531 114.699219 C 288.34375 108.050781 279.625 103.875 269.921875 103.875 C 253.910156 103.875 240.550781 115.238281 237.503906 130.335938 C 235.582031 129.878906 233.59375 129.621094 231.519531 129.621094 C 219.960938 129.621094 210.230469 137.378906 207.25 147.960938 C 204.613281 146.609375 201.621094 145.851562 198.453125 145.851562 C 187.773438 145.851562 179.113281 154.503906 179.113281 165.167969 C 179.113281 175.828125 187.773438 184.480469 198.453125 184.480469 L 571.492188 184.480469 C 582.171875 184.480469 590.835938 175.828125 590.835938 165.167969 C 590.835938 154.503906 582.171875 145.851562 571.492188 145.851562 Z M 571.492188 145.851562 " fill-opacity="1" fill-rule="nonzero"/></g><g clip-path="url(#id24)"><path fill="#1c1d32" d="M 665.832031 258.679688 C 661.902344 258.679688 658.191406 259.636719 654.917969 261.300781 C 651.207031 248.144531 639.136719 238.5 624.8125 238.5 C 622.261719 238.5 619.777344 238.820312 617.394531 239.390625 C 613.613281 220.621094 597.042969 206.492188 577.179688 206.492188 C 559.871094 206.492188 545.078125 217.226562 539.050781 232.417969 C 530.90625 223.34375 519.085938 217.632812 505.941406 217.632812 C 503.726562 217.632812 501.558594 217.800781 499.445312 218.101562 C 496.875 190.511719 473.6875 168.921875 445.464844 168.921875 C 427.917969 168.921875 412.320312 177.273438 402.398438 190.210938 C 398.417969 189.035156 394.203125 188.394531 389.839844 188.394531 C 370.109375 188.394531 353.386719 201.25 347.5625 219.058594 C 343.96875 218.117188 340.191406 217.613281 336.3125 217.613281 C 331.34375 217.613281 326.574219 218.4375 322.109375 219.949219 C 314.601562 211.683594 303.789062 206.492188 291.753906 206.492188 C 271.890625 206.492188 255.316406 220.621094 251.539062 239.390625 C 249.15625 238.820312 246.6875 238.5 244.117188 238.5 C 229.78125 238.5 217.707031 248.144531 214.015625 261.300781 C 210.742188 259.621094 207.03125 258.679688 203.101562 258.679688 C 189.855469 258.679688 179.109375 269.433594 179.109375 282.6875 C 179.109375 295.945312 189.855469 306.699219 203.101562 306.699219 L 665.832031 306.699219 C 679.078125 306.699219 689.824219 295.945312 689.824219 282.6875 C 689.824219 269.433594 679.078125 258.679688 665.832031 258.679688 Z M 665.832031 258.679688 " fill-opacity="1" fill-rule="nonzero"/></g><g clip-path="url(#id25)"><path fill="#1c1d32" d="M 39.429688 222.941406 C 43.90625 222.941406 48.136719 224.03125 51.867188 225.925781 C 56.097656 210.953125 69.855469 199.976562 86.179688 199.976562 C 89.089844 199.976562 91.921875 200.339844 94.636719 200.988281 C 98.945312 179.628906 117.832031 163.546875 140.46875 163.546875 C 148.738281 163.546875 156.507812 165.6875 163.242188 169.457031 C 173.960938 142.742188 200.117188 123.847656 230.699219 123.847656 C 270.847656 123.847656 303.398438 156.375 303.398438 196.496094 C 303.398438 196.78125 303.398438 197.070312 303.378906 197.355469 C 305.867188 196.820312 308.453125 196.535156 311.113281 196.535156 C 328.164062 196.535156 342.535156 208.007812 346.953125 223.632812 C 350.859375 221.640625 355.257812 220.515625 359.949219 220.515625 C 375.714844 220.515625 388.5 233.289062 388.5 249.046875 C 388.5 264.804688 375.714844 277.578125 359.949219 277.578125 L 39.429688 277.578125 C 24.332031 277.578125 12.082031 265.339844 12.082031 250.25 C 12.082031 235.164062 24.332031 222.921875 39.429688 222.921875 Z M 39.429688 222.941406 " fill-opacity="1" fill-rule="nonzero"/></g><g clip-path="url(#id26)"><path fill="#1c1d32" d="M 507.507812 273.125 C 504.339844 273.125 501.351562 273.894531 498.710938 275.234375 C 495.71875 264.648438 485.988281 256.890625 474.441406 256.890625 C 472.382812 256.890625 470.382812 257.148438 468.460938 257.609375 C 465.414062 242.511719 452.054688 231.144531 436.042969 231.144531 C 422.085938 231.144531 410.160156 239.78125 405.300781 252 C 398.738281 244.703125 389.207031 240.105469 378.609375 240.105469 C 376.824219 240.105469 375.078125 240.242188 373.371094 240.484375 C 371.300781 218.292969 352.609375 200.925781 329.855469 200.925781 C 315.710938 200.925781 303.136719 207.640625 295.136719 218.050781 C 291.929688 217.101562 288.53125 216.589844 285.011719 216.589844 C 269.109375 216.589844 255.625 226.929688 250.929688 241.253906 C 248.035156 240.5 244.988281 240.09375 241.859375 240.09375 C 237.855469 240.09375 234.011719 240.753906 230.410156 241.972656 C 224.359375 235.320312 215.644531 231.144531 205.9375 231.144531 C 189.925781 231.144531 176.566406 242.511719 173.519531 257.609375 C 171.597656 257.148438 169.609375 256.890625 167.539062 256.890625 C 155.976562 256.890625 146.246094 264.648438 143.269531 275.234375 C 140.628906 273.882812 137.636719 273.125 134.46875 273.125 C 123.789062 273.125 115.128906 281.773438 115.128906 292.4375 C 115.128906 303.101562 123.789062 311.75 134.46875 311.75 L 507.507812 311.75 C 518.1875 311.75 526.851562 303.101562 526.851562 292.4375 C 526.851562 281.773438 518.1875 273.125 507.507812 273.125 Z M 507.507812 273.125 " fill-opacity="1" fill-rule="nonzero"/></g><g clip-path="url(#id27)"><path fill="#07071c" d="M 691.339844 268.03125 C 687.226562 268.03125 683.34375 269.039062 679.914062 270.78125 C 676.027344 256.984375 663.390625 246.867188 648.394531 246.867188 C 645.722656 246.867188 643.121094 247.203125 640.625 247.800781 C 636.671875 228.117188 619.320312 213.292969 598.523438 213.292969 C 580.398438 213.292969 564.914062 224.554688 558.601562 240.488281 C 550.078125 230.96875 537.699219 224.976562 523.9375 224.976562 C 521.617188 224.976562 519.347656 225.15625 517.132812 225.472656 C 514.445312 196.535156 490.167969 173.886719 460.617188 173.886719 C 442.246094 173.886719 425.917969 182.648438 415.527344 196.21875 C 411.363281 194.984375 406.949219 194.3125 402.378906 194.3125 C 381.722656 194.3125 364.214844 207.796875 358.113281 226.476562 C 354.351562 225.488281 350.398438 224.960938 346.335938 224.960938 C 341.132812 224.960938 336.140625 225.824219 331.464844 227.410156 C 323.609375 218.738281 312.285156 213.292969 299.683594 213.292969 C 278.886719 213.292969 261.535156 228.117188 257.582031 247.800781 C 255.085938 247.203125 252.5 246.867188 249.8125 246.867188 C 234.800781 246.867188 222.160156 256.984375 218.292969 270.78125 C 214.863281 269.019531 210.980469 268.03125 206.867188 268.03125 C 192.996094 268.03125 181.746094 279.3125 181.746094 293.214844 C 181.746094 307.121094 192.996094 318.402344 206.867188 318.402344 L 691.339844 318.402344 C 705.210938 318.402344 716.460938 307.121094 716.460938 293.214844 C 716.460938 279.3125 705.210938 268.03125 691.339844 268.03125 Z M 691.339844 268.03125 " fill-opacity="1" fill-rule="nonzero"/></g><g clip-path="url(#id28)"><path fill="#1c1d32" d="M 289.839844 273.125 C 286.671875 273.125 283.679688 273.894531 281.039062 275.234375 C 278.050781 264.648438 268.316406 256.890625 256.769531 256.890625 C 254.714844 256.890625 252.710938 257.148438 250.789062 257.609375 C 247.742188 242.511719 234.382812 231.144531 218.371094 231.144531 C 204.414062 231.144531 192.492188 239.78125 187.632812 252 C 181.066406 244.703125 171.539062 240.105469 160.941406 240.105469 C 159.152344 240.105469 157.40625 240.242188 155.703125 240.484375 C 153.628906 218.292969 134.9375 200.925781 112.183594 200.925781 C 98.039062 200.925781 85.464844 207.640625 77.464844 218.050781 C 74.257812 217.101562 70.859375 216.589844 67.34375 216.589844 C 51.4375 216.589844 37.957031 226.929688 33.257812 241.253906 C 30.363281 240.5 27.316406 240.09375 24.191406 240.09375 C 20.183594 240.09375 16.339844 240.753906 12.738281 241.972656 C 6.6875 235.320312 -2.027344 231.144531 -11.734375 231.144531 C -27.746094 231.144531 -41.105469 242.511719 -44.148438 257.609375 C -46.070312 257.148438 -48.0625 256.890625 -50.132812 256.890625 C -61.691406 256.890625 -71.425781 264.648438 -74.402344 275.234375 C -77.042969 273.882812 -80.03125 273.125 -83.199219 273.125 C -93.878906 273.125 -102.542969 281.773438 -102.542969 292.4375 C -102.542969 303.101562 -93.878906 311.75 -83.199219 311.75 L 289.839844 311.75 C 300.519531 311.75 309.179688 303.101562 309.179688 292.4375 C 309.179688 281.773438 300.519531 273.125 289.839844 273.125 Z M 289.839844 273.125 " fill-opacity="1" fill-rule="nonzero"/></g><g clip-path="url(#id29)"><path fill="#d9d9d9" d="M 1008.257812 239.324219 C 1004.535156 239.324219 1001.023438 240.230469 997.921875 241.804688 C 994.40625 229.363281 982.972656 220.242188 969.410156 220.242188 C 966.992188 220.242188 964.636719 220.542969 962.378906 221.085938 C 958.800781 203.335938 943.105469 189.972656 924.292969 189.972656 C 907.898438 189.972656 893.886719 200.125 888.179688 214.492188 C 880.464844 205.910156 869.269531 200.507812 856.820312 200.507812 C 854.71875 200.507812 852.667969 200.667969 850.664062 200.953125 C 848.234375 174.863281 826.269531 154.445312 799.539062 154.445312 C 782.921875 154.445312 768.148438 162.34375 758.75 174.578125 C 754.980469 173.464844 750.988281 172.859375 746.855469 172.859375 C 728.167969 172.859375 712.332031 185.015625 706.8125 201.859375 C 703.410156 200.96875 699.832031 200.492188 696.15625 200.492188 C 691.449219 200.492188 686.933594 201.269531 682.703125 202.699219 C 675.597656 194.882812 665.355469 189.972656 653.953125 189.972656 C 635.140625 189.972656 619.445312 203.335938 615.867188 221.085938 C 613.609375 220.542969 611.269531 220.242188 608.839844 220.242188 C 595.257812 220.242188 583.824219 229.363281 580.324219 241.804688 C 577.222656 240.214844 573.710938 239.324219 569.988281 239.324219 C 557.441406 239.324219 547.265625 249.496094 547.265625 262.03125 C 547.265625 274.566406 557.441406 284.738281 569.988281 284.738281 L 1008.257812 284.738281 C 1020.804688 284.738281 1030.984375 274.566406 1030.984375 262.03125 C 1030.984375 249.496094 1020.804688 239.324219 1008.257812 239.324219 Z M 1008.257812 239.324219 " fill-opacity="1" fill-rule="nonzero"/></g><g clip-path="url(#id30)"><path fill="#1c1d32" d="M 546 197.78125 C 542.832031 197.78125 539.839844 198.550781 537.199219 199.890625 C 534.210938 189.308594 524.476562 181.550781 512.933594 181.550781 C 510.875 181.550781 508.871094 181.804688 506.949219 182.265625 C 503.902344 167.167969 490.542969 155.804688 474.53125 155.804688 C 460.578125 155.804688 448.652344 164.4375 443.792969 176.65625 C 437.226562 169.359375 427.699219 164.761719 417.101562 164.761719 C 415.3125 164.761719 413.566406 164.898438 411.863281 165.140625 C 409.792969 142.949219 391.097656 125.582031 368.347656 125.582031 C 354.199219 125.582031 341.625 132.300781 333.628906 142.707031 C 330.417969 141.761719 327.023438 141.246094 323.503906 141.246094 C 307.597656 141.246094 294.117188 151.585938 289.421875 165.914062 C 286.523438 165.15625 283.476562 164.75 280.351562 164.75 C 276.34375 164.75 272.5 165.414062 268.902344 166.628906 C 262.851562 159.980469 254.132812 155.804688 244.429688 155.804688 C 228.414062 155.804688 215.054688 167.167969 212.011719 182.265625 C 210.089844 181.804688 208.097656 181.550781 206.027344 181.550781 C 194.46875 181.550781 184.738281 189.308594 181.757812 199.890625 C 179.121094 198.539062 176.128906 197.78125 172.960938 197.78125 C 162.28125 197.78125 153.617188 206.433594 153.617188 217.09375 C 153.617188 227.757812 162.28125 236.410156 172.960938 236.410156 L 546 236.410156 C 556.679688 236.410156 565.339844 227.757812 565.339844 217.09375 C 565.339844 206.433594 556.679688 197.78125 546 197.78125 Z M 546 197.78125 " fill-opacity="1" fill-rule="nonzero"/></g><g clip-path="url(#id31)"><path fill="#07071c" d="M 725.125 195.136719 C 721.011719 195.136719 717.125 196.140625 713.695312 197.886719 C 709.8125 184.085938 697.171875 173.96875 682.179688 173.96875 C 679.507812 173.96875 676.90625 174.304688 674.40625 174.902344 C 670.453125 155.21875 653.101562 140.398438 632.308594 140.398438 C 614.183594 140.398438 598.695312 151.660156 592.386719 167.589844 C 583.859375 158.074219 571.484375 152.082031 557.71875 152.082031 C 555.398438 152.082031 553.132812 152.257812 550.917969 152.574219 C 548.226562 123.636719 523.949219 100.992188 494.398438 100.992188 C 476.03125 100.992188 459.699219 109.75 449.308594 123.320312 C 445.144531 122.085938 440.730469 121.417969 436.160156 121.417969 C 415.507812 121.417969 397.996094 134.898438 391.898438 153.578125 C 388.136719 152.59375 384.179688 152.0625 380.121094 152.0625 C 374.917969 152.0625 369.925781 152.929688 365.25 154.515625 C 357.390625 145.84375 346.070312 140.398438 333.464844 140.398438 C 312.667969 140.398438 295.320312 155.21875 291.363281 174.902344 C 288.867188 174.304688 286.285156 173.96875 283.59375 173.96875 C 268.582031 173.96875 255.941406 184.085938 252.074219 197.886719 C 248.648438 196.121094 244.761719 195.136719 240.648438 195.136719 C 226.777344 195.136719 215.527344 206.414062 215.527344 220.320312 C 215.527344 234.226562 226.777344 245.503906 240.648438 245.503906 L 725.125 245.503906 C 738.992188 245.503906 750.242188 234.226562 750.242188 220.320312 C 750.242188 206.414062 738.992188 195.136719 725.125 195.136719 Z M 725.125 195.136719 " fill-opacity="1" fill-rule="nonzero"/></g><g clip-path="url(#id32)"><path fill="#07071c" d="M 679.253906 311.207031 C 675.140625 311.207031 671.257812 312.214844 667.828125 313.957031 C 663.945312 300.160156 651.304688 290.042969 636.308594 290.042969 C 633.636719 290.042969 631.035156 290.378906 628.539062 290.976562 C 624.585938 271.292969 607.234375 256.46875 586.4375 256.46875 C 568.3125 256.46875 552.828125 267.730469 546.515625 283.664062 C 537.992188 274.148438 525.613281 268.15625 511.851562 268.15625 C 509.53125 268.15625 507.261719 268.332031 505.046875 268.648438 C 502.359375 239.710938 478.082031 217.0625 448.53125 217.0625 C 430.160156 217.0625 413.832031 225.824219 403.441406 239.394531 C 399.277344 238.160156 394.863281 237.488281 390.292969 237.488281 C 369.636719 237.488281 352.128906 250.972656 346.027344 269.652344 C 342.265625 268.664062 338.3125 268.136719 334.25 268.136719 C 329.046875 268.136719 324.054688 269 319.378906 270.585938 C 311.523438 261.914062 300.199219 256.46875 287.597656 256.46875 C 266.800781 256.46875 249.449219 271.292969 245.496094 290.976562 C 243 290.378906 240.414062 290.042969 237.726562 290.042969 C 222.714844 290.042969 210.074219 300.160156 206.207031 313.957031 C 202.777344 312.195312 198.894531 311.207031 194.78125 311.207031 C 180.910156 311.207031 169.660156 322.488281 169.660156 336.394531 C 169.660156 350.296875 180.910156 361.578125 194.78125 361.578125 L 679.253906 361.578125 C 693.125 361.578125 704.375 350.296875 704.375 336.394531 C 704.375 322.488281 693.125 311.207031 679.253906 311.207031 Z M 679.253906 311.207031 " fill-opacity="1" fill-rule="nonzero"/></g><g clip-path="url(#id33)"><path fill="#23243d" d="M 1718.160156 211.59375 C 1713.683594 211.59375 1709.453125 212.683594 1705.722656 214.578125 C 1701.492188 199.605469 1687.734375 188.628906 1671.410156 188.628906 C 1668.5 188.628906 1665.667969 188.992188 1662.953125 189.640625 C 1658.644531 168.28125 1639.757812 152.199219 1617.121094 152.199219 C 1608.851562 152.199219 1601.082031 154.339844 1594.347656 158.109375 C 1583.628906 131.394531 1557.46875 112.5 1526.890625 112.5 C 1486.742188 112.5 1454.191406 145.027344 1454.191406 185.148438 C 1454.191406 185.433594 1454.191406 185.722656 1454.210938 186.007812 C 1451.722656 185.472656 1449.136719 185.1875 1446.476562 185.1875 C 1429.425781 185.1875 1415.054688 196.660156 1410.636719 212.285156 C 1406.730469 210.292969 1402.328125 209.167969 1397.640625 209.167969 C 1381.871094 209.167969 1369.089844 221.941406 1369.089844 237.699219 C 1369.089844 253.457031 1381.871094 266.230469 1397.640625 266.230469 L 1718.160156 266.230469 C 1733.257812 266.230469 1745.507812 253.992188 1745.507812 238.902344 C 1745.507812 223.816406 1733.257812 211.574219 1718.160156 211.574219 Z M 1718.160156 211.59375 " fill-opacity="1" fill-rule="nonzero"/></g><g clip-path="url(#id34)"><path fill="#07071c" d="M 1775.136719 307.378906 C 1771.023438 307.378906 1767.136719 308.382812 1763.710938 310.128906 C 1759.824219 296.328125 1747.1875 286.210938 1732.191406 286.210938 C 1729.519531 286.210938 1726.917969 286.546875 1724.421875 287.148438 C 1720.464844 267.460938 1703.117188 252.640625 1682.320312 252.640625 C 1664.195312 252.640625 1648.710938 263.902344 1642.398438 279.832031 C 1633.871094 270.316406 1621.496094 264.324219 1607.734375 264.324219 C 1605.414062 264.324219 1603.144531 264.5 1600.929688 264.816406 C 1598.238281 235.878906 1573.964844 213.234375 1544.414062 213.234375 C 1526.042969 213.234375 1509.710938 221.992188 1499.324219 235.5625 C 1495.15625 234.328125 1490.746094 233.660156 1486.175781 233.660156 C 1465.519531 233.660156 1448.011719 247.140625 1441.910156 265.824219 C 1438.148438 264.835938 1434.195312 264.308594 1430.132812 264.308594 C 1424.929688 264.308594 1419.9375 265.171875 1415.261719 266.757812 C 1407.402344 258.085938 1396.082031 252.640625 1383.480469 252.640625 C 1362.683594 252.640625 1345.332031 267.460938 1341.378906 287.148438 C 1338.882812 286.546875 1336.296875 286.214844 1333.605469 286.214844 C 1318.59375 286.214844 1305.957031 296.328125 1302.089844 310.128906 C 1298.660156 308.367188 1294.777344 307.378906 1290.664062 307.378906 C 1276.792969 307.378906 1265.542969 318.65625 1265.542969 332.5625 C 1265.542969 346.46875 1276.792969 357.746094 1290.664062 357.746094 L 1775.136719 357.746094 C 1789.007812 357.746094 1800.257812 346.46875 1800.257812 332.5625 C 1800.257812 318.65625 1789.007812 307.378906 1775.136719 307.378906 Z M 1775.136719 307.378906 " fill-opacity="1" fill-rule="nonzero"/></g><g clip-path="url(#id35)"><path fill="#1c1d32" d="M 295.796875 131.414062 C 291.742188 131.414062 287.910156 132.402344 284.53125 134.121094 C 280.703125 120.535156 268.238281 110.578125 253.457031 110.578125 C 250.820312 110.578125 248.253906 110.90625 245.792969 111.496094 C 241.894531 92.117188 224.789062 77.527344 204.285156 77.527344 C 186.414062 77.527344 171.144531 88.613281 164.921875 104.296875 C 156.515625 94.929688 144.3125 89.03125 130.742188 89.03125 C 128.453125 89.03125 126.21875 89.203125 124.035156 89.515625 C 121.382812 61.027344 97.445312 38.734375 68.3125 38.734375 C 50.199219 38.734375 34.097656 47.355469 23.855469 60.714844 C 19.746094 59.5 15.394531 58.84375 10.890625 58.84375 C -9.476562 58.84375 -26.738281 72.113281 -32.753906 90.503906 C -36.464844 89.53125 -40.363281 89.011719 -44.367188 89.011719 C -49.496094 89.011719 -54.417969 89.863281 -59.03125 91.425781 C -66.777344 82.886719 -77.9375 77.527344 -90.367188 77.527344 C -110.871094 77.527344 -127.976562 92.117188 -131.878906 111.496094 C -134.339844 110.90625 -136.886719 110.578125 -139.539062 110.578125 C -154.339844 110.578125 -166.800781 120.535156 -170.617188 134.121094 C -173.996094 132.386719 -177.824219 131.414062 -181.882812 131.414062 C -195.554688 131.414062 -206.648438 142.519531 -206.648438 156.207031 C -206.648438 169.894531 -195.554688 181 -181.882812 181 L 295.796875 181 C 309.472656 181 320.566406 169.894531 320.566406 156.207031 C 320.566406 142.519531 309.472656 131.414062 295.796875 131.414062 Z M 295.796875 131.414062 " fill-opacity="1" fill-rule="nonzero"/></g><g clip-path="url(#id36)"><path fill="#1c1d32" d="M 780.328125 246.578125 C 776.273438 246.578125 772.441406 247.566406 769.0625 249.285156 C 765.234375 235.699219 752.769531 225.738281 737.988281 225.738281 C 735.351562 225.738281 732.785156 226.070312 730.324219 226.660156 C 726.425781 207.28125 709.320312 192.6875 688.816406 192.6875 C 670.945312 192.6875 655.675781 203.777344 649.453125 219.460938 C 641.046875 210.089844 628.84375 204.191406 615.273438 204.191406 C 612.984375 204.191406 610.75 204.367188 608.566406 204.679688 C 605.914062 176.191406 581.976562 153.894531 552.84375 153.894531 C 534.730469 153.894531 518.628906 162.519531 508.386719 175.878906 C 504.277344 174.664062 499.925781 174.003906 495.421875 174.003906 C 475.054688 174.003906 457.792969 187.277344 451.777344 205.667969 C 448.066406 204.695312 444.167969 204.175781 440.164062 204.175781 C 435.035156 204.175781 430.113281 205.023438 425.5 206.585938 C 417.753906 198.050781 406.59375 192.6875 394.164062 192.6875 C 373.660156 192.6875 356.554688 207.28125 352.652344 226.660156 C 350.191406 226.070312 347.644531 225.738281 344.992188 225.738281 C 330.191406 225.738281 317.730469 235.699219 313.914062 249.285156 C 310.535156 247.546875 306.707031 246.578125 302.648438 246.578125 C 288.976562 246.578125 277.882812 257.679688 277.882812 271.371094 C 277.882812 285.058594 288.976562 296.160156 302.648438 296.160156 L 780.328125 296.160156 C 794.003906 296.160156 805.097656 285.058594 805.097656 271.371094 C 805.097656 257.679688 794.003906 246.578125 780.328125 246.578125 Z M 780.328125 246.578125 " fill-opacity="1" fill-rule="nonzero"/></g><g clip-path="url(#id37)"><path fill="#07071c" d="M 312.910156 189.820312 C 309.742188 189.820312 306.75 190.59375 304.109375 191.929688 C 301.121094 181.347656 291.386719 173.589844 279.84375 173.589844 C 277.785156 173.589844 275.78125 173.847656 273.859375 174.304688 C 270.8125 159.210938 257.453125 147.84375 241.441406 147.84375 C 227.488281 147.84375 215.5625 156.480469 210.703125 168.699219 C 204.136719 161.398438 194.609375 156.804688 184.011719 156.804688 C 182.222656 156.804688 180.476562 156.9375 178.773438 157.183594 C 176.703125 134.988281 158.007812 117.621094 135.253906 117.621094 C 121.109375 117.621094 108.535156 124.339844 100.539062 134.746094 C 97.328125 133.800781 93.933594 133.285156 90.414062 133.285156 C 74.507812 133.285156 61.027344 143.625 56.332031 157.953125 C 53.433594 157.195312 50.386719 156.789062 47.261719 156.789062 C 43.253906 156.789062 39.410156 157.453125 35.808594 158.667969 C 29.761719 152.019531 21.042969 147.84375 11.339844 147.84375 C -4.675781 147.84375 -18.035156 159.210938 -21.078125 174.304688 C -23 173.847656 -24.992188 173.589844 -27.0625 173.589844 C -38.621094 173.589844 -48.351562 181.347656 -51.332031 191.929688 C -53.96875 190.578125 -56.960938 189.820312 -60.128906 189.820312 C -70.808594 189.820312 -79.472656 198.472656 -79.472656 209.136719 C -79.472656 219.800781 -70.808594 228.449219 -60.128906 228.449219 L 312.910156 228.449219 C 323.589844 228.449219 332.25 219.800781 332.25 209.136719 C 332.25 198.472656 323.589844 189.820312 312.910156 189.820312 Z M 312.910156 189.820312 " fill-opacity="1" fill-rule="nonzero"/></g><g clip-path="url(#id38)"><path fill="#1c1d32" d="M 236.960938 174.746094 C 233.792969 174.746094 230.804688 175.515625 228.164062 176.855469 C 225.171875 166.269531 215.441406 158.511719 203.894531 158.511719 C 201.835938 158.511719 199.835938 158.769531 197.910156 159.230469 C 194.867188 144.132812 181.507812 132.765625 165.496094 132.765625 C 151.539062 132.765625 139.613281 141.402344 134.753906 153.621094 C 128.191406 146.320312 118.660156 141.726562 108.0625 141.726562 C 106.277344 141.726562 104.53125 141.863281 102.824219 142.105469 C 100.753906 119.914062 82.0625 102.546875 59.308594 102.546875 C 45.164062 102.546875 32.589844 109.261719 24.589844 119.667969 C 21.382812 118.722656 17.984375 118.210938 14.464844 118.210938 C -1.4375 118.210938 -14.921875 128.550781 -19.617188 142.875 C -22.511719 142.117188 -25.558594 141.714844 -28.6875 141.714844 C -32.691406 141.714844 -36.535156 142.375 -40.136719 143.59375 C -46.1875 136.941406 -54.902344 132.765625 -64.609375 132.765625 C -80.621094 132.765625 -93.980469 144.132812 -97.027344 159.230469 C -98.949219 158.769531 -100.9375 158.511719 -103.007812 158.511719 C -114.570312 158.511719 -124.300781 166.269531 -127.277344 176.855469 C -129.917969 175.503906 -132.910156 174.746094 -136.078125 174.746094 C -146.757812 174.746094 -155.417969 183.394531 -155.417969 194.058594 C -155.417969 204.722656 -146.757812 213.371094 -136.078125 213.371094 L 236.960938 213.371094 C 247.640625 213.371094 256.304688 204.722656 256.304688 194.058594 C 256.304688 183.394531 247.640625 174.746094 236.960938 174.746094 Z M 236.960938 174.746094 " fill-opacity="1" fill-rule="nonzero"/></g><g clip-path="url(#id39)"><path fill="#07071c" d="M 202.679688 145.589844 C 199.671875 145.589844 196.832031 146.324219 194.328125 147.597656 C 191.488281 137.515625 182.253906 130.125 171.296875 130.125 C 169.34375 130.125 167.445312 130.371094 165.621094 130.808594 C 162.730469 116.425781 150.050781 105.597656 134.855469 105.597656 C 121.613281 105.597656 110.296875 113.824219 105.683594 125.464844 C 99.453125 118.511719 90.410156 114.132812 80.355469 114.132812 C 78.65625 114.132812 77 114.261719 75.382812 114.492188 C 73.417969 93.351562 55.679688 76.804688 34.085938 76.804688 C 20.664062 76.804688 8.730469 83.203125 1.136719 93.117188 C -1.90625 92.21875 -5.132812 91.726562 -8.46875 91.726562 C -23.5625 91.726562 -36.359375 101.578125 -40.816406 115.226562 C -43.5625 114.507812 -46.453125 114.121094 -49.421875 114.121094 C -53.222656 114.121094 -56.871094 114.75 -60.289062 115.910156 C -66.03125 109.574219 -74.300781 105.597656 -83.511719 105.597656 C -98.707031 105.597656 -111.386719 116.425781 -114.277344 130.808594 C -116.101562 130.371094 -117.988281 130.125 -119.953125 130.125 C -130.921875 130.125 -140.160156 137.515625 -142.984375 147.597656 C -145.488281 146.3125 -148.328125 145.589844 -151.335938 145.589844 C -161.46875 145.589844 -169.691406 153.832031 -169.691406 163.992188 C -169.691406 174.148438 -161.46875 182.390625 -151.335938 182.390625 L 202.679688 182.390625 C 212.8125 182.390625 221.035156 174.148438 221.035156 163.992188 C 221.035156 153.832031 212.8125 145.589844 202.679688 145.589844 Z M 202.679688 145.589844 " fill-opacity="1" fill-rule="nonzero"/></g><g clip-path="url(#id40)"><path fill="#1c1d32" d="M 165.738281 222.914062 C 161.683594 222.914062 157.855469 223.902344 154.472656 225.621094 C 150.644531 212.035156 138.179688 202.078125 123.398438 202.078125 C 120.761719 202.078125 118.195312 202.40625 115.734375 202.996094 C 111.835938 183.617188 94.730469 169.027344 74.226562 169.027344 C 56.355469 169.027344 41.085938 180.113281 34.863281 195.796875 C 26.457031 186.429688 14.253906 180.53125 0.683594 180.53125 C -1.605469 180.53125 -3.839844 180.703125 -6.023438 181.015625 C -8.675781 152.527344 -32.613281 130.234375 -61.746094 130.234375 C -79.859375 130.234375 -95.960938 138.855469 -106.203125 152.214844 C -110.3125 151 -114.664062 150.339844 -119.167969 150.339844 C -139.535156 150.339844 -156.796875 163.613281 -162.8125 182.003906 C -166.519531 181.03125 -170.421875 180.511719 -174.425781 180.511719 C -179.554688 180.511719 -184.476562 181.363281 -189.085938 182.925781 C -196.835938 174.386719 -207.996094 169.027344 -220.425781 169.027344 C -240.929688 169.027344 -258.035156 183.617188 -261.9375 202.996094 C -264.398438 202.40625 -266.945312 202.078125 -269.597656 202.078125 C -284.398438 202.078125 -296.859375 212.035156 -300.671875 225.621094 C -304.054688 223.886719 -307.882812 222.914062 -311.941406 222.914062 C -325.613281 222.914062 -336.707031 234.019531 -336.707031 247.707031 C -336.707031 261.394531 -325.613281 272.5 -311.941406 272.5 L 165.738281 272.5 C 179.414062 272.5 190.507812 261.394531 190.507812 247.707031 C 190.507812 234.019531 179.414062 222.914062 165.738281 222.914062 Z M 165.738281 222.914062 " fill-opacity="1" fill-rule="nonzero"/></g><g clip-path="url(#id41)"><path fill="#23243d" d="M 481.632812 239.667969 C 477.15625 239.667969 472.925781 240.757812 469.195312 242.652344 C 464.964844 227.679688 451.207031 216.703125 434.882812 216.703125 C 431.972656 216.703125 429.140625 217.066406 426.421875 217.714844 C 422.117188 196.355469 403.230469 180.273438 380.589844 180.273438 C 372.324219 180.273438 364.554688 182.414062 357.820312 186.179688 C 347.101562 159.464844 320.941406 140.574219 290.363281 140.574219 C 250.214844 140.574219 217.664062 173.101562 217.664062 213.222656 C 217.664062 213.507812 217.664062 213.796875 217.679688 214.082031 C 215.195312 213.546875 212.609375 213.257812 209.949219 213.257812 C 192.898438 213.257812 178.527344 224.734375 174.109375 240.355469 C 170.203125 238.367188 165.800781 237.238281 161.113281 237.238281 C 145.34375 237.238281 132.5625 250.015625 132.5625 265.773438 C 132.5625 281.527344 145.34375 294.304688 161.113281 294.304688 L 481.632812 294.304688 C 496.730469 294.304688 508.980469 282.066406 508.980469 266.976562 C 508.980469 251.886719 496.730469 239.648438 481.632812 239.648438 Z M 481.632812 239.667969 " fill-opacity="1" fill-rule="nonzero"/></g><g clip-path="url(#id42)"><path fill="#d9d9d9" d="M 400.648438 248.316406 C 396.925781 248.316406 393.414062 249.222656 390.3125 250.796875 C 386.796875 238.355469 375.363281 229.234375 361.796875 229.234375 C 359.382812 229.234375 357.027344 229.535156 354.769531 230.078125 C 351.191406 212.328125 335.496094 198.964844 316.683594 198.964844 C 300.289062 198.964844 286.277344 209.117188 280.570312 223.484375 C 272.855469 214.902344 261.660156 209.5 249.210938 209.5 C 247.109375 209.5 245.058594 209.660156 243.054688 209.945312 C 240.621094 183.855469 218.660156 163.4375 191.929688 163.4375 C 175.3125 163.4375 160.539062 171.335938 151.140625 183.570312 C 147.371094 182.457031 143.378906 181.851562 139.246094 181.851562 C 120.558594 181.851562 104.722656 194.007812 99.203125 210.851562 C 95.800781 209.960938 92.222656 209.484375 88.546875 209.484375 C 83.839844 209.484375 79.324219 210.261719 75.09375 211.691406 C 67.988281 203.875 57.746094 198.964844 46.34375 198.964844 C 27.53125 198.964844 11.835938 212.328125 8.257812 230.078125 C 6 229.535156 3.660156 229.234375 1.230469 229.234375 C -12.351562 229.234375 -23.785156 238.355469 -27.285156 250.796875 C -30.386719 249.207031 -33.898438 248.316406 -37.621094 248.316406 C -50.167969 248.316406 -60.34375 258.488281 -60.34375 271.023438 C -60.34375 283.558594 -50.167969 293.730469 -37.621094 293.730469 L 400.648438 293.730469 C 413.195312 293.730469 423.371094 283.558594 423.371094 271.023438 C 423.371094 258.488281 413.195312 248.316406 400.648438 248.316406 Z M 400.648438 248.316406 " fill-opacity="1" fill-rule="nonzero"/></g></svg>