<svg xmlns="http://www.w3.org/2000/svg" xmlns:xlink="http://www.w3.org/1999/xlink" width="1980" zoomAndPan="magnify" viewBox="0 0 1485 225" height="300" preserveAspectRatio="xMidYMid meet" version="1.0"><defs><clipPath id="id1"><path d="M 0 42.625 L 192.824219 42.625 L 192.824219 185.625 L 0 185.625 Z M 0 42.625 " clip-rule="nonzero"/></clipPath><clipPath id="id2"><path d="M 8.347656 42.625 L 538.972656 42.625 L 538.972656 185.625 L 8.347656 185.625 Z M 8.347656 42.625 " clip-rule="nonzero"/></clipPath><clipPath id="id3"><path d="M 1047.335938 14 L 1485 14 L 1485 174.515625 L 1047.335938 174.515625 Z M 1047.335938 14 " clip-rule="nonzero"/></clipPath><clipPath id="id4"><path d="M 669.691406 30.082031 L 1200.316406 30.082031 L 1200.316406 173 L 669.691406 173 Z M 669.691406 30.082031 " clip-rule="nonzero"/></clipPath><clipPath id="id5"><path d="M 301.125 66.613281 L 831.75 66.613281 L 831.75 209.617188 L 301.125 209.617188 Z M 301.125 66.613281 " clip-rule="nonzero"/></clipPath><clipPath id="id6"><path d="M 0 165.121094 L 1485 165.121094 L 1485 225 L 0 225 Z M 0 165.121094 " clip-rule="nonzero"/></clipPath><clipPath id="id7"><path d="M 0 80.722656 L 42.84375 80.722656 L 42.84375 206.582031 L 0 206.582031 Z M 0 80.722656 " clip-rule="nonzero"/></clipPath><clipPath id="id8"><path d="M 489.421875 70.332031 L 955.730469 70.332031 L 955.730469 196.191406 L 489.421875 196.191406 Z M 489.421875 70.332031 " clip-rule="nonzero"/></clipPath><clipPath id="id9"><path d="M 157.671875 69.703125 L 623.816406 69.703125 L 623.816406 195.5625 L 157.671875 195.5625 Z M 157.671875 69.703125 " clip-rule="nonzero"/></clipPath><clipPath id="id10"><path d="M 0 101.796875 L 300.042969 101.796875 L 300.042969 225 L 0 225 Z M 0 101.796875 " clip-rule="nonzero"/></clipPath><clipPath id="id11"><path d="M 0 106.527344 L 425.480469 106.527344 L 425.480469 225 L 0 225 Z M 0 106.527344 " clip-rule="nonzero"/></clipPath><clipPath id="id12"><path d="M 251.929688 106.527344 L 751.292969 106.527344 L 751.292969 225 L 251.929688 225 Z M 251.929688 106.527344 " clip-rule="nonzero"/></clipPath><clipPath id="id13"><path d="M 1229.347656 95.398438 L 1485 95.398438 L 1485 225 L 1229.347656 225 Z M 1229.347656 95.398438 " clip-rule="nonzero"/></clipPath><clipPath id="id14"><path d="M 874.082031 94.726562 L 1373.445312 94.726562 L 1373.445312 225 L 874.082031 225 Z M 874.082031 94.726562 " clip-rule="nonzero"/></clipPath><clipPath id="id15"><path d="M 527.359375 129.09375 L 1026.542969 129.09375 L 1026.542969 225 L 527.359375 225 Z M 527.359375 129.09375 " clip-rule="nonzero"/></clipPath><clipPath id="id16"><path d="M 0 146.316406 L 370.289062 146.316406 L 370.289062 225 L 0 225 Z M 0 146.316406 " clip-rule="nonzero"/></clipPath><clipPath id="id17"><path d="M 200.898438 146.316406 L 687.785156 146.316406 L 687.785156 225 L 200.898438 225 Z M 200.898438 146.316406 " clip-rule="nonzero"/></clipPath><clipPath id="id18"><path d="M 1153.890625 135.46875 L 1485 135.46875 L 1485 225 L 1153.890625 225 Z M 1153.890625 135.46875 " clip-rule="nonzero"/></clipPath><clipPath id="id19"><path d="M 807.503906 134.808594 L 1294.386719 134.808594 L 1294.386719 225 L 807.503906 225 Z M 807.503906 134.808594 " clip-rule="nonzero"/></clipPath><clipPath id="id20"><path d="M 469.445312 168.320312 L 956.328125 168.320312 L 956.328125 225 L 469.445312 225 Z M 469.445312 168.320312 " clip-rule="nonzero"/></clipPath></defs><rect x="-148.5" width="1782" fill="#ffffff" y="-22.5" height="270" fill-opacity="1"/><rect x="-148.5" width="1782" fill="#ffffff" y="-22.5" height="270" fill-opacity="1"/><rect x="-148.5" width="1782" fill="#050511" y="-22.5" height="270" fill-opacity="1"/><g clip-path="url(#id1)"><path fill="#23243d" d="M -313.054688 135.75 C -308.96875 135.75 -305.113281 136.742188 -301.710938 138.464844 C -297.851562 124.832031 -285.304688 114.839844 -270.417969 114.839844 C -267.765625 114.839844 -265.183594 115.171875 -262.707031 115.761719 C -258.78125 96.3125 -241.554688 81.671875 -220.910156 81.671875 C -202.917969 81.671875 -187.542969 92.796875 -181.277344 108.535156 C -172.8125 99.132812 -160.527344 93.214844 -146.863281 93.214844 C -144.5625 93.214844 -142.308594 93.386719 -140.109375 93.703125 C -137.441406 65.113281 -113.339844 42.738281 -84.003906 42.738281 C -65.769531 42.738281 -49.554688 51.390625 -39.242188 64.796875 C -35.105469 63.578125 -30.726562 62.917969 -26.1875 62.917969 C -5.683594 62.917969 11.699219 76.238281 17.753906 94.695312 C 21.488281 93.71875 25.414062 93.195312 29.445312 93.195312 C 34.613281 93.195312 39.566406 94.050781 44.210938 95.617188 C 52.011719 87.050781 63.25 81.671875 75.761719 81.671875 C 96.40625 81.671875 113.628906 96.3125 117.558594 115.761719 C 120.035156 115.171875 122.601562 114.839844 125.269531 114.839844 C 140.175781 114.839844 152.722656 124.832031 156.5625 138.464844 C 159.964844 136.726562 163.820312 135.75 167.902344 135.75 C 181.671875 135.75 192.84375 146.894531 192.84375 160.632812 C 192.84375 174.371094 181.671875 185.511719 167.902344 185.511719 L -313.054688 185.511719 C -326.820312 185.511719 -337.992188 174.371094 -337.992188 160.632812 C -337.992188 146.894531 -326.820312 135.75 -313.054688 135.75 Z M -313.054688 135.75 " fill-opacity="1" fill-rule="nonzero"/></g><g clip-path="url(#id2)"><path fill="#23243d" d="M 33.09375 135.75 C 37.175781 135.75 41.035156 136.742188 44.4375 138.464844 C 48.292969 124.832031 60.839844 114.839844 75.726562 114.839844 C 78.378906 114.839844 80.960938 115.171875 83.441406 115.761719 C 87.367188 96.3125 104.589844 81.671875 125.238281 81.671875 C 143.230469 81.671875 158.601562 92.796875 164.867188 108.535156 C 173.332031 99.132812 185.617188 93.214844 199.28125 93.214844 C 201.585938 93.214844 203.835938 93.386719 206.035156 93.703125 C 208.707031 65.113281 232.804688 42.738281 262.140625 42.738281 C 280.378906 42.738281 296.589844 51.390625 306.902344 64.796875 C 311.039062 63.578125 315.421875 62.917969 319.957031 62.917969 C 340.460938 62.917969 357.84375 76.238281 363.898438 94.695312 C 367.632812 93.71875 371.5625 93.195312 375.59375 93.195312 C 380.757812 93.195312 385.714844 94.050781 390.355469 95.617188 C 398.15625 87.050781 409.394531 81.671875 421.90625 81.671875 C 442.554688 81.671875 459.777344 96.3125 463.703125 115.761719 C 466.183594 115.171875 468.746094 114.839844 471.417969 114.839844 C 486.320312 114.839844 498.867188 124.832031 502.707031 138.464844 C 506.109375 136.726562 509.96875 135.75 514.050781 135.75 C 527.820312 135.75 538.988281 146.894531 538.988281 160.632812 C 538.988281 174.371094 527.820312 185.511719 514.050781 185.511719 L 33.09375 185.511719 C 19.324219 185.511719 8.15625 174.371094 8.15625 160.632812 C 8.15625 146.894531 19.324219 135.75 33.09375 135.75 Z M 33.09375 135.75 " fill-opacity="1" fill-rule="nonzero"/></g><g clip-path="url(#id3)"><path fill="#23243d" d="M 1612.949219 118.492188 C 1608.382812 118.492188 1604.070312 119.609375 1600.265625 121.542969 C 1595.953125 106.230469 1581.921875 95.003906 1565.28125 95.003906 C 1562.3125 95.003906 1559.425781 95.375 1556.65625 96.039062 C 1552.265625 74.195312 1533.007812 57.746094 1509.925781 57.746094 C 1489.808594 57.746094 1472.617188 70.242188 1465.613281 87.921875 C 1456.148438 77.363281 1442.414062 70.710938 1427.136719 70.710938 C 1424.558594 70.710938 1422.042969 70.90625 1419.585938 71.257812 C 1416.597656 39.144531 1389.652344 14.011719 1356.855469 14.011719 C 1336.464844 14.011719 1318.335938 23.734375 1306.804688 38.792969 C 1302.179688 37.425781 1297.285156 36.679688 1292.210938 36.679688 C 1269.285156 36.679688 1249.851562 51.644531 1243.078125 72.375 C 1238.902344 71.277344 1234.515625 70.691406 1230.007812 70.691406 C 1224.230469 70.691406 1218.691406 71.652344 1213.5 73.410156 C 1204.777344 63.789062 1192.210938 57.746094 1178.222656 57.746094 C 1155.140625 57.746094 1135.882812 74.195312 1131.492188 96.039062 C 1128.71875 95.375 1125.851562 95.003906 1122.867188 95.003906 C 1106.203125 95.003906 1092.175781 106.230469 1087.882812 121.542969 C 1084.078125 119.589844 1079.765625 118.492188 1075.199219 118.492188 C 1059.804688 118.492188 1047.316406 131.011719 1047.316406 146.441406 C 1047.316406 161.875 1059.804688 174.390625 1075.199219 174.390625 L 1612.949219 174.390625 C 1628.34375 174.390625 1640.832031 161.875 1640.832031 146.441406 C 1640.832031 131.011719 1628.34375 118.492188 1612.949219 118.492188 Z M 1612.949219 118.492188 " fill-opacity="1" fill-rule="nonzero"/></g><g clip-path="url(#id4)"><path fill="#23243d" d="M 694.4375 123.207031 C 698.519531 123.207031 702.378906 124.199219 705.78125 125.921875 C 709.636719 112.289062 722.183594 102.292969 737.070312 102.292969 C 739.722656 102.292969 742.304688 102.625 744.785156 103.21875 C 748.710938 83.769531 765.9375 69.125 786.582031 69.125 C 804.574219 69.125 819.949219 80.25 826.210938 95.992188 C 834.675781 86.589844 846.960938 80.667969 860.625 80.667969 C 862.929688 80.667969 865.179688 80.84375 867.378906 81.15625 C 870.050781 52.566406 894.148438 30.195312 923.484375 30.195312 C 941.722656 30.195312 957.933594 38.847656 968.25 52.253906 C 972.382812 51.035156 976.765625 50.375 981.300781 50.375 C 1001.808594 50.375 1019.1875 63.691406 1025.242188 82.148438 C 1028.980469 81.175781 1032.90625 80.652344 1036.9375 80.652344 C 1042.101562 80.652344 1047.058594 81.503906 1051.699219 83.074219 C 1059.5 74.507812 1070.738281 69.125 1083.253906 69.125 C 1103.898438 69.125 1121.121094 83.769531 1125.046875 103.21875 C 1127.527344 102.625 1130.089844 102.292969 1132.761719 102.292969 C 1147.664062 102.292969 1160.210938 112.289062 1164.050781 125.921875 C 1167.453125 124.179688 1171.3125 123.207031 1175.394531 123.207031 C 1189.164062 123.207031 1200.332031 134.347656 1200.332031 148.085938 C 1200.332031 161.824219 1189.164062 172.96875 1175.394531 172.96875 L 694.4375 172.96875 C 680.667969 172.96875 669.5 161.824219 669.5 148.085938 C 669.5 134.347656 680.667969 123.207031 694.4375 123.207031 Z M 694.4375 123.207031 " fill-opacity="1" fill-rule="nonzero"/></g><g clip-path="url(#id5)"><path fill="#23243d" d="M 325.871094 159.738281 C 329.957031 159.738281 333.8125 160.734375 337.214844 162.457031 C 341.070312 148.824219 353.621094 138.828125 368.503906 138.828125 C 371.15625 138.828125 373.742188 139.160156 376.21875 139.75 C 380.144531 120.304688 397.371094 105.660156 418.015625 105.660156 C 436.007812 105.660156 451.382812 116.785156 457.648438 132.527344 C 466.109375 123.125 478.394531 117.203125 492.0625 117.203125 C 494.363281 117.203125 496.617188 117.378906 498.8125 117.691406 C 501.484375 89.101562 525.585938 66.726562 554.921875 66.726562 C 573.15625 66.726562 589.367188 75.382812 599.683594 88.789062 C 603.820312 87.570312 608.199219 86.90625 612.734375 86.90625 C 633.242188 86.90625 650.621094 100.226562 656.679688 118.683594 C 660.414062 117.707031 664.339844 117.1875 668.371094 117.1875 C 673.535156 117.1875 678.492188 118.039062 683.132812 119.605469 C 690.933594 111.039062 702.175781 105.660156 714.6875 105.660156 C 735.332031 105.660156 752.554688 120.304688 756.480469 139.75 C 758.960938 139.160156 761.527344 138.828125 764.195312 138.828125 C 779.097656 138.828125 791.648438 148.824219 795.484375 162.457031 C 798.890625 160.714844 802.746094 159.738281 806.828125 159.738281 C 820.597656 159.738281 831.765625 170.882812 831.765625 184.621094 C 831.765625 198.359375 820.597656 209.503906 806.828125 209.503906 L 325.871094 209.503906 C 312.101562 209.503906 300.933594 198.359375 300.933594 184.621094 C 300.933594 170.882812 312.101562 159.738281 325.871094 159.738281 Z M 325.871094 159.738281 " fill-opacity="1" fill-rule="nonzero"/></g><g clip-path="url(#id6)"><path fill="#050511" d="M -323.246094 165.121094 L 1625.730469 165.121094 L 1625.730469 283.632812 L -323.246094 283.632812 L -323.246094 165.121094 " fill-opacity="1" fill-rule="nonzero"/></g><g clip-path="url(#id7)"><path fill="#4481ab" d="M -401.515625 162.683594 C -397.929688 162.683594 -394.539062 163.558594 -391.550781 165.074219 C -388.164062 153.078125 -377.140625 144.28125 -364.066406 144.28125 C -361.738281 144.28125 -359.46875 144.574219 -357.289062 145.09375 C -353.84375 127.976562 -338.710938 115.089844 -320.578125 115.089844 C -304.773438 115.089844 -291.269531 124.882812 -285.765625 138.734375 C -278.332031 130.460938 -267.539062 125.25 -255.535156 125.25 C -253.511719 125.25 -251.535156 125.402344 -249.605469 125.679688 C -247.257812 100.519531 -226.089844 80.828125 -200.320312 80.828125 C -184.300781 80.828125 -170.0625 88.441406 -161.003906 100.242188 C -157.371094 99.167969 -153.523438 98.585938 -149.535156 98.585938 C -131.523438 98.585938 -116.257812 110.308594 -110.9375 126.550781 C -107.65625 125.695312 -104.207031 125.234375 -100.667969 125.234375 C -96.128906 125.234375 -91.777344 125.984375 -87.699219 127.363281 C -80.847656 119.824219 -70.976562 115.089844 -59.984375 115.089844 C -41.847656 115.089844 -26.71875 127.976562 -23.269531 145.09375 C -21.09375 144.574219 -18.839844 144.28125 -16.496094 144.28125 C -3.402344 144.28125 7.617188 153.078125 10.988281 165.074219 C 13.980469 163.542969 17.367188 162.683594 20.953125 162.683594 C 33.046875 162.683594 42.859375 172.492188 42.859375 184.582031 C 42.859375 196.671875 33.046875 206.480469 20.953125 206.480469 L -401.515625 206.480469 C -413.609375 206.480469 -423.421875 196.671875 -423.421875 184.582031 C -423.421875 172.492188 -413.609375 162.683594 -401.515625 162.683594 Z M -401.515625 162.683594 " fill-opacity="1" fill-rule="nonzero"/></g><g clip-path="url(#id8)"><path fill="#4481ab" d="M 933.78125 152.292969 C 930.195312 152.292969 926.804688 153.167969 923.816406 154.683594 C 920.429688 142.6875 909.40625 133.890625 896.332031 133.890625 C 894 133.890625 891.734375 134.183594 889.554688 134.703125 C 886.105469 117.585938 870.976562 104.699219 852.84375 104.699219 C 837.039062 104.699219 823.535156 114.492188 818.03125 128.34375 C 810.597656 120.070312 799.804688 114.859375 787.800781 114.859375 C 785.777344 114.859375 783.800781 115.011719 781.871094 115.289062 C 779.523438 90.128906 758.355469 70.4375 732.585938 70.4375 C 716.566406 70.4375 702.328125 78.050781 693.269531 89.851562 C 689.636719 88.777344 685.789062 88.195312 681.800781 88.195312 C 663.789062 88.195312 648.523438 99.917969 643.203125 116.160156 C 639.921875 115.304688 636.472656 114.84375 632.933594 114.84375 C 628.394531 114.84375 624.042969 115.59375 619.964844 116.972656 C 613.113281 109.433594 603.238281 104.699219 592.25 104.699219 C 574.113281 104.699219 558.984375 117.585938 555.535156 134.703125 C 553.359375 134.183594 551.105469 133.890625 548.761719 133.890625 C 535.667969 133.890625 524.648438 142.6875 521.277344 154.683594 C 518.285156 153.152344 514.898438 152.292969 511.3125 152.292969 C 499.21875 152.292969 489.40625 162.101562 489.40625 174.191406 C 489.40625 186.28125 499.21875 196.089844 511.3125 196.089844 L 933.78125 196.089844 C 945.875 196.089844 955.6875 186.28125 955.6875 174.191406 C 955.6875 162.101562 945.875 152.292969 933.78125 152.292969 Z M 933.78125 152.292969 " fill-opacity="1" fill-rule="nonzero"/></g><g clip-path="url(#id9)"><path fill="#4481ab" d="M 179.457031 151.664062 C 183.042969 151.664062 186.433594 152.539062 189.421875 154.054688 C 192.808594 142.058594 203.832031 133.261719 216.90625 133.261719 C 219.234375 133.261719 221.503906 133.554688 223.679688 134.074219 C 227.128906 116.957031 242.261719 104.070312 260.394531 104.070312 C 276.199219 104.070312 289.703125 113.863281 295.207031 127.714844 C 302.640625 119.441406 313.433594 114.230469 325.4375 114.230469 C 327.460938 114.230469 329.4375 114.382812 331.367188 114.660156 C 333.714844 89.496094 354.882812 69.808594 380.652344 69.808594 C 396.667969 69.808594 410.910156 77.421875 419.96875 89.222656 C 423.601562 88.148438 427.449219 87.566406 431.4375 87.566406 C 449.449219 87.566406 464.714844 99.289062 470.035156 115.53125 C 473.316406 114.675781 476.765625 114.214844 480.304688 114.214844 C 484.84375 114.214844 489.195312 114.964844 493.273438 116.34375 C 500.125 108.804688 509.996094 104.070312 520.988281 104.070312 C 539.121094 104.070312 554.253906 116.957031 557.703125 134.074219 C 559.878906 133.554688 562.132812 133.261719 564.476562 133.261719 C 577.566406 133.261719 588.589844 142.058594 591.960938 154.054688 C 594.953125 152.523438 598.339844 151.664062 601.925781 151.664062 C 614.019531 151.664062 623.832031 161.472656 623.832031 173.5625 C 623.832031 185.652344 614.019531 195.460938 601.925781 195.460938 L 179.457031 195.460938 C 167.363281 195.460938 157.550781 185.652344 157.550781 173.5625 C 157.550781 161.472656 167.363281 151.664062 179.457031 151.664062 Z M 179.457031 151.664062 " fill-opacity="1" fill-rule="nonzero"/></g><g clip-path="url(#id10)"><path fill="#4481ab" d="M -144.316406 183.761719 C -140.730469 183.761719 -137.34375 184.632812 -134.355469 186.148438 C -130.964844 174.152344 -119.945312 165.355469 -106.867188 165.355469 C -104.539062 165.355469 -102.269531 165.648438 -100.09375 166.167969 C -96.644531 149.050781 -81.515625 136.164062 -63.378906 136.164062 C -47.574219 136.164062 -34.070312 145.957031 -28.566406 159.808594 C -21.132812 151.535156 -10.339844 146.324219 1.660156 146.324219 C 3.683594 146.324219 5.660156 146.476562 7.59375 146.753906 C 9.9375 121.59375 31.109375 101.902344 56.875 101.902344 C 72.894531 101.902344 87.136719 109.515625 96.195312 121.316406 C 99.828125 120.242188 103.675781 119.660156 107.660156 119.660156 C 125.671875 119.660156 140.941406 131.382812 146.261719 147.625 C 149.539062 146.769531 152.988281 146.308594 156.53125 146.308594 C 161.066406 146.308594 165.421875 147.058594 169.5 148.4375 C 176.351562 140.898438 186.222656 136.164062 197.214844 136.164062 C 215.347656 136.164062 230.476562 149.050781 233.925781 166.167969 C 236.105469 165.648438 238.355469 165.355469 240.703125 165.355469 C 253.792969 165.355469 264.816406 174.152344 268.1875 186.148438 C 271.175781 184.617188 274.5625 183.761719 278.152344 183.761719 C 290.246094 183.761719 300.054688 193.566406 300.054688 205.65625 C 300.054688 217.746094 290.246094 227.554688 278.152344 227.554688 L -144.316406 227.554688 C -156.414062 227.554688 -166.222656 217.746094 -166.222656 205.65625 C -166.222656 193.566406 -156.414062 183.761719 -144.316406 183.761719 Z M -144.316406 183.761719 " fill-opacity="1" fill-rule="nonzero"/></g><g clip-path="url(#id11)"><path fill="#57a4d9" d="M -50.375 194.296875 C -46.535156 194.296875 -42.90625 195.234375 -39.707031 196.855469 C -36.078125 184.007812 -24.273438 174.589844 -10.273438 174.589844 C -7.777344 174.589844 -5.347656 174.902344 -3.015625 175.457031 C 0.675781 157.128906 16.878906 143.328125 36.296875 143.328125 C 53.222656 143.328125 67.683594 153.8125 73.578125 168.648438 C 81.539062 159.789062 93.097656 154.207031 105.949219 154.207031 C 108.117188 154.207031 110.234375 154.371094 112.304688 154.667969 C 114.8125 127.722656 137.484375 106.636719 165.078125 106.636719 C 182.234375 106.636719 197.484375 114.792969 207.183594 127.425781 C 211.074219 126.277344 215.195312 125.65625 219.464844 125.65625 C 238.753906 125.65625 255.101562 138.207031 260.796875 155.601562 C 264.3125 154.683594 268.003906 154.191406 271.796875 154.191406 C 276.65625 154.191406 281.316406 154.996094 285.683594 156.472656 C 293.023438 148.398438 303.59375 143.328125 315.363281 143.328125 C 334.785156 143.328125 350.984375 157.128906 354.679688 175.457031 C 357.011719 174.902344 359.421875 174.589844 361.933594 174.589844 C 375.953125 174.589844 387.757812 184.007812 391.367188 196.855469 C 394.570312 195.214844 398.195312 194.296875 402.039062 194.296875 C 414.992188 194.296875 425.496094 204.800781 425.496094 217.746094 C 425.496094 230.695312 414.992188 241.195312 402.039062 241.195312 L -50.375 241.195312 C -63.328125 241.195312 -73.832031 230.695312 -73.832031 217.746094 C -73.832031 204.800781 -63.328125 194.296875 -50.375 194.296875 Z M -50.375 194.296875 " fill-opacity="1" fill-rule="nonzero"/></g><g clip-path="url(#id12)"><path fill="#57a4d9" d="M 727.785156 194.296875 C 723.945312 194.296875 720.316406 195.234375 717.113281 196.855469 C 713.488281 184.007812 701.683594 174.589844 687.683594 174.589844 C 685.1875 174.589844 682.757812 174.902344 680.425781 175.457031 C 676.734375 157.128906 660.53125 143.328125 641.109375 143.328125 C 624.1875 143.328125 609.722656 153.8125 603.832031 168.648438 C 595.871094 159.789062 584.3125 154.207031 571.460938 154.207031 C 569.292969 154.207031 567.175781 154.371094 565.105469 154.667969 C 562.59375 127.722656 539.925781 106.636719 512.332031 106.636719 C 495.175781 106.636719 479.925781 114.792969 470.222656 127.425781 C 466.332031 126.277344 462.214844 125.65625 457.945312 125.65625 C 438.65625 125.65625 422.308594 138.207031 416.609375 155.601562 C 413.097656 154.683594 409.40625 154.191406 405.613281 154.191406 C 400.753906 154.191406 396.089844 154.996094 391.726562 156.472656 C 384.386719 148.398438 373.816406 143.328125 362.046875 143.328125 C 342.625 143.328125 326.421875 157.128906 322.730469 175.457031 C 320.398438 174.902344 317.984375 174.589844 315.472656 174.589844 C 301.457031 174.589844 289.652344 184.007812 286.042969 196.855469 C 282.839844 195.214844 279.210938 194.296875 275.371094 194.296875 C 262.417969 194.296875 251.914062 204.800781 251.914062 217.746094 C 251.914062 230.695312 262.417969 241.195312 275.371094 241.195312 L 727.785156 241.195312 C 740.738281 241.195312 751.242188 230.695312 751.242188 217.746094 C 751.242188 204.800781 740.738281 194.296875 727.785156 194.296875 Z M 727.785156 194.296875 " fill-opacity="1" fill-rule="nonzero"/></g><g clip-path="url(#id13)"><path fill="#57a4d9" d="M 1252.675781 183.171875 C 1256.515625 183.171875 1260.144531 184.105469 1263.34375 185.730469 C 1266.972656 172.882812 1278.773438 163.460938 1292.777344 163.460938 C 1295.273438 163.460938 1297.703125 163.773438 1300.035156 164.332031 C 1303.726562 146 1319.929688 132.203125 1339.347656 132.203125 C 1356.273438 132.203125 1370.734375 142.6875 1376.628906 157.523438 C 1384.589844 148.660156 1396.148438 143.082031 1409 143.082031 C 1411.167969 143.082031 1413.285156 143.246094 1415.351562 143.539062 C 1417.863281 116.59375 1440.535156 95.507812 1468.128906 95.507812 C 1485.285156 95.507812 1500.535156 103.664062 1510.234375 116.300781 C 1514.125 115.152344 1518.246094 114.527344 1522.515625 114.527344 C 1541.800781 114.527344 1558.152344 127.082031 1563.847656 144.476562 C 1567.363281 143.558594 1571.054688 143.066406 1574.847656 143.066406 C 1579.707031 143.066406 1584.367188 143.867188 1588.734375 145.34375 C 1596.074219 137.273438 1606.644531 132.203125 1618.414062 132.203125 C 1637.832031 132.203125 1654.035156 146 1657.730469 164.332031 C 1660.0625 163.773438 1662.472656 163.460938 1664.984375 163.460938 C 1679.003906 163.460938 1690.808594 172.882812 1694.417969 185.730469 C 1697.621094 184.089844 1701.246094 183.171875 1705.089844 183.171875 C 1718.039062 183.171875 1728.546875 193.671875 1728.546875 206.621094 C 1728.546875 219.566406 1718.039062 230.070312 1705.089844 230.070312 L 1252.675781 230.070312 C 1239.722656 230.070312 1229.214844 219.566406 1229.214844 206.621094 C 1229.214844 193.671875 1239.722656 183.171875 1252.675781 183.171875 Z M 1252.675781 183.171875 " fill-opacity="1" fill-rule="nonzero"/></g><g clip-path="url(#id14)"><path fill="#57a4d9" d="M 1349.9375 182.496094 C 1346.097656 182.496094 1342.46875 183.429688 1339.269531 185.054688 C 1335.640625 172.207031 1323.835938 162.789062 1309.835938 162.789062 C 1307.339844 162.789062 1304.910156 163.101562 1302.578125 163.65625 C 1298.886719 145.328125 1282.683594 131.527344 1263.261719 131.527344 C 1246.339844 131.527344 1231.875 142.011719 1225.984375 156.847656 C 1218.023438 147.988281 1206.464844 142.40625 1193.613281 142.40625 C 1191.445312 142.40625 1189.328125 142.570312 1187.257812 142.867188 C 1184.746094 115.921875 1162.078125 94.835938 1134.484375 94.835938 C 1117.328125 94.835938 1102.078125 102.992188 1092.378906 115.625 C 1088.488281 114.476562 1084.367188 113.855469 1080.097656 113.855469 C 1060.808594 113.855469 1044.460938 126.40625 1038.761719 143.800781 C 1035.25 142.882812 1031.558594 142.390625 1027.765625 142.390625 C 1022.90625 142.390625 1018.242188 143.195312 1013.878906 144.671875 C 1006.539062 136.597656 995.96875 131.527344 984.199219 131.527344 C 964.777344 131.527344 948.578125 145.328125 944.882812 163.65625 C 942.550781 163.101562 940.136719 162.789062 937.628906 162.789062 C 923.609375 162.789062 911.804688 172.207031 908.195312 185.054688 C 904.992188 183.414062 901.363281 182.496094 897.523438 182.496094 C 884.570312 182.496094 874.066406 193 874.066406 205.945312 C 874.066406 218.894531 884.570312 229.394531 897.523438 229.394531 L 1349.9375 229.394531 C 1362.890625 229.394531 1373.394531 218.894531 1373.394531 205.945312 C 1373.394531 193 1362.890625 182.496094 1349.9375 182.496094 Z M 1349.9375 182.496094 " fill-opacity="1" fill-rule="nonzero"/></g><g clip-path="url(#id15)"><path fill="#57a4d9" d="M 550.6875 216.863281 C 554.527344 216.863281 558.15625 217.800781 561.355469 219.425781 C 564.984375 206.578125 576.785156 197.15625 590.789062 197.15625 C 593.285156 197.15625 595.714844 197.46875 598.046875 198.027344 C 601.738281 179.695312 617.941406 165.898438 637.359375 165.898438 C 654.285156 165.898438 668.746094 176.382812 674.640625 191.214844 C 682.601562 182.355469 694.160156 176.777344 707.011719 176.777344 C 709.179688 176.777344 711.296875 176.941406 713.363281 177.234375 C 715.875 150.289062 738.546875 129.203125 766.140625 129.203125 C 783.296875 129.203125 798.546875 137.359375 808.246094 149.996094 C 812.136719 148.847656 816.257812 148.222656 820.527344 148.222656 C 839.8125 148.222656 856.164062 160.777344 861.859375 178.171875 C 865.375 177.253906 869.066406 176.757812 872.859375 176.757812 C 877.71875 176.757812 882.378906 177.5625 886.746094 179.039062 C 894.085938 170.96875 904.65625 165.898438 916.425781 165.898438 C 935.84375 165.898438 952.046875 179.695312 955.742188 198.027344 C 958.074219 197.46875 960.484375 197.15625 962.996094 197.15625 C 977.015625 197.15625 988.820312 206.578125 992.429688 219.425781 C 995.632812 217.785156 999.257812 216.863281 1003.101562 216.863281 C 1016.050781 216.863281 1026.558594 227.367188 1026.558594 240.316406 C 1026.558594 253.261719 1016.050781 263.765625 1003.101562 263.765625 L 550.6875 263.765625 C 537.734375 263.765625 527.226562 253.261719 527.226562 240.316406 C 527.226562 227.367188 537.734375 216.863281 550.6875 216.863281 Z M 550.6875 216.863281 " fill-opacity="1" fill-rule="nonzero"/></g><g clip-path="url(#id16)"><path fill="#cceaff" d="M 347.367188 231.894531 C 343.621094 231.894531 340.085938 232.804688 336.964844 234.390625 C 333.425781 221.863281 321.917969 212.679688 308.265625 212.679688 C 305.835938 212.679688 303.464844 212.984375 301.191406 213.527344 C 297.589844 195.65625 281.792969 182.199219 262.859375 182.199219 C 246.359375 182.199219 232.257812 192.421875 226.511719 206.886719 C 218.75 198.246094 207.480469 192.808594 194.949219 192.808594 C 192.835938 192.808594 190.773438 192.96875 188.753906 193.253906 C 186.304688 166.984375 164.203125 146.425781 137.296875 146.425781 C 120.570312 146.425781 105.703125 154.375 96.242188 166.695312 C 92.449219 165.574219 88.433594 164.96875 84.273438 164.96875 C 65.464844 164.96875 49.523438 177.207031 43.96875 194.167969 C 40.546875 193.269531 36.945312 192.792969 33.246094 192.792969 C 28.507812 192.792969 23.964844 193.574219 19.707031 195.015625 C 12.550781 187.144531 2.246094 182.199219 -9.230469 182.199219 C -28.164062 182.199219 -43.960938 195.65625 -47.5625 213.527344 C -49.835938 212.984375 -52.191406 212.679688 -54.636719 212.679688 C -68.308594 212.679688 -79.816406 221.863281 -83.335938 234.390625 C -86.457031 232.789062 -89.996094 231.894531 -93.738281 231.894531 C -106.367188 231.894531 -116.609375 242.132812 -116.609375 254.757812 C -116.609375 267.382812 -106.367188 277.621094 -93.738281 277.621094 L 347.367188 277.621094 C 359.996094 277.621094 370.238281 267.382812 370.238281 254.757812 C 370.238281 242.132812 359.996094 231.894531 347.367188 231.894531 Z M 347.367188 231.894531 " fill-opacity="1" fill-rule="nonzero"/></g><g clip-path="url(#id17)"><path fill="#cceaff" d="M 664.863281 231.894531 C 661.117188 231.894531 657.582031 232.804688 654.460938 234.390625 C 650.921875 221.863281 639.414062 212.679688 625.761719 212.679688 C 623.328125 212.679688 620.960938 212.984375 618.6875 213.527344 C 615.085938 195.65625 599.289062 182.199219 580.355469 182.199219 C 563.855469 182.199219 549.753906 192.421875 544.007812 206.886719 C 536.246094 198.246094 524.976562 192.808594 512.445312 192.808594 C 510.332031 192.808594 508.265625 192.96875 506.25 193.253906 C 503.800781 166.984375 481.699219 146.425781 454.792969 146.425781 C 438.066406 146.425781 423.199219 154.375 413.738281 166.695312 C 409.945312 165.574219 405.929688 164.96875 401.769531 164.96875 C 382.960938 164.96875 367.019531 177.207031 361.464844 194.167969 C 358.039062 193.269531 354.441406 192.792969 350.742188 192.792969 C 346.003906 192.792969 341.460938 193.574219 337.203125 195.015625 C 330.046875 187.144531 319.738281 182.199219 308.265625 182.199219 C 289.328125 182.199219 273.53125 195.65625 269.929688 213.527344 C 267.660156 212.984375 265.304688 212.679688 262.855469 212.679688 C 249.1875 212.679688 237.679688 221.863281 234.160156 234.390625 C 231.039062 232.789062 227.5 231.894531 223.757812 231.894531 C 211.128906 231.894531 200.882812 242.132812 200.882812 254.757812 C 200.882812 267.382812 211.128906 277.621094 223.757812 277.621094 L 664.863281 277.621094 C 677.492188 277.621094 687.734375 267.382812 687.734375 254.757812 C 687.734375 242.132812 677.492188 231.894531 664.863281 231.894531 Z M 664.863281 231.894531 " fill-opacity="1" fill-rule="nonzero"/></g><g clip-path="url(#id18)"><path fill="#cceaff" d="M 1617.851562 221.046875 C 1614.109375 221.046875 1610.570312 221.957031 1607.449219 223.542969 C 1603.914062 211.011719 1592.40625 201.828125 1578.75 201.828125 C 1576.320312 201.828125 1573.949219 202.132812 1571.675781 202.675781 C 1568.078125 184.804688 1552.277344 171.351562 1533.34375 171.351562 C 1516.84375 171.351562 1502.742188 181.574219 1496.996094 196.039062 C 1489.234375 187.398438 1477.964844 181.957031 1465.433594 181.957031 C 1463.320312 181.957031 1461.257812 182.117188 1459.238281 182.40625 C 1456.789062 156.132812 1434.6875 135.574219 1407.78125 135.574219 C 1391.058594 135.574219 1376.1875 143.527344 1366.730469 155.847656 C 1362.933594 154.726562 1358.917969 154.117188 1354.757812 154.117188 C 1335.949219 154.117188 1320.007812 166.359375 1314.457031 183.316406 C 1311.03125 182.421875 1307.429688 181.941406 1303.730469 181.941406 C 1298.992188 181.941406 1294.449219 182.726562 1290.191406 184.167969 C 1283.035156 176.292969 1272.730469 171.351562 1261.253906 171.351562 C 1242.320312 171.351562 1226.523438 184.804688 1222.921875 202.675781 C 1220.648438 202.132812 1218.296875 201.828125 1215.847656 201.828125 C 1202.175781 201.828125 1190.667969 211.011719 1187.148438 223.542969 C 1184.027344 221.941406 1180.492188 221.046875 1176.746094 221.046875 C 1164.117188 221.046875 1153.875 231.285156 1153.875 243.910156 C 1153.875 256.53125 1164.117188 266.773438 1176.746094 266.773438 L 1617.851562 266.773438 C 1630.480469 266.773438 1640.722656 256.53125 1640.722656 243.910156 C 1640.722656 231.285156 1630.480469 221.046875 1617.851562 221.046875 Z M 1617.851562 221.046875 " fill-opacity="1" fill-rule="nonzero"/></g><g clip-path="url(#id19)"><path fill="#cceaff" d="M 1271.46875 220.386719 C 1267.722656 220.386719 1264.183594 221.300781 1261.0625 222.882812 C 1257.527344 210.355469 1246.019531 201.171875 1232.367188 201.171875 C 1229.933594 201.171875 1227.566406 201.476562 1225.292969 202.019531 C 1221.691406 184.148438 1205.894531 170.691406 1186.960938 170.691406 C 1170.457031 170.691406 1156.355469 180.917969 1150.609375 195.378906 C 1142.847656 186.742188 1131.582031 181.300781 1119.046875 181.300781 C 1116.9375 181.300781 1114.871094 181.460938 1112.855469 181.75 C 1110.40625 155.476562 1088.300781 134.917969 1061.398438 134.917969 C 1044.671875 134.917969 1029.800781 142.871094 1020.34375 155.191406 C 1016.550781 154.070312 1012.53125 153.460938 1008.371094 153.460938 C 989.566406 153.460938 973.625 165.703125 968.070312 182.660156 C 964.644531 181.765625 961.042969 181.285156 957.347656 181.285156 C 952.609375 181.285156 948.0625 182.070312 943.804688 183.507812 C 936.652344 175.636719 926.34375 170.691406 914.867188 170.691406 C 895.933594 170.691406 880.136719 184.148438 876.535156 202.019531 C 874.261719 201.476562 871.910156 201.171875 869.460938 201.171875 C 855.792969 201.171875 844.285156 210.355469 840.761719 222.882812 C 837.640625 221.285156 834.105469 220.386719 830.359375 220.386719 C 817.730469 220.386719 807.488281 230.628906 807.488281 243.25 C 807.488281 255.875 817.730469 266.113281 830.359375 266.113281 L 1271.46875 266.113281 C 1284.097656 266.113281 1294.339844 255.875 1294.339844 243.25 C 1294.339844 230.628906 1284.097656 220.386719 1271.46875 220.386719 Z M 1271.46875 220.386719 " fill-opacity="1" fill-rule="nonzero"/></g><g clip-path="url(#id20)"><path fill="#cceaff" d="M 933.410156 253.898438 C 929.664062 253.898438 926.125 254.808594 923.003906 256.394531 C 919.46875 243.867188 907.960938 234.683594 894.308594 234.683594 C 891.875 234.683594 889.507812 234.988281 887.234375 235.53125 C 883.632812 217.660156 867.835938 204.203125 848.898438 204.203125 C 832.398438 204.203125 818.296875 214.425781 812.550781 228.890625 C 804.789062 220.25 793.523438 214.8125 780.988281 214.8125 C 778.875 214.8125 776.8125 214.972656 774.796875 215.257812 C 772.347656 188.988281 750.242188 168.429688 723.339844 168.429688 C 706.613281 168.429688 691.742188 176.378906 682.285156 188.699219 C 678.492188 187.578125 674.472656 186.972656 670.3125 186.972656 C 651.507812 186.972656 635.566406 199.210938 630.011719 216.171875 C 626.585938 215.273438 622.984375 214.796875 619.289062 214.796875 C 614.550781 214.796875 610.003906 215.578125 605.746094 217.019531 C 598.59375 209.148438 588.285156 204.203125 576.808594 204.203125 C 557.875 204.203125 542.078125 217.660156 538.476562 235.53125 C 536.203125 234.988281 533.851562 234.683594 531.402344 234.683594 C 517.734375 234.683594 506.226562 243.867188 502.703125 256.394531 C 499.582031 254.792969 496.046875 253.898438 492.300781 253.898438 C 479.671875 253.898438 469.429688 264.136719 469.429688 276.761719 C 469.429688 289.386719 479.671875 299.625 492.300781 299.625 L 933.410156 299.625 C 946.035156 299.625 956.28125 289.386719 956.28125 276.761719 C 956.28125 264.136719 946.035156 253.898438 933.410156 253.898438 Z M 933.410156 253.898438 " fill-opacity="1" fill-rule="nonzero"/></g></svg>