<svg xmlns="http://www.w3.org/2000/svg" xmlns:xlink="http://www.w3.org/1999/xlink" viewBox="0 0 604.07 462.73"><defs><linearGradient id="Безымянный_градиент_17" x1="-317.02" y1="81.86" x2="-309.56" y2="81.86" gradientTransform="rotate(-1.9 4729.918 -17918.455)" gradientUnits="userSpaceOnUse"><stop offset="0" stop-color="#aaceff"/><stop offset="1" stop-color="#dbe9ff"/></linearGradient><linearGradient id="Безымянный_градиент_17-2" x1="-326.01" y1="81.86" x2="-318.55" y2="81.86" xlink:href="#Безымянный_градиент_17"/><linearGradient id="Безымянный_градиент_17-3" x1="-335" y1="81.86" x2="-327.54" y2="81.86" xlink:href="#Безымянный_градиент_17"/><linearGradient id="Безымянный_градиент_17-4" x1="-343.99" y1="81.86" x2="-336.53" y2="81.86" xlink:href="#Безымянный_градиент_17"/><linearGradient id="Безымянный_градиент_17-5" x1="-351.48" y1="81.86" x2="-347.11" y2="81.86" xlink:href="#Безымянный_градиент_17"/><linearGradient id="Безымянный_градиент_17-6" x1="-356.78" y1="81.86" x2="-352.41" y2="81.86" xlink:href="#Безымянный_градиент_17"/><linearGradient id="Безымянный_градиент_17-7" x1="-361.77" y1="81.86" x2="-357.4" y2="81.86" xlink:href="#Безымянный_градиент_17"/><clipPath id="clip-path" transform="translate(29.63 5.26)"><path d="M493.71 328.16c-35.37 60.63-105.07 112.46-182.18 125.7a223.21 223.21 0 0 1-37.83 3.27c-3 0-6-.06-9-.2-51.31-2.17-103.47-23.13-149.14-71-70.56-74-91.51-146.33-78.62-208.57a179 179 0 0 1 19.48-51.56C136.3-16.38 227.72 72.43 339.45 88 416.52 98.78 504 129.41 522.67 199.19c8.93 33.34 2.17 75.63-28.96 128.97Z" style="fill:none"/></clipPath><style>.cls-2{fill:#e6e6e6}.cls-5{fill:#fff}.cls-7{fill:#34234d}.cls-8{fill:#00b5f4}.cls-9{fill:#221733}.cls-10{fill:#ff5168}.cls-11{fill:#fafafa}.cls-12{fill:#320d26}.cls-13{fill:#2b1d40}.cls-21{fill:#cbcbcb}</style></defs><g id="Layer_2" data-name="Layer 2"><g id="Layer_1-2" data-name="Layer 1"><path class="cls-2" d="M410 61.57c-53.92 42.1-128.25 11.6-153-17.87-72.95-87.01 206.94-24.23 153 17.87Z" transform="translate(29.63 5.26)"/><path class="cls-2" d="M493.71 328.16c-35.37 60.63-105.07 112.46-182.18 125.7a223.21 223.21 0 0 1-37.83 3.27c-3 0-6-.06-9-.2-51.31-2.17-103.47-23.13-149.14-71-70.56-74-91.51-146.33-78.62-208.57a179 179 0 0 1 19.48-51.56C136.3-16.38 227.72 72.43 339.45 88 416.52 98.78 504 129.41 522.67 199.19c8.93 33.34 2.17 75.63-28.96 128.97Z" transform="translate(29.63 5.26)"/><g style="clip-path:url(#clip-path)"><path d="M-29.62 259.37c0 78.64 60 152.58 182.78 176.05 162.13 31 370.52 33 370.52-121.7 0-58.1 5.83-216.83-27.28-238.25h-84.85v196.1L365 347.44v-156h-31.43v-63.93l-88.4-67.18v89h-74.91V34c-22.53 2.84-44.07 13.1-63.08 29.26v166.5h-33.9V192l-100.36-51c-2.79 16-2.54 100.93-2.54 118.37Zm187.46 48.36h58.35v37.77h-58.35ZM194 170h26.9v109H194Zm-39.36-78.5h-30.78V68.28h30.75Zm0 29.48h-30.78V97.77h30.75Zm0 29.49h-30.78v-23.22h30.75Zm0 29.48h-30.78v-23.21h30.75ZM462.4 141.8h-38V86.45h38Zm0 70.24h-38v-55.35h38Zm0 70.24h-38v-55.35h38Zm0 70.24h-38v-55.35h38Zm-340.09-127h43.93v50.26h-43.96Z" transform="translate(29.63 5.26)" style="fill:#f5f5f5"/><path class="cls-5" d="M447.67 77.66h1.02v340.96h-1.02zM348.76 0h1.02v418.62h-1.02zM249.85 0h1.02v418.62h-1.02zM150.95 0h1.02v418.62h-1.02zM49.98 77.54H51v341.08h-1.02z"/><path style="fill:#dbdbdb" d="M12.55 419.17h479.59v43.38H12.55z"/><path class="cls-5" d="M12.55 413.97h479.59v5.16H12.55zM12.55 348.98h479.59V350H12.55zM12.55 279.85h479.59v1.02H12.55zM12.55 210.73h479.59v1.02H12.55zM12.55 139.33h479.59v1.02H12.55zM12.55 67.93h479.59v1.02H12.55z"/></g><path class="cls-7" d="M489.59 145h-2v-.55h2Zm0-12.55h-2v-12h2Zm0-24h-2v-6.63a5.66 5.66 0 0 0-1.73-4.1l1.39-1.43a7.64 7.64 0 0 1 2.34 5.53Zm-14.53-12.32h-12v-2h12Zm-24 0h-12v-2h12Zm-24 0h-7.37a7.71 7.71 0 0 1-4.91-1.76l1.27-1.54a5.73 5.73 0 0 0 3.64 1.3h7.37ZM414 82.33h-2v-12h2Zm0-24h-2v-12h2ZM292 401.84h-6.65v-2H292Zm-18.65 0h-12v-2h12Zm-24 0h-12v-2h12Zm-24 0h-12v-2h12Zm-24 0h-12v-2h12Zm-24 0h-12v-2h12Zm-24 0h-12v-2h12ZM129 401a11.7 11.7 0 0 1-7.16-10.17l2-.1a9.65 9.65 0 0 0 5.93 8.42Zm-5.17-22.22h-2v-12h2Zm0-24h-2v-12h2Zm0-24h-2v-12h2Zm0-24h-2v-12h2ZM327.68 207.09h-9.36v-2h9.36Zm-21.36 0h-12v-2h12Zm-24 0h-12v-2h12Zm-24 0h-12v-2h12Zm-24 0h-2.14v-11.86h2v9.86h.14Zm-.14-23.86h-2v-12h2Zm0-24h-2v-12h2Zm0-24h-2v-12h2ZM472.67 357.2h-12v-2h12Zm-24 0h-12v-2h12Zm-24 0h-12v-2h12Zm60.15-2.2-1.18-1.62a9.63 9.63 0 0 0 3.95-7.77v-2h2v2a11.65 11.65 0 0 1-4.77 9.39Zm4.77-23.4h-2v-12h2Zm0-24h-2v-12h2Zm0-24h-2v-12h2Zm0-24h-2v-12h2Zm0-24h-2v-12h2Zm0-24h-2v-12h2Z" transform="translate(29.63 5.26)"/><rect class="cls-7" x="317.14" y="429.02" width="118.17" height="28.23" rx="7.04"/><rect class="cls-8" x="274.95" y="429.02" width="118.17" height="28.23" rx="7.04"/><path class="cls-7" d="M356.45 452.52H252.36a7.58 7.58 0 0 1-7.56-7.52v-14.2a7.57 7.57 0 0 1 7.56-7.56h104.09a7.57 7.57 0 0 1 7.55 7.56V445a7.58 7.58 0 0 1-7.55 7.52Zm-104.09-28.24a6.53 6.53 0 0 0-6.52 6.52V445a6.53 6.53 0 0 0 6.52 6.52h104.09A6.52 6.52 0 0 0 363 445v-14.2a6.53 6.53 0 0 0-6.52-6.52Z" transform="translate(29.63 5.26)"/><path class="cls-9" d="M351.46 439H283.6a1.62 1.62 0 1 0 0 3.24h67.86a1.62 1.62 0 0 0 0-3.24Z" transform="translate(29.63 5.26)"/><path class="cls-10" d="M351.46 439h-60.62a1.62 1.62 0 1 0 0 3.24h60.62a1.62 1.62 0 0 0 0-3.24Z" transform="translate(29.63 5.26)"/><path class="cls-9" d="M351.46 432.78H283.6a1.63 1.63 0 1 0 0 3.25h67.86a1.63 1.63 0 0 0 0-3.25Z" transform="translate(29.63 5.26)"/><path class="cls-5" d="M351.46 432.78H300a1.63 1.63 0 0 0 0 3.25h51.43a1.63 1.63 0 0 0 0-3.25Z" transform="translate(29.63 5.26)"/><path class="cls-9" d="M335.31 446.31h-41.44a3.9 3.9 0 0 0-3.9 3.9V452h49.24v-1.78a3.89 3.89 0 0 0-3.9-3.91ZM393.09 446.31h-17.21a3.9 3.9 0 0 0-3.9 3.9V452h25v-1.78a3.9 3.9 0 0 0-3.89-3.91Z" transform="translate(29.63 5.26)"/><path class="cls-11" d="M255.73 435.15a2.73 2.73 0 1 0 2.73 2.73 2.73 2.73 0 0 0-2.73-2.73Z" transform="translate(29.63 5.26)"/><path class="cls-9" d="M255.73 434.69a3.19 3.19 0 1 0 3.19 3.19 3.19 3.19 0 0 0-3.19-3.19Zm0 5.46a2.27 2.27 0 1 1 2.27-2.27 2.27 2.27 0 0 1-2.27 2.27Z" transform="translate(29.63 5.26)"/><path class="cls-7" d="M265.57 435.15a2.73 2.73 0 1 0 2.73 2.73 2.73 2.73 0 0 0-2.73-2.73Z" transform="translate(29.63 5.26)"/><path class="cls-9" d="M265.57 434.69a3.19 3.19 0 1 0 3.19 3.19 3.19 3.19 0 0 0-3.19-3.19Zm0 5.46a2.27 2.27 0 1 1 2.27-2.27 2.27 2.27 0 0 1-2.27 2.27Z" transform="translate(29.63 5.26)"/><path class="cls-9" d="M297.93 442.22h5.76v1.84h-5.76z"/><path class="cls-9" d="M396.9 431.72a1.81 1.81 0 1 0 1.81 1.81 1.81 1.81 0 0 0-1.81-1.81ZM396.9 438.26a1.81 1.81 0 1 0 1.81 1.81 1.82 1.82 0 0 0-1.81-1.81ZM388.63 431.72a1.81 1.81 0 1 0 1.8 1.81 1.81 1.81 0 0 0-1.8-1.81ZM388.63 438.26a1.81 1.81 0 1 0 1.8 1.81 1.82 1.82 0 0 0-1.8-1.81ZM380.35 431.72a1.81 1.81 0 1 0 1.81 1.81 1.81 1.81 0 0 0-1.81-1.81ZM380.35 438.26a1.81 1.81 0 1 0 1.81 1.81 1.82 1.82 0 0 0-1.81-1.81ZM372.08 431.72a1.81 1.81 0 1 0 1.81 1.81 1.81 1.81 0 0 0-1.81-1.81ZM372.08 438.26a1.81 1.81 0 1 0 1.81 1.81 1.82 1.82 0 0 0-1.81-1.81Z" transform="translate(29.63 5.26)"/><path class="cls-9" d="M288.09 457.26H423.8v4.46H288.09z"/><rect class="cls-7" x="317.14" y="396.34" width="118.17" height="28.23" rx="7.04"/><rect class="cls-8" x="274.95" y="396.34" width="118.17" height="28.23" rx="7.04"/><path class="cls-7" d="M356.45 419.83H252.36a7.58 7.58 0 0 1-7.56-7.57v-14.15a7.57 7.57 0 0 1 7.56-7.56h104.09a7.57 7.57 0 0 1 7.56 7.56v14.15a7.58 7.58 0 0 1-7.56 7.57Zm-104.09-28.24a6.53 6.53 0 0 0-6.52 6.52v14.15a6.54 6.54 0 0 0 6.52 6.53h104.09a6.53 6.53 0 0 0 6.52-6.53v-14.15a6.53 6.53 0 0 0-6.52-6.52Z" transform="translate(29.63 5.26)"/><path class="cls-9" d="M351.46 406.3H283.6a1.62 1.62 0 1 0 0 3.24h67.86a1.62 1.62 0 0 0 0-3.24Z" transform="translate(29.63 5.26)"/><path class="cls-10" d="M351.46 406.3h-60.62a1.62 1.62 0 1 0 0 3.24h60.62a1.62 1.62 0 0 0 0-3.24Z" transform="translate(29.63 5.26)"/><path class="cls-9" d="M351.46 400.09H283.6a1.63 1.63 0 1 0 0 3.25h67.86a1.63 1.63 0 0 0 0-3.25Z" transform="translate(29.63 5.26)"/><path class="cls-5" d="M351.46 400.09H300a1.63 1.63 0 0 0 0 3.25h51.43a1.63 1.63 0 0 0 0-3.25Z" transform="translate(29.63 5.26)"/><path class="cls-9" d="M335.31 413.62h-41.44a3.91 3.91 0 0 0-3.9 3.9v1.79h49.24v-1.79a3.9 3.9 0 0 0-3.9-3.9ZM393.09 413.62h-17.21a3.91 3.91 0 0 0-3.9 3.9v1.79h25v-1.79a3.91 3.91 0 0 0-3.89-3.9Z" transform="translate(29.63 5.26)"/><path class="cls-11" d="M255.73 402.46a2.73 2.73 0 1 0 2.73 2.73 2.73 2.73 0 0 0-2.73-2.73Z" transform="translate(29.63 5.26)"/><path class="cls-9" d="M255.73 402a3.19 3.19 0 1 0 3.19 3.19 3.19 3.19 0 0 0-3.19-3.19Zm0 5.46a2.27 2.27 0 1 1 2.27-2.27 2.27 2.27 0 0 1-2.27 2.27Z" transform="translate(29.63 5.26)"/><path class="cls-7" d="M265.57 402.46a2.73 2.73 0 1 0 2.73 2.73 2.73 2.73 0 0 0-2.73-2.73Z" transform="translate(29.63 5.26)"/><path class="cls-9" d="M265.57 402a3.19 3.19 0 1 0 3.19 3.19 3.19 3.19 0 0 0-3.19-3.19Zm0 5.46a2.27 2.27 0 1 1 2.27-2.27 2.27 2.27 0 0 1-2.27 2.27Z" transform="translate(29.63 5.26)"/><path class="cls-9" d="M297.93 409.53h5.76v1.84h-5.76z"/><path class="cls-9" d="M396.9 399a1.81 1.81 0 1 0 1.81 1.81 1.81 1.81 0 0 0-1.81-1.81ZM396.9 405.58a1.81 1.81 0 1 0 1.81 1.81 1.81 1.81 0 0 0-1.81-1.81ZM388.63 399a1.81 1.81 0 1 0 1.8 1.81 1.81 1.81 0 0 0-1.8-1.81ZM388.63 405.58a1.81 1.81 0 1 0 1.8 1.81 1.81 1.81 0 0 0-1.8-1.81ZM380.35 399a1.81 1.81 0 1 0 1.81 1.81 1.81 1.81 0 0 0-1.81-1.81ZM380.35 405.58a1.81 1.81 0 1 0 1.81 1.81 1.81 1.81 0 0 0-1.81-1.81ZM372.08 399a1.81 1.81 0 1 0 1.81 1.81 1.81 1.81 0 0 0-1.81-1.81ZM372.08 405.58a1.81 1.81 0 1 0 1.81 1.81 1.81 1.81 0 0 0-1.81-1.81Z" transform="translate(29.63 5.26)"/><path class="cls-9" d="M288.09 424.57H423.8v4.45H288.09z"/><rect class="cls-7" x="317.14" y="363.65" width="118.17" height="28.23" rx="7.04"/><rect class="cls-8" x="274.95" y="363.65" width="118.17" height="28.23" rx="7.04"/><path class="cls-7" d="M356.45 387.14H252.36a7.57 7.57 0 0 1-7.56-7.56v-14.15a7.58 7.58 0 0 1 7.56-7.57h104.09a7.58 7.58 0 0 1 7.56 7.57v14.15a7.57 7.57 0 0 1-7.56 7.56Zm-104.09-28.23a6.53 6.53 0 0 0-6.52 6.52v14.15a6.53 6.53 0 0 0 6.52 6.52h104.09a6.53 6.53 0 0 0 6.52-6.52v-14.15a6.52 6.52 0 0 0-6.52-6.52Z" transform="translate(29.63 5.26)"/><path class="cls-9" d="M351.46 373.61H283.6a1.62 1.62 0 1 0 0 3.24h67.86a1.62 1.62 0 1 0 0-3.24Z" transform="translate(29.63 5.26)"/><path class="cls-10" d="M351.46 373.61h-60.62a1.62 1.62 0 1 0 0 3.24h60.62a1.62 1.62 0 1 0 0-3.24Z" transform="translate(29.63 5.26)"/><path class="cls-9" d="M351.46 367.41H283.6a1.62 1.62 0 1 0 0 3.24h67.86a1.62 1.62 0 1 0 0-3.24Z" transform="translate(29.63 5.26)"/><path class="cls-5" d="M351.46 367.41H300a1.62 1.62 0 1 0 0 3.24h51.43a1.62 1.62 0 1 0 0-3.24Z" transform="translate(29.63 5.26)"/><path class="cls-9" d="M335.31 380.93h-41.44a3.91 3.91 0 0 0-3.9 3.9v1.79h49.24v-1.79a3.9 3.9 0 0 0-3.9-3.9ZM393.09 380.93h-17.21a3.91 3.91 0 0 0-3.9 3.9v1.79h25v-1.79a3.91 3.91 0 0 0-3.89-3.9Z" transform="translate(29.63 5.26)"/><path class="cls-11" d="M255.73 369.77a2.73 2.73 0 1 0 2.73 2.73 2.73 2.73 0 0 0-2.73-2.73Z" transform="translate(29.63 5.26)"/><path class="cls-9" d="M255.73 369.31a3.19 3.19 0 1 0 3.19 3.19 3.19 3.19 0 0 0-3.19-3.19Zm0 5.46a2.27 2.27 0 1 1 2.27-2.27 2.27 2.27 0 0 1-2.27 2.27Z" transform="translate(29.63 5.26)"/><path class="cls-7" d="M265.57 369.77a2.73 2.73 0 1 0 2.73 2.73 2.73 2.73 0 0 0-2.73-2.73Z" transform="translate(29.63 5.26)"/><path class="cls-9" d="M265.57 369.31a3.19 3.19 0 1 0 3.19 3.19 3.19 3.19 0 0 0-3.19-3.19Zm0 5.46a2.27 2.27 0 1 1 2.27-2.27 2.27 2.27 0 0 1-2.27 2.27Z" transform="translate(29.63 5.26)"/><path class="cls-9" d="M297.93 376.84h5.76v1.84h-5.76z"/><path class="cls-9" d="M396.9 366.34a1.81 1.81 0 1 0 1.81 1.81 1.81 1.81 0 0 0-1.81-1.81ZM396.9 372.89a1.81 1.81 0 1 0 1.81 1.81 1.81 1.81 0 0 0-1.81-1.81ZM388.63 366.34a1.81 1.81 0 1 0 1.8 1.81 1.81 1.81 0 0 0-1.8-1.81ZM388.63 372.89a1.81 1.81 0 1 0 1.8 1.81 1.81 1.81 0 0 0-1.8-1.81ZM380.35 366.34a1.81 1.81 0 1 0 1.81 1.81 1.81 1.81 0 0 0-1.81-1.81ZM380.35 372.89a1.81 1.81 0 1 0 1.81 1.81 1.81 1.81 0 0 0-1.81-1.81ZM372.08 366.34a1.81 1.81 0 1 0 1.81 1.81 1.81 1.81 0 0 0-1.81-1.81ZM372.08 372.89a1.81 1.81 0 1 0 1.81 1.81 1.81 1.81 0 0 0-1.81-1.81Z" transform="translate(29.63 5.26)"/><path class="cls-9" d="M288.09 391.88H423.8v4.46H288.09z"/><rect class="cls-7" x="317.14" y="331" width="118.17" height="28.23" rx="7.04"/><rect class="cls-8" x="274.95" y="331" width="118.17" height="28.23" rx="7.04"/><path class="cls-7" d="M356.45 354.49H252.36a7.57 7.57 0 0 1-7.56-7.56v-14.15a7.57 7.57 0 0 1 7.56-7.56h104.09a7.57 7.57 0 0 1 7.56 7.56v14.15a7.57 7.57 0 0 1-7.56 7.56Zm-104.09-28.23a6.53 6.53 0 0 0-6.52 6.52v14.15a6.53 6.53 0 0 0 6.52 6.52h104.09a6.53 6.53 0 0 0 6.52-6.52v-14.15a6.52 6.52 0 0 0-6.52-6.52Z" transform="translate(29.63 5.26)"/><path class="cls-9" d="M351.46 341H283.6a1.63 1.63 0 1 0 0 3.25h67.86a1.63 1.63 0 0 0 0-3.25Z" transform="translate(29.63 5.26)"/><path class="cls-10" d="M351.46 341h-60.62a1.63 1.63 0 1 0 0 3.25h60.62a1.63 1.63 0 0 0 0-3.25Z" transform="translate(29.63 5.26)"/><path class="cls-9" d="M351.46 334.76H283.6a1.62 1.62 0 1 0 0 3.24h67.86a1.62 1.62 0 0 0 0-3.24Z" transform="translate(29.63 5.26)"/><path class="cls-5" d="M351.46 334.76H300a1.62 1.62 0 1 0 0 3.24h51.43a1.62 1.62 0 0 0 0-3.24Z" transform="translate(29.63 5.26)"/><path class="cls-9" d="M335.31 348.28h-41.44a3.91 3.91 0 0 0-3.9 3.91V354h49.24v-1.78a3.9 3.9 0 0 0-3.9-3.94ZM393.09 348.28h-17.21a3.91 3.91 0 0 0-3.9 3.91V354h25v-1.78a3.91 3.91 0 0 0-3.89-3.94Z" transform="translate(29.63 5.26)"/><path class="cls-11" d="M255.73 337.12a2.74 2.74 0 1 0 2.73 2.73 2.73 2.73 0 0 0-2.73-2.73Z" transform="translate(29.63 5.26)"/><path class="cls-9" d="M255.73 336.66a3.2 3.2 0 1 0 3.19 3.19 3.19 3.19 0 0 0-3.19-3.19Zm0 5.46a2.27 2.27 0 1 1 2.27-2.27 2.27 2.27 0 0 1-2.27 2.27Z" transform="translate(29.63 5.26)"/><path class="cls-7" d="M265.57 337.12a2.74 2.74 0 1 0 2.73 2.73 2.73 2.73 0 0 0-2.73-2.73Z" transform="translate(29.63 5.26)"/><path class="cls-9" d="M265.57 336.66a3.2 3.2 0 1 0 3.19 3.19 3.19 3.19 0 0 0-3.19-3.19Zm0 5.46a2.27 2.27 0 1 1 2.27-2.27 2.27 2.27 0 0 1-2.27 2.27Z" transform="translate(29.63 5.26)"/><path class="cls-9" d="M297.93 344.19h5.76v1.84h-5.76z"/><path class="cls-9" d="M396.9 333.69a1.81 1.81 0 1 0 1.81 1.81 1.81 1.81 0 0 0-1.81-1.81ZM396.9 340.24a1.81 1.81 0 1 0 1.81 1.81 1.81 1.81 0 0 0-1.81-1.81ZM388.63 333.69a1.81 1.81 0 1 0 1.8 1.81 1.81 1.81 0 0 0-1.8-1.81ZM388.63 340.24a1.81 1.81 0 1 0 1.8 1.81 1.81 1.81 0 0 0-1.8-1.81ZM380.35 333.69a1.81 1.81 0 1 0 1.81 1.81 1.81 1.81 0 0 0-1.81-1.81ZM380.35 340.24a1.81 1.81 0 1 0 1.81 1.81 1.81 1.81 0 0 0-1.81-1.81ZM372.08 333.69a1.81 1.81 0 1 0 1.81 1.81 1.81 1.81 0 0 0-1.81-1.81ZM372.08 340.24a1.81 1.81 0 1 0 1.81 1.81 1.81 1.81 0 0 0-1.81-1.81Z" transform="translate(29.63 5.26)"/><path class="cls-9" d="M288.09 359.23H423.8v4.46H288.09z"/><rect class="cls-7" x="317.14" y="298.31" width="118.17" height="28.23" rx="7.04"/><rect class="cls-8" x="274.95" y="298.31" width="118.17" height="28.23" rx="7.04"/><path class="cls-7" d="M356.45 321.8H252.36a7.57 7.57 0 0 1-7.56-7.56v-14.15a7.57 7.57 0 0 1 7.56-7.56h104.09a7.57 7.57 0 0 1 7.56 7.56v14.15a7.57 7.57 0 0 1-7.56 7.56Zm-104.09-28.23a6.53 6.53 0 0 0-6.52 6.52v14.15a6.53 6.53 0 0 0 6.52 6.52h104.09a6.52 6.52 0 0 0 6.52-6.52v-14.15a6.52 6.52 0 0 0-6.52-6.52Z" transform="translate(29.63 5.26)"/><path class="cls-9" d="M351.46 308.27H283.6a1.63 1.63 0 1 0 0 3.25h67.86a1.63 1.63 0 0 0 0-3.25Z" transform="translate(29.63 5.26)"/><path class="cls-10" d="M351.46 308.27h-60.62a1.63 1.63 0 1 0 0 3.25h60.62a1.63 1.63 0 0 0 0-3.25Z" transform="translate(29.63 5.26)"/><path class="cls-9" d="M351.46 302.07H283.6a1.62 1.62 0 1 0 0 3.24h67.86a1.62 1.62 0 0 0 0-3.24Z" transform="translate(29.63 5.26)"/><path class="cls-5" d="M351.46 302.07H300a1.62 1.62 0 1 0 0 3.24h51.43a1.62 1.62 0 0 0 0-3.24Z" transform="translate(29.63 5.26)"/><path class="cls-9" d="M335.31 315.59h-41.44a3.91 3.91 0 0 0-3.9 3.91v1.78h49.24v-1.78a3.9 3.9 0 0 0-3.9-3.91ZM393.09 315.59h-17.21a3.91 3.91 0 0 0-3.9 3.91v1.78h25v-1.78a3.91 3.91 0 0 0-3.89-3.91Z" transform="translate(29.63 5.26)"/><path class="cls-11" d="M255.73 304.43a2.74 2.74 0 1 0 2.73 2.73 2.73 2.73 0 0 0-2.73-2.73Z" transform="translate(29.63 5.26)"/><path class="cls-9" d="M255.73 304a3.2 3.2 0 1 0 3.19 3.19 3.19 3.19 0 0 0-3.19-3.19Zm0 5.47a2.28 2.28 0 1 1 2.27-2.28 2.28 2.28 0 0 1-2.27 2.25Z" transform="translate(29.63 5.26)"/><path class="cls-7" d="M265.57 304.43a2.74 2.74 0 1 0 2.73 2.73 2.73 2.73 0 0 0-2.73-2.73Z" transform="translate(29.63 5.26)"/><path class="cls-9" d="M265.57 304a3.2 3.2 0 1 0 3.19 3.19 3.19 3.19 0 0 0-3.19-3.19Zm0 5.47a2.28 2.28 0 1 1 2.27-2.28 2.28 2.28 0 0 1-2.27 2.25Z" transform="translate(29.63 5.26)"/><path class="cls-9" d="M297.93 311.5h5.76v1.84h-5.76z"/><path class="cls-9" d="M396.9 301a1.81 1.81 0 1 0 1.81 1.81 1.81 1.81 0 0 0-1.81-1.81ZM396.9 307.55a1.81 1.81 0 1 0 1.81 1.81 1.81 1.81 0 0 0-1.81-1.81ZM388.63 301a1.81 1.81 0 1 0 1.8 1.81 1.81 1.81 0 0 0-1.8-1.81ZM388.63 307.55a1.81 1.81 0 1 0 1.8 1.81 1.81 1.81 0 0 0-1.8-1.81ZM380.35 301a1.81 1.81 0 1 0 1.81 1.81 1.81 1.81 0 0 0-1.81-1.81ZM380.35 307.55a1.81 1.81 0 1 0 1.81 1.81 1.81 1.81 0 0 0-1.81-1.81ZM372.08 301a1.81 1.81 0 1 0 1.81 1.81 1.81 1.81 0 0 0-1.81-1.81ZM372.08 307.55a1.81 1.81 0 1 0 1.81 1.81 1.81 1.81 0 0 0-1.81-1.81Z" transform="translate(29.63 5.26)"/><path class="cls-9" d="M288.09 326.54H423.8V331H288.09z"/><path class="cls-5" d="M374.06 373.92h-2v1.84h2a5.38 5.38 0 0 1 5.37 5.37v20.11a5.37 5.37 0 0 1-5.37 5.36h-2v1.85h2a7.22 7.22 0 0 0 7.21-7.21v-20.11a7.21 7.21 0 0 0-7.21-7.21ZM390.71 341.09h-2v1.85h2a5.38 5.38 0 0 1 5.37 5.37v20.1a5.38 5.38 0 0 1-5.37 5.37h-2v1.85h2a7.23 7.23 0 0 0 7.21-7.22v-20.1a7.23 7.23 0 0 0-7.21-7.22Z" transform="translate(29.63 5.26)"/><path class="cls-7" d="M90.24 461.71h422.93v1.02H90.24z"/><path class="cls-10" d="M371.16 1.36h73.52a9.19 9.19 0 0 1 9.19 9.19v46.76a9.19 9.19 0 0 1-9.19 9.19h-73.52a9.2 9.2 0 0 1-9.2-9.2V10.55a9.2 9.2 0 0 1 9.2-9.19Z" transform="rotate(180 422.73 36.56)"/><path class="cls-5" d="m422.84 33.17-28.11-18.09a1.6 1.6 0 0 0-2.47 1.35v36.18a1.6 1.6 0 0 0 2.47 1.39l28.11-18.08a1.6 1.6 0 0 0 0-2.75Z" transform="translate(29.63 5.26)"/><path class="cls-7" d="M119.31 208.47h-2v-12h2Zm0-24h-2v-10.1a5.26 5.26 0 0 0-.24-1.58l1.91-.59a7.23 7.23 0 0 1 .33 2.17ZM108 169H96v-2h12Zm-24 0h-4.54a7.33 7.33 0 0 1-6.77-4.49l1.85-.77a5.32 5.32 0 0 0 4.92 3.26H84Zm-9.91-16.81h-2v-12h2Z" transform="translate(29.63 5.26)"/><path class="cls-7" d="M107.26 93.07a6.18 6.18 0 0 0-4.18-1.64h-2V80.08a24.73 24.73 0 0 0-.43-4.38 23.64 23.64 0 0 0-.92-3.64c-.2-.63-.43-1.24-.68-1.84A25.78 25.78 0 0 0 95.21 64c-.15-.19-.32-.37-.47-.54-.37-.42-.75-.81-1.13-1.2a24.61 24.61 0 0 0-3.25-2.73 24 24 0 0 0-3.79-2.19c-.64-.29-1.26-.59-1.94-.84A23.08 23.08 0 0 0 79 55.1a24.7 24.7 0 0 0-2.73-.21h-.35c-.57 0-1.15 0-1.74.06-.38 0-.78.06-1.16.11a24.72 24.72 0 0 0-12.64 5.23 25.11 25.11 0 0 0-9.64 19.8v11.36h-2a5.79 5.79 0 0 0-1.26.13 6.14 6.14 0 0 0-4.89 6V141.12a3 3 0 0 0 .08.45v.23l.12.44c.07.22.15.43.23.63a1.33 1.33 0 0 1 .09.21l.21.38c.09.16.19.31.28.46l.16.21.11.15c.05.07.11.12.15.18l.25.27c.09.08.17.17.26.24l.06.06.3.25a5.15 5.15 0 0 0 .45.32l.21.13c.22.12.45.24.68.34a6 6 0 0 0 2.44.51h54.42a6.15 6.15 0 0 0 6.15-6.16V97.58a6.12 6.12 0 0 0-1.98-4.51Zm-48.7-1.63V79.76a17.29 17.29 0 0 1 6.53-13.2c.62-.5 1.31-1 2-1.39a17.07 17.07 0 0 1 7.22-2.32 13.76 13.76 0 0 1 1.59-.08h1.43a15.62 15.62 0 0 1 1.65.24 10.56 10.56 0 0 1 1.64.39 15.32 15.32 0 0 1 2 .66 16.83 16.83 0 0 1 3.79 2.24 15.25 15.25 0 0 1 3.07 3 17.5 17.5 0 0 1 1.18 1.72 3.26 3.26 0 0 1 .22.34 17.3 17.3 0 0 1 2.32 8.68v11.4Z" transform="translate(29.63 5.26)"/><path class="cls-5" d="M97.57 77.17c0-.51-.13-1-.22-1.47a23.59 23.59 0 0 0-1-4 15.26 15.26 0 0 0-.55-1.47 24.23 24.23 0 0 0-2.68-4.76c-.36-.52-.74-1-1.15-1.51s-1-1.19-1.6-1.74a26.25 26.25 0 0 0-3.25-2.73 24 24 0 0 0-3.79-2.19c-.64-.29-1.26-.59-1.94-.84a22.16 22.16 0 0 0-5.25-1.29l-.43-.06c-.51-.06-1-.12-1.53-.15-.51 0-1-.06-1.54-.06a23.67 23.67 0 0 0-2.91.17A24.72 24.72 0 0 0 57 60.29a25.07 25.07 0 0 0-9.63 19.8v37.84h50.42V80.08a21.31 21.31 0 0 0-.22-2.91ZM89.87 110h-34.6V79.76a17.3 17.3 0 0 1 6.53-13.2c.63-.5 1.31-1 2-1.39a17.32 17.32 0 0 1 8.81-2.4 15.87 15.87 0 0 1 1.7.08 13.15 13.15 0 0 1 1.38.21 11 11 0 0 1 1.65.39l.23.06a14.88 14.88 0 0 1 1.74.6 17.21 17.21 0 0 1 3.79 2.24 15.25 15.25 0 0 1 3.07 3c.33.44.65.88.94 1.34.16.24.32.48.46.72a17.3 17.3 0 0 1 2.32 8.68Z" transform="translate(29.63 5.26)"/><path class="cls-7" d="M47.17 118.16V80.09a25.48 25.48 0 0 1 22.47-25.26 24 24 0 0 1 2.94-.17c.48 0 1 0 1.56.06s1 .08 1.55.15l.43.06a23.3 23.3 0 0 1 5.3 1.3c.64.24 1.24.52 1.82.79l.14.06a24 24 0 0 1 3.83 2.22 25.07 25.07 0 0 1 3.27 2.75c.57.56 1.12 1.17 1.62 1.75s.8 1 1.16 1.53a24.56 24.56 0 0 1 2.7 4.8c.2.47.4 1 .56 1.49a23.51 23.51 0 0 1 1.06 4c.1.56.17 1 .22 1.48a21.3 21.3 0 0 1 .2 2.98v38.07Zm25.41-63a23 23 0 0 0-2.88.17 25 25 0 0 0-22.07 24.8v37.57h49.93V80.08a20.46 20.46 0 0 0-.21-2.88c0-.43-.11-.9-.21-1.45a23 23 0 0 0-1-4c-.15-.51-.35-1-.54-1.47a24.76 24.76 0 0 0-2.65-4.71c-.36-.5-.74-1-1.15-1.5s-1-1.16-1.58-1.71A24.33 24.33 0 0 0 87 59.65a22.63 22.63 0 0 0-3.76-2.17l-.24-.04c-.6-.28-1.16-.54-1.78-.78a23.1 23.1 0 0 0-5.2-1.28l-.42-.05c-.55-.07-1.06-.12-1.52-.15s-1.03-.06-1.5-.06Zm-17.53 55.11V79.76a17.56 17.56 0 0 1 6.62-13.38 22.4 22.4 0 0 1 2-1.4 17.41 17.41 0 0 1 8.93-2.44 12.93 12.93 0 0 1 1.73.09 10.24 10.24 0 0 1 1.4.21 10.72 10.72 0 0 1 1.67.39l.22.06a15.66 15.66 0 0 1 1.76.61 17 17 0 0 1 3.85 2.27 15.75 15.75 0 0 1 3.12 3c.31.42.64.88.94 1.36.16.24.32.48.47.73a17.61 17.61 0 0 1 2.35 8.79v30.19ZM72.58 63a17 17 0 0 0-8.69 2.37A21.21 21.21 0 0 0 62 66.74a17.07 17.07 0 0 0-6.45 13v30.05h34.09V80.08a17.15 17.15 0 0 0-2.29-8.56c-.14-.24-.29-.47-.45-.71-.3-.48-.62-.92-.93-1.33a15.33 15.33 0 0 0-3-2.94 16.36 16.36 0 0 0-3.75-2.21 14.75 14.75 0 0 0-1.71-.6l-.24-.06a9.61 9.61 0 0 0-1.62-.38c-.44-.09-.88-.16-1.36-.21a14.12 14.12 0 0 0-1.71-.08Z" transform="translate(29.63 5.26)"/><path class="cls-8" d="M105.94 97.59v42.84a6.15 6.15 0 0 1-6.15 6.16h-54.4a6.15 6.15 0 0 1-2.46-.51c-.23-.1-.45-.22-.67-.34l-.21-.13a5.15 5.15 0 0 1-.45-.32l-.3-.25-.06-.06-.26-.24-.24-.27-.16-.18a.91.91 0 0 1-.11-.16 1 1 0 0 1-.15-.2 4.43 4.43 0 0 1-.29-.46 3.55 3.55 0 0 1-.2-.39 1.24 1.24 0 0 1-.1-.2 4.29 4.29 0 0 1-.23-.63l-.12-.43a1.55 1.55 0 0 0-.05-.23c0-.15 0-.3-.06-.46a5.37 5.37 0 0 1 0-.7V97.6a6.15 6.15 0 0 1 6.15-6.15h54.37a6.07 6.07 0 0 1 4.21 1.62 6.14 6.14 0 0 1 1.94 4.52Z" transform="translate(29.63 5.26)"/><path class="cls-7" d="M79.75 111.74a7.17 7.17 0 1 0-11.34 5.81v13.24a3.93 3.93 0 0 0 3.93 3.94 4 4 0 0 0 3.93-3.94v-12.92a7.14 7.14 0 0 0 3.48-6.13Z" transform="translate(29.63 5.26)"/><path class="cls-9" d="M73.44 134.58a4.36 4.36 0 0 1-1.1.15 3.94 3.94 0 0 1-3.93-3.94v-13.23a7.17 7.17 0 0 1 4.18-13 7.88 7.88 0 0 1 1.09.09 7.17 7.17 0 0 0-3.08 12.9v13.23a4 4 0 0 0 2.84 3.8Z" transform="translate(29.63 5.26)"/><path class="cls-7" d="M554.23 167.86a21.08 21.08 0 0 0-5.76.61 22.3 22.3 0 0 0 .34-3.09 22.62 22.62 0 0 0-37.06-18.23 33.09 33.09 0 0 0-63.84 11v3.38a23.53 23.53 0 1 0-12.27 44.08l119.11 4.24v-.11a21 21 0 0 0-.58-41.87Z" transform="translate(29.63 5.26)"/><path class="cls-5" d="M561.57 188.32a21 21 0 0 1-18.9 20.85v.11H423.48a23.54 23.54 0 0 1 0-47.08h.42a23.38 23.38 0 0 1 10.28 2.59 34.3 34.3 0 0 1-.17-3.38c0-.92 0-1.84.11-2.75a33.09 33.09 0 0 1 33-30.33q1 0 2.07.06a33.12 33.12 0 0 1 28.24 19.77 22.55 22.55 0 0 1 12.11-5.55 21.85 21.85 0 0 1 2.93-.19 22.76 22.76 0 0 1 6.11.83 22.43 22.43 0 0 1 16.3 24.92 20.9 20.9 0 0 1 26.7 20.15Z" transform="translate(29.63 5.26)"/><path class="cls-7" d="M542.94 209.55H423.48a23.81 23.81 0 0 1 0-47.62h.43a23.51 23.51 0 0 1 10 2.4c-.09-1-.13-2-.13-2.92s0-1.86.12-2.78a33.52 33.52 0 0 1 33.24-30.57c.7 0 1.41 0 2.09.07a33.21 33.21 0 0 1 28.33 19.59 22.73 22.73 0 0 1 12-5.38 23 23 0 0 1 9.11.64 23 23 0 0 1 16.74 22.08 21.51 21.51 0 0 1-.19 2.73 20.92 20.92 0 0 1 5.42-.72 21.23 21.23 0 0 1 2.33 42.34Zm-119.46-47.08a23.27 23.27 0 0 0 0 46.54H542.4v-.08h.25a20.7 20.7 0 0 0-2-41.29 20.38 20.38 0 0 0-5.66.81l-.4.11.05-.41a22.14 22.14 0 0 0-16.06-24.61 22.64 22.64 0 0 0-8.93-.64 22.21 22.21 0 0 0-12 5.5l-.28.24-.15-.34a32.69 32.69 0 0 0-28-19.61c-.68 0-1.37-.06-2.06-.06a33 33 0 0 0-32.71 30.08c-.07.9-.11 1.82-.11 2.73 0 1.11.06 2.24.17 3.35l.05.49-.44-.22a23 23 0 0 0-10.16-2.56Z" transform="translate(29.63 5.26)"/><path class="cls-8" d="M465.22 190.64a2.84 2.84 0 0 1-1.84-.67 2.88 2.88 0 0 1-.38-4.06c.33-.39 8.13-9.65 19.94-10.19 7.68-.36 15.11 3 22.1 10a2.88 2.88 0 0 1-4.08 4.08c-5.8-5.79-11.77-8.58-17.75-8.31-9.29.43-15.71 8-15.77 8.12a2.89 2.89 0 0 1-2.22 1.03Z" transform="translate(29.63 5.26)"/><path class="cls-8" d="M515.78 179.4a2.88 2.88 0 0 1-2-.84c-9.6-9.61-19.74-14.33-30.18-14-16.73.46-28.85 13.78-29 13.92a2.89 2.89 0 0 1-4.31-3.84c.56-.63 13.82-15.29 33.06-15.85 12.08-.34 23.69 4.94 34.48 15.72a2.89 2.89 0 0 1-2 4.93ZM477.58 200.42a2.85 2.85 0 0 1-2-.82 2.88 2.88 0 0 1-.06-4.08 13.23 13.23 0 0 1 8.72-3.82h.08a11.7 11.7 0 0 1 8.37 3.79 2.89 2.89 0 0 1-4.09 4.08 6 6 0 0 0-4.28-2.09 7.58 7.58 0 0 0-4.62 2.07 2.89 2.89 0 0 1-2.12.87Z" transform="translate(29.63 5.26)"/><path class="cls-7" d="M293.17 89.77a19 19 0 0 0-5.35.57 21 21 0 0 0-34.08-19.8 30.72 30.72 0 0 0-59.27 10.2 29.82 29.82 0 0 0 .05 3.14 21.84 21.84 0 1 0-11.39 40.92l110.58 3.93v-.09a19.46 19.46 0 0 0-.54-38.87Z" transform="translate(29.63 5.26)"/><path class="cls-5" d="M300 108.76a19.46 19.46 0 0 1-17.54 19.36v.1H171.8a21.86 21.86 0 0 1 0-43.71h.39a21.75 21.75 0 0 1 9.54 2.39 29.41 29.41 0 0 1-.16-3.13c0-.86 0-1.71.1-2.56a30.71 30.71 0 0 1 30.61-28.15c.65 0 1.3 0 1.93.06a30.72 30.72 0 0 1 26.21 18.35 21 21 0 0 1 11.25-5.16 22.19 22.19 0 0 1 2.72-.17 20.81 20.81 0 0 1 5.67.77 20.84 20.84 0 0 1 15.14 23.14 19.41 19.41 0 0 1 24.8 18.71Z" transform="translate(29.63 5.26)"/><path class="cls-7" d="M282.7 128.47H171.8a22.11 22.11 0 0 1 0-44.21h.4a21.77 21.77 0 0 1 9.24 2.22c-.08-.9-.12-1.81-.12-2.71s0-1.72.11-2.58a31.11 31.11 0 0 1 30.85-28.38c.66 0 1.32 0 1.95.06a30.8 30.8 0 0 1 26.29 18.19 21.07 21.07 0 0 1 11.13-5 21.32 21.32 0 0 1 8.45.59 21.33 21.33 0 0 1 15.53 20.49 20 20 0 0 1-.17 2.54 19.71 19.71 0 1 1 7.2 38.64ZM171.8 84.76a21.61 21.61 0 0 0 0 43.21h110.4v-.08h.22a19.21 19.21 0 0 0-1.89-38.33 19.43 19.43 0 0 0-5.26.75l-.37.11.1-.42a22.37 22.37 0 0 0 .21-2.85 20.84 20.84 0 0 0-15.13-20 20.72 20.72 0 0 0-19.4 4.51l-.26.23-.14-.32a30.32 30.32 0 0 0-26-18.2q-.94-.06-1.92-.06A30.62 30.62 0 0 0 182 81.23c-.07.84-.1 1.7-.1 2.54a29.45 29.45 0 0 0 .16 3.11v.45l-.41-.2a21.17 21.17 0 0 0-9.43-2.37Z" transform="translate(29.63 5.26)"/><path class="cls-7" d="m225.46 98.54-1-3.33A1.65 1.65 0 0 0 222.9 94h-19.72a1.66 1.66 0 0 0-1.66 1.66v34.24a1.65 1.65 0 0 0 1.66 1.65h45.88a1.66 1.66 0 0 0 1.66-1.65v-28.5a1.66 1.66 0 0 0-1.66-1.66h-22a1.65 1.65 0 0 1-1.6-1.2Z" transform="translate(29.63 5.26)"/><path class="cls-5" transform="translate(29.51 5.52)" d="M206.78 80.96h37.21v45.22h-37.21z"/><path class="cls-7" d="M206.64 126.36V80.82H244.17v45.54H244Zm.27-45.22L207 126h36.89V81.1Z" transform="translate(29.63 5.26)"/><path class="cls-7" transform="rotate(-.07 4532.94 -24159.686)" d="M212.26 89.74h15.28v1.16h-15.28z"/><path class="cls-7" transform="rotate(-.07 4524.756 -24159.69)" d="M212.27 93.04h7.64v1.16h-7.64z"/><path class="cls-7" transform="rotate(-.07 4557.491 -24151.486)" d="M222.09 93.02h7.64v1.16h-7.64z"/><path class="cls-7" transform="rotate(-.07 4541.126 -24159.68)" d="M232.03 93.01h7.64v1.16h-7.64z"/><path class="cls-7" transform="rotate(-.06 5285.976 -28196.31)" d="M229.02 89.72h10.64v1.16h-10.64z"/><path class="cls-7" transform="rotate(-.07 4541.121 -24151.496)" d="M224.39 96.2h15.28v1.16h-15.28z"/><path class="cls-7" transform="rotate(-.06 5266.873 -28186.77)" d="M212.27 96.21h10.64v1.16h-10.64z"/><path class="cls-7" transform="rotate(-.07 4532.936 -24151.5)" d="M212.27 99.37h15.28v1.16h-15.28z"/><path class="cls-7" transform="translate(29.51 5.51)" d="M212.28 102.66h7.64v1.16h-7.64z"/><path class="cls-7" transform="rotate(-.07 4532.936 -24151.5)" d="M222.1 102.65h7.64v1.16h-7.64z"/><path class="cls-7" transform="rotate(-.07 4541.121 -24151.496)" d="M232.04 102.64h7.64v1.16h-7.64z"/><path class="cls-7" transform="rotate(-.07 4549.306 -24151.49)" d="M229.03 99.35h10.64v1.16h-10.64z"/><path class="cls-7" transform="rotate(-.07 4541.116 -24143.31)" d="M224.4 105.82h15.28v1.16H224.4z"/><path class="cls-7" transform="rotate(-.06 5266.868 -28177.222)" d="M212.28 105.84h10.64V107h-10.64z"/><path class="cls-8" d="M201.51 101a2.3 2.3 0 0 0-2.29 2.3v27.87a1.65 1.65 0 0 0 1.65 1.65h45.89a1.65 1.65 0 0 0 1.65-1.65v-28.52a1.65 1.65 0 0 0-1.65-1.66h-45.25Z" transform="translate(29.63 5.26)"/><path class="cls-8" d="m223.15 99.67-1-3.34a1.67 1.67 0 0 0-1.6-1.2h-19.68a1.66 1.66 0 0 0-1.65 1.66V131a1.65 1.65 0 0 0 1.65 1.66h45.89a1.65 1.65 0 0 0 1.65-1.66v-28.48a1.66 1.66 0 0 0-1.65-1.66h-22a1.65 1.65 0 0 1-1.61-1.19Z" transform="translate(29.63 5.26)"/><path class="cls-5" d="m267.21 345.11 1.92 26.77 17.53-4.25 2.79-18.56-22.24-3.96z"/><path class="cls-7" d="m239.24 367-2-27.48 22.88 4.07-2.86 19h-.19Zm-1.33-26.78 1.87 26.05 17-4.12 2.71-18.15Z" transform="translate(29.63 5.26)"/><path class="cls-10" d="M252.69 359.64c-1.18.87-2.59 5-7.9 1.26s-9.51-1.21-9.51-1.21 4.25 4.73.64 9.61-25.22 7.49-30.34 9.25-4.33 7.51-4.33 7.51l54.48 8.94c4.07-15.48 2.07-36.55 2.07-36.55a6.37 6.37 0 0 0-5.11 1.19Z" transform="translate(29.63 5.26)"/><path class="cls-9" d="m245.81 389.37 1 .17a14.31 14.31 0 0 1 11.23-11.8l-.19-1c-.07-.01-10.3 1.93-12.04 12.63Z" transform="translate(29.63 5.26)"/><path class="cls-5" d="m201.25 386.06 54.48 8.94c.27-1.29.89-3 1.16-4.92l-54.6-8.92a8.35 8.35 0 0 0-1.04 4.9Z" transform="translate(29.63 5.26)"/><path class="cls-7" d="m256 395.29-55-9v-.21a8.46 8.46 0 0 1 1-5.08l.1-.17h.19l54.88 8.95v.28a25.88 25.88 0 0 1-.77 3.43c-.16.55-.3 1.07-.39 1.52Zm-54.44-9.48 54 8.81c.09-.4.21-.83.34-1.28a28.61 28.61 0 0 0 .71-3.07l-54.12-8.84a8.12 8.12 0 0 0-.97 4.38Z" transform="translate(29.63 5.26)"/><path class="cls-9" d="M242.05 362.24c0 .05 3.32 5.56 1.43 10.12-1.77 4.25-12.62 4.77-13.87 4.81l-6-2.74-.44.95 6.21 2.84h.12c.53 0 12.81-.34 14.93-5.46s-1.35-10.82-1.5-11.06Z" transform="translate(29.63 5.26)"/><path class="cls-9" transform="rotate(-61.82 252.393 351.892)" d="M232.63 370.94h1.04v6.09h-1.04z"/><path class="cls-9" transform="rotate(-61.82 257.612 349.22)" d="M237.88 368.29h1.04v6.09h-1.04z"/><path class="cls-7" d="M237.34 256c-4.66 11.67-11.17 92.54-11.17 92.54s15.2 11.2 44.93.93c0 0 7.82-50.95 11.06-65.73s-36.49-48.68-44.82-27.74Z" transform="translate(29.63 5.26)"/><path class="cls-9" d="M287.75 252.51a5.45 5.45 0 0 0-3.11 3.21c-4.52 11.12 11.73 46.93 24.79 75.7l1.25 2.75.95-.43-1.24-2.74c-13-28.59-29.14-64.17-24.78-74.87a4.39 4.39 0 0 1 2.52-2.64c11.52-4.49 48.23 9 48.6 9.18l.37-1c-1.53-.56-37.47-13.78-49.35-9.16Z" transform="translate(29.63 5.26)"/><path class="cls-7" d="M329.23 226c-13-.19-66.49 7.16-78.86 13.67-18.89 10-15.62 35.32-4.15 42.86 21.37 14.06 88.1-5.82 98.41-13.36 30-21.99-2.46-43.03-15.4-43.17Z" transform="translate(29.63 5.26)"/><path class="cls-7" d="M383.79 269.84a4.71 4.71 0 0 1 0 .53 24.38 24.38 0 0 1-.85 7.33c-.08.32-.17.65-.27 1-2.87 9.16-11.2 16.6-24.44 16.94a291.9 291.9 0 0 1-30.64-.9c-6-.51-12.4-1.28-18.62-2.41-.48-.07-.95-.16-1.43-.25l-2.16-.43c-1-.2-1.93-.41-2.89-.63-1.25-.29-2.48-.59-3.71-.91-10.85-2.87-20.34-7.15-25.64-13.53a21.29 21.29 0 0 1-4.4-14.05 24.56 24.56 0 0 1 .52-4.4 24.27 24.27 0 0 1 4.17-9.55 24.52 24.52 0 0 1 15.73-9.58c2.71-.52 6.08-1.21 10-1.85 2.25-.36 4.67-.71 7.28-1 1.85-.19 3.79-.36 5.81-.47h.85q4.19-.24 8.76-.12c1.52 0 3.06.11 4.64.22l1.09.09.93.07 1.29.13c1.39.15 2.81.32 4.24.53a100.63 100.63 0 0 1 14.05 3c1.4.39 2.83.83 4.26 1.32a7.28 7.28 0 0 1 .93.32c1.92.63 3.85 1.35 5.81 2.15l.26.1c1.78.72 3.59 1.51 5.4 2.37 1.41.67 2.83 1.36 4.26 2.1 0 0 .07 0 .09.06 9.44 4.82 14.21 13.33 14.68 21.82Z" transform="translate(29.63 5.26)"/><path class="cls-5" d="m337.2 340.89 12.73 27.14 16.73-12.42-7.89-22.34-21.57 7.62z"/><path class="cls-7" d="m320.19 363.22-.15-.33-12.87-27.44 22.15-7.82.1.28 8 22.55-.18.13ZM308 335.79l12.44 26.53 16.27-12.08-7.71-21.86Z" transform="translate(29.63 5.26)"/><path class="cls-10" d="M332.38 348.05c-1.1 1-2.09 5.32-7.82 2.08s-11.34 1-11.34 1 5.19 10.49 7.49 16.19-6.91 25.68-8.11 31.05 4.19 7.71 4.19 7.71l36.56-42.28c-11.2-11.72-15.94-17.53-15.94-17.53a6.49 6.49 0 0 0-5.03 1.78Z" transform="translate(29.63 5.26)"/><path class="cls-9" d="m343.27 369.4.69-.8a14.49 14.49 0 0 1-4.22-15.94l-1-.39c-.02.1-3.74 9.95 4.53 17.13Z" transform="translate(29.63 5.26)"/><path class="cls-5" d="m316.79 406.08 36.56-42.28c-1-.92-2.08-2.34-3.64-3.61l-36.64 42.38a8.44 8.44 0 0 0 3.72 3.51Z" transform="translate(29.63 5.26)"/><path class="cls-7" d="m316.87 406.44-.2-.09a8.62 8.62 0 0 1-3.87-3.65l-.08-.18.12-.15 36.83-42.59.23.18a26.45 26.45 0 0 1 2.55 2.48c.39.42.76.82 1.1 1.14l.21.2-.19.21Zm-3.45-3.83a8.28 8.28 0 0 0 3.29 3.11l36.23-41.9-.93-1a25.46 25.46 0 0 0-2.27-2.24Z" transform="translate(29.63 5.26)"/><path class="cls-9" d="M321.93 351.76a57.24 57.24 0 0 0 5.43 10.63c2.73 3.78-2.58 13.41-3.2 14.52l-5.55 3.71.59.88 5.75-3.85.06-.11c.27-.45 6.5-11.22 3.21-15.77s-5.28-10.42-5.45-10.65Z" transform="translate(29.63 5.26)"/><path class="cls-9" transform="rotate(-30.24 347.82 319.962)" d="M320.21 371.63h6.17v1.06h-6.17z"/><path class="cls-9" transform="rotate(-30.24 348.315 314.02)" d="M320.69 365.7h6.17v1.06h-6.17z"/><path class="cls-7" d="M320 262.83a12.11 12.11 0 0 1 2.64 4.65c.14.5.29 1 .46 1.62.41 1.39.89 3 1.45 4.75.38 1.25.79 2.58 1.24 4 1.45 4.54 3.12 9.63 4.84 14.77 5.81 17.45 12.15 35.54 12.15 35.54-2.92 2.73-5.67 5.09-8.27 7.14-.74.59-1.47 1.16-2.18 1.7a69.56 69.56 0 0 1-16.71 9.78c-.86.33-1.67.61-2.4.84-4.48 1.4-6.77 1.13-6.77 1.13s-13.64-24.6-24.65-48.62q-1.53-3.31-3-6.6c-1.47-3.33-2.83-6.56-4-9.58-.95-2.36-1.81-4.59-2.55-6.66a64.2 64.2 0 0 1-2.74-9.5 9.32 9.32 0 0 1-.11-3.9 15.42 15.42 0 0 1 7.93-9.66c12.42-6.58 34.67-.66 42.67 8.6Z" transform="translate(29.63 5.26)"/><path class="cls-5" d="M231.37 206.85a130.31 130.31 0 0 1 9.45-12.07 1.83 1.83 0 0 1 .16-.16l.18-.19h.07c1.28-.95 5.51-3.3 13.08.06C263.5 198.57 268 198 268 198l-.06.2c11.13.66 29.72-1.89 41.08-.73 12.72 1.3 19.91 30.06-2.37 26.59-10-1.55-31-9.5-44-14.62-2.26.37-5.9.5-7.65-2a21 21 0 0 0-3.87-1.95c-.36 0-1.75 1.38-3.1 3.42-1.07 1.61-1.18 2.2-3 1.47a38.2 38.2 0 0 1-6-2.78c-.87-.84 2.77-9.57 2.77-9.57s-5.24 8.34-8.63 10.19c-.86.51-2.36-.54-1.8-1.37Z" transform="translate(29.63 5.26)"/><path class="cls-7" d="M310.17 224.64a23.39 23.39 0 0 1-3.55-.29c-10.13-1.58-31.87-9.82-44-14.61-2.16.34-5.95.51-7.81-2.06l-.78-.43a17.35 17.35 0 0 0-2.89-1.45 12.1 12.1 0 0 0-2.87 3.3c-.11.17-.21.33-.31.47-.81 1.27-1.18 1.84-3 1.11-3.64-1.47-5.7-2.43-6.13-2.84-.68-.66.55-4.38 1.69-7.33-1.82 2.63-4.9 6.73-7.21 8a1.76 1.76 0 0 1-2-.46 1 1 0 0 1-.18-1.34 128.69 128.69 0 0 1 9.24-11.84l.24-.29.19-.16.23-.26h.11c1.56-1.13 5.83-3.23 13.28.08 9 4 13.52 3.52 13.57 3.52l.44-.06-.09.28c5 .26 11.43-.1 18.19-.47 8.05-.45 16.37-.91 22.55-.28 4.29.43 8.38 4 10.67 9.38s2.11 10.91-.55 14.33c-1.42 1.77-4.08 3.7-9.03 3.7Zm-47.46-15.49h.07c12.07 4.78 33.84 13 43.92 14.61 5.56.87 9.72-.25 12-3.23 2.49-3.21 2.68-8.61.47-13.76s-6.11-8.62-10.2-9c-6.13-.63-14.43-.16-22.46.28a178 178 0 0 1-18.61.45h-.36v-.15c-1.33.05-5.74-.16-13.44-3.59-7.5-3.34-11.68-.91-12.79-.09l-.2.16-.07.06-.04.11a129.58 129.58 0 0 0-9.43 12 .5.5 0 0 0 .13.64 1.2 1.2 0 0 0 1.3.36c3.29-1.8 8.48-10 8.53-10.1l.5.26c-1.69 4.05-3.25 8.75-2.83 9.26.17.17 1.09.76 5.94 2.72 1.38.56 1.53.34 2.31-.88l.32-.49c1.13-1.69 2.72-3.53 3.33-3.55.42 0 1.34.49 3.17 1.52l.93.55c1.7 2.4 5.35 2.2 7.38 1.87Z" transform="translate(29.63 5.26)"/><path class="cls-12" d="m244.15 210.07 4-8.34a69.5 69.5 0 0 0-4 8.34ZM241.56 209l3.91-10.19a85.33 85.33 0 0 0-3.91 10.19Z" transform="translate(29.63 5.26)"/><path class="cls-5" d="M296.31 178.7s-2.47 23.48-2 28c1 9.89 17.93 21 24.14 13.92s12.65-25.94 12.41-42.47-31.18-19.34-34.55.55Z" transform="translate(29.63 5.26)"/><path class="cls-7" d="M313 223.12a13.68 13.68 0 0 1-4.13-.71c-6.66-2.14-14.24-9-14.89-15.72-.43-4.46 1.93-27.06 2-28 1.8-10.67 11.17-14.8 19.67-14.15 7.33.57 15.27 5.06 15.4 13.6.25 16.68-6.25 35.53-12.48 42.66a7.15 7.15 0 0 1-5.57 2.32Zm-16.42-44.38c-.06.57-2.46 23.53-2 27.89.62 6.44 8.14 13.2 14.49 15.24 4 1.27 7.2.75 9.14-1.47 6.16-7.06 12.59-25.73 12.34-42.29-.12-8.18-7.8-12.49-14.87-13-8.26-.67-17.34 3.32-19.09 13.63Z" transform="translate(29.63 5.26)"/><path class="cls-7" d="m325.15 200.43 1.72-16.26-.8-.08-1.64 16.05.72.29z"/><path class="cls-2" d="M317.25 130.17c5.36-.35 11.78 1.22 16.13 13.54s3.91 37.28-.14 56.17c0 0-29 5.7-41.24-11 0 0 6-33 8.87-43.48s10.46-14.85 16.38-15.23Z" transform="translate(29.63 5.26)"/><path class="cls-7" d="M322.15 201.07c-9.61 0-23-2-30.38-12.08l-.07-.09v-.12c.06-.33 6-33.16 8.87-43.51 3-10.75 10.83-15 16.64-15.39 4.87-.31 11.84.77 16.41 13.73 4.17 11.82 4.12 36.56-.13 56.33v.18h-.18a65.43 65.43 0 0 1-11.16.95Zm-29.85-12.31c11.51 15.61 38.22 11.32 40.7 10.88 4.18-19.66 4.23-44.15.11-55.84-4.4-12.46-10.76-13.67-15.84-13.35-5.63.36-13.23 4.5-16.13 15-2.77 9.98-8.44 41.11-8.84 43.31Z" transform="translate(29.63 5.26)"/><path class="cls-7" d="M322.63 181.94a18.33 18.33 0 0 0 10.2-18.6l-.8.07a17.54 17.54 0 0 1-9.71 17.79Z" transform="translate(29.63 5.26)"/><path class="cls-7" d="M320.43 201.46a59 59 0 0 0 12.84-.86h.21l.08-.19c.11-.24 10.43-24 6-44.81l-.78.17c4.12 19.56-4.94 41.83-5.91 44.12-1.53.28-11.34 1.94-21-.31l-.19.78a47.9 47.9 0 0 0 8.75 1.1Z" transform="translate(29.63 5.26)"/><path class="cls-10" d="M300 152c-3.23 17.43 5.05 70 .3 78.16 0 0 7.49 13.06 24.19 7.33 26-8.94 53.2 44.94 73.65 32.35 3.94-58.57-14.35-131.13-34.57-141C343 118.64 305.89 120.3 300 152Z" transform="translate(29.63 5.26)"/><path class="cls-7" d="m300.62 215.9-.77-.08a122.43 122.43 0 0 0 .06-20.7c-1-9.46-.08-39.3-.07-39.6h.78c0 .3-.94 30.09.06 39.5a123.15 123.15 0 0 1-.06 20.88Z" transform="translate(29.63 5.26)"/><path class="cls-5" d="m322.76 111.24 3.08 15.22c.87 1.38 5.52 8.52 19.2-2.73l-5.38-22a160 160 0 0 1-16.9 9.51Z" transform="translate(29.63 5.26)"/><path class="cls-7" d="M332.13 130.25a8.71 8.71 0 0 1-1.36-.11 7.3 7.3 0 0 1-5.17-3.53v-.09l-3.13-15.44.2-.09a164.23 164.23 0 0 0 16.87-9.52l.34-.23 5.52 22.6-.14.11c-5.13 4.19-9.52 6.3-13.13 6.3Zm-6-3.9a6.77 6.77 0 0 0 4.75 3.23c3.66.59 8.31-1.42 13.86-6l-5.24-21.47a167.46 167.46 0 0 1-16.4 9.24Z" transform="translate(29.63 5.26)"/><path class="cls-7" d="M325.64 125.13s10.87-.15 16.51-12.72c0 0-1.29-3.63-1.33-3.59-10.19 8.33-18.33 7.18-15.18 16.31Z" transform="translate(29.63 5.26)"/><path class="cls-5" d="M326.53 123.37c5.07-.62 13.55-8.61 15.07-13.49.54-1.75-.25-6.11-1.16-8.16-2.87-6.42-5.26-12.27-10.64-13.5-2.27-.52-7.69.78-9.64 1.42-6.46 2.15-7.15 7.61-6.42 14.37.83 7.57 3.83 20.46 12.79 19.36Z" transform="translate(29.63 5.26)"/><path class="cls-7" d="M325.48 123.72a7.79 7.79 0 0 1-5-1.75c-5-4-6.62-13.87-7.06-17.93-.68-6.25-.35-12.35 6.61-14.67 1.68-.55 7.36-2 9.79-1.43 5.29 1.21 7.69 6.59 10.46 12.82l.38.84c.87 2 1.77 6.44 1.17 8.36-1.51 4.85-10 13.05-15.31 13.7a10 10 0 0 1-1.04.06Zm3-35.34a33.82 33.82 0 0 0-8.27 1.53c-6.57 2.19-6.87 8-6.21 14.07.43 4 2 13.67 6.84 17.54a7.3 7.3 0 0 0 5.62 1.57c5.05-.61 13.41-8.69 14.84-13.3.51-1.63-.22-5.86-1.15-8l-.38-.84c-2.71-6.09-5.06-11.35-10.07-12.5a6.13 6.13 0 0 0-1.19-.07Z" transform="translate(29.63 5.26)"/><path class="cls-7" d="M321.84 112.44c-.5-.08-3-.51-3.5-1.6a1 1 0 0 1 .08-1 8.33 8.33 0 0 0 .65-6.25 3.54 3.54 0 0 0-3.89-.43l-.33-.7a4.37 4.37 0 0 1 4.83.64l.07.07v.09a9.06 9.06 0 0 1-.7 7 .25.25 0 0 0 0 .28c.24.52 1.88 1 2.92 1.15Z" transform="translate(29.63 5.26)"/><path class="cls-5" d="M336.76 102.77a4.78 4.78 0 1 0 4.2-5.29 4.78 4.78 0 0 0-4.2 5.29Z" transform="translate(29.63 5.26)"/><path class="cls-7" d="M341.5 107.29a5.07 5.07 0 0 1-5-4.48 5 5 0 0 1 1.06-3.73 5.05 5.05 0 0 1 7.12-.82 5.08 5.08 0 0 1 .82 7.12 5.08 5.08 0 0 1-3.39 1.88 5.83 5.83 0 0 1-.61.03Zm0-9.56a4.71 4.71 0 0 0-.53 0 4.48 4.48 0 0 0-3.95 5 4.5 4.5 0 1 0 4.48-5Z" transform="translate(29.63 5.26)"/><path class="cls-7" d="M342.43 105.53a1.31 1.31 0 0 1-.75-.19c-.66-.41-.43-1.13-.25-1.66s.23-.88 0-1.06a3 3 0 0 0-.48-.27c-.47-.24-1-.52-1.12-1.06a1.27 1.27 0 0 1 .34-1.09 2.62 2.62 0 0 1 2.69-.9l-.2.75a1.84 1.84 0 0 0-1.88.62.71.71 0 0 0-.2.46c0 .18.42.37.72.53a3.37 3.37 0 0 1 .59.34c.73.54.46 1.37.28 1.92s-.19.69-.07.76c.55.34 1.39-.56 1.4-.56l.58.52a2.65 2.65 0 0 1-1.65.89ZM321.57 115.2a14.27 14.27 0 0 1-2.58-.1l.12-.77a12.26 12.26 0 0 0 7-1.11l.38.67a11 11 0 0 1-4.92 1.31ZM327.72 104.09a1.29 1.29 0 0 1 0 .19 1.27 1.27 0 1 1-2.52.29 1.25 1.25 0 0 1 .18-.81 8.52 8.52 0 0 0 2.34.33ZM318.58 105.14v.19a1.27 1.27 0 1 1-2.34-.52 8.52 8.52 0 0 0 2.34.33ZM329 102.07c-4.14-1.57-5.07.21-5.08.23l-.7-.32c0-.11 1.18-2.48 6.06-.63ZM325.7 140.22c-6-.12-8.88-5.64-9-5.87l.69-.35c0 .05 2.8 5.33 8.33 5.45ZM323.28 224.57l-.1-.77c.17 0 17.32-2.47 21.17-17.71l.75.19c-3.97 15.72-21.64 18.27-21.82 18.29Z" transform="translate(29.63 5.26)"/><path class="cls-7" d="m334.68 97.62 1.91 5.37a6.18 6.18 0 0 0 1.81-.3c-.65-5.65 4.18-5.14 4.18-5.14 3.5-7.08-3.69-17.27-8.6-16.29 0 0-4.73-6.19-14.83-2s-8.32 10.52-8.32 10.52-2.78 1.55-1.79 6.51 5 9.83 5 9.83l-.52-4.4s10-2.52 14.58-9.53c2 5.41 6.58 5.43 6.58 5.43Z" transform="translate(29.63 5.26)"/><path class="cls-7" d="M325.24 105a1.35 1.35 0 1 0 2.6-.75 1.35 1.35 0 0 0-2.6.75ZM316.05 105.83a1.35 1.35 0 0 0 2.6-.75 1.37 1.37 0 0 0-1.68-.93 1.35 1.35 0 0 0-.92 1.68ZM396 215l.7-.07c-3.82-38.14-12.15-59.38-18.47-70.48-6.88-12.09-12.79-15.07-13-15.19l-.31.64c.2.1 23.8 12.49 31.08 85.1Z" transform="translate(29.63 5.26)"/><path class="cls-5" d="M317.68 215.62c3.51-6 5.13-8.31 13.69-6.9a39.17 39.17 0 0 1 8.65 2.52l1.52-.8a.69.69 0 0 1 .28-.15c5.28-2.78 12.3-6.25 18.32-9.16 2-1.08 3.93-2.17 5.88-3.22-3.26-7.16-6.82-15.61-6.82-15.61-6.51-18.67 21.29-30.89 29.32-16.82s11.39 33.27 9.43 42.3a6.13 6.13 0 0 1-1.22 2.54c-1.31 2.53-4.07 4.74-8.82 6.11-13.32 3.86-42 5.44-45.55 5.63-.56.1-1.08.2-1.56.31a1.57 1.57 0 0 1-.61 0 .93.93 0 0 1-.47 0 9.56 9.56 0 0 0-3.85-.82 7.31 7.31 0 0 1-7.15-3.17 18 18 0 0 0-.45 2.77c-.15 2.63-1.84 5.17-3 5.29s-.93-4.31-.93-4.31-.76 6.47-3.06 4.14.52-8.5 1.89-10.9c.16-.28.33-.53.49-.77-1.4 1.18-2.75 3-3.53 3.63-1.38 1.06-5.96 3.38-2.45-2.61Z" transform="translate(29.63 5.26)"/><path class="cls-7" d="M322.18 227a1.67 1.67 0 0 1-1.14-.59c-2.3-2.34.16-7.94 1.32-10.24-.26.27-.51.55-.74.82a14.15 14.15 0 0 1-1.35 1.39c-.72.59-3 2-3.85 1.21-.64-.54-.32-1.86 1-4.14 3.55-6.06 5.34-8.46 14-7a39.38 39.38 0 0 1 8.6 2.49l1.4-.75a1.29 1.29 0 0 1 .31-.16c6.09-3.21 14.08-7.11 18.31-9.15 1.87-1 3.76-2.08 5.63-3.09-3.19-7-6.68-15.3-6.71-15.38-3.5-10 2.59-18 10.18-21.46 6.56-3 15.5-2.88 19.65 4.39 8.1 14.19 11.43 33.43 9.46 42.5a6.41 6.41 0 0 1-1.28 2.65c-1.44 2.81-4.46 4.91-9 6.21-13.4 3.88-42.36 5.47-45.61 5.64-.52.1-1 .2-1.52.31a2.18 2.18 0 0 1-.68 0 1.31 1.31 0 0 1-.56-.06 9.6 9.6 0 0 0-3.71-.8 7.52 7.52 0 0 1-7-2.8 16.85 16.85 0 0 0-.32 2.14c-.16 2.82-1.95 5.42-3.3 5.56a.75.75 0 0 1-.61-.22 3.25 3.25 0 0 1-.6-1.82c-.31 1.05-.8 2.06-1.52 2.31a1 1 0 0 1-.36.04Zm2.82-14-1.17 1.72c-.16.23-.31.48-.47.75-1.57 2.74-4 8.47-1.94 10.56.35.35.65.48.91.39.87-.3 1.48-2.84 1.66-4.37l.57.05c-.08 1.28 0 3.49.47 4 .06.06.1.07.15.06 1-.1 2.65-2.44 2.79-5a19.63 19.63 0 0 1 .46-2.82l.13-.61.37.5a7 7 0 0 0 6.89 3.06 9.77 9.77 0 0 1 4 .83.74.74 0 0 0 .34 0h.08a1.23 1.23 0 0 0 .51 0c.48-.11 1-.21 1.57-.31 3.29-.18 32.18-1.76 45.52-5.62 4.35-1.26 7.25-3.27 8.64-6a6 6 0 0 0 1.2-2.48c1.95-9-1.36-28-9.4-42.09-4-7-12.58-7-18.91-4.15-7.36 3.35-13.27 11.06-9.89 20.73 0 .07 3.59 8.52 6.81 15.6l.11.24-.23.12c-1.95 1-3.92 2.14-5.88 3.22-4.24 2-12.22 5.95-18.33 9.16h-.07a.8.8 0 0 0-.19.11l-1.54.82-.12.07-.13-.06a39.34 39.34 0 0 0-8.59-2.5c-8.19-1.34-9.83.69-13.4 6.77-1.59 2.72-1.27 3.31-1.14 3.42.45.38 2.21-.47 3.13-1.21a14.59 14.59 0 0 0 1.28-1.34 23 23 0 0 1 2.24-2.29Z" transform="translate(29.63 5.26)"/><path class="cls-2" d="M354.23 130.75c4.44-2.83 10.69-4.52 20.24 4s21 30.13 26.42 48.25c0 0-22.19 18.6-40.59 10 0 0-10.48-31.15-12.94-41.5s1.98-17.62 6.87-20.75Z" transform="translate(29.63 5.26)"/><path class="cls-7" d="M370.8 195.54a24.8 24.8 0 0 1-10.62-2.28h-.11v-.11c-.11-.31-10.52-31.28-12.95-41.52-2.53-10.63 2.19-18 7-21.07 4-2.56 10.53-4.93 20.58 4 9.16 8.17 20.8 29.42 26.51 48.39l.05.18-.14.12c-.22.12-14.96 12.28-30.32 12.29Zm-10.27-2.74c17.23 7.94 38.1-8.34 40-9.9-5.7-18.83-17.23-39.86-26.29-47.94-9.66-8.61-15.7-6.64-19.89-4-4.66 3-9.22 10.11-6.76 20.46 2.41 9.92 12.23 39.28 12.94 41.38Z" transform="translate(29.63 5.26)"/><path class="cls-7" d="M383.32 172.62a18 18 0 0 0 0-20.78l-.65.44a17.18 17.18 0 0 1 .07 19.85Z" transform="translate(29.63 5.26)"/><path class="cls-9" d="M290.34 314.15c-1.54-2.11-37.61-52-13.55-70 9.78-7.29 24.27-6.87 24.88-6.85v1c-.14 0-14.75-.42-24.23 6.65-23.25 17.34 13.4 68.05 13.77 68.56Z" transform="translate(29.63 5.26)"/><path class="cls-2" d="M294.53 242a.44.44 0 0 0 .45.42l75.16-2.5a.87.87 0 0 0 .85-.9l-.07-2.1-76.47 2.54Z" transform="translate(29.63 5.26)"/><path class="cls-7" d="M295 242.74a.72.72 0 0 1-.72-.69l-.09-2.81h.28l76.75-2.55.08 2.38a1.16 1.16 0 0 1-1.12 1.2L295 242.74Zm-.15-.71c0 .08.07.17.15.14l75.16-2.49a.61.61 0 0 0 .42-.19.57.57 0 0 0 .15-.42l-.06-1.81-75.9 2.51Z" transform="translate(29.63 5.26)"/><path class="cls-13" d="M361.07 236.41v.88l2.68-.09v-1.18l-2.39.08a.29.29 0 0 0-.29.31ZM358 236.51v.88l2.69-.09v-1.17l-2.39.08a.28.28 0 0 0-.3.3ZM354.84 236.61v.88l2.69-.08v-1.18l-2.39.08a.29.29 0 0 0-.3.3ZM341.87 237v.89l2.69-.09v-1.18l-2.39.08a.29.29 0 0 0-.3.3ZM338.76 237.15v.88l2.68-.09v-1.18l-2.39.08a.29.29 0 0 0-.29.31ZM302.22 238.36v.88l2.68-.09v-1.17l-2.39.08a.28.28 0 0 0-.29.3ZM299.1 238.46v.88l2.69-.08v-1.18l-2.39.08a.3.3 0 0 0-.3.3ZM345.08 236.94v.88l9.22-.31v-1.17l-8.93.29a.29.29 0 0 0-.29.31ZM289 238.8v.88l9.22-.31v-1.17l-8.93.29a.29.29 0 0 0-.29.31ZM305.62 238.24v.89l32-1.06v-1.18l-31.75 1.05a.3.3 0 0 0-.25.3Z" transform="translate(29.63 5.26)"/><path d="m289.72 238.48-6.5.22a.66.66 0 0 0-.64.68v.51l7.46-.24v-.89a.29.29 0 0 0-.32-.28Z" transform="translate(29.63 5.26)" style="fill:url(#Безымянный_градиент_17)"/><path d="m280.74 238.78-6.5.21a.68.68 0 0 0-.65.69v.51l7.46-.25v-.88a.29.29 0 0 0-.31-.28Z" transform="translate(29.63 5.26)" style="fill:url(#Безымянный_градиент_17-2)"/><path d="m271.75 239.08-6.5.21a.66.66 0 0 0-.64.69v.51l7.45-.25v-.88a.28.28 0 0 0-.31-.28Z" transform="translate(29.63 5.26)" style="fill:url(#Безымянный_градиент_17-3)"/><path d="m262.77 239.37-6.5.22a.67.67 0 0 0-.65.69v.51l7.46-.25v-.88a.3.3 0 0 0-.31-.29Z" transform="translate(29.63 5.26)" style="fill:url(#Безымянный_градиент_17-4)"/><path d="m252.19 239.72-3.4.12a.67.67 0 0 0-.65.68v.52l4.36-.15v-.88a.3.3 0 0 0-.31-.29Z" transform="translate(29.63 5.26)" style="fill:url(#Безымянный_градиент_17-5)"/><path d="m246.89 239.9-3.4.11a.67.67 0 0 0-.64.69v.51l4.36-.14v-.89a.29.29 0 0 0-.32-.28Z" transform="translate(29.63 5.26)" style="fill:url(#Безымянный_градиент_17-6)"/><path d="m241.91 240.07-3.41.11a.67.67 0 0 0-.64.69v.51l4.36-.15v-.88a.29.29 0 0 0-.31-.28Z" transform="translate(29.63 5.26)" style="fill:url(#Безымянный_градиент_17-7)"/><path class="cls-13" d="M298.81 183.16a5.64 5.64 0 0 0-5.47-4l18.49 59.5s3.82 1.79 2.94-1.39c-.77-2.68-12.2-41.4-15.96-54.11Z" transform="translate(29.63 5.26)"/><path class="cls-5" d="m293.48 178.58-80.05 2.65a1.72 1.72 0 0 0-1.59 2.19l16.66 57.72 84.22-2.79-16.82-58a2.42 2.42 0 0 0-2.42-1.77Z" transform="translate(29.63 5.26)"/><path class="cls-7" d="m228.29 241.43-.06-.21-16.67-57.72a2 2 0 0 1 1.86-2.55l80.05-2.66h.1a2.71 2.71 0 0 1 2.6 2l16.93 58.37h-.37Zm65.2-62.57-80.05 2.66a1.37 1.37 0 0 0-1.11.59 1.44 1.44 0 0 0-.22 1.24l16.6 57.5 83.64-2.77-16.72-57.67a2.14 2.14 0 0 0-2.14-1.55Z" transform="translate(29.63 5.26)"/><path class="cls-7" d="m313.26 238.74-85.06 2.82-.09-.3-16.66-57.72a2.08 2.08 0 0 1 .32-1.84 2.16 2.16 0 0 1 1.65-.88l80.05-2.65a2.83 2.83 0 0 1 2.82 2.05Zm-84.45 2 83.37-2.74-16.67-57.52a2 2 0 0 0-2-1.46l-80.06 2.66a1.29 1.29 0 0 0-1 .54 1.3 1.3 0 0 0-.2 1.13Z" transform="translate(29.63 5.26)"/><path class="cls-2" d="M228.24 244.23a.44.44 0 0 0 .44.43l82.61-2.75a.86.86 0 0 0 .84-.89l-.09-2.66-83.91 2.78Z" transform="translate(29.63 5.26)"/><path class="cls-7" d="M228.67 244.94a.73.73 0 0 1-.72-.7l-.11-3.37h.28l84.19-2.8.1 2.95a1.16 1.16 0 0 1-1.11 1.19l-82.61 2.74Zm-.15-.72a.14.14 0 0 0 .16.15l82.6-2.74a.59.59 0 0 0 .41-.18.6.6 0 0 0 .15-.42l-.07-2.38-83.34 2.76Z" transform="translate(29.63 5.26)"/><path class="cls-7" transform="rotate(-1.9 514.212 -652.607)" d="M311.09 237.47h58.89v1h-58.89z"/><path class="cls-13" transform="rotate(-1.9 436.051 -649.982)" d="M228.13 240.06h68.71v1h-68.71z"/><path class="cls-7" d="M213.49 247.69a28.73 28.73 0 0 0-8 .84 31.69 31.69 0 0 0 .48-4.27 31.27 31.27 0 0 0-51.24-25.2 45.74 45.74 0 0 0-88.25 15.18c0 1.58 0 3.13.07 4.67a32.53 32.53 0 1 0-17 60.94l164.66 5.86v-.15a29 29 0 0 0-.8-57.87Z" transform="translate(29.63 5.26)"/><path class="cls-5" d="M223.64 276a29 29 0 0 1-26.12 28.83v.15H32.76a32.54 32.54 0 0 1 0-65.08h.58a32.29 32.29 0 0 1 14.2 3.57c-.15-1.53-.23-3.08-.23-4.66 0-1.28 0-2.55.16-3.81a45.73 45.73 0 0 1 45.58-42c1 0 1.92 0 2.87.1a45.74 45.74 0 0 1 39 27.33 31.14 31.14 0 0 1 16.75-7.68 29.91 29.91 0 0 1 4-.27 31 31 0 0 1 8.45 1.16 31.3 31.3 0 0 1 22.86 30.15 32 32 0 0 1-.33 4.29A28.91 28.91 0 0 1 223.64 276Z" transform="translate(29.63 5.26)"/><path class="cls-7" d="M197.74 305.16h-165a32.76 32.76 0 0 1 0-65.52h.58a32.32 32.32 0 0 1 13.95 3.41c-.13-1.42-.2-2.86-.2-4.29s0-2.56.16-3.83a46 46 0 0 1 45.8-42.13c1 0 1.93 0 2.88.1A45.77 45.77 0 0 1 135 220.09a31.33 31.33 0 0 1 16.64-7.53 30.46 30.46 0 0 1 4.07-.27 31.32 31.32 0 0 1 8.48 1.16A31.29 31.29 0 0 1 187 247.81a28.8 28.8 0 0 1 7.66-1.05 29.2 29.2 0 0 1 3.08 58.24Zm-165-65.08a32.32 32.32 0 0 0 0 64.64H197.3v-.13h.2a28.76 28.76 0 1 0-10.7-56.26l-.33.09.05-.33a31.63 31.63 0 0 0 .32-4.26 31.19 31.19 0 0 0-22.67-29.94 31.06 31.06 0 0 0-8.39-1.15 31.56 31.56 0 0 0-4 .26 30.87 30.87 0 0 0-16.62 7.63l-.23.2-.12-.28a45.35 45.35 0 0 0-38.85-27.2c-1-.06-1.91-.09-2.86-.09A45.76 45.76 0 0 0 47.68 235c-.1 1.25-.15 2.53-.15 3.79 0 1.54.08 3.11.23 4.64v.4l-.36-.18a32 32 0 0 0-14.11-3.55Z" transform="translate(29.63 5.26)"/><path class="cls-10" d="m138.52 281.9 3.21-10.49-6.45-2.6a27.49 27.49 0 0 0-.92-9.59l5.83-3.77-5.19-9.69-6.39 2.73a27.79 27.79 0 0 0-7.43-6.13l1.45-6.8-10.5-3.21-2.6 6.45a27.72 27.72 0 0 0-9.58.92l-3.78-5.83-9.64 5.11 2.72 6.39a27.79 27.79 0 0 0-6.13 7.43l-6.79-1.45-3.21 10.5 6.44 2.6a28 28 0 0 0 .93 9.58l-5.83 3.78 5.15 9.68 6.39-2.72a27.76 27.76 0 0 0 7.43 6.21l-1.45 6.8 10.5 3.2 2.6-6.44a27.46 27.46 0 0 0 9.58-.93l3.78 5.83 9.68-5.15-2.72-6.39a27.57 27.57 0 0 0 6.12-7.43Zm-36.89 3.7a19.81 19.81 0 1 1 24.74-13.15 19.8 19.8 0 0 1-24.74 13.15Z" transform="translate(29.63 5.26)"/><path class="cls-21" d="m107.03 269.17-4.58-1.85 2.42-7.92.46.14-2.29 7.49 4.18 1.69-.19.45z"/><path class="cls-21" d="m92.42 297.81-.48-.11 1.41-6.61a23.05 23.05 0 0 1-5.81-4.45l.36-.33a22.49 22.49 0 0 0 5.83 4.43l.17.09ZM118.58 283.32l-.27-.4c12.75-8.95 7.63-22.59 7.58-22.73l.45-.18c.06.14 5.31 14.14-7.76 23.31ZM135.11 264.53a43.42 43.42 0 0 0-1-5.24v-.17l2.14-1.39.26.41-1.84 1.19a44.91 44.91 0 0 1 1 5.14Z" transform="translate(29.63 5.26)"/><path class="cls-7" d="m105.68 300.48-10.93-3.34 1.46-6.84a26.66 26.66 0 0 1-7.23-6l-6.43 2.74L77.19 277l5.87-3.8a27.68 27.68 0 0 1-.9-9.33l-6.49-2.62L79 250.33l6.84 1.46c.51-.88 3.06-5.16 6-7.25l-2.74-6.42 10.08-5.35 3.8 5.85a22.93 22.93 0 0 1 9.33-.89l2.62-6.48 10.92 3.34-1.46 6.84a25.82 25.82 0 0 1 7.24 6l6.43-2.74 5.36 10.08-5.87 3.8a24.15 24.15 0 0 1 .9 9.33l6.48 2.61-3.33 10.93-6.84-1.46a24.82 24.82 0 0 1-6 7.23l2.74 6.43-10.08 5.36-3.79-5.85a21.6 21.6 0 0 1-9.34.89Zm-10.37-3.67 10.09 3.08 2.58-6.41h.19a20.54 20.54 0 0 0 9.46-.91l.19-.07 3.77 5.81 9.3-4.94-2.71-6.37.14-.12a24.08 24.08 0 0 0 6.06-7.35l.08-.17 6.77 1.45 3.09-10.09-6.42-2.58v-.18a23.66 23.66 0 0 0-.91-9.48l-.07-.18 5.81-3.76-4.94-9.31-6.35 2.77-.11-.15a25.58 25.58 0 0 0-7.35-6.07l-.16-.08 1.44-6.76-10.08-3.08-2.59 6.41h-.18a22.09 22.09 0 0 0-9.47.91l-.19.07L99 233.4l-9.3 4.94 2.71 6.38-.16.11c-3.14 2.16-6 7.3-6.06 7.35l-.08.15-6.76-1.44L76.26 261l6.41 2.59v.18a26.78 26.78 0 0 0 .92 9.49l.05.17-5.8 3.77 4.94 9.29 6.37-2.71.11.15A26.34 26.34 0 0 0 96.6 290l.16.08Z" transform="translate(29.63 5.26)"/><path class="cls-7" d="M110.29 285.93a20.07 20.07 0 1 1 20.06-20.07 20.09 20.09 0 0 1-20.06 20.07Zm0-39.65a19.59 19.59 0 1 0 19.58 19.58 19.61 19.61 0 0 0-19.58-19.58Z" transform="translate(29.63 5.26)"/><path class="cls-8" d="M403.76 316.76c21.22-22.91 49 36.67 46.27 60.16h-10.57c-10.25-5.92-52.88-41.6-35.7-60.16Z" transform="translate(29.63 5.26)"/><path class="cls-7" d="m444.53 377 .82-.37c-15.65-34.19-41-60-41.27-60.21l-.64.63c.25.29 25.56 25.95 41.09 59.95Z" transform="translate(29.63 5.26)"/><path class="cls-7" d="M410.21 349.63c6.77 2.13 21.26 4 21.94 4.05l.11-.89c-.18 0-18.31-2.32-23.57-4.68l-.36.83a19.32 19.32 0 0 0 1.88.69ZM419.33 333.69c2.54-7.4 3.06-19.25 3.07-19.37h-.9c0 .12-.53 11.84-3 19.12ZM440.78 338.47c6.45 13.48 10.36 28.93 9.25 38.45-14.73-15.31-11.6-35.92-9.25-38.45Z" transform="translate(29.63 5.26)"/><path class="cls-8" d="M458 300.91c18.8-9.2 13 46.3-3.57 76h-7.69c-3.74-7.45-3.91-68.56 11.26-76Z" transform="translate(29.63 5.26)"/><path class="cls-7" d="m449.58 376.84.89.16c3-16.48 11.15-69.63 11.24-70.16l-.9-.14c-.08.54-8.23 53.67-11.23 70.14Z" transform="translate(29.63 5.26)"/><path class="cls-7" transform="rotate(-49.79 478.164 324.383)" d="M451.32 353.22h12.75v.9h-12.75z"/><path class="cls-7" transform="rotate(-50.04 472.223 303.69)" d="M451.28 326.71h.9v12.16h-.9z"/><path class="cls-5" d="M418.61 376.88v4.55A27.11 27.11 0 0 0 423 396.2l1.15 1.79 9.19 58.11 22.1.06 6.83-58.07 1.16-1.78a27 27 0 0 0 4.5-14.74V377Z" transform="translate(29.63 5.26)"/><path class="cls-7" d="m455.75 456.49-22.68-.06v-.28l-9.18-58-1.11-1.73a27.39 27.39 0 0 1-4.47-14.95v-4.88l50 .14v4.88a27.42 27.42 0 0 1-4.55 14.92l-1.12 1.72Zm-22.11-.72 21.52.06L462 398l1.2-1.85a26.8 26.8 0 0 0 4.45-14.57v-4.21l-48.69-.14v4.22A26.83 26.83 0 0 0 423.3 396l1.2 1.92Z" transform="translate(29.63 5.26)"/><path class="cls-7" transform="rotate(-89.84 454.735 376.157)" d="M436.81 370h.9v36.76h-.9z"/><path class="cls-7" transform="rotate(-89.83 473.415 385.802)" d="M455.47 391.45h.9v13.16h-.9z"/><path class="cls-7" d="M433 456.55h1.2v-.9h-.43l-9.15-57.82-1.22-1.83a26.66 26.66 0 0 1-4.35-14.52v-4.1l48.9.14v-.91l-49.8-.13v5a27.53 27.53 0 0 0 4.49 15l1.1 1.72Z" transform="translate(29.63 5.26)"/></g></g></svg>