<svg xmlns="http://www.w3.org/2000/svg" xmlns:xlink="http://www.w3.org/1999/xlink" viewBox="0 0 524.6 454.54"><defs><linearGradient id="Безымянный_градиент_17" x1="1071.74" y1="-75.19" x2="1079.3" y2="-75.19" gradientTransform="matrix(-.96 .28 .28 .96 1248.33 71.69)" gradientUnits="userSpaceOnUse"><stop offset="0" stop-color="#aaceff"/><stop offset="1" stop-color="#dbe9ff"/></linearGradient><linearGradient id="Безымянный_градиент_17-2" x1="1062.64" y1="-75.19" x2="1070.2" y2="-75.19" xlink:href="#Безымянный_градиент_17"/><linearGradient id="Безымянный_градиент_17-3" x1="1053.54" y1="-75.19" x2="1061.1" y2="-75.19" xlink:href="#Безымянный_градиент_17"/><linearGradient id="Безымянный_градиент_17-4" x1="1044.44" y1="-75.19" x2="1051.99" y2="-75.19" xlink:href="#Безымянный_градиент_17"/><linearGradient id="Безымянный_градиент_17-5" x1="1036.86" y1="-75.19" x2="1041.28" y2="-75.19" xlink:href="#Безымянный_градиент_17"/><linearGradient id="Безымянный_градиент_17-6" x1="1031.5" y1="-75.19" x2="1035.91" y2="-75.19" xlink:href="#Безымянный_градиент_17"/><linearGradient id="Безымянный_градиент_17-7" x1="1026.45" y1="-75.19" x2="1030.86" y2="-75.19" xlink:href="#Безымянный_градиент_17"/><clipPath id="clip-path"><path d="M329.66 2.76c-81.13 17.14-69 111.9-208.71 165.08-149.7 57-59 272 111.29 284.24 169.52 12.19 247.69-64.25 265.09-209.51C510.42 133.34 450.21-22.7 329.66 2.76Z" style="fill:none"/></clipPath><style>.cls-2{fill:#e6e6e6}.cls-4{fill:#dbdbdb}.cls-5{fill:#f5f5f5}.cls-6{opacity:.5}.cls-7{fill:#00b5f4}.cls-8{fill:#34234d}.cls-9{fill:#fff}.cls-10{fill:#cbcbcb}.cls-11{fill:#ff5168}.cls-14{fill:#221733}.cls-15{fill:#320d26}.cls-16{fill:#2b1d40}.cls-24{fill:#fafafa}</style></defs><g id="Layer_2" data-name="Layer 2"><g id="Layer_1-2" data-name="Layer 1"><path class="cls-2" d="M329.66 2.76c-81.13 17.14-69 111.9-208.71 165.08-149.7 57-59 272 111.29 284.24 169.52 12.19 247.69-64.25 265.09-209.51C510.42 133.34 450.21-22.7 329.66 2.76Z"/><path class="cls-2" d="M139 148.35c36.39-12.5 91.53-70.92 71.59-136.37S31.57 185.26 139 148.35Z"/><g style="clip-path:url(#clip-path)"><path class="cls-4" d="M88.41 99.54v354.58h31.76l-.02-354.58H88.41z"/><path class="cls-5" d="m120.17 454.12 158.67.02V99.54H120.17v354.58z"/><path class="cls-4" d="m129.96 440.39 139.09.03V112.14l-139.09-.16v328.41z"/><g class="cls-6"><path class="cls-5" d="M247.46 117.26h18.57v5.41h-18.57z"/></g><g class="cls-6"><path class="cls-5" d="M237.94 117.25h6.69v5.41h-6.69z"/></g><g class="cls-6"><path class="cls-5" transform="rotate(-89.93 232.81 119.946)" d="M230.12 117.67h5.41v4.54h-5.41z"/></g><g class="cls-6"><path class="cls-5" d="M255.91 129.62h10.12v5.41h-10.12z"/></g><g class="cls-6"><path class="cls-5" transform="rotate(-89.94 246.884 132.305)" d="M244.17 126.11h5.41v12.4h-5.41z"/></g><g class="cls-6"><path class="cls-5" d="M233.29 129.59h4.54V135h-4.54z"/></g><g class="cls-6"><path class="cls-5" d="M226.27 129.59h4.54V135h-4.54z"/></g><path class="cls-5" transform="rotate(-89.94 262.368 144.673)" d="M259.66 141.01h5.41v7.32h-5.41z"/><path class="cls-5" d="M253.37 147.37h2.5v-5.41h-2.5v5.41z"/><g class="cls-6"><path class="cls-5" d="M245.99 141.96h4.54v5.41h-4.54z"/></g><g class="cls-6"><path class="cls-5" d="M239.01 154.31h27.02v5.41h-27.02z"/></g><g class="cls-6"><path class="cls-5" d="M229.48 154.29h6.68v5.41h-6.68z"/></g><g class="cls-6"><path class="cls-5" d="M258.71 166.67h7.32v5.41h-7.32z"/></g><g class="cls-6"><path class="cls-5" d="M241.53 166.66h14.34v5.41h-14.34z"/></g><g class="cls-6"><path class="cls-5" d="M234.15 166.65h4.54v5.41h-4.54z"/></g><g class="cls-6"><path class="cls-5" d="M251.05 179.02h14.98v5.41h-14.98z"/></g><path class="cls-5" d="M237.38 179.01h10.83v5.41h-10.83z"/><g class="cls-6"><path class="cls-5" transform="rotate(-89.94 230.871 181.7)" d="M228.18 178.04h5.41v7.32h-5.41z"/></g><g class="cls-6"><path class="cls-5" d="M260.97 191.37h5.06v5.41h-5.06z"/></g><g class="cls-6"><path class="cls-5" d="M251.45 191.37h6.69v5.41h-6.69z"/></g><g class="cls-6"><path class="cls-5" d="M237.84 191.36h10.77v5.41h-10.77z"/></g><g class="cls-6"><path class="cls-5" d="M250.53 203.72h15.5v5.41h-15.5z"/></g><g class="cls-6"><path class="cls-5" d="M233.18 203.71h14.52v5.41h-14.52z"/></g><path class="cls-5" d="M225.79 203.7h4.54v5.41h-4.54z"/><g class="cls-6"><path class="cls-5" d="M218.71 203.69h4.54v5.41h-4.54z"/></g><g class="cls-6"><path class="cls-5" d="M256.74 216.07h9.28v5.41h-9.28z"/></g><path class="cls-5" d="M205.03 117.22h12.88v5.41h-12.88z"/><g class="cls-6"><path class="cls-5" d="M205.03 129.57h10.12v5.41h-10.12z"/></g><g class="cls-6"><path class="cls-5" d="M205.03 141.92h7.32v5.41h-7.32z"/></g><g class="cls-6"><path class="cls-5" d="M205.03 154.27h10.65v5.41h-10.65z"/></g><g class="cls-6"><path class="cls-5" d="M205.03 166.62h7.32v5.41h-7.32z"/></g><g class="cls-6"><path class="cls-5" d="M205.03 178.98h9.29v5.41h-9.29z"/></g><g class="cls-6"><path class="cls-5" d="M205.03 191.33h5.06v5.41h-5.06z"/></g><g class="cls-6"><path class="cls-5" d="M205.03 203.68h9.8v5.41h-9.8z"/></g><g class="cls-6"><path class="cls-5" d="M205.03 216.03h9.29v5.41h-9.29z"/></g><g class="cls-6"><path class="cls-5" d="M249.96 216.07h3.95v5.41h-3.95z"/></g><g class="cls-6"><path class="cls-5" d="M238.23 216.06h8.89v5.41h-8.89z"/></g><g class="cls-6"><path class="cls-5" d="M175.43 116.98h18.58v5.41h-18.58z"/></g><g class="cls-6"><path class="cls-5" d="M165.91 116.96h6.69v5.41h-6.69z"/></g><path class="cls-5" d="M158.52 116.95h4.55v5.41h-4.55z"/><g class="cls-6"><path class="cls-5" d="M183.89 129.34h10.12v5.41h-10.12z"/></g><path class="cls-5" transform="rotate(-90 174.69 132.05)" d="M172.14 125.82h5.41v12.4h-5.41z"/><path class="cls-5" d="M161.26 134.72h4.55v-5.41h-4.55v5.41z"/><g class="cls-6"><path class="cls-5" d="m154.24 134.71 4.54.01v-5.41l-4.54-.01v5.41z"/></g><g class="cls-6"><path class="cls-5" d="M186.69 141.69h7.32v5.41h-7.32z"/></g><g class="cls-6"><path class="cls-5" transform="rotate(-89.93 182.6 144.387)" d="M179.89 143.14h5.41v2.5h-5.41z"/></g><g class="cls-6"><path class="cls-5" d="M173.96 141.68h4.55v5.41h-4.55z"/></g><g class="cls-6"><path class="cls-5" d="M166.98 154.03h27.03v5.41h-27.03z"/></g><g class="cls-6"><path class="cls-5" transform="rotate(-89.94 160.801 156.723)" d="M158.09 153.38h5.41v6.69h-5.41z"/></g><g class="cls-6"><path class="cls-5" transform="rotate(-89.94 190.348 169.099)" d="M187.65 165.44h5.41v7.32h-5.41z"/></g><g class="cls-6"><path class="cls-5" d="M169.5 166.38h14.35v5.41H169.5z"/></g><g class="cls-6"><path class="cls-5" d="M162.12 166.37h4.54v5.41h-4.54z"/></g><path class="cls-5" d="M179.03 178.75h14.98v5.41h-14.98z"/><g class="cls-6"><path class="cls-5" d="M165.35 178.73h10.84v5.41h-10.84z"/></g><g class="cls-6"><path class="cls-5" d="M155.19 178.72h7.33v5.41h-7.33z"/></g><g class="cls-6"><path class="cls-5" d="M188.95 191.1h5.06v5.41h-5.06z"/></g><g class="cls-6"><path class="cls-5" d="M179.42 191.1h6.69v5.41h-6.69z"/></g><path class="cls-5" d="M165.81 191.09h10.78v5.41h-10.78z"/><g class="cls-6"><path class="cls-5" d="M178.51 203.45h15.5v5.41h-15.5z"/></g><g class="cls-6"><path class="cls-5" d="M161.14 203.44h14.53v5.41h-14.53z"/></g><g class="cls-6"><path class="cls-5" d="M153.76 203.43h4.55v5.41h-4.55z"/></g><g class="cls-6"><path class="cls-5" d="M146.67 203.43h4.54v5.41h-4.54z"/></g><g class="cls-6"><path class="cls-5" d="M184.72 215.81h9.29v5.41h-9.29z"/></g><path class="cls-5" d="M132.99 116.93h12.88v5.41h-12.88z"/><g class="cls-6"><path class="cls-5" d="M132.99 129.29h10.13v5.41h-10.13z"/></g><g class="cls-6"><path class="cls-5" d="M132.99 141.64h7.33v5.41h-7.33z"/></g><g class="cls-6"><path class="cls-5" d="M132.99 154h10.66v5.41h-10.66z"/></g><g class="cls-6"><path class="cls-5" d="M132.99 166.35h7.33v5.41h-7.33z"/></g><g class="cls-6"><path class="cls-5" d="M132.99 178.71h9.29v5.41h-9.29z"/></g><g class="cls-6"><path class="cls-5" d="M132.99 191.06h5.06v5.41h-5.06z"/></g><g class="cls-6"><path class="cls-5" d="M132.99 203.42h9.81v5.41h-9.81z"/></g><g class="cls-6"><path class="cls-5" d="M132.99 215.77h9.29v5.41h-9.29z"/></g><path class="cls-5" d="M177.93 215.8h3.95v5.41h-3.95z"/><g class="cls-6"><path class="cls-5" d="M166.2 215.8h8.89v5.41h-8.89z"/></g><path class="cls-5" d="M247.46 228.49h18.57v5.41h-18.57z"/><g class="cls-6"><path class="cls-5" d="M237.94 228.48h6.69v5.41h-6.69z"/></g><g class="cls-6"><path class="cls-5" d="M230.56 228.47h4.54v5.41h-4.54z"/></g><g class="cls-6"><path class="cls-5" d="M255.91 240.84h10.12v5.41h-10.12z"/></g><g class="cls-6"><path class="cls-5" d="M240.67 240.84h12.4v5.41h-12.4z"/></g><g class="cls-6"><path class="cls-5" d="M233.29 240.83h4.54v5.41h-4.54z"/></g><g class="cls-6"><path class="cls-5" d="M226.27 240.82h4.54v5.41h-4.54z"/></g><g class="cls-6"><path class="cls-5" d="M258.71 253.2h7.32v5.41h-7.32z"/></g><g class="cls-6"><path class="cls-5" d="M253.37 253.19h2.5v5.41h-2.5z"/></g><g class="cls-6"><path class="cls-5" d="M245.99 253.19h4.54v5.41h-4.54z"/></g><g class="cls-6"><path class="cls-5" d="M239.01 265.54h27.02v5.41h-27.02z"/></g><path class="cls-5" d="M229.48 265.53h6.68v5.41h-6.68z"/><g class="cls-6"><path class="cls-5" d="M258.71 277.9h7.32v5.41h-7.32z"/></g><g class="cls-6"><path class="cls-5" d="M241.53 277.89h14.34v5.41h-14.34z"/></g><g class="cls-6"><path class="cls-5" d="M234.15 277.88h4.54v5.41h-4.54z"/></g><g class="cls-6"><path class="cls-5" d="M251.05 290.25h14.98v5.41h-14.98z"/></g><g class="cls-6"><path class="cls-5" d="M237.38 290.24h10.83v5.41h-10.83z"/></g><g class="cls-6"><path class="cls-5" d="M227.22 290.23h7.32v5.41h-7.32z"/></g><g class="cls-6"><path class="cls-5" d="M260.97 302.6h5.06v5.41h-5.06z"/></g><g class="cls-6"><path class="cls-5" d="M251.45 302.6h6.69v5.41h-6.69z"/></g><g class="cls-6"><path class="cls-5" d="M237.84 302.59h10.77V308h-10.77z"/></g><g class="cls-6"><path class="cls-5" d="M250.53 314.95h15.5v5.41h-15.5z"/></g><path class="cls-5" d="M233.18 314.94h14.52v5.41h-14.52z"/><g class="cls-6"><path class="cls-5" d="M225.79 314.94h4.54v5.41h-4.54z"/></g><g class="cls-6"><path class="cls-5" d="M218.71 314.93h4.54v5.41h-4.54z"/></g><g class="cls-6"><path class="cls-5" d="M256.74 327.3h9.28v5.41h-9.28z"/></g><g class="cls-6"><path class="cls-5" d="M205.03 228.46h12.88v5.41h-12.88z"/></g><g class="cls-6"><path class="cls-5" d="M205.03 240.81h10.12v5.41h-10.12z"/></g><g class="cls-6"><path class="cls-5" d="M205.03 253.16h7.32v5.41h-7.32z"/></g><path class="cls-5" d="M205.03 265.52h10.65v5.41h-10.65z"/><g class="cls-6"><path class="cls-5" d="M205.03 277.87h7.32v5.41h-7.32z"/></g><g class="cls-6"><path class="cls-5" d="M205.03 290.22h9.29v5.41h-9.29z"/></g><g class="cls-6"><path class="cls-5" d="M205.03 302.57h5.06v5.41h-5.06z"/></g><g class="cls-6"><path class="cls-5" d="M205.03 314.93h9.8v5.41h-9.8z"/></g><g class="cls-6"><path class="cls-5" d="M205.03 327.28h9.29v5.41h-9.29z"/></g><g class="cls-6"><path class="cls-5" d="M249.96 327.3h3.95v5.41h-3.95z"/></g><path class="cls-5" d="M238.23 327.29h8.89v5.41h-8.89zM230.88 422.87h15v4.95h-15z"/><g class="cls-6"><path class="cls-5" d="M220.61 422.86h5.91v4.95h-5.91z"/></g><g class="cls-6"><path class="cls-5" d="M175.43 228.23h18.58v5.41h-18.58z"/></g><g class="cls-6"><path class="cls-5" d="M165.91 228.22h6.69v5.41h-6.69z"/></g><g class="cls-6"><path class="cls-5" transform="rotate(-89.94 160.785 230.917)" d="M158.09 228.65h5.41v4.55h-5.41z"/></g><g class="cls-6"><path class="cls-5" d="M183.89 240.59h10.12V246h-10.12z"/></g><g class="cls-6"><path class="cls-5" d="M168.65 240.58h12.4v5.41h-12.4z"/></g><g class="cls-6"><path class="cls-5" d="M161.26 240.57h4.55v5.41h-4.55z"/></g><g class="cls-6"><path class="cls-5" d="M154.24 240.57h4.54v5.41h-4.54z"/></g><g class="cls-6"><path class="cls-5" d="M186.69 252.94h7.32v5.41h-7.32z"/></g><g class="cls-6"><path class="cls-5" d="M181.35 252.94h2.5v5.41h-2.5z"/></g><g class="cls-6"><path class="cls-5" d="M173.96 252.93h4.55v5.41h-4.55z"/></g><g class="cls-6"><path class="cls-5" d="M166.98 265.29h27.03v5.41h-27.03z"/></g><g class="cls-6"><path class="cls-5" d="M157.45 265.28h6.69v5.41h-6.69z"/></g><g class="cls-6"><path class="cls-5" d="M186.69 277.65h7.32v5.41h-7.32z"/></g><path class="cls-5" d="M169.5 277.64h14.35v5.41H169.5z"/><g class="cls-6"><path class="cls-5" d="M162.12 277.63h4.54v5.41h-4.54z"/></g><g class="cls-6"><path class="cls-5" d="M179.03 290h14.98v5.41h-14.98z"/></g><g class="cls-6"><path class="cls-5" d="M165.35 289.99h10.84v5.41h-10.84z"/></g><g class="cls-6"><path class="cls-5" d="M155.19 289.99h7.33v5.41h-7.33z"/></g><g class="cls-6"><path class="cls-5" d="M188.95 302.35h5.06v5.41h-5.06z"/></g><g class="cls-6"><path class="cls-5" d="M179.42 302.35h6.69v5.41h-6.69z"/></g><g class="cls-6"><path class="cls-5" d="M165.81 302.35h10.78v5.41h-10.78z"/></g><g class="cls-6"><path class="cls-5" d="M178.51 314.71h15.5v5.41h-15.5z"/></g><g class="cls-6"><path class="cls-5" d="M161.14 314.7h14.53v5.41h-14.53z"/></g><g class="cls-6"><path class="cls-5" d="M153.76 314.69h4.55v5.41h-4.55z"/></g><g class="cls-6"><path class="cls-5" d="M146.67 314.69h4.54v5.41h-4.54z"/></g><g class="cls-6"><path class="cls-5" d="M184.72 327.06h9.29v5.41h-9.29z"/></g><g class="cls-6"><path class="cls-5" d="M132.99 228.2h12.88v5.41h-12.88z"/></g><path class="cls-5" d="M132.99 240.55h10.13v5.41h-10.13zM132.99 252.91h7.33v5.41h-7.33z"/><g class="cls-6"><path class="cls-5" d="M132.99 265.27h10.66v5.41h-10.66z"/></g><g class="cls-6"><path class="cls-5" d="M132.99 277.62h7.33v5.41h-7.33z"/></g><g class="cls-6"><path class="cls-5" d="M132.99 289.97h9.29v5.41h-9.29z"/></g><g class="cls-6"><path class="cls-5" d="M132.99 302.33h5.06v5.41h-5.06z"/></g><g class="cls-6"><path class="cls-5" d="M132.99 314.69h9.81v5.41h-9.81z"/></g><g class="cls-6"><path class="cls-5" d="M132.99 327.04h9.29v5.41h-9.29z"/></g><g class="cls-6"><path class="cls-5" d="M177.93 327.06h3.95v5.41h-3.95z"/></g><g class="cls-6"><path class="cls-5" d="M166.2 327.05h8.89v5.41h-8.89z"/></g><path class="cls-5" d="m239.01 406.51 27.02.09v-5.41l-27.02-.08v5.4z"/><g class="cls-6"><path class="cls-5" d="m229.49 406.49 6.68.01v-5.4l-6.68-.02v5.41z"/></g><g class="cls-6"><path class="cls-5" d="m258.71 394.22 7.32.03v-5.41l-7.32-.02v5.4z"/></g><g class="cls-6"><path class="cls-5" d="m241.53 394.17 14.34.04v-5.4l-14.34-.05v5.41z"/></g><path class="cls-5" d="m234.15 394.15 4.54.01v-5.41l-4.54-.01v5.41z"/><g class="cls-6"><path class="cls-5" d="m251.05 381.85 14.98.05v-5.41l-14.98-.05v5.41z"/></g><g class="cls-6"><path class="cls-5" d="m237.38 381.81 10.83.03v-5.41l-10.83-.03v5.41z"/></g><g class="cls-6"><path class="cls-5" d="m227.22 381.77 7.32.03v-5.41l-7.32-.02v5.4z"/></g><g class="cls-6"><path class="cls-5" d="m260.97 369.53 5.06.02v-5.41l-5.06-.02v5.41z"/></g><g class="cls-6"><path class="cls-5" d="m251.45 369.5 6.68.02v-5.41l-6.68-.02v5.41z"/></g><g class="cls-6"><path class="cls-5" d="m237.84 369.46 10.77.03v-5.41l-10.77-.03v5.41z"/></g><g class="cls-6"><path class="cls-5" d="m250.53 357.15 15.5.04v-5.4l-15.5-.05v5.41z"/></g><path class="cls-5" d="m233.18 357.09 14.51.05v-5.41l-14.51-.05v5.41z"/><g class="cls-6"><path class="cls-5" d="m225.79 357.06 4.55.02v-5.41l-4.55-.01v5.4z"/></g><g class="cls-6"><path class="cls-5" d="m218.71 357.04 4.54.02v-5.41l-4.54-.02v5.41z"/></g><g class="cls-6"><path class="cls-5" d="m256.75 344.81 9.28.03v-5.4l-9.28-.03v5.4z"/></g><g class="cls-6"><path class="cls-5" d="M205.03 339.38h10.65v5.41h-10.65z"/></g><g class="cls-6"><path class="cls-5" d="M205.03 351.73h7.32v5.41h-7.32z"/></g><g class="cls-6"><path class="cls-5" d="M205.03 364.08h9.29v5.41h-9.29z"/></g><g class="cls-6"><path class="cls-5" d="M205.03 376.44h5.06v5.41h-5.06z"/></g><g class="cls-6"><path class="cls-5" d="M205.03 388.79h9.8v5.41h-9.8z"/></g><g class="cls-6"><path class="cls-5" d="M205.03 401.14h9.29v5.41h-9.29z"/></g><g class="cls-6"><path class="cls-5" d="m249.96 344.79 3.95.02v-5.41l-3.95-.01v5.4z"/></g><g class="cls-6"><path class="cls-5" d="m238.24 344.75 8.88.03v-5.4l-8.88-.03v5.4z"/></g><path class="cls-5" d="M166.98 339.16h27.03v5.41h-27.03z"/><g class="cls-6"><path class="cls-5" d="M157.45 339.15h6.69v5.41h-6.69z"/></g><g class="cls-6"><path class="cls-5" d="M186.69 351.51h7.32v5.41h-7.32z"/></g><g class="cls-6"><path class="cls-5" d="M169.5 351.51h14.35v5.41H169.5z"/></g><g class="cls-6"><path class="cls-5" d="M162.12 351.51h4.54v5.41h-4.54z"/></g><g class="cls-6"><path class="cls-5" d="M179.03 363.87h14.98v5.41h-14.98z"/></g><g class="cls-6"><path class="cls-5" d="M165.35 363.86h10.84v5.41h-10.84z"/></g><g class="cls-6"><path class="cls-5" d="M155.19 363.86h7.33v5.41h-7.33z"/></g><g class="cls-6"><path class="cls-5" d="M188.95 376.22h5.06v5.41h-5.06z"/></g><g class="cls-6"><path class="cls-5" d="M179.42 376.22h6.69v5.41h-6.69z"/></g><g class="cls-6"><path class="cls-5" d="M165.81 376.22h10.78v5.41h-10.78z"/></g><g class="cls-6"><path class="cls-5" d="M178.51 388.57h15.5v5.41h-15.5z"/></g><path class="cls-5" d="M161.14 388.57h14.53v5.41h-14.53z"/><g class="cls-6"><path class="cls-5" d="M153.76 388.57h4.55v5.41h-4.55z"/></g><g class="cls-6"><path class="cls-5" d="M146.67 388.57h4.54v5.41h-4.54z"/></g><g class="cls-6"><path class="cls-5" d="M184.72 400.93h9.29v5.41h-9.29z"/></g><g class="cls-6"><path class="cls-5" d="M132.99 339.14h10.66v5.41h-10.66z"/></g><path class="cls-5" d="M132.99 351.5h7.33v5.41h-7.33z"/><g class="cls-6"><path class="cls-5" d="M132.99 363.85h9.29v5.41h-9.29z"/></g><g class="cls-6"><path class="cls-5" d="M132.99 376.21h5.06v5.41h-5.06z"/></g><g class="cls-6"><path class="cls-5" d="M132.99 388.56h9.81v5.41h-9.81z"/></g><path class="cls-5" d="M132.99 400.92h9.29v5.41h-9.29z"/><g class="cls-6"><path class="cls-5" d="M177.93 400.92h3.95v5.41h-3.95z"/></g><path class="cls-5" d="M166.2 400.92h8.89v5.41h-8.89z"/><g class="cls-6"><path class="cls-5" d="M158.85 422.66h15.01v4.95h-15.01z"/></g><g class="cls-6"><path class="cls-5" d="M148.57 422.65h5.91v4.95h-5.91z"/></g><path class="cls-5" d="M148.57 430.24h15.01v4.95h-15.01z"/><g class="cls-6"><path class="cls-5" d="M167.94 430.24h5.91v4.95h-5.91z"/></g><g class="cls-6"><path class="cls-5" d="M220.61 430.45h15v4.95h-15z"/></g><g class="cls-6"><path class="cls-5" d="M239.97 430.45h5.91v4.95h-5.91z"/></g><path class="cls-4" d="M293.11 131.65v322.47H322l-.02-322.47h-28.87z"/><path class="cls-5" d="m322 454.12 144.3.02V131.65H322v322.47z"/><path class="cls-4" d="m330.9 441.64 126.49.02V143.11l-126.49-.14v298.67z"/><g class="cls-6"><path class="cls-5" d="M437.76 147.77h16.89v4.92h-16.89z"/></g><g class="cls-6"><path class="cls-5" d="M429.1 147.75h6.08v4.92h-6.08z"/></g><g class="cls-6"><path class="cls-5" transform="rotate(-90 424.115 150.365)" d="M421.99 148.14h4.92v4.13h-4.92z"/></g><g class="cls-6"><path class="cls-5" d="M445.45 159h9.2v4.92h-9.2z"/></g><g class="cls-6"><path class="cls-5" transform="rotate(-89.94 437.229 161.45)" d="M434.77 155.81h4.92v11.28h-4.92z"/></g><g class="cls-6"><path class="cls-5" d="M424.88 158.98h4.13v4.92h-4.13z"/></g><g class="cls-6"><path class="cls-5" d="M418.49 158.98h4.13v4.92h-4.13z"/></g><path class="cls-5" transform="rotate(-89.93 451.331 172.69)" d="M448.86 169.37h4.92v6.66h-4.92z"/><path class="cls-5" d="M443.13 170.23h2.28v4.92h-2.28z"/><g class="cls-6"><path class="cls-5" d="M436.42 170.23h4.13v4.92h-4.13z"/></g><g class="cls-6"><path class="cls-5" d="M430.07 181.46h24.57v4.92h-24.57z"/></g><g class="cls-6"><path class="cls-5" d="M421.41 181.45h6.08v4.92h-6.08z"/></g><g class="cls-6"><path class="cls-5" d="M447.99 192.7h6.66v4.92h-6.66z"/></g><g class="cls-6"><path class="cls-5" d="M432.37 192.69h13.04v4.92h-13.04z"/></g><g class="cls-6"><path class="cls-5" d="M425.65 192.68h4.13v4.92h-4.13z"/></g><g class="cls-6"><path class="cls-5" d="M441.02 203.93h13.62v4.92h-13.62z"/></g><path class="cls-5" d="M428.59 203.92h9.85v4.92h-9.85z"/><g class="cls-6"><path class="cls-5" d="M419.35 203.91h6.66v4.92h-6.66z"/></g><g class="cls-6"><path class="cls-5" d="M450.05 215.17h4.6v4.92h-4.6z"/></g><g class="cls-6"><path class="cls-5" d="M441.39 215.16h6.08v4.92h-6.08z"/></g><g class="cls-6"><path class="cls-5" d="M429.01 215.15h9.8v4.92h-9.8z"/></g><g class="cls-6"><path class="cls-5" d="M440.55 226.4h14.09v4.92h-14.09z"/></g><g class="cls-6"><path class="cls-5" d="M424.77 226.38h13.21v4.92h-13.21z"/></g><path class="cls-5" d="M418.06 226.38h4.13v4.92h-4.13z"/><g class="cls-6"><path class="cls-5" d="M411.61 226.37h4.13v4.92h-4.13z"/></g><g class="cls-6"><path class="cls-5" d="M446.2 237.63h8.44v4.92h-8.44z"/></g><path class="cls-5" d="M399.17 147.73h11.71v4.92h-11.71z"/><g class="cls-6"><path class="cls-5" d="M399.17 158.96h9.2v4.92h-9.2z"/></g><g class="cls-6"><path class="cls-5" d="M399.17 170.19h6.66v4.92h-6.66z"/></g><g class="cls-6"><path class="cls-5" d="M399.17 181.43h9.69v4.92h-9.69z"/></g><g class="cls-6"><path class="cls-5" d="M399.17 192.66h6.66v4.92h-6.66z"/></g><g class="cls-6"><path class="cls-5" d="M399.17 203.89h8.45v4.92h-8.45z"/></g><g class="cls-6"><path class="cls-5" d="M399.17 215.13h4.6v4.92h-4.6z"/></g><g class="cls-6"><path class="cls-5" d="M399.17 226.36h8.92v4.92h-8.92z"/></g><g class="cls-6"><path class="cls-5" d="M399.17 237.6h8.45v4.92h-8.45z"/></g><g class="cls-6"><path class="cls-5" d="M440.03 237.62h3.59v4.92h-3.59z"/></g><g class="cls-6"><path class="cls-5" d="M429.37 237.62h8.08v4.92h-8.08z"/></g><g class="cls-6"><path class="cls-5" d="m372.26 152.42 16.89.02v-4.92l-16.89-.02v4.92z"/></g><g class="cls-6"><path class="cls-5" d="M363.59 147.5h6.08v4.92h-6.08z"/></g><path class="cls-5" d="M356.88 147.49h4.13v4.92h-4.13z"/><g class="cls-6"><path class="cls-5" d="M379.94 158.75h9.21v4.92h-9.21z"/></g><path class="cls-5" transform="rotate(-89.94 371.724 161.195)" d="M369.26 155.55h4.92v11.28h-4.92z"/><path class="cls-5" d="m359.37 163.64 4.13.01v-4.92l-4.13-.01v4.92z"/><g class="cls-6"><path class="cls-5" d="M352.98 163.64h4.13v-4.92h-4.13v4.92z"/></g><g class="cls-6"><path class="cls-5" d="M382.49 169.98h6.66v4.92h-6.66z"/></g><g class="cls-6"><path class="cls-5" transform="rotate(-90 378.405 172.575)" d="M376.31 171.3h4.92v2.28h-4.92z"/></g><g class="cls-6"><path class="cls-5" d="M370.92 169.97h4.13v4.92h-4.13z"/></g><g class="cls-6"><path class="cls-5" d="M364.57 181.21h24.58v4.92h-24.58z"/></g><g class="cls-6"><path class="cls-5" d="M355.9 181.2h6.08v4.92h-6.08z"/></g><g class="cls-6"><path class="cls-5" transform="rotate(-89.94 385.824 194.91)" d="M383.36 191.58h4.92v6.66h-4.92z"/></g><g class="cls-6"><path class="cls-5" d="M366.86 192.44h13.05v4.92h-13.05z"/></g><g class="cls-6"><path class="cls-5" d="M360.14 192.43h4.13v4.92h-4.13z"/></g><path class="cls-5" d="M375.52 203.69h13.63v4.92h-13.63z"/><g class="cls-6"><path class="cls-5" d="M363.09 203.67h9.86v4.92h-9.86z"/></g><g class="cls-6"><path class="cls-5" d="M353.84 203.66h6.66v4.92h-6.66z"/></g><g class="cls-6"><path class="cls-5" d="M384.55 214.92h4.6v4.92h-4.6z"/></g><g class="cls-6"><path class="cls-5" d="M375.88 214.92h6.08v4.92h-6.08z"/></g><path class="cls-5" d="M363.5 214.91h9.8v4.92h-9.8z"/><g class="cls-6"><path class="cls-5" d="M375.05 226.15h14.1v4.92h-14.1z"/></g><g class="cls-6"><path class="cls-5" d="M359.26 226.14h13.21v4.92h-13.21z"/></g><g class="cls-6"><path class="cls-5" d="M352.54 226.13h4.13v4.92h-4.13z"/></g><g class="cls-6"><path class="cls-5" d="M346.1 226.13h4.13v4.92h-4.13z"/></g><g class="cls-6"><path class="cls-5" d="M380.7 237.39h8.45v4.92h-8.45z"/></g><path class="cls-5" d="M333.65 147.47h11.72v4.92h-11.72z"/><g class="cls-6"><path class="cls-5" d="M333.65 158.7h9.21v4.92h-9.21z"/></g><g class="cls-6"><path class="cls-5" d="M333.65 169.94h6.66v4.92h-6.66z"/></g><g class="cls-6"><path class="cls-5" d="M333.65 181.18h9.69v4.92h-9.69z"/></g><g class="cls-6"><path class="cls-5" d="M333.65 192.41h6.66v4.92h-6.66z"/></g><g class="cls-6"><path class="cls-5" d="M333.65 203.65h8.45v4.92h-8.45z"/></g><g class="cls-6"><path class="cls-5" d="M333.65 214.88h4.6v4.92h-4.6z"/></g><g class="cls-6"><path class="cls-5" d="M333.65 226.12h8.92v4.92h-8.92z"/></g><g class="cls-6"><path class="cls-5" d="M333.65 237.36h8.45v4.92h-8.45z"/></g><path class="cls-5" d="M374.53 237.39h3.59v4.92h-3.59z"/><g class="cls-6"><path class="cls-5" d="M363.86 237.38h8.09v4.92h-8.09z"/></g><path class="cls-5" d="M437.76 248.92h16.89v4.92h-16.89z"/><g class="cls-6"><path class="cls-5" d="M429.1 248.91h6.08v4.92h-6.08z"/></g><g class="cls-6"><path class="cls-5" d="M422.39 248.91h4.13v4.92h-4.13z"/></g><g class="cls-6"><path class="cls-5" d="M445.45 260.16h9.2v4.92h-9.2z"/></g><g class="cls-6"><path class="cls-5" d="M431.59 260.15h11.28v4.92h-11.28z"/></g><g class="cls-6"><path class="cls-5" d="M424.88 260.14h4.13v4.92h-4.13z"/></g><g class="cls-6"><path class="cls-5" d="M418.49 260.14h4.13v4.92h-4.13z"/></g><g class="cls-6"><path class="cls-5" d="M447.99 271.39h6.66v4.92h-6.66z"/></g><g class="cls-6"><path class="cls-5" d="M443.13 271.39h2.28v4.92h-2.28z"/></g><g class="cls-6"><path class="cls-5" d="M436.42 271.38h4.13v4.92h-4.13z"/></g><g class="cls-6"><path class="cls-5" d="M430.07 282.62h24.57v4.92h-24.57z"/></g><path class="cls-5" d="M421.41 282.61h6.08v4.92h-6.08z"/><g class="cls-6"><path class="cls-5" d="M447.99 293.86h6.66v4.92h-6.66z"/></g><g class="cls-6"><path class="cls-5" d="M432.37 293.85h13.04v4.92h-13.04z"/></g><g class="cls-6"><path class="cls-5" d="M425.65 293.84h4.13v4.92h-4.13z"/></g><g class="cls-6"><path class="cls-5" d="M441.02 305.09h13.62v4.92h-13.62z"/></g><g class="cls-6"><path class="cls-5" d="M428.59 305.08h9.85V310h-9.85z"/></g><g class="cls-6"><path class="cls-5" d="M419.35 305.07h6.66v4.92h-6.66z"/></g><g class="cls-6"><path class="cls-5" d="M450.05 316.32h4.6v4.92h-4.6z"/></g><g class="cls-6"><path class="cls-5" d="M441.39 316.32h6.08v4.92h-6.08z"/></g><g class="cls-6"><path class="cls-5" d="M429.01 316.31h9.8v4.92h-9.8z"/></g><g class="cls-6"><path class="cls-5" d="M440.55 327.55h14.09v4.92h-14.09z"/></g><path class="cls-5" d="M424.77 327.55h13.21v4.92h-13.21z"/><g class="cls-6"><path class="cls-5" d="M418.06 327.54h4.13v4.92h-4.13z"/></g><g class="cls-6"><path class="cls-5" d="M411.61 327.54h4.13v4.92h-4.13z"/></g><g class="cls-6"><path class="cls-5" d="M446.2 338.78h8.44v4.92h-8.44z"/></g><g class="cls-6"><path class="cls-5" d="M399.17 248.9h11.71v4.92h-11.71z"/></g><g class="cls-6"><path class="cls-5" d="M399.17 260.13h9.2v4.92h-9.2z"/></g><g class="cls-6"><path class="cls-5" d="M399.17 271.36h6.66v4.92h-6.66z"/></g><path class="cls-5" d="M399.17 282.6h9.69v4.92h-9.69z"/><g class="cls-6"><path class="cls-5" d="M399.17 293.83h6.66v4.92h-6.66z"/></g><g class="cls-6"><path class="cls-5" d="M399.17 305.07h8.45v4.92h-8.45z"/></g><g class="cls-6"><path class="cls-5" d="M399.17 316.3h4.6v4.92h-4.6z"/></g><g class="cls-6"><path class="cls-5" d="M399.17 327.53h8.92v4.92h-8.92z"/></g><g class="cls-6"><path class="cls-5" d="M399.17 338.77h8.45v4.92h-8.45z"/></g><g class="cls-6"><path class="cls-5" d="M440.03 338.78h3.59v4.92h-3.59z"/></g><path class="cls-5" d="M429.37 338.78h8.08v4.92h-8.08zM422.68 425.7h13.64v4.5h-13.64z"/><g class="cls-6"><path class="cls-5" d="M413.34 425.69h5.37v4.5h-5.37z"/></g><g class="cls-6"><path class="cls-5" d="M372.26 248.69h16.89v4.92h-16.89z"/></g><g class="cls-6"><path class="cls-5" d="M363.59 248.68h6.08v4.92h-6.08z"/></g><g class="cls-6"><path class="cls-5" transform="rotate(-89.93 358.953 251.134)" d="M356.48 249.07h4.92v4.13h-4.92z"/></g><g class="cls-6"><path class="cls-5" d="M379.94 259.93h9.21v4.92h-9.21z"/></g><g class="cls-6"><path class="cls-5" d="M366.08 259.92h11.28v4.92h-11.28z"/></g><g class="cls-6"><path class="cls-5" d="M359.37 259.91h4.13v4.92h-4.13z"/></g><g class="cls-6"><path class="cls-5" d="M352.98 259.91h4.13v4.92h-4.13z"/></g><g class="cls-6"><path class="cls-5" d="M382.49 271.16h6.66v4.92h-6.66z"/></g><g class="cls-6"><path class="cls-5" d="M377.63 271.16h2.28v4.92h-2.28z"/></g><g class="cls-6"><path class="cls-5" d="M370.92 271.15h4.13v4.92h-4.13z"/></g><g class="cls-6"><path class="cls-5" d="M364.57 282.39h24.58v4.92h-24.58z"/></g><g class="cls-6"><path class="cls-5" d="M355.9 282.38h6.08v4.92h-6.08z"/></g><g class="cls-6"><path class="cls-5" d="M382.49 293.63h6.66v4.92h-6.66z"/></g><path class="cls-5" d="M366.86 293.62h13.05v4.92h-13.05z"/><g class="cls-6"><path class="cls-5" d="M360.14 293.62h4.13v4.92h-4.13z"/></g><g class="cls-6"><path class="cls-5" d="M375.52 304.86h13.63v4.92h-13.63z"/></g><g class="cls-6"><path class="cls-5" d="M363.09 304.86h9.86v4.92h-9.86z"/></g><g class="cls-6"><path class="cls-5" d="M353.84 304.85h6.66v4.92h-6.66z"/></g><g class="cls-6"><path class="cls-5" d="M384.55 316.1h4.6v4.92h-4.6z"/></g><g class="cls-6"><path class="cls-5" d="M375.88 316.1h6.08v4.92h-6.08z"/></g><g class="cls-6"><path class="cls-5" d="M363.5 316.09h9.8v4.92h-9.8z"/></g><g class="cls-6"><path class="cls-5" d="M375.05 327.33h14.1v4.92h-14.1z"/></g><g class="cls-6"><path class="cls-5" d="M359.26 327.33h13.21v4.92h-13.21z"/></g><g class="cls-6"><path class="cls-5" d="M352.54 327.32h4.13v4.92h-4.13z"/></g><g class="cls-6"><path class="cls-5" d="M346.1 327.32h4.13v4.92h-4.13z"/></g><g class="cls-6"><path class="cls-5" d="M380.7 338.57h8.45v4.92h-8.45z"/></g><g class="cls-6"><path class="cls-5" d="M333.65 248.66h11.72v4.92h-11.72z"/></g><path class="cls-5" d="M333.65 259.9h9.21v4.92h-9.21zM333.65 271.13h6.66v4.92h-6.66z"/><g class="cls-6"><path class="cls-5" d="M333.65 282.37h9.69v4.92h-9.69z"/></g><g class="cls-6"><path class="cls-5" d="M333.65 293.6h6.66v4.92h-6.66z"/></g><g class="cls-6"><path class="cls-5" d="M333.65 304.84h8.45v4.92h-8.45z"/></g><g class="cls-6"><path class="cls-5" d="M333.65 316.08h4.6V321h-4.6z"/></g><g class="cls-6"><path class="cls-5" d="M333.65 327.31h8.92v4.92h-8.92z"/></g><g class="cls-6"><path class="cls-5" d="M333.65 338.55h8.45v4.92h-8.45z"/></g><g class="cls-6"><path class="cls-5" d="M374.53 338.56h3.59v4.92h-3.59z"/></g><g class="cls-6"><path class="cls-5" d="M363.86 338.56h8.09v4.92h-8.09z"/></g><path class="cls-5" d="m430.07 410.83 24.58.07v-4.91l-24.58-.08v4.92z"/><g class="cls-6"><path class="cls-5" d="m421.41 410.8 6.08.02v-4.92l-6.08-.02v4.92z"/></g><g class="cls-6"><path class="cls-5" d="m447.99 399.65 6.66.02v-4.92l-6.66-.02v4.92z"/></g><g class="cls-6"><path class="cls-5" d="m432.37 399.6 13.04.04v-4.91l-13.04-.05v4.92z"/></g><path class="cls-5" d="m425.65 399.58 4.14.01v-4.92l-4.14-.01v4.92z"/><g class="cls-6"><path class="cls-5" d="m441.02 388.39 13.63.05v-4.92l-13.63-.04v4.91z"/></g><g class="cls-6"><path class="cls-5" d="m428.59 388.36 9.85.03v-4.92l-9.85-.03v4.92z"/></g><g class="cls-6"><path class="cls-5" d="m419.35 388.33 6.66.02v-4.92l-6.66-.02v4.92z"/></g><g class="cls-6"><path class="cls-5" d="m450.05 377.19 4.6.01v-4.91l-4.6-.02v4.92z"/></g><g class="cls-6"><path class="cls-5" d="m441.38 377.16 6.09.02v-4.91l-6.09-.02v4.91z"/></g><g class="cls-6"><path class="cls-5" d="m429.01 377.12 9.8.04v-4.92l-9.8-.03v4.91z"/></g><g class="cls-6"><path class="cls-5" d="m440.55 365.93 14.1.04v-4.91l-14.1-.05v4.92z"/></g><path class="cls-5" d="m424.77 365.88 13.2.04V361l-13.2-.04v4.92z"/><g class="cls-6"><path class="cls-5" d="m418.06 365.86 4.13.01v-4.92l-4.13-.01v4.92z"/></g><g class="cls-6"><path class="cls-5" d="m411.61 365.83 4.14.02v-4.92l-4.14-.01v4.91z"/></g><g class="cls-6"><path class="cls-5" d="m446.2 354.71 8.45.03v-4.92l-8.45-.02v4.91z"/></g><g class="cls-6"><path class="cls-5" d="M399.17 349.77h9.69v4.92h-9.69z"/></g><g class="cls-6"><path class="cls-5" d="M399.17 361h6.66v4.92h-6.66z"/></g><g class="cls-6"><path class="cls-5" d="M399.17 372.24h8.45v4.92h-8.45z"/></g><g class="cls-6"><path class="cls-5" d="M399.17 383.47h4.6v4.92h-4.6z"/></g><g class="cls-6"><path class="cls-5" d="M399.17 394.71h8.92v4.92h-8.92z"/></g><g class="cls-6"><path class="cls-5" d="M399.17 405.94h8.45v4.92h-8.45z"/></g><g class="cls-6"><path class="cls-5" d="m440.03 354.69 3.59.02v-4.92l-3.59-.01v4.91z"/></g><g class="cls-6"><path class="cls-5" d="m429.37 354.66 8.08.03v-4.92l-8.08-.03v4.92z"/></g><path class="cls-5" d="M364.57 349.57h24.58v4.92h-24.58z"/><g class="cls-6"><path class="cls-5" d="M355.9 349.56h6.08v4.92h-6.08z"/></g><g class="cls-6"><path class="cls-5" d="M382.49 360.81h6.66v4.92h-6.66z"/></g><g class="cls-6"><path class="cls-5" d="M366.86 360.8h13.05v4.92h-13.05z"/></g><g class="cls-6"><path class="cls-5" d="M360.14 360.8h4.13v4.92h-4.13z"/></g><g class="cls-6"><path class="cls-5" d="M375.52 372.04h13.63v4.92h-13.63z"/></g><g class="cls-6"><path class="cls-5" d="M363.09 372.04h9.86v4.92h-9.86z"/></g><g class="cls-6"><path class="cls-5" d="M353.84 372.03h6.66v4.92h-6.66z"/></g><g class="cls-6"><path class="cls-5" d="M384.55 383.28h4.6v4.92h-4.6z"/></g><g class="cls-6"><path class="cls-5" d="M375.88 383.27h6.08v4.92h-6.08z"/></g><g class="cls-6"><path class="cls-5" d="M363.5 383.27h9.8v4.92h-9.8z"/></g><g class="cls-6"><path class="cls-5" d="M375.05 394.51h14.1v4.92h-14.1z"/></g><path class="cls-5" d="M359.26 394.51h13.21v4.92h-13.21z"/><g class="cls-6"><path class="cls-5" d="M352.54 394.5h4.13v4.92h-4.13z"/></g><g class="cls-6"><path class="cls-5" d="M346.1 394.5h4.13v4.92h-4.13z"/></g><g class="cls-6"><path class="cls-5" d="M380.7 405.75h8.45v4.92h-8.45z"/></g><g class="cls-6"><path class="cls-5" d="M333.65 349.56h9.69v4.92h-9.69z"/></g><path class="cls-5" d="M333.65 360.79h6.66v4.92h-6.66z"/><g class="cls-6"><path class="cls-5" d="M333.65 372.03h8.45v4.92h-8.45z"/></g><g class="cls-6"><path class="cls-5" d="M333.65 383.26h4.6v4.92h-4.6z"/></g><g class="cls-6"><path class="cls-5" d="M333.65 394.5h8.92v4.92h-8.92z"/></g><path class="cls-5" d="M333.65 405.74h8.45v4.92h-8.45z"/><g class="cls-6"><path class="cls-5" d="M374.53 405.74h3.59v4.92h-3.59z"/></g><path class="cls-5" d="M363.86 405.74h8.09v4.92h-8.09z"/><g class="cls-6"><path class="cls-5" d="M357.17 425.51h13.65v4.5h-13.65z"/></g><g class="cls-6"><path class="cls-5" d="M347.82 425.5h5.38v4.5h-5.38z"/></g><path class="cls-5" d="M347.82 432.4h13.65v4.5h-13.65z"/><g class="cls-6"><path class="cls-5" d="M365.44 432.4h5.38v4.5h-5.38z"/></g><g class="cls-6"><path class="cls-5" d="M413.34 432.59h13.64v4.5h-13.64z"/></g><g class="cls-6"><path class="cls-5" d="M430.95 432.59h5.37v4.5h-5.37z"/></g></g><path class="cls-7" d="M292.71 310.73c-21.79-23.53-50.33 37.65-47.52 61.78h10.85c10.53-6.09 54.31-42.73 36.67-61.78Z"/><path class="cls-8" d="m250.84 372.63-.85-.39c16.08-35.11 42.13-61.57 42.39-61.84l.66.66c-.26.26-26.19 26.61-42.2 61.57Z"/><path class="cls-8" d="M286.08 344.48c-6.95 2.19-21.83 4.08-22.53 4.17l-.11-.92c.19 0 18.8-2.38 24.2-4.81l.38.85a16.66 16.66 0 0 1-1.94.71ZM276.72 328.12c-2.6-7.61-3.15-19.78-3.15-19.9h.93c0 .12.54 12.16 3.1 19.63ZM254.69 333c-6.62 13.84-10.64 29.7-9.5 39.48 15.13-15.69 11.91-36.88 9.5-39.48Z"/><path class="cls-7" d="M237 294.44c-19.31-9.44-13.35 47.56 3.67 78.08h7.9c3.88-7.66 4.02-70.43-11.57-78.08Z"/><path class="cls-8" d="m245.65 372.43-.91.16c-3.08-16.93-11.46-71.5-11.54-72l.92-.14c.08.55 8.45 55.06 11.53 71.98Z"/><path class="cls-8" transform="rotate(-40.21 237.322 348.631)" d="M236.85 342.09h.93v13.1h-.93z"/><path class="cls-8" transform="rotate(-39.96 243.413 327.174)" d="M237.2 326.72h12.48v.93H237.2z"/><path class="cls-9" d="M277.46 372.47v4.67a27.75 27.75 0 0 1-4.54 15.17l-1.18 1.84-9.44 59.68-22.69.07-7-59.64-1.2-1.83a27.82 27.82 0 0 1-4.61-15.15v-4.67Z"/><path class="cls-8" d="M239.31 454.24v-.3l-7-59.56-1.15-1.77a28.29 28.29 0 0 1-4.68-15.33v-5l51.37-.14v5a28.17 28.17 0 0 1-4.59 15.36l-1.15 1.78-9.47 59.89ZM227.11 373v4.33a27.5 27.5 0 0 0 4.56 15l1.25 2 7 59.33 22.1-.06 9.4-59.46 1.23-1.9a27.64 27.64 0 0 0 4.48-15v-4.34Z"/><path class="cls-8" transform="rotate(-.16 253.725 376.358)" d="M239.43 383.82h37.76v.93h-37.76z"/><path class="cls-8" transform="rotate(-.16 242.952 397.83)" d="M232.38 393.73h13.51v.93h-13.51z"/><path class="cls-8" d="M262.71 454.3h-1.24v-.93h.45l9.39-59.37 1.23-1.92a27.37 27.37 0 0 0 4.46-14.93v-4.21l-50.23.13v-.92l51.15-.14v5.13a28.26 28.26 0 0 1-4.61 15.42l-1.13 1.76ZM507.32 59.33a17.82 17.82 0 0 0-4.92.52 20.9 20.9 0 0 0 .3-2.64A19.34 19.34 0 0 0 471 41.63 28.27 28.27 0 0 0 416.48 51a27.6 27.6 0 0 0 0 2.88A20.11 20.11 0 1 0 406 91.57l101.78 3.62v-.09a17.91 17.91 0 0 0-.5-35.77Z"/><path class="cls-7" d="M517.26 76.8a17.92 17.92 0 0 1-16.14 17.83v.08H399.27a20.11 20.11 0 1 1 0-40.22h.36a20 20 0 0 1 8.78 2.21 27.5 27.5 0 0 1-.14-2.88c0-.8 0-1.58.09-2.36a28.29 28.29 0 0 1 28.18-25.92q.9 0 1.77.06a28.28 28.28 0 0 1 24.13 16.89 19.26 19.26 0 0 1 10.35-4.74 18.74 18.74 0 0 1 2.5-.17 19.13 19.13 0 0 1 5.22.72 19.21 19.21 0 0 1 13.93 21.29 17.64 17.64 0 0 1 4.9-.7 17.91 17.91 0 0 1 17.92 17.91Z"/><path class="cls-8" d="M501.34 94.94H399.27a20.34 20.34 0 1 1 0-40.68h.37a20 20 0 0 1 8.51 2c-.07-.83-.11-1.67-.11-2.5s0-1.59.1-2.38a28.64 28.64 0 0 1 28.4-26.12c.6 0 1.2 0 1.79.06a28.36 28.36 0 0 1 24.2 16.75 19.6 19.6 0 0 1 12.77-4.77 19.61 19.61 0 0 1 5.25.71 19.64 19.64 0 0 1 14.3 18.86 20.75 20.75 0 0 1-.16 2.34 17.9 17.9 0 0 1 4.63-.61 18.13 18.13 0 0 1 2 36.16ZM399.27 54.71a19.89 19.89 0 1 0 0 39.78h101.62v-.07h.2a17.69 17.69 0 0 0-1.74-35.29 17.91 17.91 0 0 0-4.84.69l-.33.1.05-.34a20.45 20.45 0 0 0 .2-2.62 19.19 19.19 0 0 0-13.94-18.42 19.27 19.27 0 0 0-7.63-.54 19 19 0 0 0-10.23 4.69l-.23.21-.13-.29a27.92 27.92 0 0 0-23.97-16.78c-.58 0-1.17-.06-1.76-.06a28.18 28.18 0 0 0-28 25.71 26 26 0 0 0-.1 2.34c0 1 .05 1.91.14 2.86l.05.41-.37-.19a19.72 19.72 0 0 0-8.68-2.19Z"/><path class="cls-9" d="M446.94 66a25.14 25.14 0 0 0-10.23 2.17 2.79 2.79 0 0 0-1.28 4 2.82 2.82 0 0 0 3.57 1.08 19.53 19.53 0 0 1 15.85 0 2.82 2.82 0 0 0 3.59-1.16 2.79 2.79 0 0 0-1.28-4A25.15 25.15 0 0 0 446.94 66ZM446.94 51.09a39.81 39.81 0 0 0-17.8 4.15 2.8 2.8 0 0 0-1.14 3.91 2.78 2.78 0 0 0 3.65 1.12 34.5 34.5 0 0 1 30.65 0 2.78 2.78 0 0 0 3.65-1.12 2.8 2.8 0 0 0-1.18-3.91 39.88 39.88 0 0 0-17.83-4.15ZM450.63 82.56a3.69 3.69 0 1 1-3.69-3.69 3.69 3.69 0 0 1 3.69 3.69Z"/><path class="cls-8" d="M270.11 46a19.48 19.48 0 0 0-5.32.57 20.87 20.87 0 0 0-33.9-19.69A30.54 30.54 0 0 0 172 37a29.23 29.23 0 0 0 0 3.11 21.73 21.73 0 1 0-11.33 40.7l110 3.91v-.09a19.36 19.36 0 0 0-.56-38.63Z"/><path class="cls-7" d="M280.85 64.89a19.35 19.35 0 0 1-17.45 19.26v.1h-110a21.74 21.74 0 0 1 0-43.47h.38a21.63 21.63 0 0 1 9.49 2.38c-.1-1-.16-2.06-.16-3.11 0-.86 0-1.71.11-2.55a30.55 30.55 0 0 1 30.44-28q1 0 1.92.06a30.55 30.55 0 0 1 26.07 18.26 20.78 20.78 0 0 1 11.19-5.13 20 20 0 0 1 2.7-.18 20.93 20.93 0 0 1 5.64.77 20.71 20.71 0 0 1 15 23 19.32 19.32 0 0 1 24.65 18.6Z"/><path class="cls-8" d="M263.64 84.49H153.37a22 22 0 1 1 0-43.95h.39a21.66 21.66 0 0 1 9.2 2.21c-.08-.9-.12-1.81-.12-2.7s0-1.72.11-2.57a30.94 30.94 0 0 1 30.68-28.21c.64 0 1.29 0 1.93.06a30.65 30.65 0 0 1 26.15 18.1 20.93 20.93 0 0 1 11.07-5 21.2 21.2 0 0 1 8.4.59 21.21 21.21 0 0 1 15.44 20.37 19.87 19.87 0 0 1-.17 2.53 19.59 19.59 0 1 1 7.15 38.41ZM153.37 41a21.5 21.5 0 0 0 0 43h109.79v-.08h.22a19.11 19.11 0 0 0-1.88-38.13 18.84 18.84 0 0 0-5.23.75l-.36.1.05-.37a20.46 20.46 0 0 0-14.84-22.73A20.68 20.68 0 0 0 221.78 28l-.24.22-.14-.31a30.19 30.19 0 0 0-25.86-18.1c-.64 0-1.28-.06-1.91-.06a30.46 30.46 0 0 0-30.2 27.78c-.07.84-.1 1.69-.1 2.53 0 1 0 2.06.15 3.09l.05.44-.4-.2a21.25 21.25 0 0 0-9.38-2.39Z"/><path class="cls-9" d="M204.87 53.18a27.26 27.26 0 0 0-11.06 2.34 3 3 0 0 0-1.38 4.29 3 3 0 0 0 3.88 1.24 21.17 21.17 0 0 1 17.13 0 3 3 0 0 0 3.88-1.24 3 3 0 0 0-1.39-4.29 27.19 27.19 0 0 0-11.06-2.34ZM204.87 37.11a43.13 43.13 0 0 0-19.23 4.48 3 3 0 0 0-1.28 4.24 3 3 0 0 0 3.95 1.21 37.26 37.26 0 0 1 33.11 0 3 3 0 0 0 3.95-1.21 3 3 0 0 0-1.28-4.24 43.14 43.14 0 0 0-19.22-4.48ZM208.86 71.11a4 4 0 1 1-4-4 4 4 0 0 1 4 4Z"/><path class="cls-8" d="M56.11 453.52h422.93v1.02H56.11zM394.46 280.75h-2v-12h2Zm0-24h-2v-12h2Zm0-24h-2v-7.43a7.77 7.77 0 0 0-1-3.86l1.73-1a9.75 9.75 0 0 1 1.3 4.86Zm-12.56-15.21h-12v-2h12Zm-24 0h-12v-2h12Zm-24-2.74a9.69 9.69 0 0 1-3-7v-4.93h2v4.93a7.74 7.74 0 0 0 2.38 5.61Zm-1-24h-2v-12h2Zm0-24h-2v-12h2Zm0-24h-2v-3.1h2ZM230 248h-2v-12h2Zm0-24h-2v-12h2Zm.43-23.55-1.85-.77a7.45 7.45 0 0 1 6.88-4.57h4.43v2h-4.43a5.46 5.46 0 0 0-5 3.36Zm55.84-3.34h-10.35v-2h10.38a5.54 5.54 0 0 0 1.35-.16l.5 1.93a7.16 7.16 0 0 1-1.85.25Zm-22.38 0h-12v-2h12Zm29.85-10.92h-2v-12h2Zm0-24h-2v-12h2Zm0-24h-2V130h2Z"/><path class="cls-8" d="M436.08 82.09a38.39 38.39 0 0 0-10.45 1.11 42.78 42.78 0 0 0 .63-5.61A41 41 0 0 0 359 44.52a60 60 0 0 0-115.8 19.93q-.1 3.1.09 6.13a42.27 42.27 0 0 0-19.22-5.38 42.7 42.7 0 0 0-3 85.35l216.09 7.69v-.19a38 38 0 0 0-1.05-76Z"/><path class="cls-9" d="M449.4 119.2a38 38 0 0 1-34.29 37.8v.18H198.89a42.7 42.7 0 1 1 0-85.4h.76a42.39 42.39 0 0 1 18.65 4.68 58.85 58.85 0 0 1-.32-6.12c0-1.68.08-3.35.21-5a60 60 0 0 1 59.82-55c1.27 0 2.53 0 3.77.12A60.07 60.07 0 0 1 333 46.36a40.91 40.91 0 0 1 22-10.08 40.48 40.48 0 0 1 5.31-.35 41 41 0 0 1 11.09 1.52 41.09 41.09 0 0 1 30 39.57 41.91 41.91 0 0 1-.43 5.63 37.62 37.62 0 0 1 10.41-1.48 38 38 0 0 1 38.02 38.03Z"/><path class="cls-8" d="M415.4 157.51H198.89a43 43 0 1 1 0-86h.77A42.51 42.51 0 0 1 218 76c-.17-1.88-.26-3.77-.26-5.63 0-1.66.07-3.35.21-5A60.32 60.32 0 0 1 278 10.08c1.26 0 2.54 0 3.79.12a60.06 60.06 0 0 1 51.32 35.68A41.18 41.18 0 0 1 355 36a41.62 41.62 0 0 1 16.48 1.17A41.49 41.49 0 0 1 401.68 77a39.7 39.7 0 0 1-.38 5.23 38.31 38.31 0 1 1 14.1 75.05ZM198.89 72.1a42.42 42.42 0 0 0 0 84.84h215.94v-.16h.25a37.74 37.74 0 1 0-14-73.83l-.42.12.06-.43a41.34 41.34 0 0 0 .38-5.64 40.93 40.93 0 0 0-29.75-39.29A41 41 0 0 0 355 36.56a40.52 40.52 0 0 0-21.82 10l-.3.27-.16-.37a59.47 59.47 0 0 0-51-35.69c-1.25-.08-2.51-.12-3.76-.12a60 60 0 0 0-59.53 54.76c-.14 1.65-.21 3.32-.21 5 0 2 .11 4.07.31 6.09l.06.53-.47-.24a42 42 0 0 0-18.52-4.66Z"/><path class="cls-7" d="m337.69 127 4.21-13.78-8.46-3.41a36.56 36.56 0 0 0-1.21-12.58l7.65-5-6.76-12.71-8.39 3.57a36.07 36.07 0 0 0-9.75-8l1.91-8.92L303.11 62l-3.41 8.46a36.32 36.32 0 0 0-12.58 1.21l-5-7.65-12.7 6.76 3.58 8.36a36.07 36.07 0 0 0-8 9.75L256.07 87l-4.21 13.78 8.46 3.41a36.32 36.32 0 0 0 1.21 12.58l-7.65 5 6.76 12.7 8.39-3.57a36.33 36.33 0 0 0 9.74 8l-1.9 8.92 13.78 4.18 3.41-8.46a36.21 36.21 0 0 0 12.57-1.21l5 7.65 12.71-6.76-3.57-8.39a36.33 36.33 0 0 0 8-9.74Zm-48.41 4.85a26 26 0 1 1 32.46-17.26 26 26 0 0 1-32.46 17.26Z"/><path class="cls-10" d="m257.49 103.37-6.02-2.42 3.18-10.39.6.18-3 9.83 5.48 2.21-.24.59zM277.18 147.87l-.62-.14 1.85-8.67a29.94 29.94 0 0 1-7.62-5.85l.47-.43a29.34 29.34 0 0 0 7.65 5.82l.23.11ZM311.53 128.85l-.37-.52c16.74-11.75 10-29.65 9.95-29.83l.6-.23c.07.18 6.96 18.55-10.18 30.58ZM333.22 104.2a57.53 57.53 0 0 0-1.3-6.88l-.06-.23 2.81-1.82.35.54-2.43 1.57a58.34 58.34 0 0 1 1.26 6.74Z"/><path class="cls-8" d="M294.59 151.38 280.25 147l1.91-9a35 35 0 0 1-9.49-7.82l-8.44 3.59-7-13.23 7.7-5a36.63 36.63 0 0 1-1.18-12.24l-8.51-3.43 4.38-14.34 9 1.92c.67-1.16 4-6.77 7.81-9.51l-3.58-8.42 13.22-7 5 7.69A30.05 30.05 0 0 1 303.25 69l3.43-8.51L321 64.9l-1.91 9a34 34 0 0 1 9.49 7.82l8.42-3.61 7 13.23-7.69 5a32.07 32.07 0 0 1 1.18 12.25l8.5 3.43-4.38 14.33-9-1.91a32.52 32.52 0 0 1-7.83 9.49l3.6 8.44-13.23 7-5-7.68a28.2 28.2 0 0 1-12.15 1.18ZM281 146.56l13.23 4.05 3.39-8.42h.25a27 27 0 0 0 12.42-1.2l.24-.1 5 7.64 12.2-6.49-3.55-8.35.18-.15a31.85 31.85 0 0 0 8-9.64l.11-.23 8.88 1.9 4-13.23-8.41-3.4v-.23a30.9 30.9 0 0 0-1.2-12.45l-.08-.23 7.62-4.94-6.49-12.2-8.35 3.55-.15-.19c-3.58-4.75-9.59-7.93-9.65-8l-.21-.11 1.89-8.87-13.23-4.05-3.39 8.41h-.23A29.09 29.09 0 0 0 291 70.88l-.24.09-4.94-7.63-12.22 6.49 3.56 8.36-.21.15C272.83 81.18 269 87.92 269 88l-.11.2-8.89-1.9-4 13.23 8.41 3.39v.23a35.43 35.43 0 0 0 1.2 12.46l.07.23-7.68 4.94 6.49 12.2 8.35-3.55.15.19a34.47 34.47 0 0 0 9.65 8l.21.11Z"/><path class="cls-8" d="M300.64 132.28A26.34 26.34 0 1 1 327 106a26.37 26.37 0 0 1-26.36 26.28Zm0-52a25.71 25.71 0 1 0 25.7 25.72 25.74 25.74 0 0 0-25.7-25.76Z"/><path class="cls-11" d="M52 259.18c18.33-25.63 38.71-12.4 43.9-5.12C143.11 320.34 214 333.63 221 375c3.79 22.37-12.51 78.4-110.25 79.2C8.74 455-15.08 386.55 8.23 342.81S33.61 284.84 52 259.18Z"/><g style="opacity:.3"><path d="M60.68 306.76c4.45-40 26.8-34.92 58.82-7.12s41.62 41.41 62.65 42.47 21.23 15.08 17.43 18.63c-20.9 19.54-77.74 22.72-114.71 16-19.13-3.46-37.44-28.35-52-26.61.03.02 24.2-10.97 27.81-43.37Z" style="fill:#212121"/></g><path class="cls-8" d="M100.53 452.07c16.82 0 28.48-13 33.78-25.22 6.78-15.58 5-31.4-4.62-40.31-8.19-7.61-18.58-8.85-28.64-10.05-15.45-1.84-30-3.59-38.25-26.16-13.63-37.53 8.08-99.72 8.3-100.33l-.84-.27c-.22.63-22 63.1-8.3 100.89 8.38 23.07 23.94 24.93 39 26.72 9.91 1.19 20.15 2.41 28.13 9.82 9.32 8.67 11.05 24.13 4.41 39.39-5.19 11.94-16.58 24.7-32.95 24.7Z"/><path class="cls-8" d="M182.28 436.59c16.25-5.57 23.3-25.72 23-42.08-.28-14.17-5.95-30.93-21-35.5-10.36-3.14-18.24-3.25-25.2-3.35-12.58-.18-23.45-.34-44.21-17.8C82.88 311 82.59 251.56 82.59 251h-.89c0 .61.28 60.36 32.56 87.52 21 17.68 32 17.84 44.79 18 7.23.1 14.7.21 24.94 3.31 14.6 4.43 20.1 20.84 20.38 34.71.32 16.08-6.55 35.85-22.39 41.28ZM86.3 450a99.25 99.25 0 0 1-12.83-2.38 115.56 115.56 0 0 1-12.41-3.82 93.21 93.21 0 0 1-22.72-11.91 67 67 0 0 1-17.25-18.18 62.32 62.32 0 0 1-8.63-23c-.15-1-.36-2-.46-3l-.34-3.05c-.13-2.05-.29-4.09-.27-6.14s.06-4.09.13-6.14.28-4.09.57-6.12a119.2 119.2 0 0 1 2.1-12.13c1-4 2-8 3.26-11.92a201.24 201.24 0 0 1 9-23.13c3.41-7.56 7.21-15 11.27-22.25-4.23 7.17-8.16 14.54-11.72 22.06A200.42 200.42 0 0 0 16.79 342a127 127 0 0 0-5.51 24.15c-.3 2-.42 4.1-.59 6.16s-.22 4.12-.16 6.19.14 4.13.26 6.19l.33 3.08c.1 1 .31 2.05.46 3.07a62.94 62.94 0 0 0 8.82 23.23 66.29 66.29 0 0 0 17.52 18.3 94.22 94.22 0 0 0 23 11.79 117.9 117.9 0 0 0 12.52 3.63A100.1 100.1 0 0 0 86.3 450Z"/><path class="cls-14" d="M148.6 312.1c10.46-7.91 58.56-34 72.57-36.05 21.38-3.18 33.89 19.48 29 32.5-9 24.27-75.4 48-88.34 48-37.59.06-23.68-36.55-13.23-44.45Z"/><path class="cls-8" d="M201 354.13c-5.68 6.19-15.49 10-26.6 12.39-2.21.46-4.47.87-6.75 1.22-.73.12-1.47.22-2.21.33-21.09 2.93-44 1.6-51.43 1-13.37-1-21.41-8.95-23.85-18.35-.09-.33-.17-.66-.23-1a24.86 24.86 0 0 1-.49-7.46c.74-8.75 6-17.36 16-21.94l.1-.05q2.22-1 4.41-1.91c1.88-.77 3.75-1.48 5.59-2.12l.26-.09q3-1.06 6-1.89c.32-.1.63-.19 1-.27 1.48-.42 2.94-.79 4.38-1.12a104.54 104.54 0 0 1 14.36-2.32c1.46-.14 2.9-.24 4.31-.31l1.32-.07h6.75c3.09.07 6 .27 8.85.57l.86.08a130.22 130.22 0 0 1 13.04 2.18c4 .84 7.32 1.71 10 2.37a24.83 24.83 0 0 1 15.4 10.48c6.05 9.15 5.07 21.56-1.07 28.28Z"/><path class="cls-9" d="m228.83 399.91 12.36 27.72-20.59 4.59-11.89-20.84 20.12-11.47z"/><path class="cls-8" d="m220.45 432.56-12.14-21.3L229 399.48l12.64 28.36Zm-11.33-21.07 11.63 20.39 20-4.47-12.08-27.08Z"/><path class="cls-7" d="M221.92 427.13c1.49-.18 5.46 1.92 6.77-4.62s8.26-8 8.26-8 4.59 10.92 7.43 16.46 24.28 11.75 29.17 14.37 3.13 8.31 3.13 8.31H220.1c-1.56-16.33-2.87-23.81-2.87-23.81a6.55 6.55 0 0 1 4.69-2.71Z"/><path class="cls-14" d="M231.06 449.6H230a14.67 14.67 0 0 0-9.41-13.78l.35-1c.06.02 10.12 3.67 10.12 14.78Z"/><path class="cls-9" d="M276.68 453.61H220.1c-.06-1.35-.42-3.14-.36-5.17h56.72a8.49 8.49 0 0 1 .22 5.17Z"/><path class="cls-8" d="M276.91 453.91h-57.1v-.28c0-.48-.08-1-.15-1.6a28 28 0 0 1-.21-3.6v-.29h57.21l.07.18a8.64 8.64 0 0 1 .24 5.38Zm-56.53-.59h56.07a8.19 8.19 0 0 0-.2-4.58H220a24.29 24.29 0 0 0 .21 3.22c.09.48.14.94.17 1.36Z"/><path class="cls-14" d="M231.68 421.58c0 .06 3.38 6.28 4.54 11.2 1.09 4.59 12 6.9 13.24 7.16l6.52-1.79.28 1-6.75 1.85h-.12c-.53-.09-12.9-2.46-14.21-8s-4.48-10.94-4.54-11.23Z"/><path class="cls-14" transform="rotate(-18.92 246.358 436.056)" d="M243.28 435.6h6.24v1.07h-6.24z"/><path class="cls-14" transform="rotate(-18.92 241.486 432.53)" d="M238.41 432.04h6.24v1.07h-6.24z"/><path class="cls-8" d="M239.64 407.71s-1.31 1.94-5.35 4.44c-.66.41-1.41.84-2.23 1.28a70.58 70.58 0 0 1-18.56 6.32c-.89.19-1.81.37-2.76.55-3.29.63-6.92 1.17-10.94 1.6 0 0-16.18-28.18-27.28-46.32-1.87-3.06-3.55-5.74-4.9-7.84l-.94-1.43a12.24 12.24 0 0 1-1.81-5.1c-2.36-15.95 15.68-46.7 34.32-38.07a9.51 9.51 0 0 1 2.92 2.67c3.6 4.43 8.46 13.53 13.53 24.19 12.3 25.83 24 57.71 24 57.71Z"/><path class="cls-14" d="M202.66 417.32c-5-7-18.93-32.89-26.8-47.72a15.14 15.14 0 0 0-12.17-8l-33.24-2.75.08-1 33.25 2.75a16.17 16.17 0 0 1 13 8.57c7.85 14.8 21.77 40.66 26.72 47.59Z"/><path class="cls-9" d="M236.64 254.19a133.92 133.92 0 0 0-13-8.55l-.22-.09-.23-.13h-.07c-1.53-.5-6.35-1.4-12.53 4.26-7.52 6.9-12 7.81-12 7.81l.12.18c-10.47 4.21-29.14 7.75-39.66 12.51-11.8 5.34-9.44 35.27 10.83 24.77 9.06-4.7 26.74-19.11 37.51-28.19 2.29-.37 5.83-1.42 6.71-4.37a21.45 21.45 0 0 1 3.09-3.12c.35-.1 2.12.77 4.08 2.29 1.54 1.2 1.84 1.73 3.32.46a39.61 39.61 0 0 0 4.9-4.61c.56-1.09-5.74-8.3-5.74-8.3s7.71 6.32 11.57 7c1.02.19 2.11-1.31 1.32-1.92Z"/><path class="cls-8" d="M162.11 297.45a9.29 9.29 0 0 1-5.24-1.51c-3.65-2.43-5.61-7.63-5.13-13.58s3.26-10.64 7.26-12.44c5.72-2.59 13.86-4.82 21.73-7 6.61-1.82 12.86-3.53 17.61-5.4l-.17-.24.43-.09c.05 0 4.54-1 11.9-7.74 6.08-5.58 10.86-4.94 12.72-4.35h.1l.35.2.19.08.34.17a129.44 129.44 0 0 1 12.61 8.45 1.06 1.06 0 0 1 .26 1.35 1.77 1.77 0 0 1-1.77 1.09c-2.63-.47-6.9-3.41-9.5-5.35 2 2.47 4.42 5.64 4 6.49-.1.2-.41.81-5 4.7-1.51 1.29-2.05.85-3.24-.09l-.45-.36a12.39 12.39 0 0 0-3.83-2.24 17.07 17.07 0 0 0-2.3 2.33l-.6.66c-1 3.06-4.66 4.12-6.84 4.49-10.09 8.5-28.31 23.4-37.51 28.17a17.39 17.39 0 0 1-7.92 2.21Zm37-39.79.09.14-.34.13a178.43 178.43 0 0 1-18 5.56c-7.85 2.16-16 4.38-21.65 7-3.78 1.71-6.42 6.3-6.88 12s1.46 10.78 4.88 13c3.18 2.12 7.54 1.85 12.59-.77 9.17-4.75 27.4-19.68 37.45-28.15l.07-.06h.07c2.06-.33 5.63-1.31 6.48-4.16l.07-.11.64-.71c1.45-1.6 2.18-2.37 2.58-2.49.6-.2 2.71 1.07 4.34 2.33l.45.37c1.15.92 1.36 1.08 2.51.1 3.88-3.32 4.69-4.26 4.83-4.52.23-.63-2.78-4.63-5.71-8l.4-.41c.08.06 7.7 6.28 11.44 7a1.24 1.24 0 0 0 1.15-.76.53.53 0 0 0-.09-.66 129.76 129.76 0 0 0-12.93-8.53l-.31-.18h-.09c-1.32-.43-6.11-1.42-12.24 4.2-6.35 5.68-10.52 7.29-11.81 7.68Z"/><path class="cls-15" d="m225.4 261.39-6.49-6.73a70.35 70.35 0 0 1 6.49 6.73ZM227.53 259.51l-7-8.53a84.69 84.69 0 0 1 7 8.53Z"/><path class="cls-9" d="M173.73 249.15s4.42 23.49 4.36 28c-.15 10.06-16.36 22.7-23.2 16s-14.92-25.13-16-41.83 29.79-21.96 34.84-2.17Z"/><path class="cls-8" d="M159.74 295.38a7 7 0 0 1-5.05-1.94c-6.88-6.68-15-25.16-16.12-42-.57-8.62 7.07-13.81 14.42-15 8.52-1.36 18.31 2 21 12.64.18 1 4.43 23.57 4.36 28.1-.1 6.87-7.17 14.38-13.72 17.09a12.92 12.92 0 0 1-4.89 1.11Zm-3.18-58.65a21.22 21.22 0 0 0-3.48.28c-7.1 1.13-14.48 6.11-13.93 14.37 1.11 16.73 9.14 35 15.94 41.65 2.14 2.08 5.45 2.34 9.34.73 6.25-2.59 13.27-10 13.37-16.57.07-4.44-4.25-27.41-4.35-28-2.26-8.81-9.62-12.46-16.89-12.46Z"/><path class="cls-8" d="m175.87 265.7-3.07-16.26.8-.16 2.98 16.06-.71.36z"/><path class="cls-2" d="M148.59 201.91c-5.44.09-11.78 2.2-15.15 15s-.87 37.95 4.78 56.67c0 0 29.74 3.35 40.69-14.56 0 0-8.75-32.82-12.54-43.14s-11.78-14.07-17.78-13.97Z"/><path class="cls-8" d="M143.64 274.09a53.7 53.7 0 0 1-5.46-.24h-.19l-.05-.18c-5.91-19.6-8-44.56-4.78-56.82 3.54-13.46 10.5-15.12 15.43-15.21h.23c5.88 0 14 3.69 17.82 14.15 3.75 10.21 12.46 42.84 12.55 43.17v.12l-.06.1c-8.02 13.15-26.31 14.91-35.49 14.91Zm-5.21-.79c2.55.24 29.85 2.36 40.17-14.33-.58-2.18-8.87-33.13-12.5-43-3.74-10.18-11.58-13.78-17.28-13.78h-.22c-5.14.08-11.48 1.84-14.88 14.77-3.2 12.15-1.13 36.86 4.71 56.34Z"/><path class="cls-8" d="M147.43 254.59a18.56 18.56 0 0 1-11.82-17.93h.81a17.77 17.77 0 0 0 11.27 17.15Z"/><path class="cls-8" d="M151.26 274.1a59.7 59.7 0 0 1-13 .2h-.21l-.1-.18c-.13-.23-12.5-23.36-9.8-44.71l.81.1c-2.55 20.08 8.44 41.8 9.6 44 1.57.16 11.6 1 21.16-2l.25.77a47.84 47.84 0 0 1-8.71 1.82Z"/><path class="cls-7" d="M167.78 222.46c4.7 17.32.68 71 6.15 78.89 0 0-6.48 13.8-23.8 9.39-27-6.87-50 49.74-71.64 38.72-8.81-58.77 3.65-133.46 23.24-145.17 19.93-11.89 57.51-13.29 66.05 18.17Z"/><path class="cls-8" d="m172.44 287 .78-.13a123.34 123.34 0 0 1-1.77-20.87c.23-9.62-3.17-39.66-3.2-40l-.78.09c0 .3 3.43 30.28 3.19 39.86a125.42 125.42 0 0 0 1.78 21.05Z"/><path class="cls-9" d="m141.47 183.27-1.85 15.61c-.77 1.46-4.87 9.05-19.6-1.17l3.61-22.71a164 164 0 0 0 17.84 8.27Z"/><path class="cls-8" d="M132.78 203.25c-3.51 0-7.84-1.78-12.92-5.3l-.15-.11 3.7-23.25.36.2a161.52 161.52 0 0 0 17.81 8.21l.2.08-1.91 15.92a7.42 7.42 0 0 1-4.93 4 8.88 8.88 0 0 1-2.16.25Zm-12.45-5.67c6 4.12 10.85 5.76 14.48 4.86a6.85 6.85 0 0 0 4.53-3.65l1.82-15.34a170.33 170.33 0 0 1-17.31-8Z"/><path class="cls-8" d="M139.71 197.52s-11 .74-17.71-11.47c0 0 1-3.77 1-3.74 11 7.57 19.14 5.76 16.71 15.21Z"/><path class="cls-9" d="M138.67 195.82c-5.18-.2-14.39-7.57-16.33-12.37-.69-1.72-.25-6.19.51-8.33 2.36-6.72 4.29-12.82 9.62-14.5 2.24-.71 7.81.15 9.84.64 6.69 1.63 7.84 7.09 7.66 14-.21 7.68-2.17 20.93-11.3 20.56Z"/><path class="cls-8" d="M139 196.12h-.37c-5.43-.22-14.66-7.78-16.58-12.56-.76-1.88-.23-6.47.49-8.53l.32-.89c2.28-6.51 4.26-12.13 9.49-13.79 2.41-.75 8.26.22 10 .64 7.21 1.76 8.05 7.89 7.87 14.25-.11 4.13-.88 14.22-5.64 18.68a8 8 0 0 1-5.58 2.2Zm-.35-.58a7.43 7.43 0 0 0 5.54-2c4.6-4.31 5.35-14.21 5.46-18.27.16-6.12-.62-12-7.44-13.68-2-.47-7.52-1.33-9.69-.65-5 1.57-6.89 7.07-9.12 13.43l-.31.89c-.77 2.2-1.15 6.53-.51 8.13 1.83 4.53 10.93 12 16.07 12.2Z"/><path class="cls-8" d="M142.49 184.4c.5-.12 3-.76 3.41-1.9a1 1 0 0 0-.17-1 8.42 8.42 0 0 1-1.17-6.25 3.59 3.59 0 0 1 3.89-.77l.28-.73a4.44 4.44 0 0 0-4.83 1l-.06.08v.09c0 .16-.92 4 1.29 7 .1.13.09.21.06.27-.19.55-1.81 1.16-2.85 1.4Z"/><path class="cls-9" d="M126.64 175.88a4.84 4.84 0 1 1-4.67-5 4.83 4.83 0 0 1 4.67 5Z"/><path class="cls-8" d="M121.81 180.85h-.17a5.14 5.14 0 0 1-5-5.3 5.09 5.09 0 0 1 1.66-3.55 5 5 0 0 1 3.7-1.4 5.13 5.13 0 0 1 5 5.29 5.14 5.14 0 0 1-5.12 5Zm0-9.68a4.55 4.55 0 1 0 4.56 4.7 4.56 4.56 0 0 0-4.4-4.7Z"/><path class="cls-8" d="M121.14 179.13a1.29 1.29 0 0 0 .75-.26c.63-.47.34-1.17.12-1.69s-.31-.87-.08-1.07a3.35 3.35 0 0 1 .46-.31c.46-.29 1-.61 1-1.16a1.34 1.34 0 0 0-.44-1.08 2.65 2.65 0 0 0-2.79-.68l.27.73a1.89 1.89 0 0 1 1.94.48.69.69 0 0 1 .24.44c0 .19-.39.42-.68.6a4.76 4.76 0 0 0-.57.39c-.69.61-.35 1.43-.12 2s.24.68.13.76c-.52.39-1.45-.44-1.46-.45l-.54.57a2.7 2.7 0 0 0 1.77.73ZM143 187.17a14.13 14.13 0 0 0 2.6-.32l-.19-.76s-4 .93-7.14-.55l-.33.71a11.23 11.23 0 0 0 5.06.92ZM135.87 176.46a1.36 1.36 0 0 0 0 .2 1.29 1.29 0 0 0 1.24 1.33 1.3 1.3 0 0 0 1.33-1.25 1.26 1.26 0 0 0-.26-.8 8.56 8.56 0 0 1-2.31.52ZM145.18 176.77a1.23 1.23 0 0 0 0 .2 1.27 1.27 0 0 0 1.24 1.32 1.29 1.29 0 0 0 1.33-1.24 1.24 1.24 0 0 0-.26-.8 8.47 8.47 0 0 1-2.31.52ZM134.41 174.53c4.06-1.92 5.14-.2 5.15-.19l.68-.38c-.05-.1-1.4-2.4-6.17-.14ZM140.89 212.75c6-.62 8.5-6.42 8.6-6.67l-.73-.29c0 .05-2.38 5.61-7.95 6.18ZM150.3 297.66v-.78c-.18 0-17.69-1.07-22.83-16.13l-.74.26c5.35 15.56 23.39 16.64 23.57 16.65Z"/><path class="cls-8" d="m128.32 170.51-1.49 5.58a6.41 6.41 0 0 1-1.85-.16c.19-5.76-4.64-4.84-4.64-4.84-4.12-6.85 2.3-17.73 7.33-17.14 0 0 4.26-6.64 14.8-3.25s9.27 9.93 9.27 9.93 2.93 1.33 2.34 6.42-4.24 10.33-4.24 10.33l.17-4.48s-10.28-1.72-15.5-8.41c-1.58 5.62-6.19 6.02-6.19 6.02Z"/><path class="cls-8" d="M138.44 177.14a1.37 1.37 0 1 1-1.07-1.62 1.37 1.37 0 0 1 1.07 1.62ZM147.79 177.26a1.37 1.37 0 1 1-1.07-1.62 1.37 1.37 0 0 1 1.07 1.62ZM76.14 294h-.72c.71-38.8 7.36-60.91 12.82-72.63 5.94-12.77 11.66-16.26 11.9-16.41l.37.62c-.23.1-23.02 14.56-24.37 88.42Z"/><path class="cls-9" d="M155.21 288.17c-4-5.75-5.86-8-14.38-5.84a39.6 39.6 0 0 0-8.52 3.26l-1.6-.69a1 1 0 0 0-.29-.12c-5.55-2.37-12.92-5.29-19.24-7.72-2.07-.94-4.14-1.87-6.2-2.77 2.7-7.5 5.6-16.32 5.6-16.32 5-19.37-24-29.4-31-14.55s-8.74 34.51-6 43.46a6.28 6.28 0 0 0 1.42 2.45c1.52 2.45 4.49 4.45 9.39 5.44 13.76 2.8 42.83 2 46.43 1.92.57.05 1.11.12 1.6.19a2.14 2.14 0 0 0 .62 0 1 1 0 0 0 .47-.08 9.76 9.76 0 0 1 3.82-1.14 7.4 7.4 0 0 0 6.95-3.79 19.33 19.33 0 0 1 .68 2.76c.37 2.64 2.28 5.06 3.52 5.09s.58-4.43.58-4.43 1.3 6.46 3.42 3.92-1.22-8.53-2.81-10.84a8.89 8.89 0 0 0-.55-.74c1.51 1.08 3 2.79 3.86 3.37 1.46 1 6.27 2.92 2.23-2.83Z"/><path class="cls-8" d="M151.52 300.05a1.24 1.24 0 0 1-.27 0c-.74-.19-1.32-1.18-1.73-2.2a3.22 3.22 0 0 1-.45 1.88.72.72 0 0 1-.57.27c-1.38 0-3.4-2.5-3.79-5.34a16.07 16.07 0 0 0-.5-2.13 7.64 7.64 0 0 1-6.87 3.41 9.75 9.75 0 0 0-3.68 1.12 1.29 1.29 0 0 1-.57.1 2 2 0 0 1-.68 0c-.49-.07-1-.13-1.59-.19-3.27.1-32.65.89-46.46-1.92-4.64-.94-7.86-2.81-9.58-5.57a6.37 6.37 0 0 1-1.49-2.48c-2.74-9-1-28.67 6-43.66 3.59-7.67 12.6-8.51 19.46-6 7.94 2.86 14.75 10.39 12.06 20.78 0 .11-2.87 8.73-5.52 16.1 2 .86 4 1.76 6 2.65 4.41 1.71 12.8 5 19.24 7.73a1.18 1.18 0 0 1 .34.15l1.44.61a39.69 39.69 0 0 1 8.46-3.21c8.61-2.16 10.61.12 14.69 5.94 1.53 2.19 2 3.49 1.37 4.1-.83.84-3.22-.37-4-.9a16.25 16.25 0 0 1-1.48-1.3c-.25-.25-.53-.51-.81-.76 1.36 2.22 4.3 7.67 2.18 10.22a1.62 1.62 0 0 1-1.2.6Zm-2.17-4.86c.31 1.53 1.14 4 2 4.27.26.06.56-.09.88-.47 1.9-2.27-1-7.86-2.82-10.5-.18-.26-.36-.49-.54-.72l-1.32-1.63 1.71 1.22a23.9 23.9 0 0 1 2.45 2.12 15 15 0 0 0 1.41 1.25c1 .68 2.83 1.38 3.25 1 .13-.13.4-.75-1.43-3.37-4.1-5.84-5.93-7.75-14.08-5.72a39.3 39.3 0 0 0-8.46 3.24l-.13.06-.12-.05-1.59-.69a1.06 1.06 0 0 0-.25-.12c-6.49-2.76-14.87-6-19.29-7.74-2.08-.94-4.16-1.87-6.21-2.76l-.25-.11.09-.26a656.89 656.89 0 0 0 5.59-16.31c2.61-10-4-17.31-11.7-20.08-6.62-2.39-15.3-1.61-18.73 5.74-6.95 14.88-8.72 34.37-6 43.25a6 6 0 0 0 1.37 2.35q2.51 4 9.25 5.36c13.74 2.79 43.06 2 46.36 1.91.61.06 1.15.12 1.65.19a1.59 1.59 0 0 0 .52 0h.08a.76.76 0 0 0 .34-.05 10 10 0 0 1 3.94-1.17 7.08 7.08 0 0 0 6.7-3.65l.33-.53.19.6a20.68 20.68 0 0 1 .69 2.8c.36 2.6 2.24 4.82 3.23 4.84 0 0 .09 0 .15-.07.46-.52.33-2.75.14-4Z"/><path class="cls-2" d="M111.32 205.55c-4.71-2.49-11.15-3.67-20.08 5.7s-18.68 32.14-22.68 50.87c0 0 23.93 16.94 41.78 6.75 0 0 8-32.3 9.63-42.94s-3.45-17.63-8.65-20.38Z"/><path class="cls-8" d="M97.43 272.39c-14.65 0-28.86-9.9-29-10l-.16-.11v-.19c4.19-19.6 14.19-42 22.76-51 9.4-9.86 16.16-8 20.43-5.75 5.1 2.7 10.47 9.74 8.8 20.68-1.61 10.53-9.56 42.63-9.64 43v.11l-.1.07a26 26 0 0 1-13.09 3.19ZM68.88 262c2.08 1.42 24.48 16.12 41.21 6.69.54-2.17 8-32.61 9.6-42.79 1.63-10.64-3.56-17.47-8.5-20.08-4.45-2.35-10.71-3.84-19.75 5.64C83 220.35 73.07 242.52 68.88 262Z"/><path class="cls-8" d="M85.43 250.2a18.19 18.19 0 0 1-1.67-21l.69.39a17.4 17.4 0 0 0 1.57 20Z"/><path class="cls-14" d="M215.64 350c-2.38 2.18-4.71 4.28-6.94 6.23-9.45 8.28-21.88 19.49-26.67 23.82l-2 1.82a72.82 72.82 0 0 1-7.5-6.29c-1.87-3.06-3.55-5.74-4.9-7.84-.73.12-1.47.22-2.21.33a81.75 81.75 0 0 1-5.52-7.32c-5-7.49-9.19-16.7-10.08-27.15l.17-.13A318.48 318.48 0 0 1 176.67 313c4 .84 7.32 1.71 10 2.37a24.83 24.83 0 0 1 15.4 10.48c3.64 4.39 8.5 13.49 13.57 24.15Z"/><path class="cls-9" d="m143.52 332.3 10.74 16.77 24.48-9.71-13.46-21-21.76 13.94z"/><path class="cls-8" d="m154.14 349.46-.15-.22-10.91-17 22.3-14.28 13.84 21.6ZM144 332.4l10.43 16.27 23.87-9.46-13.11-20.41Z"/><path class="cls-7" d="M162.93 346.77s-1.41-5.26-8.52-6.3-5.06-5.43-5.34-7a7 7 0 0 0-3.14-4.89s-17.67 15.3-26.24 30.76L170 393.78s5-4 2.28-9.29-18-23.88-17.17-30.54 7.82-7.18 7.82-7.18Z"/><path class="cls-8" d="m170 394.18-.19-.13-50.52-34.64.14-.26c8.5-15.33 26.14-30.69 26.31-30.85l.19-.16.2.14a7.38 7.38 0 0 1 3.28 5.11 5.31 5.31 0 0 1 0 1.25c-.15 2-.36 4.71 5.09 5.51 7.23 1.06 8.76 6.48 8.78 6.54l.1.37h-.39c-.27 0-6.74.59-7.55 6.9-.58 4.57 6.77 15.1 12.14 22.79a88.94 88.94 0 0 1 5 7.56c2.83 5.48-2.31 9.65-2.36 9.69Zm-49.87-35 49.87 34.2c.86-.77 4.34-4.24 2-8.75-.8-1.55-2.72-4.3-5-7.49-5.43-7.77-12.86-18.41-12.25-23.23.75-5.89 6.2-7.16 7.74-7.41-.45-1.17-2.31-4.86-8.14-5.71-6-.89-5.78-4.21-5.63-6.2a4.52 4.52 0 0 0 0-1.09A6.73 6.73 0 0 0 146 329c-1.95 1.64-17.87 15.91-25.89 30.21Z"/><path class="cls-8" d="m131.76 362.35-.72-.5c6.37-9.29.1-18.06 0-18.14l.71-.52c.1.09 6.73 9.36.01 19.16Z"/><path class="cls-8" d="M122.53 354.49c-1.29 1.78-2.07 3.58-2.84 4.82L170 393.78a9.17 9.17 0 0 0 2.95-4.74ZM160.66 368.39l-7.17-2.53c-.41-.41-9.9-10-7.72-15.6s9.25-7.52 9.55-7.6l.22.84c-.06 0-7 1.93-9 7.07-1.88 4.86 6.6 13.72 7.46 14.6l6.91 2.39Z"/><path class="cls-8" transform="rotate(-74.48 153.709 359.8)" d="M153.28 356.44h.87v6.73h-.87z"/><path class="cls-8" transform="rotate(-74.48 151.547 353.673)" d="M151.12 350.32h.87v6.73h-.87z"/><path class="cls-8" d="M247.7 312.4c-7.9 9-23 23.61-34.91 34.08s-28.68 25.65-28.68 25.65-27.74-19.35-30.22-48.27c0 0 47.79-35.35 59.47-43.74 22.37-16.06 48.49 16.23 34.34 32.28Z"/><path class="cls-14" d="m182 330.58-.32-.81c.13-.06 13.36-5.25 24.94-6.51l.09.87c-11.5 1.24-24.62 6.4-24.71 6.45ZM154.63 324.36l-.58-.66c.33-.29 33.45-29.18 58.86-37.84l.29.83c-25.2 8.6-58.2 37.38-58.57 37.67Z"/><path class="cls-16" d="M186.93 302.13a.44.44 0 0 1-.3.55l-73.16 21.05a.89.89 0 0 1-1.09-.6l-.59-2.05 74.43-21.42Z"/><path class="cls-16" d="m121.1 317.47.25.86-2.62.75-.33-1.14 2.33-.67a.3.3 0 0 1 .37.2ZM124.13 316.6l.25.86-2.62.75-.33-1.14 2.33-.67a.29.29 0 0 1 .37.2ZM127.16 315.73l.25.86-2.62.75-.33-1.14 2.33-.67a.29.29 0 0 1 .37.2ZM139.78 312.1l.25.86-2.61.75-.33-1.15 2.33-.67a.3.3 0 0 1 .36.21ZM142.81 311.22l.25.86-2.61.76-.33-1.15 2.33-.67a.3.3 0 0 1 .36.2ZM178.38 301l.25.86-2.61.75-.33-1.14 2.33-.67a.28.28 0 0 1 .36.2ZM181.42 300.12l.24.86-2.61.75-.33-1.15 2.33-.67a.31.31 0 0 1 .37.21ZM136.66 313l.25.86-9 2.59-.33-1.15 8.7-2.5a.3.3 0 0 1 .38.2ZM191.25 297.29l.25.86-9 2.58-.33-1.14 8.69-2.51a.3.3 0 0 1 .39.21ZM175.07 301.94l.25.86-31.18 9-.33-1.14 30.89-8.89a.3.3 0 0 1 .37.17Z"/><path d="m190.46 297.21 6.32-1.82a.67.67 0 0 1 .84.46l.14.49-7.26 2.09-.25-.86a.3.3 0 0 1 .21-.36Z" style="fill:url(#Безымянный_градиент_17)"/><path d="m199.2 294.69 6.33-1.82a.67.67 0 0 1 .83.46l.15.5-7.26 2.09-.25-.86a.29.29 0 0 1 .2-.37Z" style="fill:url(#Безымянный_градиент_17-2)"/><path d="m208 292.17 6.33-1.82a.68.68 0 0 1 .83.46l.14.5-7.3 2.09-.24-.86a.29.29 0 0 1 .24-.37Z" style="fill:url(#Безымянный_градиент_17-3)"/><path d="m216.69 289.66 6.33-1.82a.67.67 0 0 1 .84.46l.14.5-7.26 2.08-.25-.86a.3.3 0 0 1 .2-.36Z" style="fill:url(#Безымянный_градиент_17-4)"/><path d="m227 286.69 3.31-.95a.69.69 0 0 1 .84.46l.14.5-4.29 1.22-.25-.86a.29.29 0 0 1 .25-.37Z" style="fill:url(#Безымянный_градиент_17-5)"/><path d="m232.15 285.21 3.31-.95a.67.67 0 0 1 .83.46l.15.5-4.25 1.22-.25-.86a.31.31 0 0 1 .21-.37Z" style="fill:url(#Безымянный_градиент_17-6)"/><path d="m237 283.81 3.31-.95a.68.68 0 0 1 .84.46l.14.5-4.24 1.18-.25-.86a.29.29 0 0 1 .2-.33Z" style="fill:url(#Безымянный_градиент_17-7)"/><path class="cls-16" d="M164.44 246.76a5.72 5.72 0 0 1 4-5.57l.76 66.12a3.47 3.47 0 0 1-3.27-3.47c-.1-2.79-1.14-43.66-1.49-57.08Z"/><path class="cls-9" d="m168.14 240.69 77.93-22.42a1.74 1.74 0 0 1 2.22 1.61l2 60.79-82 23.59-1.91-61.13a2.47 2.47 0 0 1 1.76-2.44Z"/><path class="cls-8" d="M168 304.64v-.37l-1.91-61.13a2.75 2.75 0 0 1 2-2.73L246 218a2 2 0 0 1 1.75.31 2 2 0 0 1 .83 1.57l2 61-.22.07Zm.23-63.67a2.16 2.16 0 0 0-1.57 2.16l1.89 60.75L250 280.46l-2-60.57a1.47 1.47 0 0 0-1.85-1.35Z"/><path class="cls-8" d="M166 243.15a2.88 2.88 0 0 1 2.08-2.86L246 217.87a2.16 2.16 0 0 1 1.86.33 2.13 2.13 0 0 1 .89 1.67l2 60.79v.34l-82.8 23.82Zm81.92-23.25a1.3 1.3 0 0 0-.54-1 1.31 1.31 0 0 0-1.15-.21l-77.92 22.43a2 2 0 0 0-1.49 2l1.89 60.59 81.16-23.35Z"/><path class="cls-8" d="M251.47 283.56a.44.44 0 0 1-.3.55l-80.41 23.14a.89.89 0 0 1-1.09-.61l-.75-2.59 81.68-23.5Z"/><path class="cls-8" transform="rotate(-16.05 141.367 312.614)" d="M111.55 312.07h59.62v1.01h-59.62z"/><path class="cls-16" transform="rotate(-16.05 217.368 290.74)" d="M182.55 290.21h69.56v1.01h-69.56z"/><rect class="cls-8" x="349.77" y="393.92" width="107.89" height="25.78" rx="6.43"/><rect class="cls-7" x="311.25" y="393.92" width="107.89" height="25.78" rx="6.43"/><path class="cls-8" d="M412.71 420.17h-95a6.91 6.91 0 0 1-6.91-6.9v-12.92a6.91 6.91 0 0 1 6.91-6.9h95a6.91 6.91 0 0 1 6.9 6.9v12.92a6.91 6.91 0 0 1-6.9 6.9Zm-95-25.77a6 6 0 0 0-6 6v12.92a6 6 0 0 0 6 6h95a6 6 0 0 0 6-6v-12.97a6 6 0 0 0-6-6Z"/><path class="cls-14" d="M408.15 407.82h-62a1.48 1.48 0 0 0 0 3h62a1.48 1.48 0 1 0 0-3Z"/><path class="cls-11" d="M408.15 407.82H352.8a1.48 1.48 0 0 0 0 3h55.35a1.48 1.48 0 1 0 0-3Z"/><path class="cls-14" d="M408.15 402.16h-62a1.48 1.48 0 0 0 0 3h62a1.48 1.48 0 1 0 0-3Z"/><path class="cls-9" d="M408.15 402.16h-47a1.48 1.48 0 0 0 0 3h47a1.48 1.48 0 1 0 0-3Z"/><path class="cls-14" d="M393.41 414.51h-37.84a3.56 3.56 0 0 0-3.56 3.56v1.63h45v-1.63a3.56 3.56 0 0 0-3.6-3.56ZM446.16 414.51h-15.71a3.56 3.56 0 0 0-3.57 3.56v1.63h22.84v-1.63a3.56 3.56 0 0 0-3.56-3.56Z"/><path class="cls-24" d="M320.75 404.32a2.49 2.49 0 1 0 2.5 2.49 2.48 2.48 0 0 0-2.5-2.49Z"/><path class="cls-14" d="M320.75 403.89a2.92 2.92 0 1 0 2.92 2.92 2.91 2.91 0 0 0-2.92-2.92Zm0 5a2.07 2.07 0 1 1 2.07-2.07 2.07 2.07 0 0 1-2.07 2.06Z"/><path class="cls-8" d="M329.73 404.32a2.49 2.49 0 1 0 2.5 2.49 2.49 2.49 0 0 0-2.5-2.49Z"/><path class="cls-14" d="M329.73 403.89a2.92 2.92 0 1 0 2.92 2.92 2.92 2.92 0 0 0-2.92-2.92Zm0 5a2.07 2.07 0 1 1 2.08-2.07 2.07 2.07 0 0 1-2.08 2.06Z"/><path class="cls-14" d="M332.23 405.97h5.26v1.68h-5.26zM449.63 401.18a1.66 1.66 0 1 0 1.66 1.66 1.65 1.65 0 0 0-1.66-1.66ZM449.63 407.16a1.66 1.66 0 1 0 1.66 1.65 1.65 1.65 0 0 0-1.66-1.65ZM442.08 401.18a1.66 1.66 0 1 0 1.65 1.66 1.65 1.65 0 0 0-1.65-1.66ZM442.08 407.16a1.66 1.66 0 1 0 1.65 1.65 1.65 1.65 0 0 0-1.65-1.65ZM434.53 401.18a1.66 1.66 0 1 0 1.65 1.66 1.65 1.65 0 0 0-1.65-1.66ZM434.53 407.16a1.66 1.66 0 1 0 1.65 1.65 1.65 1.65 0 0 0-1.65-1.65ZM427 401.18a1.66 1.66 0 1 0 1.65 1.66 1.66 1.66 0 0 0-1.65-1.66ZM427 407.16a1.66 1.66 0 1 0 1.65 1.65 1.65 1.65 0 0 0-1.65-1.65ZM323.25 419.7h123.9v4.07h-123.9z"/><rect class="cls-8" x="349.77" y="364.08" width="107.89" height="25.78" rx="6.43"/><rect class="cls-7" x="311.25" y="364.08" width="107.89" height="25.78" rx="6.43"/><path class="cls-8" d="M412.71 390.33h-95a6.92 6.92 0 0 1-6.91-6.91v-12.91a6.92 6.92 0 0 1 6.91-6.91h95a6.92 6.92 0 0 1 6.9 6.91v12.91a6.92 6.92 0 0 1-6.9 6.91Zm-95-25.78a6 6 0 0 0-6 6v12.91a6 6 0 0 0 6 6h95a6 6 0 0 0 6-6v-12.95a6 6 0 0 0-6-6Z"/><path class="cls-14" d="M408.15 378h-62a1.48 1.48 0 0 0 0 3h62a1.48 1.48 0 1 0 0-3Z"/><path class="cls-11" d="M408.15 378H352.8a1.48 1.48 0 1 0 0 3h55.35a1.48 1.48 0 1 0 0-3Z"/><path class="cls-14" d="M408.15 372.31h-62a1.49 1.49 0 0 0 0 3h62a1.49 1.49 0 0 0 0-3Z"/><path class="cls-9" d="M408.15 372.31h-47a1.49 1.49 0 0 0 0 3h47a1.49 1.49 0 0 0 0-3Z"/><path class="cls-14" d="M393.41 384.66h-37.84a3.57 3.57 0 0 0-3.56 3.56v1.63h45v-1.63a3.57 3.57 0 0 0-3.6-3.56ZM446.16 384.66h-15.71a3.57 3.57 0 0 0-3.57 3.56v1.63h22.84v-1.63a3.56 3.56 0 0 0-3.56-3.56Z"/><path class="cls-24" d="M320.75 374.47a2.5 2.5 0 1 0 2.5 2.5 2.49 2.49 0 0 0-2.5-2.5Z"/><path class="cls-14" d="M320.75 374.05a2.92 2.92 0 1 0 2.92 2.91 2.91 2.91 0 0 0-2.92-2.91Zm0 5a2.08 2.08 0 1 1 2.07-2.08 2.08 2.08 0 0 1-2.07 2.03Z"/><path class="cls-8" d="M329.73 374.47a2.5 2.5 0 1 0 2.5 2.5 2.5 2.5 0 0 0-2.5-2.5Z"/><path class="cls-14" d="M329.73 374.05a2.92 2.92 0 1 0 2.92 2.91 2.92 2.92 0 0 0-2.92-2.91Zm0 5a2.08 2.08 0 1 1 2.08-2.08 2.08 2.08 0 0 1-2.08 2.03Z"/><path class="cls-14" d="M332.23 376.12h5.26v1.68h-5.26zM449.63 371.34a1.65 1.65 0 1 0 1.66 1.65 1.65 1.65 0 0 0-1.66-1.65ZM449.63 377.32a1.65 1.65 0 1 0 1.66 1.65 1.65 1.65 0 0 0-1.66-1.65ZM442.08 371.34a1.65 1.65 0 1 0 1.65 1.65 1.65 1.65 0 0 0-1.65-1.65ZM442.08 377.32a1.65 1.65 0 1 0 1.65 1.65 1.65 1.65 0 0 0-1.65-1.65ZM434.53 371.34a1.65 1.65 0 1 0 1.65 1.65 1.65 1.65 0 0 0-1.65-1.65ZM434.53 377.32a1.65 1.65 0 1 0 1.65 1.65 1.65 1.65 0 0 0-1.65-1.65ZM427 371.34a1.65 1.65 0 1 0 1.65 1.65 1.65 1.65 0 0 0-1.65-1.65ZM427 377.32a1.65 1.65 0 1 0 1.65 1.65 1.65 1.65 0 0 0-1.65-1.65ZM323.25 389.85h123.9v4.07h-123.9z"/><rect class="cls-8" x="349.77" y="334.23" width="107.89" height="25.78" rx="6.43"/><rect class="cls-7" x="311.25" y="334.23" width="107.89" height="25.78" rx="6.43"/><path class="cls-8" d="M412.71 360.49h-95a6.92 6.92 0 0 1-6.91-6.91v-12.92a6.92 6.92 0 0 1 6.91-6.9h95a6.91 6.91 0 0 1 6.9 6.9v12.92a6.92 6.92 0 0 1-6.9 6.91Zm-95-25.78a6 6 0 0 0-6 6v12.92a6 6 0 0 0 6 5.95h95a6 6 0 0 0 6-5.95v-12.97a6 6 0 0 0-6-6Z"/><path class="cls-14" d="M408.15 348.13h-62a1.49 1.49 0 0 0 0 3h62a1.49 1.49 0 0 0 0-3Z"/><path class="cls-11" d="M408.15 348.13H352.8a1.49 1.49 0 0 0 0 3h55.35a1.49 1.49 0 0 0 0-3Z"/><path class="cls-14" d="M408.15 342.47h-62a1.48 1.48 0 0 0 0 3h62a1.48 1.48 0 1 0 0-3Z"/><path class="cls-9" d="M408.15 342.47h-47a1.48 1.48 0 1 0 0 3h47a1.48 1.48 0 1 0 0-3Z"/><path class="cls-14" d="M393.41 354.82h-37.84a3.56 3.56 0 0 0-3.56 3.56V360h45v-1.63a3.56 3.56 0 0 0-3.6-3.55ZM446.16 354.82h-15.71a3.56 3.56 0 0 0-3.57 3.56V360h22.84v-1.63a3.56 3.56 0 0 0-3.56-3.55Z"/><path class="cls-24" d="M320.75 344.63a2.5 2.5 0 1 0 2.5 2.49 2.48 2.48 0 0 0-2.5-2.49Z"/><path class="cls-14" d="M320.75 344.21a2.92 2.92 0 1 0 2.92 2.91 2.91 2.91 0 0 0-2.92-2.91Zm0 5a2.07 2.07 0 1 1 2.07-2.07 2.07 2.07 0 0 1-2.07 2.05Z"/><path class="cls-8" d="M329.73 344.63a2.5 2.5 0 1 0 2.5 2.49 2.49 2.49 0 0 0-2.5-2.49Z"/><path class="cls-14" d="M329.73 344.21a2.92 2.92 0 1 0 2.92 2.91 2.91 2.91 0 0 0-2.92-2.91Zm0 5a2.07 2.07 0 1 1 2.08-2.07 2.07 2.07 0 0 1-2.08 2.05Z"/><path class="cls-14" d="M332.23 346.28h5.26v1.68h-5.26zM449.63 341.49a1.66 1.66 0 1 0 1.66 1.66 1.65 1.65 0 0 0-1.66-1.66ZM449.63 347.47a1.66 1.66 0 1 0 1.66 1.66 1.65 1.65 0 0 0-1.66-1.66ZM442.08 341.49a1.66 1.66 0 1 0 1.65 1.66 1.65 1.65 0 0 0-1.65-1.66ZM442.08 347.47a1.66 1.66 0 1 0 1.65 1.66 1.65 1.65 0 0 0-1.65-1.66ZM434.53 341.49a1.66 1.66 0 1 0 1.65 1.66 1.65 1.65 0 0 0-1.65-1.66ZM434.53 347.47a1.66 1.66 0 1 0 1.65 1.66 1.65 1.65 0 0 0-1.65-1.66ZM427 341.49a1.66 1.66 0 1 0 1.65 1.66 1.66 1.66 0 0 0-1.65-1.66ZM427 347.47a1.66 1.66 0 1 0 1.65 1.66 1.66 1.66 0 0 0-1.65-1.66ZM323.25 360.01h123.9v4.07h-123.9z"/><rect class="cls-8" x="349.77" y="304.39" width="107.89" height="25.78" rx="6.43"/><rect class="cls-7" x="311.25" y="304.39" width="107.89" height="25.78" rx="6.43"/><path class="cls-8" d="M412.71 330.64h-95a6.92 6.92 0 0 1-6.91-6.9v-12.92a6.92 6.92 0 0 1 6.91-6.91h95a6.92 6.92 0 0 1 6.9 6.91v12.92a6.91 6.91 0 0 1-6.9 6.9Zm-95-25.78a6 6 0 0 0-6 6v12.92a6 6 0 0 0 6 5.95h95a6 6 0 0 0 6-5.95v-12.96a6 6 0 0 0-6-6Z"/><path class="cls-14" d="M408.15 318.29h-62a1.48 1.48 0 1 0 0 3h62a1.48 1.48 0 1 0 0-3Z"/><path class="cls-11" d="M408.15 318.29H352.8a1.48 1.48 0 0 0 0 3h55.35a1.48 1.48 0 1 0 0-3Z"/><path class="cls-14" d="M408.15 312.63h-62a1.48 1.48 0 0 0 0 3h62a1.48 1.48 0 0 0 0-3Z"/><path class="cls-9" d="M408.15 312.63h-47a1.48 1.48 0 0 0 0 3h47a1.48 1.48 0 0 0 0-3Z"/><path class="cls-14" d="M393.41 325h-37.84a3.57 3.57 0 0 0-3.56 3.57v1.63h45v-1.63a3.57 3.57 0 0 0-3.6-3.57ZM446.16 325h-15.71a3.57 3.57 0 0 0-3.57 3.57v1.63h22.84v-1.63a3.56 3.56 0 0 0-3.56-3.57Z"/><path class="cls-24" d="M320.75 314.78a2.5 2.5 0 1 0 2.5 2.5 2.49 2.49 0 0 0-2.5-2.5Z"/><path class="cls-14" d="M320.75 314.36a2.92 2.92 0 1 0 2.92 2.92 2.91 2.91 0 0 0-2.92-2.92Zm0 5a2.08 2.08 0 1 1 2.07-2.07 2.07 2.07 0 0 1-2.07 2.06Z"/><path class="cls-8" d="M329.73 314.78a2.5 2.5 0 1 0 2.5 2.5 2.5 2.5 0 0 0-2.5-2.5Z"/><path class="cls-14" d="M329.73 314.36a2.92 2.92 0 1 0 2.92 2.92 2.92 2.92 0 0 0-2.92-2.92Zm0 5a2.08 2.08 0 1 1 2.08-2.07 2.07 2.07 0 0 1-2.08 2.06Z"/><path class="cls-14" d="M332.23 316.44h5.26v1.68h-5.26zM449.63 311.65a1.66 1.66 0 1 0 1.66 1.65 1.65 1.65 0 0 0-1.66-1.65ZM449.63 317.63a1.65 1.65 0 1 0 1.66 1.65 1.65 1.65 0 0 0-1.66-1.65ZM442.08 311.65a1.66 1.66 0 1 0 1.65 1.65 1.65 1.65 0 0 0-1.65-1.65ZM442.08 317.63a1.65 1.65 0 1 0 1.65 1.65 1.65 1.65 0 0 0-1.65-1.65ZM434.53 311.65a1.66 1.66 0 1 0 1.65 1.65 1.65 1.65 0 0 0-1.65-1.65ZM434.53 317.63a1.65 1.65 0 1 0 1.65 1.65 1.65 1.65 0 0 0-1.65-1.65ZM427 311.65a1.66 1.66 0 1 0 1.65 1.65 1.65 1.65 0 0 0-1.65-1.65ZM427 317.63a1.65 1.65 0 1 0 1.65 1.65 1.65 1.65 0 0 0-1.65-1.65ZM323.25 330.17h123.9v4.07h-123.9z"/><rect class="cls-8" x="349.77" y="274.58" width="107.89" height="25.78" rx="6.43"/><rect class="cls-7" x="311.25" y="274.58" width="107.89" height="25.78" rx="6.43"/><path class="cls-8" d="M412.71 300.84h-95a6.92 6.92 0 0 1-6.91-6.91V281a6.91 6.91 0 0 1 6.91-6.9h95a6.91 6.91 0 0 1 6.9 6.9v12.92a6.92 6.92 0 0 1-6.9 6.92Zm-95-25.78a6 6 0 0 0-6 5.95v12.92a6 6 0 0 0 6 5.95h95a6 6 0 0 0 6-5.95V281a6 6 0 0 0-6-5.95Z"/><path class="cls-14" d="M408.15 288.48h-62a1.49 1.49 0 0 0 0 3h62a1.49 1.49 0 0 0 0-3Z"/><path class="cls-11" d="M408.15 288.48H352.8a1.49 1.49 0 0 0 0 3h55.35a1.49 1.49 0 0 0 0-3Z"/><path class="cls-14" d="M408.15 282.82h-62a1.48 1.48 0 0 0 0 3h62a1.48 1.48 0 0 0 0-3Z"/><path class="cls-9" d="M408.15 282.82h-47a1.48 1.48 0 0 0 0 3h47a1.48 1.48 0 0 0 0-3Z"/><path class="cls-14" d="M393.41 295.17h-37.84a3.56 3.56 0 0 0-3.56 3.56v1.63h45v-1.63a3.56 3.56 0 0 0-3.6-3.56ZM446.16 295.17h-15.71a3.56 3.56 0 0 0-3.57 3.56v1.63h22.84v-1.63a3.56 3.56 0 0 0-3.56-3.56Z"/><path class="cls-24" d="M320.75 285a2.49 2.49 0 1 0 2.5 2.49 2.48 2.48 0 0 0-2.5-2.49Z"/><path class="cls-14" d="M320.75 284.56a2.92 2.92 0 1 0 2.92 2.91 2.91 2.91 0 0 0-2.92-2.91Zm0 5a2.07 2.07 0 1 1 2.07-2.07 2.07 2.07 0 0 1-2.07 2.05Z"/><path class="cls-8" d="M329.73 285a2.49 2.49 0 1 0 2.5 2.49 2.49 2.49 0 0 0-2.5-2.49Z"/><path class="cls-14" d="M329.73 284.56a2.92 2.92 0 1 0 2.92 2.91 2.91 2.91 0 0 0-2.92-2.91Zm0 5a2.07 2.07 0 1 1 2.08-2.07 2.07 2.07 0 0 1-2.08 2.05Z"/><path class="cls-14" d="M332.23 286.63h5.26v1.68h-5.26zM449.63 281.84a1.66 1.66 0 1 0 1.66 1.66 1.65 1.65 0 0 0-1.66-1.66ZM449.63 287.82a1.66 1.66 0 1 0 1.66 1.66 1.65 1.65 0 0 0-1.66-1.66ZM442.08 281.84a1.66 1.66 0 1 0 1.65 1.66 1.65 1.65 0 0 0-1.65-1.66ZM442.08 287.82a1.66 1.66 0 1 0 1.65 1.66 1.65 1.65 0 0 0-1.65-1.66ZM434.53 281.84a1.66 1.66 0 1 0 1.65 1.66 1.65 1.65 0 0 0-1.65-1.66ZM434.53 287.82a1.66 1.66 0 1 0 1.65 1.66 1.65 1.65 0 0 0-1.65-1.66ZM427 281.84a1.66 1.66 0 1 0 1.65 1.66 1.66 1.66 0 0 0-1.65-1.66ZM427 287.82a1.66 1.66 0 1 0 1.65 1.66 1.66 1.66 0 0 0-1.65-1.66ZM323.25 300.36h123.9v4.07h-123.9z"/><rect class="cls-8" x="349.77" y="244.74" width="107.89" height="25.78" rx="6.43"/><rect class="cls-7" x="311.25" y="244.74" width="107.89" height="25.78" rx="6.43"/><path class="cls-8" d="M412.71 271h-95a6.92 6.92 0 0 1-6.91-6.9v-12.93a6.92 6.92 0 0 1 6.91-6.91h95a6.92 6.92 0 0 1 6.9 6.91v12.92a6.91 6.91 0 0 1-6.9 6.91Zm-95-25.78a6 6 0 0 0-6 6v12.92a6 6 0 0 0 6 6h95a6 6 0 0 0 6-6v-12.97a6 6 0 0 0-6-6Z"/><path class="cls-14" d="M408.15 258.64h-62a1.48 1.48 0 1 0 0 3h62a1.48 1.48 0 0 0 0-3Z"/><path class="cls-11" d="M408.15 258.64H352.8a1.48 1.48 0 0 0 0 3h55.35a1.48 1.48 0 0 0 0-3Z"/><path class="cls-14" d="M408.15 253h-62a1.49 1.49 0 0 0 0 3h62a1.49 1.49 0 0 0 0-3Z"/><path class="cls-9" d="M408.15 253h-47a1.49 1.49 0 0 0 0 3h47a1.49 1.49 0 0 0 0-3Z"/><path class="cls-14" d="M393.41 265.32h-37.84a3.57 3.57 0 0 0-3.56 3.57v1.62h45v-1.62a3.57 3.57 0 0 0-3.6-3.57ZM446.16 265.32h-15.71a3.57 3.57 0 0 0-3.57 3.57v1.62h22.84v-1.62a3.56 3.56 0 0 0-3.56-3.57Z"/><path class="cls-24" d="M320.75 255.13a2.5 2.5 0 1 0 2.5 2.5 2.49 2.49 0 0 0-2.5-2.5Z"/><path class="cls-14" d="M320.75 254.71a2.92 2.92 0 1 0 2.92 2.92 2.91 2.91 0 0 0-2.92-2.92Zm0 5a2.08 2.08 0 1 1 2.07-2.07 2.07 2.07 0 0 1-2.07 2.06Z"/><path class="cls-8" d="M329.73 255.13a2.5 2.5 0 1 0 2.5 2.5 2.5 2.5 0 0 0-2.5-2.5Z"/><path class="cls-14" d="M329.73 254.71a2.92 2.92 0 1 0 2.92 2.92 2.92 2.92 0 0 0-2.92-2.92Zm0 5a2.08 2.08 0 1 1 2.08-2.07 2.07 2.07 0 0 1-2.08 2.06Z"/><path class="cls-14" d="M332.23 256.78h5.26v1.68h-5.26zM449.63 252a1.65 1.65 0 1 0 1.66 1.65 1.65 1.65 0 0 0-1.66-1.65ZM449.63 258a1.65 1.65 0 1 0 1.66 1.65 1.65 1.65 0 0 0-1.66-1.65ZM442.08 252a1.65 1.65 0 1 0 1.65 1.65 1.65 1.65 0 0 0-1.65-1.65ZM442.08 258a1.65 1.65 0 1 0 1.65 1.65 1.65 1.65 0 0 0-1.65-1.65ZM434.53 252a1.65 1.65 0 1 0 1.65 1.65 1.65 1.65 0 0 0-1.65-1.65ZM434.53 258a1.65 1.65 0 1 0 1.65 1.65 1.65 1.65 0 0 0-1.65-1.65ZM427 252a1.65 1.65 0 1 0 1.65 1.65A1.65 1.65 0 0 0 427 252ZM427 258a1.65 1.65 0 1 0 1.65 1.65A1.65 1.65 0 0 0 427 258ZM323.25 270.51h123.9v4.07h-123.9z"/><rect class="cls-8" x="349.77" y="423.77" width="107.89" height="25.78" rx="6.43"/><rect class="cls-7" x="311.25" y="423.77" width="107.89" height="25.78" rx="6.43"/><path class="cls-8" d="M412.71 450h-95a6.92 6.92 0 0 1-6.91-6.91v-12.9a6.92 6.92 0 0 1 6.91-6.9h95a6.91 6.91 0 0 1 6.9 6.9v12.92a6.92 6.92 0 0 1-6.9 6.89Zm-95-25.78a6 6 0 0 0-6 5.95v12.92a6 6 0 0 0 6 6h95a6 6 0 0 0 6-6v-12.9a6 6 0 0 0-6-5.95Z"/><path class="cls-14" d="M408.15 437.67h-62a1.48 1.48 0 1 0 0 3h62a1.48 1.48 0 1 0 0-3Z"/><path class="cls-11" d="M408.15 437.67H352.8a1.48 1.48 0 1 0 0 3h55.35a1.48 1.48 0 1 0 0-3Z"/><path class="cls-14" d="M408.15 432h-62a1.48 1.48 0 0 0 0 3h62a1.48 1.48 0 0 0 0-3Z"/><path class="cls-9" d="M408.15 432h-47a1.48 1.48 0 0 0 0 3h47a1.48 1.48 0 0 0 0-3Z"/><path class="cls-14" d="M393.41 444.35h-37.84a3.56 3.56 0 0 0-3.56 3.56v1.63h45v-1.63a3.56 3.56 0 0 0-3.6-3.56ZM446.16 444.35h-15.71a3.56 3.56 0 0 0-3.57 3.56v1.63h22.84v-1.63a3.56 3.56 0 0 0-3.56-3.56Z"/><path class="cls-24" d="M320.75 434.16a2.5 2.5 0 1 0 2.5 2.49 2.49 2.49 0 0 0-2.5-2.49Z"/><path class="cls-14" d="M320.75 433.74a2.92 2.92 0 1 0 2.92 2.91 2.91 2.91 0 0 0-2.92-2.91Zm0 5a2.08 2.08 0 1 1 2.07-2.08 2.08 2.08 0 0 1-2.07 2.07Z"/><path class="cls-8" d="M329.73 434.16a2.5 2.5 0 1 0 2.5 2.49 2.5 2.5 0 0 0-2.5-2.49Z"/><path class="cls-14" d="M329.73 433.74a2.92 2.92 0 1 0 2.92 2.91 2.92 2.92 0 0 0-2.92-2.91Zm0 5a2.08 2.08 0 1 1 2.08-2.08 2.08 2.08 0 0 1-2.08 2.07Z"/><path class="cls-14" d="M332.23 435.81h5.26v1.68h-5.26zM449.63 431a1.65 1.65 0 1 0 1.66 1.65 1.65 1.65 0 0 0-1.66-1.65ZM449.63 437a1.65 1.65 0 1 0 1.66 1.65 1.65 1.65 0 0 0-1.66-1.65ZM442.08 431a1.65 1.65 0 1 0 1.65 1.65 1.65 1.65 0 0 0-1.65-1.65ZM442.08 437a1.65 1.65 0 1 0 1.65 1.65 1.65 1.65 0 0 0-1.65-1.65ZM434.53 431a1.65 1.65 0 1 0 1.65 1.65 1.65 1.65 0 0 0-1.65-1.65ZM434.53 437a1.65 1.65 0 1 0 1.65 1.65 1.65 1.65 0 0 0-1.65-1.65ZM427 431a1.65 1.65 0 1 0 1.65 1.65A1.65 1.65 0 0 0 427 431ZM427 437a1.65 1.65 0 1 0 1.65 1.65A1.65 1.65 0 0 0 427 437ZM323.25 449.54h123.9v4.07h-123.9z"/><path class="cls-9" d="M428.79 372.15H427v1.68h1.81a4.91 4.91 0 0 1 4.9 4.9v18.36a4.91 4.91 0 0 1-4.9 4.9H427v1.69h1.81a6.59 6.59 0 0 0 6.58-6.59v-18.36a6.59 6.59 0 0 0-6.6-6.58ZM444 342.18h-1.81v1.69H444a4.91 4.91 0 0 1 4.9 4.9v18.36A4.91 4.91 0 0 1 444 372h-1.81v1.68H444a6.59 6.59 0 0 0 6.59-6.58v-18.33a6.6 6.6 0 0 0-6.59-6.59Z"/></g></g></svg>