<svg xmlns="http://www.w3.org/2000/svg" viewBox="0 0 553.7 467.48"><defs><clipPath id="clip-path" transform="translate(19.13)"><path class="cls-1" d="M73.21 188.07c140-52.78 98.39-159.71 234.35-166.78C415.15 15.69 468.25 129 462.92 238.7c-6.33 130-88.72 219.92-236.26 227.52C18.23 477-76.79 244.64 73.21 188.07Z"/></clipPath><clipPath id="clip-path-2" transform="translate(19.13)"><path class="cls-1" d="M35.22 111.16h146.54a4.38 4.38 0 0 1 4.38 4.38V215a6.38 6.38 0 0 1-6.38 6.38H37.21a6.38 6.38 0 0 1-6.38-6.38v-99.46a4.38 4.38 0 0 1 4.39-4.38Z"/></clipPath><style>.cls-1{fill:none}.cls-2{fill:#e6e6e6}.cls-4{fill:#f5f5f5}.cls-5{fill:#fff}.cls-7{fill:#34234d}.cls-8{fill:#00b5f4}.cls-9{fill:#221733}.cls-10{fill:#ff5168}.cls-11{fill:#fafafa}.cls-13{fill:#2b1d40}.cls-14{fill:#cbcbcb}.cls-15{fill:#b37765}</style></defs><g id="Layer_2" data-name="Layer 2"><g id="Layer_1-2" data-name="Layer 1"><path class="cls-2" d="M111.8 148.6c33.94-25 105.54-137.87 15.17-106.08C45.75 71.1 11.58 222.31 111.8 148.6Z" transform="translate(19.13)"/><path class="cls-2" d="M73.21 188.07c140-52.78 98.39-159.71 234.35-166.78C415.15 15.69 468.25 129 462.92 238.7c-6.33 130-88.72 219.92-236.26 227.52C18.23 477-76.79 244.64 73.21 188.07Z" transform="translate(19.13)"/><g style="clip-path:url(#clip-path)"><path class="cls-4" d="M-19.12 269.58c0 78.64 60 152.57 182.77 176.05 162.14 31 370.53 33 370.53-121.7 0-58.11 5.83-216.83-27.28-238.26h-84.85v196.1l-46.52 75.87v-156h-31.46v-63.93l-88.4-67.18v89h-74.91V44.22c-22.53 2.85-44.08 13.1-63.08 29.26V240H83.77v-37.81l-100.36-51c-2.78 15.98-2.53 100.95-2.53 118.39Zm187.46 48.35h58.35v37.78h-58.35Zm36.13-137.7h26.89v109h-26.89Zm-39.36-78.5h-30.75V78.49h30.75Zm0 29.48h-30.75V108h30.75Zm0 29.49h-30.75v-23.25h30.75Zm0 29.48h-30.75v-23.24h30.75ZM472.87 152h-38V96.65h38Zm0 70.24h-38v-55.35h38Zm0 70.24h-38v-55.34h38Zm0 70.24h-38v-55.34h38Zm-340.09-127h43.93v50.26h-43.93Z" transform="translate(19.13)"/><path class="cls-5" d="M447.67 82.6h1.02v340.96h-1.02zM348.76 4.94h1.02v418.62h-1.02zM249.86 4.94h1.02v418.62h-1.02zM150.95 4.94h1.02v418.62h-1.02zM49.98 82.48H51v341.08h-1.02z"/><path style="fill:#dbdbdb" d="M12.55 424.11h479.59v43.38H12.55z"/><path class="cls-5" d="M12.55 418.91h479.59v5.16H12.55zM12.55 353.92h479.59v1.02H12.55zM12.55 284.79h479.59v1.02H12.55zM12.55 215.67h479.59v1.02H12.55zM12.55 144.27h479.59v1.02H12.55zM12.55 72.87h479.59v1.02H12.55z"/></g><rect class="cls-7" x="67.75" y="435.08" width="107.89" height="25.78" rx="6.43"/><rect class="cls-8" x="29.23" y="435.08" width="107.89" height="25.78" rx="6.43"/><path class="cls-7" d="M111.56 461.33h-95a6.9 6.9 0 0 1-6.9-6.9v-12.92a6.91 6.91 0 0 1 6.9-6.9h95a6.91 6.91 0 0 1 6.9 6.9v12.92a6.9 6.9 0 0 1-6.9 6.9Zm-95-25.77a6 6 0 0 0-6 5.95v12.92a6 6 0 0 0 6 5.95h95a6 6 0 0 0 6-5.95v-12.92a6 6 0 0 0-6-5.95Z" transform="translate(19.13)"/><path class="cls-9" d="M107 449H45.05a1.49 1.49 0 0 0 0 3h62a1.49 1.49 0 1 0 0-3Z" transform="translate(19.13)"/><path class="cls-10" d="M107 449H51.65a1.49 1.49 0 0 0 0 3H107a1.49 1.49 0 1 0 0-3Z" transform="translate(19.13)"/><path class="cls-9" d="M107 443.32H45.05a1.48 1.48 0 0 0 0 3h62a1.48 1.48 0 1 0 0-3Z" transform="translate(19.13)"/><path class="cls-5" d="M107 443.32H60.05a1.48 1.48 0 0 0 0 3h47a1.48 1.48 0 1 0 0-3Z" transform="translate(19.13)"/><path class="cls-9" d="M92.26 455.67H54.43a3.56 3.56 0 0 0-3.56 3.56v1.63h44.95v-1.63a3.56 3.56 0 0 0-3.56-3.56ZM145 455.67h-15.7a3.56 3.56 0 0 0-3.56 3.56v1.63h22.84v-1.63a3.56 3.56 0 0 0-3.58-3.56Z" transform="translate(19.13)"/><path class="cls-11" d="M19.61 445.48A2.5 2.5 0 1 0 22.1 448a2.49 2.49 0 0 0-2.49-2.52Z" transform="translate(19.13)"/><path class="cls-9" d="M19.61 445.06a2.92 2.92 0 1 0 2.91 2.94 2.91 2.91 0 0 0-2.91-2.94Zm0 5a2.07 2.07 0 1 1 2.07-2.06 2.07 2.07 0 0 1-2.07 2Z" transform="translate(19.13)"/><path class="cls-7" d="M28.59 445.48a2.5 2.5 0 1 0 2.49 2.52 2.49 2.49 0 0 0-2.49-2.52Z" transform="translate(19.13)"/><path class="cls-9" d="M28.59 445.06A2.92 2.92 0 1 0 31.5 448a2.91 2.91 0 0 0-2.91-2.94Zm0 5a2.07 2.07 0 1 1 2.07-2.06 2.06 2.06 0 0 1-2.07 2Z" transform="translate(19.13)"/><path class="cls-9" d="M50.21 447.13h5.26v1.68h-5.26z"/><path class="cls-9" d="M148.49 442.34a1.66 1.66 0 1 0 1.65 1.66 1.65 1.65 0 0 0-1.65-1.66ZM148.49 448.32a1.66 1.66 0 1 0 1.65 1.66 1.65 1.65 0 0 0-1.65-1.66ZM140.94 442.34a1.66 1.66 0 1 0 1.65 1.66 1.66 1.66 0 0 0-1.65-1.66ZM140.94 448.32a1.66 1.66 0 1 0 1.65 1.66 1.66 1.66 0 0 0-1.65-1.66ZM133.38 442.34A1.66 1.66 0 1 0 135 444a1.65 1.65 0 0 0-1.62-1.66ZM133.38 448.32A1.66 1.66 0 1 0 135 450a1.65 1.65 0 0 0-1.62-1.68ZM125.83 442.34a1.66 1.66 0 1 0 1.65 1.66 1.65 1.65 0 0 0-1.65-1.66ZM125.83 448.32a1.66 1.66 0 1 0 1.65 1.66 1.65 1.65 0 0 0-1.65-1.66Z" transform="translate(19.13)"/><path class="cls-9" d="M41.23 460.86h123.9v4.07H41.23z"/><rect class="cls-7" x="67.75" y="405.24" width="107.89" height="25.78" rx="6.43"/><rect class="cls-8" x="29.23" y="405.24" width="107.89" height="25.78" rx="6.43"/><path class="cls-7" d="M111.56 431.49h-95a6.91 6.91 0 0 1-6.9-6.9v-12.92a6.91 6.91 0 0 1 6.9-6.91h95a6.91 6.91 0 0 1 6.9 6.91v12.92a6.91 6.91 0 0 1-6.9 6.9Zm-95-25.78a6 6 0 0 0-6 6v12.92a6 6 0 0 0 6 6h95a6 6 0 0 0 6-6v-12.96a6 6 0 0 0-6-6Z" transform="translate(19.13)"/><path class="cls-9" d="M107 419.14H45.05a1.48 1.48 0 1 0 0 3h62a1.48 1.48 0 1 0 0-3Z" transform="translate(19.13)"/><path class="cls-10" d="M107 419.14H51.65a1.48 1.48 0 1 0 0 3H107a1.48 1.48 0 1 0 0-3Z" transform="translate(19.13)"/><path class="cls-9" d="M107 413.48H45.05a1.48 1.48 0 0 0 0 3h62a1.48 1.48 0 1 0 0-3Z" transform="translate(19.13)"/><path class="cls-5" d="M107 413.48H60.05a1.48 1.48 0 0 0 0 3h47a1.48 1.48 0 1 0 0-3Z" transform="translate(19.13)"/><path class="cls-9" d="M92.26 425.82H54.43a3.56 3.56 0 0 0-3.56 3.57V431h44.95v-1.63a3.56 3.56 0 0 0-3.56-3.55ZM145 425.82h-15.7a3.56 3.56 0 0 0-3.56 3.57V431h22.84v-1.63a3.57 3.57 0 0 0-3.58-3.55Z" transform="translate(19.13)"/><path class="cls-11" d="M19.61 415.63a2.5 2.5 0 1 0 2.49 2.5 2.5 2.5 0 0 0-2.49-2.5Z" transform="translate(19.13)"/><path class="cls-9" d="M19.61 415.21a2.92 2.92 0 1 0 2.91 2.92 2.92 2.92 0 0 0-2.91-2.92Zm0 5a2.08 2.08 0 1 1 2.07-2.07 2.08 2.08 0 0 1-2.07 2.06Z" transform="translate(19.13)"/><path class="cls-7" d="M28.59 415.63a2.5 2.5 0 1 0 2.49 2.5 2.5 2.5 0 0 0-2.49-2.5Z" transform="translate(19.13)"/><path class="cls-9" d="M28.59 415.21a2.92 2.92 0 1 0 2.91 2.92 2.92 2.92 0 0 0-2.91-2.92Zm0 5a2.08 2.08 0 1 1 2.07-2.07 2.07 2.07 0 0 1-2.07 2.06Z" transform="translate(19.13)"/><path class="cls-9" d="M50.21 417.29h5.26v1.68h-5.26z"/><path class="cls-9" d="M148.49 412.5a1.65 1.65 0 1 0 1.65 1.65 1.65 1.65 0 0 0-1.65-1.65ZM148.49 418.48a1.65 1.65 0 1 0 1.65 1.65 1.65 1.65 0 0 0-1.65-1.65ZM140.94 412.5a1.65 1.65 0 1 0 1.65 1.65 1.65 1.65 0 0 0-1.65-1.65ZM140.94 418.48a1.65 1.65 0 1 0 1.65 1.65 1.65 1.65 0 0 0-1.65-1.65ZM133.38 412.5a1.65 1.65 0 1 0 1.65 1.65 1.65 1.65 0 0 0-1.65-1.65ZM133.38 418.48a1.65 1.65 0 1 0 1.65 1.65 1.65 1.65 0 0 0-1.65-1.65ZM125.83 412.5a1.65 1.65 0 1 0 1.65 1.65 1.65 1.65 0 0 0-1.65-1.65ZM125.83 418.48a1.65 1.65 0 1 0 1.65 1.65 1.65 1.65 0 0 0-1.65-1.65Z" transform="translate(19.13)"/><path class="cls-9" d="M41.23 431.02h123.9v4.07H41.23z"/><rect class="cls-7" x="67.75" y="375.4" width="107.89" height="25.78" rx="6.43"/><rect class="cls-8" x="29.23" y="375.4" width="107.89" height="25.78" rx="6.43"/><path class="cls-7" d="M111.56 401.65h-95a6.91 6.91 0 0 1-6.9-6.91v-12.92a6.91 6.91 0 0 1 6.9-6.9h95a6.91 6.91 0 0 1 6.9 6.9v12.92a6.91 6.91 0 0 1-6.9 6.91Zm-95-25.78a6 6 0 0 0-6 5.95v12.92a6 6 0 0 0 6 6h95a6 6 0 0 0 6-6v-12.92a6 6 0 0 0-6-5.95Z" transform="translate(19.13)"/><path class="cls-9" d="M107 389.3H45.05a1.48 1.48 0 0 0 0 3h62a1.48 1.48 0 1 0 0-3Z" transform="translate(19.13)"/><path class="cls-10" d="M107 389.3H51.65a1.48 1.48 0 0 0 0 3H107a1.48 1.48 0 1 0 0-3Z" transform="translate(19.13)"/><path class="cls-9" d="M107 383.63H45.05a1.48 1.48 0 0 0 0 3h62a1.48 1.48 0 1 0 0-3Z" transform="translate(19.13)"/><path class="cls-5" d="M107 383.63H60.05a1.48 1.48 0 0 0 0 3h47a1.48 1.48 0 1 0 0-3Z" transform="translate(19.13)"/><path class="cls-9" d="M92.26 396H54.43a3.56 3.56 0 0 0-3.56 3.56v1.63h44.95v-1.63a3.56 3.56 0 0 0-3.56-3.56ZM145 396h-15.7a3.56 3.56 0 0 0-3.56 3.56v1.63h22.84v-1.63A3.56 3.56 0 0 0 145 396Z" transform="translate(19.13)"/><path class="cls-11" d="M19.61 385.79a2.5 2.5 0 1 0 2.49 2.49 2.5 2.5 0 0 0-2.49-2.49Z" transform="translate(19.13)"/><path class="cls-9" d="M19.61 385.37a2.92 2.92 0 1 0 2.91 2.91 2.92 2.92 0 0 0-2.91-2.91Zm0 5a2.08 2.08 0 1 1 2.07-2.08 2.08 2.08 0 0 1-2.07 2.07Z" transform="translate(19.13)"/><path class="cls-7" d="M28.59 385.79a2.5 2.5 0 1 0 2.49 2.49 2.5 2.5 0 0 0-2.49-2.49Z" transform="translate(19.13)"/><path class="cls-9" d="M28.59 385.37a2.92 2.92 0 1 0 2.91 2.91 2.92 2.92 0 0 0-2.91-2.91Zm0 5a2.08 2.08 0 1 1 2.07-2.08 2.07 2.07 0 0 1-2.07 2.07Z" transform="translate(19.13)"/><path class="cls-9" d="M50.21 387.44h5.26v1.68h-5.26z"/><path class="cls-9" d="M148.49 382.66a1.65 1.65 0 1 0 1.65 1.65 1.65 1.65 0 0 0-1.65-1.65ZM148.49 388.64a1.65 1.65 0 1 0 1.65 1.65 1.65 1.65 0 0 0-1.65-1.65ZM140.94 382.66a1.65 1.65 0 1 0 1.65 1.65 1.65 1.65 0 0 0-1.65-1.65ZM140.94 388.64a1.65 1.65 0 1 0 1.65 1.65 1.65 1.65 0 0 0-1.65-1.65ZM133.38 382.66a1.65 1.65 0 1 0 1.65 1.65 1.65 1.65 0 0 0-1.65-1.65ZM133.38 388.64a1.65 1.65 0 1 0 1.65 1.65 1.65 1.65 0 0 0-1.65-1.65ZM125.83 382.66a1.65 1.65 0 1 0 1.65 1.65 1.65 1.65 0 0 0-1.65-1.65ZM125.83 388.64a1.65 1.65 0 1 0 1.65 1.65 1.65 1.65 0 0 0-1.65-1.65Z" transform="translate(19.13)"/><path class="cls-9" d="M41.23 401.17h123.9v4.07H41.23z"/><rect class="cls-7" x="67.75" y="345.55" width="107.89" height="25.78" rx="6.43"/><rect class="cls-8" x="29.23" y="345.55" width="107.89" height="25.78" rx="6.43"/><path class="cls-7" d="M111.56 371.8h-95a6.9 6.9 0 0 1-6.9-6.9V352a6.9 6.9 0 0 1 6.9-6.9h95a6.9 6.9 0 0 1 6.9 6.9v12.9a6.9 6.9 0 0 1-6.9 6.9ZM16.53 346a6 6 0 0 0-6 6v12.9a6 6 0 0 0 6 6h95a6 6 0 0 0 6-6V352a6 6 0 0 0-6-6Z" transform="translate(19.13)"/><path class="cls-9" d="M107 359.45H45.05a1.48 1.48 0 1 0 0 3h62a1.48 1.48 0 1 0 0-3Z" transform="translate(19.13)"/><path class="cls-10" d="M107 359.45H51.65a1.48 1.48 0 1 0 0 3H107a1.48 1.48 0 1 0 0-3Z" transform="translate(19.13)"/><path class="cls-9" d="M107 353.79H45.05a1.48 1.48 0 0 0 0 3h62a1.48 1.48 0 1 0 0-3Z" transform="translate(19.13)"/><path class="cls-5" d="M107 353.79H60.05a1.48 1.48 0 0 0 0 3h47a1.48 1.48 0 1 0 0-3Z" transform="translate(19.13)"/><path class="cls-9" d="M92.26 366.13H54.43a3.56 3.56 0 0 0-3.56 3.57v1.63h44.95v-1.63a3.56 3.56 0 0 0-3.56-3.57ZM145 366.13h-15.7a3.56 3.56 0 0 0-3.56 3.57v1.63h22.84v-1.63a3.57 3.57 0 0 0-3.58-3.57Z" transform="translate(19.13)"/><path class="cls-11" d="M19.61 356a2.49 2.49 0 1 0 2.49 2.49 2.49 2.49 0 0 0-2.49-2.49Z" transform="translate(19.13)"/><path class="cls-9" d="M19.61 355.52a2.92 2.92 0 1 0 2.91 2.92 2.92 2.92 0 0 0-2.91-2.92Zm0 5a2.07 2.07 0 1 1 2.07-2.07 2.08 2.08 0 0 1-2.07 2.06Z" transform="translate(19.13)"/><path class="cls-7" d="M28.59 356a2.49 2.49 0 1 0 2.49 2.49 2.49 2.49 0 0 0-2.49-2.49Z" transform="translate(19.13)"/><path class="cls-9" d="M28.59 355.52a2.92 2.92 0 1 0 2.91 2.92 2.92 2.92 0 0 0-2.91-2.92Zm0 5a2.07 2.07 0 1 1 2.07-2.07 2.07 2.07 0 0 1-2.07 2.06Z" transform="translate(19.13)"/><path class="cls-9" d="M50.21 357.6h5.26v1.68h-5.26z"/><path class="cls-9" d="M148.49 352.81a1.66 1.66 0 1 0 1.65 1.65 1.65 1.65 0 0 0-1.65-1.65ZM148.49 358.79a1.66 1.66 0 1 0 1.65 1.65 1.65 1.65 0 0 0-1.65-1.65ZM140.94 352.81a1.66 1.66 0 1 0 1.65 1.65 1.65 1.65 0 0 0-1.65-1.65ZM140.94 358.79a1.66 1.66 0 1 0 1.65 1.65 1.65 1.65 0 0 0-1.65-1.65ZM133.38 352.81a1.66 1.66 0 1 0 1.65 1.65 1.65 1.65 0 0 0-1.65-1.65ZM133.38 358.79a1.66 1.66 0 1 0 1.65 1.65 1.65 1.65 0 0 0-1.65-1.65ZM125.83 352.81a1.66 1.66 0 1 0 1.65 1.65 1.65 1.65 0 0 0-1.65-1.65ZM125.83 358.79a1.66 1.66 0 1 0 1.65 1.65 1.65 1.65 0 0 0-1.65-1.65Z" transform="translate(19.13)"/><path class="cls-9" d="M41.23 371.33h123.9v4.07H41.23z"/><rect class="cls-7" x="67.75" y="315.75" width="107.89" height="25.78" rx="6.43"/><rect class="cls-8" x="29.23" y="315.75" width="107.89" height="25.78" rx="6.43"/><path class="cls-7" d="M111.56 342h-95a6.91 6.91 0 0 1-6.9-6.91v-12.92a6.91 6.91 0 0 1 6.9-6.9h95a6.91 6.91 0 0 1 6.9 6.9v12.92a6.91 6.91 0 0 1-6.9 6.91Zm-95-25.78a6 6 0 0 0-6 5.95v12.92a6 6 0 0 0 6 6h95a6 6 0 0 0 6-6v-12.92a6 6 0 0 0-6-5.95Z" transform="translate(19.13)"/><path class="cls-9" d="M107 329.65H45.05a1.48 1.48 0 1 0 0 3h62a1.48 1.48 0 1 0 0-3Z" transform="translate(19.13)"/><path class="cls-10" d="M107 329.65H51.65a1.48 1.48 0 1 0 0 3H107a1.48 1.48 0 1 0 0-3Z" transform="translate(19.13)"/><path class="cls-9" d="M107 324H45.05a1.48 1.48 0 0 0 0 3h62a1.48 1.48 0 1 0 0-3Z" transform="translate(19.13)"/><path class="cls-5" d="M107 324H60.05a1.48 1.48 0 0 0 0 3h47a1.48 1.48 0 1 0 0-3Z" transform="translate(19.13)"/><path class="cls-9" d="M92.26 336.33H54.43a3.56 3.56 0 0 0-3.56 3.56v1.63h44.95v-1.63a3.56 3.56 0 0 0-3.56-3.56ZM145 336.33h-15.7a3.56 3.56 0 0 0-3.56 3.56v1.63h22.84v-1.63a3.56 3.56 0 0 0-3.58-3.56Z" transform="translate(19.13)"/><path class="cls-11" d="M19.61 326.14a2.5 2.5 0 1 0 2.49 2.49 2.5 2.5 0 0 0-2.49-2.49Z" transform="translate(19.13)"/><path class="cls-9" d="M19.61 325.72a2.92 2.92 0 1 0 2.91 2.91 2.92 2.92 0 0 0-2.91-2.91Zm0 5a2.08 2.08 0 1 1 2.07-2.08 2.08 2.08 0 0 1-2.07 2.07Z" transform="translate(19.13)"/><path class="cls-7" d="M28.59 326.14a2.5 2.5 0 1 0 2.49 2.49 2.5 2.5 0 0 0-2.49-2.49Z" transform="translate(19.13)"/><path class="cls-9" d="M28.59 325.72a2.92 2.92 0 1 0 2.91 2.91 2.92 2.92 0 0 0-2.91-2.91Zm0 5a2.08 2.08 0 1 1 2.07-2.08 2.07 2.07 0 0 1-2.07 2.07Z" transform="translate(19.13)"/><path class="cls-9" d="M50.21 327.79h5.26v1.68h-5.26z"/><path class="cls-9" d="M148.49 323a1.65 1.65 0 1 0 1.65 1.65 1.65 1.65 0 0 0-1.65-1.65ZM148.49 329a1.65 1.65 0 1 0 1.65 1.65 1.65 1.65 0 0 0-1.65-1.65ZM140.94 323a1.65 1.65 0 1 0 1.65 1.65 1.65 1.65 0 0 0-1.65-1.65ZM140.94 329a1.65 1.65 0 1 0 1.65 1.65 1.65 1.65 0 0 0-1.65-1.65ZM133.38 323a1.65 1.65 0 1 0 1.65 1.65 1.65 1.65 0 0 0-1.65-1.65ZM133.38 329a1.65 1.65 0 1 0 1.65 1.65 1.65 1.65 0 0 0-1.65-1.65ZM125.83 323a1.65 1.65 0 1 0 1.65 1.65 1.65 1.65 0 0 0-1.65-1.65ZM125.83 329a1.65 1.65 0 1 0 1.65 1.65 1.65 1.65 0 0 0-1.65-1.65Z" transform="translate(19.13)"/><path class="cls-9" d="M41.23 341.52h123.9v4.07H41.23z"/><rect class="cls-7" x="67.75" y="285.9" width="107.89" height="25.78" rx="6.43"/><rect class="cls-8" x="29.23" y="285.9" width="107.89" height="25.78" rx="6.43"/><path class="cls-7" d="M111.56 312.15h-95a6.9 6.9 0 0 1-6.9-6.9v-12.92a6.91 6.91 0 0 1 6.9-6.91h95a6.91 6.91 0 0 1 6.9 6.91v12.92a6.9 6.9 0 0 1-6.9 6.9Zm-95-25.77a6 6 0 0 0-6 5.95v12.92a6 6 0 0 0 6 5.95h95a6 6 0 0 0 6-5.95v-12.92a6 6 0 0 0-6-5.95Z" transform="translate(19.13)"/><path class="cls-9" d="M107 299.8H45.05a1.48 1.48 0 0 0 0 3h62a1.48 1.48 0 1 0 0-3Z" transform="translate(19.13)"/><path class="cls-10" d="M107 299.8H51.65a1.48 1.48 0 1 0 0 3H107a1.48 1.48 0 1 0 0-3Z" transform="translate(19.13)"/><path class="cls-9" d="M107 294.14H45.05a1.48 1.48 0 0 0 0 3h62a1.48 1.48 0 1 0 0-3Z" transform="translate(19.13)"/><path class="cls-5" d="M107 294.14H60.05a1.48 1.48 0 0 0 0 3h47a1.48 1.48 0 1 0 0-3Z" transform="translate(19.13)"/><path class="cls-9" d="M92.26 306.48H54.43a3.56 3.56 0 0 0-3.56 3.57v1.63h44.95v-1.63a3.56 3.56 0 0 0-3.56-3.57ZM145 306.48h-15.7a3.56 3.56 0 0 0-3.56 3.57v1.63h22.84v-1.63a3.57 3.57 0 0 0-3.58-3.57Z" transform="translate(19.13)"/><path class="cls-11" d="M19.61 296.29a2.5 2.5 0 1 0 2.49 2.5 2.5 2.5 0 0 0-2.49-2.5Z" transform="translate(19.13)"/><path class="cls-9" d="M19.61 295.87a2.92 2.92 0 1 0 2.91 2.92 2.92 2.92 0 0 0-2.91-2.92Zm0 5a2.07 2.07 0 1 1 2.07-2.07 2.08 2.08 0 0 1-2.07 2.06Z" transform="translate(19.13)"/><path class="cls-7" d="M28.59 296.29a2.5 2.5 0 1 0 2.49 2.5 2.5 2.5 0 0 0-2.49-2.5Z" transform="translate(19.13)"/><path class="cls-9" d="M28.59 295.87a2.92 2.92 0 1 0 2.91 2.92 2.92 2.92 0 0 0-2.91-2.92Zm0 5a2.07 2.07 0 1 1 2.07-2.07 2.07 2.07 0 0 1-2.07 2.06Z" transform="translate(19.13)"/><path class="cls-9" d="M50.21 297.95h5.26v1.68h-5.26z"/><path class="cls-9" d="M148.49 293.16a1.66 1.66 0 1 0 1.65 1.65 1.65 1.65 0 0 0-1.65-1.65ZM148.49 299.14a1.66 1.66 0 1 0 1.65 1.65 1.65 1.65 0 0 0-1.65-1.65ZM140.94 293.16a1.66 1.66 0 1 0 1.65 1.65 1.65 1.65 0 0 0-1.65-1.65ZM140.94 299.14a1.66 1.66 0 1 0 1.65 1.65 1.65 1.65 0 0 0-1.65-1.65ZM133.38 293.16a1.66 1.66 0 1 0 1.65 1.65 1.65 1.65 0 0 0-1.65-1.65ZM133.38 299.14a1.66 1.66 0 1 0 1.65 1.65 1.65 1.65 0 0 0-1.65-1.65ZM125.83 293.16a1.66 1.66 0 1 0 1.65 1.65 1.65 1.65 0 0 0-1.65-1.65ZM125.83 299.14a1.66 1.66 0 1 0 1.65 1.65 1.65 1.65 0 0 0-1.65-1.65Z" transform="translate(19.13)"/><path class="cls-9" d="M41.23 311.68h123.9v4.07H41.23z"/><path class="cls-5" d="M127.64 413.31h-1.81V415h1.81a4.9 4.9 0 0 1 4.9 4.9v18.35a4.91 4.91 0 0 1-4.9 4.91h-1.81v1.68h1.81a6.59 6.59 0 0 0 6.58-6.59V419.9a6.59 6.59 0 0 0-6.58-6.59ZM142.84 383.35H141V385h1.82a4.91 4.91 0 0 1 4.9 4.9v18.36a4.91 4.91 0 0 1-4.9 4.9H141v1.68h1.82a6.59 6.59 0 0 0 6.58-6.58v-18.33a6.59 6.59 0 0 0-6.56-6.58Z" transform="translate(19.13)"/><path class="cls-7" d="M39.3 464.93h422.93v1.02H39.3z"/><path class="cls-2" d="M387 464.93h-60.43l-21.9-114.08a29.65 29.65 0 0 1 29.12-35.24 29.65 29.65 0 0 1 29.12 24.06Z" transform="translate(19.13)"/><path class="cls-7" d="M388 465.81h-62.16L303.8 351a30.54 30.54 0 1 1 60-11.52ZM327.3 464h58.59L362 339.83a28.77 28.77 0 0 0-56.51 10.86Z" transform="translate(19.13)"/><path class="cls-7" d="m325.72 439.44 2.42-.46L311 349.64a23.22 23.22 0 0 1 45.61-8.76l10.26 53.38 2.41-.47L359 340.42a25.69 25.69 0 0 0-50.46 9.68Z" transform="translate(19.13)"/><path class="cls-2" d="M233.18 454.75h159.94v10.18H233.18z"/><path class="cls-7" d="M374.88 465.81H213.17v-11.94h161.71ZM214.94 464h158.17v-8.4H214.94Z" transform="translate(19.13)"/><path class="cls-7" d="M233.18 453.52h131.18v2.46H233.18z"/><path class="cls-2" d="M510.78 403.92A15.78 15.78 0 0 1 494.6 420H149.82a20.4 20.4 0 0 1-19.93-18.85 6.47 6.47 0 0 1 0-1v-24.86l-.05-75.42v-108A15.84 15.84 0 0 1 146 175.79h344.75a19.77 19.77 0 0 1 3.07.26c9.34 1.56 16.87 10 16.89 19.6v189.06Z" transform="translate(19.13)"/><path class="cls-7" d="M494.6 420.46H149.82c-10.48 0-19.82-8.82-20.39-19.27a8.55 8.55 0 0 1 0-1.05v-24.85l-.05-75.42v-108a16.47 16.47 0 0 1 3.84-10.79 16.64 16.64 0 0 1 12.8-5.78h344.73a19.89 19.89 0 0 1 3.14.27c9.67 1.61 17.26 10.42 17.28 20.05l.07 208.27a16.43 16.43 0 0 1-4.71 11.75 16.68 16.68 0 0 1-11.93 4.82ZM146 176.24a15.4 15.4 0 0 0-15.73 15.66v108l.05 75.42v24.88a7.07 7.07 0 0 0 0 .95 20 20 0 0 0 19.48 18.43h344.8a15.78 15.78 0 0 0 11.28-4.58 15.5 15.5 0 0 0 4.45-11.11l-.07-208.27c0-9.2-7.28-17.61-16.52-19.15a19.2 19.2 0 0 0-3-.26Z" transform="translate(19.13)"/><path class="cls-5" d="m502.29 394.47-.08-199.71a10.36 10.36 0 0 0-3.16-7.36 10.48 10.48 0 0 0-7.4-3.15H146.84a8.36 8.36 0 0 0-8.57 8.53l.08 201.69Z" transform="translate(19.13)"/><path class="cls-7" d="M502.75 394.93H137.89v-.46l-.07-201.69a9 9 0 0 1 2.58-6.42 9.09 9.09 0 0 1 6.44-2.57h344.81a11 11 0 0 1 7.72 3.28 10.83 10.83 0 0 1 3.3 7.69ZM138.8 394h363l-.07-199.26a9.92 9.92 0 0 0-3-7 10 10 0 0 0-7.08-3H146.84a7.91 7.91 0 0 0-8.11 8.08Z" transform="translate(19.13)"/><path class="cls-4" d="M491.63 184.41H147a8.71 8.71 0 0 0-8.71 8.7v15.22h364.39v-12.88a11.05 11.05 0 0 0-11.05-11.04Z" transform="translate(19.13)"/><path class="cls-7" d="M503.13 208.79H137.82v-15.68A9.16 9.16 0 0 1 147 184h344.63a11.51 11.51 0 0 1 11.5 11.49Zm-364.4-.91h363.49v-12.43a10.6 10.6 0 0 0-10.59-10.58H147a8.26 8.26 0 0 0-8.25 8.24Z" transform="translate(19.13)"/><path class="cls-10" d="M463.25 194.38a2.64 2.64 0 1 0 2.64 2.64 2.64 2.64 0 0 0-2.64-2.64Z" transform="translate(19.13)"/><path class="cls-5" d="M474.39 194.38A2.64 2.64 0 1 0 477 197a2.64 2.64 0 0 0-2.61-2.62Z" transform="translate(19.13)"/><path class="cls-8" d="M485.53 194.38a2.64 2.64 0 1 0 2.64 2.64 2.64 2.64 0 0 0-2.64-2.64Z" transform="translate(19.13)"/><path class="cls-7" d="M323.96 137.52h2v6h-2z"/><path class="cls-7" d="M306.83 236.21h-2v-11.59h2Zm0-23.17h-2v-11.59h2Zm0-23.18h-2v-11.58h2Zm0-23.17h-2V155.1h2Z" transform="translate(19.13)"/><path class="cls-7" d="M323.96 247.8h2v6h-2zM351.29 137.52h2v6h-2z"/><path class="cls-7" d="M334.17 236.21h-2v-11.59h2Zm0-23.17h-2v-11.59h2Zm0-23.18h-2v-11.58h2Zm0-23.17h-2V155.1h2Z" transform="translate(19.13)"/><path class="cls-7" d="M351.29 247.8h2v6h-2z"/><path class="cls-4" d="M54.34 111.16h146.55a4.38 4.38 0 0 1 4.38 4.38V215a6.38 6.38 0 0 1-6.38 6.38H56.34A6.38 6.38 0 0 1 50 215v-99.46a4.38 4.38 0 0 1 4.34-4.38Z"/><g style="clip-path:url(#clip-path-2)"><path class="cls-10" d="m206.45 128.13-37.12 22.05-31.67-11.3-38.71 31.85-28.39-5.03-36.38 24.44v2.23l36.96-24.64 28.28 5 38.56-31.77 31.56 11.25 36.91-22.01v-2.07z"/><path class="cls-5" d="M113.71 140.31a5.14 5.14 0 0 1 4.78-5.22 4.69 4.69 0 0 1 5.17 4.44 5.15 5.15 0 0 1-4.77 5.24 4.7 4.7 0 0 1-5.18-4.46Z" transform="translate(19.13)"/><path class="cls-7" d="M118.47 145.05a5.08 5.08 0 0 1-3.4-1.27 4.81 4.81 0 0 1-1.63-3.45 5.42 5.42 0 0 1 5-5.51 5.13 5.13 0 0 1 3.83 1.26 4.81 4.81 0 0 1 1.63 3.44 5.42 5.42 0 0 1-5 5.51Zm.43-9.71h-.39a4.89 4.89 0 0 0-4.54 5 4.32 4.32 0 0 0 1.46 3.08 4.58 4.58 0 0 0 3.44 1.12 4.89 4.89 0 0 0 4.53-5 4.3 4.3 0 0 0-1.45-3.06 4.53 4.53 0 0 0-3.05-1.14Z" transform="translate(19.13)"/><path class="cls-5" d="M75 171.87a5.38 5.38 0 0 1 5-5.4 4.75 4.75 0 0 1 5.3 4.5 5.38 5.38 0 0 1-5 5.4 4.73 4.73 0 0 1-5.3-4.5Z" transform="translate(19.13)"/><path class="cls-7" d="M79.81 176.66a5.15 5.15 0 0 1-3.45-1.28 4.86 4.86 0 0 1-1.64-3.5 5.66 5.66 0 0 1 5.21-5.67 5.19 5.19 0 0 1 3.94 1.26 4.8 4.8 0 0 1 1.64 3.53 5.65 5.65 0 0 1-5.19 5.68 4.35 4.35 0 0 1-.51-.02Zm.61-9.94h-.44a5.12 5.12 0 0 0-4.73 5.12 4.3 4.3 0 0 0 1.46 3.16 4.68 4.68 0 0 0 3.56 1.13A5.13 5.13 0 0 0 85 171a4.29 4.29 0 0 0-1.46-3.11 4.61 4.61 0 0 0-3.12-1.17Z" transform="translate(19.13)"/><path class="cls-5" d="M46.74 167.35a5.49 5.49 0 0 1 5.08-5.43 4.79 4.79 0 0 1 5.36 4.54 5.46 5.46 0 0 1-5.06 5.43 4.79 4.79 0 0 1-5.38-4.54Z" transform="translate(19.13)"/><path class="cls-7" d="M51.63 172.18a5.22 5.22 0 0 1-3.52-1.31 4.85 4.85 0 0 1-1.63-3.51 5.74 5.74 0 0 1 5.32-5.7 5.29 5.29 0 0 1 4 1.29 4.87 4.87 0 0 1 1.63 3.5 5.74 5.74 0 0 1-5.3 5.71Zm.66-10h-.45a5.2 5.2 0 0 0-4.84 5.17 4.29 4.29 0 0 0 1.46 3.12 4.73 4.73 0 0 0 3.63 1.16 5.19 5.19 0 0 0 4.81-5.16 4.28 4.28 0 0 0-1.45-3.12 4.7 4.7 0 0 0-3.16-1.18Z" transform="translate(19.13)"/><path class="cls-5" d="M145.52 151.16a5.08 5.08 0 0 1 4.67-5.21 4.64 4.64 0 0 1 5.1 4.4 5.08 5.08 0 0 1-4.66 5.22 4.65 4.65 0 0 1-5.11-4.41Z" transform="translate(19.13)"/><path class="cls-7" d="M150.2 155.85a5 5 0 0 1-3.3-1.23 4.84 4.84 0 0 1-1.65-3.45 5.36 5.36 0 0 1 4.92-5.49 5 5 0 0 1 3.74 1.22 4.83 4.83 0 0 1 1.65 3.44 5.35 5.35 0 0 1-4.9 5.49 3.54 3.54 0 0 1-.46.02Zm-4.42-4.7a4.33 4.33 0 0 0 1.47 3.07 4.46 4.46 0 0 0 3.36 1.08 4.82 4.82 0 0 0 4.42-4.94 4.32 4.32 0 0 0-1.47-3.06 4.53 4.53 0 0 0-3.35-1.09 4.83 4.83 0 0 0-4.43 4.94Z" transform="translate(19.13)"/><path class="cls-8" d="m226.88 154.97-51.43 20.68-30.22-16.13-43.88 26-27.58-9.33-39.59 18.63v2.05l39.85-18.56 27.47 9.27 43.72-25.93 30.13 16.06 51.53-20.81v-1.93z"/><path class="cls-7" d="M121 160.23a5.28 5.28 0 0 1 5.65-4.52 4.74 4.74 0 0 1 4.51 5.23 5.27 5.27 0 0 1-5.63 4.53 4.76 4.76 0 0 1-4.53-5.24ZM77.2 185.92a5.48 5.48 0 0 1 5.8-4.64 4.78 4.78 0 0 1 4.6 5.3 5.48 5.48 0 0 1-5.8 4.64 4.77 4.77 0 0 1-4.6-5.3ZM49.71 177.13a5.55 5.55 0 0 1 5.91-4.64 4.8 4.8 0 0 1 4.64 5.33 5.57 5.57 0 0 1-5.9 4.65 4.8 4.8 0 0 1-4.65-5.34ZM151.43 175.92a5.21 5.21 0 0 1 5.55-4.53 4.72 4.72 0 0 1 4.48 5.2 5.21 5.21 0 0 1-5.54 4.53 4.71 4.71 0 0 1-4.49-5.2Z" transform="translate(19.13)"/></g><path class="cls-2" d="M181.7 111.16H35.4a4.44 4.44 0 0 0-4.4 4.44v5.18h155.14v-5.18a4.44 4.44 0 0 0-4.44-4.44Z" transform="translate(19.13)"/><path class="cls-7" d="M186.44 121.08H30.66v-5.48a4.75 4.75 0 0 1 4.74-4.74h146.3a4.75 4.75 0 0 1 4.74 4.74Zm-155.19-.59h154.59v-4.89a4.15 4.15 0 0 0-4.14-4.15H35.4a4.15 4.15 0 0 0-4.15 4.15Z" transform="translate(19.13)"/><path class="cls-13" d="M170.27 115.17a1.06 1.06 0 1 0 1.07 1.06 1.06 1.06 0 0 0-1.07-1.06Z" transform="translate(19.13)"/><path class="cls-10" d="M174.76 115.17a1.06 1.06 0 1 0 1.06 1.06 1.06 1.06 0 0 0-1.06-1.06Z" transform="translate(19.13)"/><path class="cls-8" d="M179.24 115.17a1.06 1.06 0 1 0 1.06 1.06 1.05 1.05 0 0 0-1.06-1.06Z" transform="translate(19.13)"/><path class="cls-13" d="M181.76 110.89H35.22a4.65 4.65 0 0 0-4.65 4.65V215a6.66 6.66 0 0 0 6.65 6.66h142.54a6.66 6.66 0 0 0 6.65-6.66v-99.46a4.66 4.66 0 0 0-4.65-4.65ZM185.88 215a6.13 6.13 0 0 1-6.12 6.12H37.22A6.13 6.13 0 0 1 31.1 215v-99.46a4.13 4.13 0 0 1 4.12-4.12h146.54a4.13 4.13 0 0 1 4.12 4.12Z" transform="translate(19.13)"/><path class="cls-8" d="M194.49 82.77a42.11 42.11 0 0 1 16.78 3.48c4.61-11.18 14.3-18.89 25.52-18.89a25.63 25.63 0 0 1 2.64.15 69.22 69.22 0 0 1-.54-8.58C238.89 26.65 261 .48 288.26.48c22.11 0 40.82 17.2 47.11 40.92 7.34-7.41 16.85-11.89 27.25-11.89 21.93 0 39.92 19.9 41.85 45.27 9.83 2 17.59 11.07 19.37 22.66a37.17 37.17 0 0 1 22.3-7.44c23.21 0 42 22.86 42 50.05H146.42c0-31.13 21.52-57.28 48.07-57.28Z" transform="translate(19.13)"/><path class="cls-7" d="M488.65 140.49H145.94V140c0-31.82 21.78-57.71 48.55-57.71A42.45 42.45 0 0 1 211 85.63c4.94-11.58 14.77-18.75 25.77-18.75.68 0 1.37 0 2.1.1a70.49 70.49 0 0 1-.47-8.05C238.42 26.43 260.78 0 288.26 0c21.67 0 40.61 16.24 47.35 40.49 7.6-7.39 17.16-11.45 27-11.45 22.05 0 40.18 19.47 42.29 45.35 9.63 2.11 17.27 10.94 19.28 22.22a37.63 37.63 0 0 1 21.95-7.12c23.44 0 42.51 22.66 42.51 50.52Zm-341.76-1h340.8c-.21-27.12-18.77-49.1-41.55-49.1a36.72 36.72 0 0 0-22 7.39l-.64.47-.12-.78c-1.74-11.39-9.38-20.34-19-22.27l-.35-.07v-.36C402.06 49.26 384.27 30 362.62 30c-9.85 0-19.41 4.17-26.92 11.75l-.58.59-.21-.8C328.47 17.26 309.73 1 288.26 1c-27 0-48.89 26-48.89 58a70 70 0 0 0 .53 8.52l.08.6-.6-.07a23.71 23.71 0 0 0-2.59-.15c-10.74 0-20.35 7.13-25.08 18.6l-.19.45-.44-.19a41.54 41.54 0 0 0-16.59-3.44c-26.11-.07-47.38 25.14-47.6 56.22Z" transform="translate(19.13)"/><path class="cls-7" d="M225 75.44a69.39 69.39 0 0 0 .53 8.59 23.1 23.1 0 0 0-2.64-.15c-11.22 0-20.91 7.7-25.52 18.89a41.6 41.6 0 0 0-42.9 5.84c8.61-15.45 23.34-25.84 40.07-25.84a42.11 42.11 0 0 1 16.78 3.48 31.36 31.36 0 0 1 13.88-15.93c-.2 1.68-.2 3.4-.2 5.12ZM432.19 106.48a37.17 37.17 0 0 0-22.3 7.48c-1.78-11.59-9.54-20.69-19.37-22.66C388.59 65.93 370.6 46 348.67 46c-10.4 0-19.91 4.48-27.25 11.89-6.29-23.69-25-40.89-47.11-40.89a43.89 43.89 0 0 0-27.22 9.7C255.92 10.9 271.06.48 288.26.48c22.11 0 40.82 17.2 47.11 40.92 7.34-7.41 16.85-11.89 27.25-11.89 21.93 0 39.92 19.9 41.85 45.27 9.83 2 17.59 11.07 19.37 22.66a37.17 37.17 0 0 1 22.3-7.44c23.21 0 42 22.86 42 50.05h-16.32c-5.82-19.37-21.34-33.57-39.63-33.57Z" transform="translate(19.13)"/><path class="cls-5" d="m356.21 129.35 4.21-13.78-8.42-3.41a36.32 36.32 0 0 0-1.22-12.58l7.65-5-6.75-12.71-8.39 3.57a36.23 36.23 0 0 0-9.75-8l1.9-8.92-13.78-4.21-3.4 8.46A36.56 36.56 0 0 0 305.65 74l-5-7.65L288 73.1l3.57 8.39a36.44 36.44 0 0 0-8 9.75l-8.91-1.91-4.21 13.78 8.45 3.41a36.56 36.56 0 0 0 1.22 12.58l-7.65 5 6.75 12.7 8.39-3.57a36.54 36.54 0 0 0 9.75 8l-1.9 8.92 13.78 4.21 3.41-8.46a36 36 0 0 0 12.57-1.21l5 7.65 12.71-6.76-3.57-8.39a36.3 36.3 0 0 0 8-9.74Zm-48.4 4.85a26 26 0 1 1 32.46-17.26 26 26 0 0 1-32.46 17.26Z" transform="translate(19.13)"/><path class="cls-14" d="m295.14 105.72-6.02-2.42 3.18-10.39.61.18-3.01 9.83 5.48 2.21-.24.59z"/><path class="cls-14" d="m295.71 150.22-.62-.14 1.85-8.67a30.1 30.1 0 0 1-7.63-5.85l.48-.43a28.94 28.94 0 0 0 7.65 5.82l.22.11ZM330.05 131.2l-.36-.52c16.73-11.75 10-29.65 9.95-29.83l.59-.23c.08.18 6.96 18.55-10.18 30.58ZM351.74 106.55a57.53 57.53 0 0 0-1.3-6.88l-.06-.23 2.81-1.82.35.54-2.43 1.57a58.34 58.34 0 0 1 1.26 6.74Z" transform="translate(19.13)"/><path class="cls-7" d="m313.11 153.73-14.34-4.38 1.92-9a35.18 35.18 0 0 1-9.5-7.82l-8.43 3.59-7-13.23 7.7-5a36.35 36.35 0 0 1-1.18-12.24l-8.52-3.43 4.38-14.34 9 1.92c.67-1.16 4-6.77 7.82-9.51l-3.59-8.42 13.23-7 5 7.69a30.05 30.05 0 0 1 12.25-1.17l3.43-8.51 14.34 4.38-1.92 9a34 34 0 0 1 9.5 7.82l8.43-3.59 7 13.23-7.7 5a32.07 32.07 0 0 1 1.18 12.25l8.51 3.43-4.38 14.33-9-1.91a32.7 32.7 0 0 1-7.83 9.49l3.59 8.39-13.22 7-5-7.69a28.17 28.17 0 0 1-12.25 1.17Zm-13.6-4.82 13.24 4.09 3.39-8.42h.24a27 27 0 0 0 12.42-1.2l.24-.1 4.95 7.64 12.2-6.49-3.55-8.35.19-.15a31.55 31.55 0 0 0 7.95-9.64l.11-.23 8.88 1.9 4.05-13.23-8.42-3.4v-.23a30.9 30.9 0 0 0-1.2-12.45l-.09-.23 7.63-4.94-6.49-12.2-8.35 3.55-.15-.19c-3.58-4.75-9.59-7.93-9.65-8l-.21-.11 1.89-8.87-13.23-4-3.39 8.41L322 72a29 29 0 0 0-12.43 1.2l-.25.09-4.94-7.63-12.2 6.49 3.56 8.36-.21.15c-4.12 2.84-7.91 9.58-8 9.65l-.11.2-8.87-1.89-4 13.23 8.4 3.39v.23A35.29 35.29 0 0 0 284.1 118l.07.23-7.62 4.94 6.49 12.2 8.35-3.55.15.19a34.62 34.62 0 0 0 9.65 8l.21.11Z" transform="translate(19.13)"/><path class="cls-7" d="M319.16 134.63a26.34 26.34 0 1 1 26.34-26.33 26.36 26.36 0 0 1-26.34 26.33Zm0-52a25.71 25.71 0 1 0 25.71 25.71 25.74 25.74 0 0 0-25.71-25.75Z" transform="translate(19.13)"/><path class="cls-8" d="M264.72 239.49h149.33a5 5 0 0 1 5 5V349.4a7.34 7.34 0 0 1-7.34 7.34H267a7.34 7.34 0 0 1-7.34-7.34V244.53a5 5 0 0 1 5.06-5.04Z"/><path class="cls-7" d="M392.62 357.21H247.9a7.82 7.82 0 0 1-7.82-7.81V244.53a5.52 5.52 0 0 1 5.52-5.53h149.32a5.52 5.52 0 0 1 5.52 5.51V349.4a7.82 7.82 0 0 1-7.82 7.81ZM245.6 240a4.58 4.58 0 0 0-4.58 4.57V349.4a6.88 6.88 0 0 0 6.88 6.87h144.72a6.88 6.88 0 0 0 6.88-6.87V244.53a4.58 4.58 0 0 0-4.58-4.57Z" transform="translate(19.13)"/><rect class="cls-10" x="271.45" y="258.4" width="136.28" height="29.45" rx="3.96"/><path class="cls-5" d="M278 268.37a6.23 6.23 0 0 1-6 6.45 6.31 6.31 0 0 1-6.15-6.41 6.23 6.23 0 0 1 6-6.45 6.31 6.31 0 0 1 6.15 6.41ZM263.86 283c0-4.76 3.61-5.09 8.12-5.11s8.17.29 8.21 5.05Z" transform="translate(19.13)"/><path class="cls-5" d="M312.36 271.67h52.8v4.65h-52.8zM372.24 271.67h26.07v4.65h-26.07z"/><rect class="cls-10" x="271.45" y="300.48" width="136.28" height="29.45" rx="3.96"/><path class="cls-5" d="m300.42 312.14-2.37 3.12v.05l3.77-.5v1.7l-3.77-.45v.05l2.4 3-1.58.89-1.5-3.49h-.05L295.7 320l-1.42-.9 2.37-3.05V316l-3.7.48v-1.7l3.67.47-2.34-3 1.52-.88 1.55 3.47 1.52-3.49ZM316.08 312.14l-2.37 3.12v.05l3.77-.5v1.7l-3.77-.45v.05l2.4 3-1.57.89-1.5-3.49H313l-1.64 3.49-1.42-.9 2.37-3.05V316l-3.69.48v-1.7l3.67.47-2.35-3 1.52-.88 1.55 3.47h.05l1.53-3.49ZM331.75 312.14l-2.37 3.12v.05l3.77-.5v1.7l-3.77-.45v.05l2.39 3-1.57.89-1.5-3.49h-.05L327 320l-1.43-.9 2.38-3.05V316l-3.7.48v-1.7l3.67.47-2.35-3 1.53-.88 1.55 3.47h.05l1.52-3.49ZM347.41 312.14l-2.41 3.12v.05l3.77-.5v1.7l-3.77-.45v.05l2.4 3-1.58.89-1.49-3.49h-.05l-1.59 3.49-1.42-.9 2.37-3.05V316l-3.7.48v-1.7l3.68.47-2.35-3 1.52-.88 1.55 3.47h.05l1.52-3.49ZM363.08 312.14l-2.38 3.12v.05l3.78-.5v1.7l-3.78-.45v.05l2.4 3-1.57.89-1.5-3.49-1.67 3.49-1.43-.9 2.38-3.05V316l-3.7.48v-1.7l3.67.47-2.35-3 1.53-.88 1.54 3.47h.05l1.53-3.49ZM378.74 312.14l-2.37 3.12v.05l3.77-.5v1.7l-3.77-.45v.05l2.4 3-1.58.89-1.5-3.49h-.05L374 320l-1.42-.9 2.37-3.05V316l-3.7.48v-1.7l3.67.47-2.34-3 1.52-.88 1.55 3.47h.05l1.52-3.49ZM277.57 308.29a6 6 0 0 0-.36-1.23 5.73 5.73 0 0 0-.86-1.4 4.4 4.4 0 0 0-.35-.39 5.13 5.13 0 0 0-.73-.61 5.93 5.93 0 0 0-.85-.5c-.14-.06-.28-.13-.43-.18a5.48 5.48 0 0 0-1.27-.31h-.69a4.63 4.63 0 0 0-.65 0 5.5 5.5 0 0 0-2.83 1.16 5.63 5.63 0 0 0-2.16 4.44v8.46h11.27v-8.46a5.18 5.18 0 0 0-.09-.98Zm-1.68 7.71h-7.74v-6.78a3.89 3.89 0 0 1 1.46-2.95c.15-.11.3-.22.45-.31a3.82 3.82 0 0 1 2-.54 3.23 3.23 0 0 1 .69.07 2.33 2.33 0 0 1 .36.08c.15 0 .3.1.45.15a3.52 3.52 0 0 1 .84.5 3.65 3.65 0 0 1 .69.67 3.37 3.37 0 0 1 .31.46 3.92 3.92 0 0 1 .52 1.95Z" transform="translate(19.13)"/><path class="cls-5" d="M279.49 313.18v9.59a1.38 1.38 0 0 1-1.38 1.38h-12.17a1.26 1.26 0 0 1-.55-.12l-.15-.07h-.05l-.1-.07-.07-.06-.06-.06-.05-.06v-.05l-.06-.1-.05-.09c0-.05 0-.1-.05-.14V322.9a.92.92 0 0 1 0-.16v-9.59a1.37 1.37 0 0 1 1.38-1.37h12.17a1.43 1.43 0 0 1 .94.36 1.37 1.37 0 0 1 .25 1.04Z" transform="translate(19.13)"/><path class="cls-10" d="M273.38 316.66a1.36 1.36 0 1 0-2.15 1.1v2.5a.75.75 0 0 0 .75.75.74.74 0 0 0 .74-.75v-2.44a1.35 1.35 0 0 0 .66-1.16Z" transform="translate(19.13)"/><path class="cls-7" d="M415.39 371.52h-20v1h21v-20.4h-1Zm-20-144.44v1h20v19.4h1v-20.4Zm-170.22 125h-1v20.4h21v-1h-20Zm-1-104.64h1v-19.4h20v-1h-21Z" transform="translate(19.13)"/><path class="cls-5" d="M248.63 119.68c-17.34-3.4-28.3 3.7-29.72 11.56a35.8 35.8 0 0 0 2.37 20.47l-7.16 16.33c6.07 9.68 20.34 6.07 20.34 6.07l3.24-9.91a10.61 10.61 0 0 0 3.72 1c6.7-.19 14.7-17.62 15.15-26.26.43-7.67 1.05-17.51-7.94-19.26Z" transform="translate(19.13)"/><path class="cls-7" d="M228.49 175.16c-4.74 0-11.1-1.2-14.66-6.88l-.1-.16.08-.18 7.1-16.19c0-.15-.11-.29-.18-.45a36 36 0 0 1-2.18-20.13 13.56 13.56 0 0 1 6.06-8.55c5.88-4 14.44-5.19 24.09-3.3 9.19 1.8 8.68 11.55 8.27 19.39v.28c-.47 9.16-8.63 26.4-15.5 26.6a9.88 9.88 0 0 1-3.5-.86l-3.18 9.74-.2.05a28.64 28.64 0 0 1-6.1.64Zm-13.94-7.1c5.53 8.55 18 6.17 19.65 5.8l3.3-10.1.36.15a10.06 10.06 0 0 0 3.57 1c6.34-.18 14.34-17.05 14.8-25.92v-.28c.4-7.56.89-17-7.68-18.64-12.76-2.5-20.23.92-23.54 3.19a12.86 12.86 0 0 0-5.76 8.08 34.72 34.72 0 0 0 2.16 19.66c.08.22.16.4.21.55v.32Z" transform="translate(19.13)"/><path class="cls-7" d="M252.16 127.11c-.94.26-3.8.88-3.8.88s-1.76 6.71-3.17 9.09.25 13.95 7 14.54.33 6.1-.41 8.21c-1.08 3-.11 5.75-6.33 6.95-4.15.79-11.11-4.14-7.59-10s6.58-11.71 3.23-19.21-.53 8.47-9.88 12.61-11.91 5.92-11.91 5.92-.22-3.81-1.57-6c-4.37-7.26-6.33-13.51-4.92-24.36s6.88-13.77 16.76-14.21 10.35 3.22 16.57.74c7.63-3.05 10.9 2.8 16.43 1.61.04-.01-1.82 10.8-10.41 13.23Z" transform="translate(19.13)"/><path class="cls-5" d="M230.57 143.47c1.06 3.5 4.34 5.6 7.34 4.69s4.56-4.48 3.5-8-4.35-5.6-7.34-4.69-4.56 4.53-3.5 8Z" transform="translate(19.13)"/><path class="cls-7" d="M236.47 148.73a5.78 5.78 0 0 1-3.15-1 7.76 7.76 0 0 1-2.85-9.4 5.47 5.47 0 0 1 8.19-2.48 7.54 7.54 0 0 1 3.1 4.19c1.11 3.68-.57 7.46-3.75 8.42a5 5 0 0 1-1.54.27Zm-1-13.08a4.66 4.66 0 0 0-1.33.2 4.92 4.92 0 0 0-3 2.81 6.78 6.78 0 0 0-.22 4.71 6.82 6.82 0 0 0 2.79 3.79 4.89 4.89 0 0 0 4.1.65c2.8-.85 4.26-4.22 3.26-7.52a6.77 6.77 0 0 0-2.79-3.79 5.16 5.16 0 0 0-2.78-.85Z" transform="translate(19.13)"/><path class="cls-7" d="M237.7 146.21a1.25 1.25 0 0 0 .43-.07c1-.32 1.48-1.63 1.53-1.78l-.94-.36c-.13.33-.52 1.05-.91 1.18a.36.36 0 0 1-.35-.07c-.31-.19-.3-.32-.25-.86a3 3 0 0 0-.68-2.48 5.11 5.11 0 0 0-1.8-1.29c-.81-.39-1-.49-.74-1.36a1 1 0 0 1 .53-.64 5.15 5.15 0 0 1 3.2.06l.3-1c-.1 0-2.5-.77-4 0a2 2 0 0 0-1 1.24c-.51 1.7.44 2.15 1.27 2.56a4 4 0 0 1 1.46 1 2 2 0 0 1 .46 1.73 1.63 1.63 0 0 0 .7 1.81 1.44 1.44 0 0 0 .79.33ZM267.28 303.64s-1.17 10.6-5.42 11.15-.63-5.82-.63-5.82-2.77 4.22-4.07 3.28-1.48-4.38.19-6.86 3.29-8.73 4.67-8.07 4.98.89 5.26 6.32Z" transform="translate(19.13)"/><path class="cls-5" d="M220.12 215.63s-4.44 21.8-7.11 33.73c10.31 12.34 25.06 29.2 29.67 34.12s1.08 1.41 12.46 4.39 15.92 10.86 17 20.22-2 5.89-3.09 3.8-3.91-13.9-7.11-13.69c0 0-2.47 1.45-.23 4.78s4.66 6 4.07 8.75-2.29.57-3.66-.58-4.34-4.87-6.28-6-8.44-2.45-10.75-6.27a81.45 81.45 0 0 0-7.72-4.45.43.43 0 0 1-.15-.15l-50-23.44a19 19 0 0 1-7.45-6.84v-.05a7.32 7.32 0 0 1-.85-1.37c-5.13-10.93-7.15-39.57-1-59.82S223 190 220.12 215.63Z" transform="translate(19.13)"/><path class="cls-7" d="M271.32 314.78c-1.38 0-2.69-2.56-2.75-2.67a30.49 30.49 0 0 1-1.13-3.11c-1.11-3.32-3.39-10.16-5.37-10.31a2.09 2.09 0 0 0-.77 1.22 3.65 3.65 0 0 0 .8 2.78c.39.58.79 1.14 1.17 1.69 1.88 2.65 3.5 4.94 3 7.45-.2 1-.56 1.51-1.11 1.69-.9.28-1.81-.58-2.7-1.4-.23-.21-.45-.42-.67-.6-.53-.45-1.26-1.23-2.11-2.13a25.22 25.22 0 0 0-4.1-3.84 16.78 16.78 0 0 0-2.4-1c-2.82-1.05-6.67-2.48-8.46-5.32a77.63 77.63 0 0 0-7.53-4.35.83.83 0 0 1-.3-.22L187 271.26a19.46 19.46 0 0 1-7.66-7 8.72 8.72 0 0 1-.91-1.48c-5.41-11.53-7-40.34-1-60.18 3.19-10.55 14.63-13.3 23.91-11.39 10.74 2.21 20.88 10.64 19.33 24.5 0 .22-4.41 21.64-7.06 33.5 9.74 11.65 24 27.94 29.07 33.45l.09-.14.38.62s1.48 1.41 12.18 4.22c10.28 2.69 16.11 9.63 17.34 20.64.61 5.51-.2 6.48-1 6.71a1.12 1.12 0 0 1-.35.07Zm-9.32-17.1c2.52 0 4.46 5.2 6.39 11 .45 1.33.83 2.48 1.08 3 .67 1.33 1.59 2.21 1.87 2.12 0 0 .86-.32.27-5.64-1.18-10.55-6.76-17.21-16.59-19.78-8.48-2.22-11.33-3.58-12.29-4.21l-.06.06-.36-.37c-4.73-5.05-19.66-22.14-29.69-34.15l-.16-.19.06-.24c2.59-11.62 6.94-32.89 7.1-33.7 1.47-13.21-8.25-21.26-18.54-23.38-8.84-1.81-19.73.76-22.74 10.7-5.94 19.64-4.36 48.09 1 59.46a7.22 7.22 0 0 0 .8 1.29l.06.1a18.45 18.45 0 0 0 7.25 6.64l50.07 23.48.08.09a84 84 0 0 1 7.73 4.47l.1.06.06.1c1.58 2.61 5.3 4 8 5a19 19 0 0 1 2.57 1.08 25.9 25.9 0 0 1 4.32 4 28.5 28.5 0 0 0 2 2.05c.23.19.46.41.7.63.52.48 1.37 1.29 1.71 1.18.12 0 .31-.31.44-.94.44-2.08-1.07-4.2-2.81-6.66-.39-.55-.79-1.12-1.18-1.71a4.57 4.57 0 0 1-.95-3.58 3.12 3.12 0 0 1 1.34-1.92l.1-.06h.27Z" transform="translate(19.13)"/><path class="cls-10" d="M208.39 164.13c-6.48-2.32-14.93-2.66-24.63 11S168.88 204 167.2 228.67c0 0 33.51 16.7 50.68.4 0 0 5.19-26.59 5.31-40.48s-7.66-21.9-14.8-24.46Z" transform="translate(19.13)"/><path class="cls-7" d="M183.59 207.07c-3.18-4.22-7.23-12.35-3-23.24l1 .38a22.42 22.42 0 0 0 5.68 25.32l-.65.79a20.24 20.24 0 0 1-3.03-3.25ZM198.56 235.67v1.05c13-.16 19.43-7 19.7-7.29l.1-.11 2.06-11-1-.19-2 10.65c-.88.89-7.2 6.74-18.86 6.89Z" transform="translate(19.13)"/><path class="cls-15" d="m150.48 434.83 16.72 6.93 13.22-19.95-20.94-8.68-9 21.7z"/><path class="cls-8" d="M153.34 435.55s-3.77-3.19-9.62-.28-6.6-1.43-7.63-2.47a6.45 6.45 0 0 0-4.88-2s-5.25 20.6-3.61 36.58L183 467s1.68-5.58-3.12-8.12S154 450.39 151.22 445s2.12-9.45 2.12-9.45Z" transform="translate(19.13)"/><path class="cls-7" d="M138.23 463.35h-.9a14.44 14.44 0 0 0-9.33-13.5l.29-.86c.07.01 9.87 3.52 9.94 14.36Z" transform="translate(19.13)"/><path class="cls-7" d="M127.21 462.28c0 2 .32 3.74.39 5.07L183 467a8.39 8.39 0 0 0-.25-5.07ZM156.31 454.76h-.11c-.51-.1-12.6-2.32-13.9-7.68s3-10.46 3.19-10.68l.69.59s-4.18 5-3 9.88c1.11 4.55 11.92 6.75 13.08 7l6.39-1.8.24.88Z" transform="translate(19.13)"/><path class="cls-7" transform="rotate(-19.29 162.827 393.83)" d="M150.18 449.6h6.11v.91h-6.11z"/><path class="cls-7" transform="rotate(-19.29 158.05 390.414)" d="M145.39 446.15h6.11v.91h-6.11z"/><path class="cls-10" d="M143.93 353.94c-7.17 9.71-10.63 11.06-19.1 38-2.39 7.62-7.61 69.11-7.61 69.11 4.76 5.63 36.44-9 55.28-7.67 0 0 17-64.3 11.65-107-1.47-11.64-27.71-9.38-40.22 7.56Z" transform="translate(19.13)"/><path class="cls-10" d="M123.08 284.83c-1.1 10.13 6 75.57 12.43 85.33 4.58 7 47.83 20.19 49-1 1-18.57 3.28-80.47 1.06-91.16-2.14-10.29-59.19-23.62-62.49 6.83Z" transform="translate(19.13)"/><path class="cls-9" d="m131.84 373-.79-.45c6.34-11.06 20.5-8.24 20.64-8.21l-.18.89c-.14-.02-13.66-2.7-19.67 7.77ZM189.42 262.78c-.46-7-24.76-18.63-43.21-16.94l-5.32 64.8a99.69 99.69 0 0 1 7.7 11.72c7.32 16.06 14 27.23 30.48 31.67 4.61-31.81 10.93-82.92 10.35-91.25Z" transform="translate(19.13)"/><path class="cls-15" d="m220.29 434.31 16.64 7.1 13.43-19.81-20.85-8.9-9.22 21.61z"/><path class="cls-8" d="M223.14 435.25s-3.75-3.23-9.62-.38-6.58-1.49-7.61-2.55a6.44 6.44 0 0 0-4.86-2.07s-5.45 20.54-4 36.54l55.41.19s1.73-5.57-3-8.15-25.74-8.73-28.51-14.17 2.19-9.41 2.19-9.41Z" transform="translate(19.13)"/><path class="cls-7" d="M207.74 462.9h-.9a14.42 14.42 0 0 0-9.22-13.59l.3-.86c.08.03 9.86 3.61 9.82 14.45Z" transform="translate(19.13)"/><path class="cls-7" d="M196.74 461.72a49.43 49.43 0 0 0 .33 5.07l55.41.19a8.38 8.38 0 0 0-.21-5.07ZM225.9 454.5h-.1c-.51-.1-12.58-2.44-13.83-7.82s3.12-10.43 3.31-10.64l.68.59c0 .05-4.23 5-3.1 9.85 1.06 4.57 11.85 6.87 13 7.11l6.4-1.74.24.88Z" transform="translate(19.13)"/><path class="cls-7" transform="rotate(-18.71 232.383 391.643)" d="M219.83 449.3h6.11v.91h-6.11z"/><path class="cls-7" transform="rotate(-18.71 227.628 388.147)" d="M215.07 445.81h6.11v.91h-6.11z"/><path class="cls-10" d="M190.26 364.38c-4 11.36-23.8 64.11-7.67 100.36 6.17 4 35.23-6.51 53.68-9.48 0 0 7.82-67.82-8.3-117.81-3.6-11.16-30.62 7.09-37.71 26.93Z" transform="translate(19.13)"/><path class="cls-10" d="M143.78 275c1.51 10.08 33.61 93.13 42.29 101 6.19 5.57 29 6.9 40.67-10.8s-19.35-102.78-24.21-112.56c-4.69-9.45-63.26-7.9-58.75 22.36Z" transform="translate(19.13)"/><path class="cls-5" d="M249 181.72c9.62 13.93 5.9 36.06-8.35 70.6s-10 43.67-17.74 50.86c0 0-63.36 34.12-110.54-14.31 0 0 6.1-9 28.84-49.53s27.74-52.07 40.72-66.06 40.9-15.57 49.26-9.25c7.49 5.67 10.37 6.97 17.81 17.69Z" transform="translate(19.13)"/><path class="cls-7" d="M174 315.2c-18.65 0-41.77-5.4-61.9-26.08l-.21-.21.17-.24c.06-.09 6.35-9.45 28.81-49.51 4.67-8.32 8.55-15.35 12-21.56 13-23.63 18.45-33.41 28.79-44.57 12.93-13.94 40.86-16 49.75-9.29 1 .79 2 1.49 2.88 2.14 5.53 4.08 8.58 6.33 15 15.64 9.2 13.31 6.71 34.52-8.3 70.94a201.8 201.8 0 0 0-11.39 36c-1.66 7.36-2.57 11.41-6.44 15l-.08.05a115.67 115.67 0 0 1-37.71 11.05 98.28 98.28 0 0 1-11.37.64Zm-61.19-26.37c24.22 24.71 52.74 27.24 72.44 25a115.6 115.6 0 0 0 37.43-10.95c3.68-3.45 4.57-7.42 6.2-14.62a202 202 0 0 1 11.42-36.07c14.91-36.17 17.42-57.18 8.38-70.27-6.36-9.2-9.37-11.42-14.84-15.46-.89-.65-1.84-1.35-2.89-2.14-8.48-6.41-36.32-4.23-48.78 9.2-10.28 11.09-15.67 20.85-28.69 44.43-3.43 6.21-7.31 13.24-12 21.56-20.48 36.63-27.54 47.62-28.66 49.32Z" transform="translate(19.13)"/><path class="cls-5" d="M257.82 253.18c5.47-4 13.4-7.93 21.21-11.79 5.2-2.93 22.11-12.2 22.11-12.24s4.22-3.17 12.36-10.74c7.41-6.88 10.2-5.38 12.23-4.76 2.48.77 10.66 6.94 16.27 11.91.91.81-.51 2.52-1.68 2.24-4.6-1.1-11.95-7-11.95-7s5.59 6.85 4.83 8.13c-.43.73-3.59 3.22-6.22 5.21-1.88 1.44-3.08 1-4.86-.57a45.76 45.76 0 0 0-3.87-3.25c-1.86-.91-3.63.88-4.45 4.12-1.38 5.5-6.63 5.66-7.79 5.63-6.76 8.53-20.65 29.47-30.73 37.66-19.78 16.16-29.14-16.03-17.46-24.55Z" transform="translate(19.13)"/><path class="cls-7" d="M265 282.6a10 10 0 0 1-3.74-.72c-4.55-1.82-7.9-7.08-8.72-13.71s1.13-12.4 5.09-15.28l.21.29-.21-.29c5.66-4.12 13.95-8.21 21.27-11.82 3.07-1.74 10.36-5.76 15.68-8.69l6.37-3.52c.21-.16 4.46-3.4 12.33-10.71 7.12-6.62 10.18-5.62 12.21-5l.36.12c2.52.78 10.74 7 16.41 12a1.31 1.31 0 0 1 .21 1.67 2.16 2.16 0 0 1-2.22 1.19c-3.1-.74-7.34-3.55-9.89-5.4 1.71 2.29 3.76 5.39 3.17 6.38-.13.24-.56 1-6.31 5.32-2.08 1.59-3.48 1-5.32-.59l-.68-.6a37.16 37.16 0 0 0-3.1-2.59 1.71 1.71 0 0 0-1.54 0c-1 .48-1.9 1.91-2.41 3.92-1.37 5.47-6.43 5.9-7.93 5.9-1.75 2.23-4 5.24-6.51 8.71-7.06 9.65-16.73 22.85-24.2 28.92-4.25 3.43-7.79 4.5-10.53 4.5Zm36.33-53.21c-.44.34-1.88 1.13-6.4 3.62-5.32 2.93-12.61 7-15.7 8.7-7.31 3.6-15.57 7.68-21.18 11.77-3.74 2.72-5.58 8.32-4.8 14.6s4 11.43 8.28 13.14c3.94 1.58 8.63.3 13.55-3.7 7.39-6 17-19.17 24.07-28.78 2.54-3.47 4.74-6.47 6.5-8.7l-.05-.28h.44c1 0 6.11-.09 7.43-5.36.56-2.22 1.58-3.82 2.8-4.39a2.45 2.45 0 0 1 2.16 0 30.14 30.14 0 0 1 3.26 2.7l.69.6c1.65 1.45 2.68 1.87 4.41.56 5.09-3.87 6-4.87 6.12-5.11.34-.58-1.86-4.11-4.8-7.72l-2.11-2.62 2.64 2.12c.07.06 7.34 5.84 11.81 6.91a1.45 1.45 0 0 0 1.41-.83.61.61 0 0 0-.05-.79c-5.61-5-13.7-11.08-16.14-11.83l-.37-.12c-2-.65-4.69-1.53-11.5 4.8-8.07 7.49-12.36 10.73-12.4 10.76Z" transform="translate(19.13)"/><path class="cls-7" d="m328 233.46-7.35-8.56a84.79 84.79 0 0 1 7.35 8.56ZM330.66 231.34l-7.88-10.76s5.85 7.07 7.88 10.76Z" transform="translate(19.13)"/><path class="cls-5" d="M268.78 224.87s7.82 25.51 8.31 30.58c1.08 11.18-10 31-18.44 24.46s-25-29.84-28.29-48.24 30.38-28.16 38.42-6.8Z" transform="translate(19.13)"/><path class="cls-7" d="M262.21 281.56a6.11 6.11 0 0 1-3.78-1.36c-8.08-6.28-25-29.45-28.42-48.46-1.71-9.53 6.15-16.25 14.17-18.46 9.3-2.56 20.61 0 24.93 11.46.32 1.05 7.84 25.61 8.32 30.65.83 8.63-5.2 21.57-11.74 25.17a7.28 7.28 0 0 1-3.48 1Zm-11.4-68.47a24.05 24.05 0 0 0-6.44.88c-7.72 2.13-15.29 8.56-13.66 17.64 3.38 18.85 20.15 41.81 28.15 48a5.5 5.5 0 0 0 6.5.32c6.22-3.42 12.17-16.22 11.37-24.47-.47-4.93-8.09-29.85-8.29-30.5-3.2-8.47-10.39-11.87-17.63-11.87Z" transform="translate(19.13)"/><path class="cls-5" d="M235 175.53c-6 .78-12.81 3.91-15 18.52s3.73 42.22 12.31 62.31c0 0 33.44 0 43.37-21.19 0 0-13.77-35.35-19.25-46.34s-14.74-14.15-21.43-13.3Z" transform="translate(19.13)"/><path class="cls-7" d="M232.38 256.72h-.23l-.1-.22c-9-21-14.41-48.48-12.33-62.5 2.27-15.4 9.8-18.12 15.27-18.82 6.55-.84 16.19 2.19 21.83 13.49 5.42 10.87 19.13 46 19.27 46.37l.05.14-.06.14c-9.91 21.17-43.29 21.4-43.7 21.4Zm2.71-80.83c-5.68.73-12.48 3.46-14.66 18.21-2.05 13.86 3.3 41 12.19 61.89 3-.05 33.38-1.12 42.74-20.84-1-2.48-13.95-35.67-19.18-46.15-5.47-11-14.79-13.92-21.09-13.11Z" transform="translate(19.13)"/><path class="cls-7" d="M240.27 234.15a20.72 20.72 0 0 1-15.34-18.43l.9-.09a19.8 19.8 0 0 0 14.63 17.63Z" transform="translate(19.13)"/><path class="cls-5" d="M258.48 279.23s3.59 3.64 8 2.57S279 268.24 279 268.24l2.76-11.91-6.73.72-9.7-.11-7.64 8.71Z" transform="translate(19.13)"/><path class="cls-9" d="M199.78 379.13c-5.38-6.09-14.51-3.63-14.6-3.6l-.38.1-15.66-35.42.83-.37 15.35 34.72c1.86-.41 10-1.81 15.14 4Z" transform="translate(19.13)"/><path class="cls-7" d="M163.4 274a28.52 28.52 0 0 1-13.88-12.88l.83-.36c.08.18 8.49 18.54 34 14.57l.14.9c-8.97 1.38-15.88.08-21.09-2.23Z" transform="translate(19.13)"/><path class="cls-9" d="M177.45 448.93c0-.17-5.21-17.37 3.45-54.38l.89.21c-8.6 36.72-3.52 53.73-3.47 53.89Z" transform="translate(19.13)"/><path class="cls-7" d="m157.73 210.32-.68-.33a159.39 159.39 0 0 1 25.4-37.8l.54.53a159 159 0 0 0-25.26 37.6Z" transform="translate(19.13)"/><path class="cls-5" d="M243.69 175.4a22.94 22.94 0 0 0 4.59 4.08c2.14 1.22-1.34 14.9-1.34 14.9l-10.95 9-20.55-2.25-1.71-23.5 11.2-7.25Z" transform="translate(19.13)"/><path class="cls-4" d="M410 161.75h130.25a3.89 3.89 0 0 1 3.89 3.89v88.24a5.67 5.67 0 0 1-5.67 5.67H411.8a5.67 5.67 0 0 1-5.67-5.67v-88.24a3.89 3.89 0 0 1 3.87-3.89Z"/><path class="cls-2" d="M521.06 161.75h-130a4 4 0 0 0-3.95 3.95v4.6H525v-4.6a4 4 0 0 0-3.94-3.95Z" transform="translate(19.13)"/><path class="cls-7" d="M525.28 170.57H386.85v-4.87a4.22 4.22 0 0 1 4.22-4.21h130a4.22 4.22 0 0 1 4.22 4.21Zm-137.9-.57h137.37v-4.3a3.69 3.69 0 0 0-3.69-3.69h-130a3.69 3.69 0 0 0-3.69 3.69Z" transform="translate(19.13)"/><path class="cls-13" d="M510.91 165.31a.95.95 0 1 0 .95.95.95.95 0 0 0-.95-.95Z" transform="translate(19.13)"/><path class="cls-10" d="M514.9 165.31a.95.95 0 1 0 0 1.89.95.95 0 0 0 0-1.89Z" transform="translate(19.13)"/><path class="cls-8" d="M518.88 165.31a.95.95 0 1 0 1 .95.95.95 0 0 0-1-.95Z" transform="translate(19.13)"/><path class="cls-13" d="M521.12 161.51H390.9a4.14 4.14 0 0 0-4.13 4.13v88.24a5.92 5.92 0 0 0 5.91 5.91h126.66a5.92 5.92 0 0 0 5.91-5.91v-88.24a4.14 4.14 0 0 0-4.13-4.13Zm3.66 92.37a5.44 5.44 0 0 1-5.44 5.43H392.68a5.44 5.44 0 0 1-5.44-5.43v-88.24a3.67 3.67 0 0 1 3.66-3.64h130.22a3.66 3.66 0 0 1 3.66 3.65Z" transform="translate(19.13)"/><path class="cls-7" d="M512.83 243.86H399.36a1.12 1.12 0 0 1-1.12-1.12 1.13 1.13 0 0 1 1.12-1.13h113.47a1.13 1.13 0 0 1 1.12 1.13 1.12 1.12 0 0 1-1.12 1.12Z" transform="translate(19.13)"/><path class="cls-10" d="M480.64 243.86h-81.28a1.12 1.12 0 0 1-1.12-1.12 1.13 1.13 0 0 1 1.12-1.13h81.28a1.13 1.13 0 0 1 1.12 1.13 1.12 1.12 0 0 1-1.12 1.12Z" transform="translate(19.13)"/><path class="cls-10" d="M485.14 242.74a3.38 3.38 0 1 1-3.38-3.38 3.38 3.38 0 0 1 3.38 3.38Z" transform="translate(19.13)"/><path class="cls-7" d="m473.49 205.53.01.01v-.01h-.01z"/><circle class="cls-10" cx="475.14" cy="203.86" r="24.48"/><path class="cls-5" d="m467 203.73-15.7-10.13a.91.91 0 0 0-1.39.76v20.25a.91.91 0 0 0 1.39.76l15.7-10.13a.9.9 0 0 0 0-1.51Z" transform="translate(19.13)"/><path class="cls-8" d="M416.11 374.24c-21.7-19.89-50.39 31.64-47.64 52h10.84c10.53-5.1 54.38-35.89 36.8-52Z" transform="translate(19.13)"/><path class="cls-7" d="M374.12 426.41c16.08-29.42 42.05-51.57 42.31-51.79l-.64-.76c-.26.22-26.37 22.49-42.54 52.07Z" transform="translate(19.13)"/><path class="cls-7" d="M386.87 406.25c.77-.08 18.93-2 24.45-4.05l-.34-.93c-5.41 2-24 4-24.21 4ZM400.06 388.92l.92-.37c-2.53-6.29-3-16.41-3-16.51h-1c.02.47.5 10.44 3.08 16.88ZM378.06 393c-9.78 13.3-8.63 26.25-7.52 34.5 15.16-13.27 9.93-32.37 7.52-34.5Z" transform="translate(19.13)"/><path class="cls-8" d="M346.34 365.24c-20.73-2.25-1.63 42.24 21.87 62.21l7.57-2.23c1.96-7.28-12.65-58.15-29.44-59.98Z" transform="translate(19.13)"/><path class="cls-7" d="m372.15 426.4.87-.47c-6.93-12.84-27.78-54.69-28-55.11l-.88.44c.22.43 21.07 42.29 28.01 55.14Z" transform="translate(19.13)"/><path class="cls-7" transform="rotate(-61.23 368.984 392.87)" d="M358.92 403.06h.99v11.93h-.99z"/><path class="cls-7" transform="rotate(-51.43 369.774 370.073)" d="M354.4 389.45h11.72v.99H354.4z"/><path class="cls-5" d="M398.54 426.29v6.64a52.27 52.27 0 0 1-4.55 21.5L392.8 457l-7.93 7.13h-22.56l-8.42-7.13-1.18-2.61a52.11 52.11 0 0 1-4.55-21.5v-6.64Z" transform="translate(19.13)"/><path class="cls-7" d="m353.65 457.31-1.28-2.73a52.83 52.83 0 0 1-4.58-21.65v-7h51.11v7a52.67 52.67 0 0 1-4.58 21.65l-1.18 2.61-8.14 7.34h-22.83Zm38.85-.49 1.16-2.54a52.06 52.06 0 0 0 4.51-21.35v-6.27h-49.65v6.27a51.91 51.91 0 0 0 4.48 21.35l1.15 2.53 8.25 7h22.29Z" transform="translate(19.13)"/><path class="cls-7" d="M379.83 442.48h37.53v.99h-37.53zM372.8 456.47h13.43v.99H372.8z"/></g></g></svg>